<?xml version="1.0" encoding="UTF-8"?>

<svg version="1.1" xmlns="http://www.w3.org/2000/svg" width="1024" height="1024" viewBox="0 0 1024 1024" fill="currentColor">
<path d="M0 0 C1.1 -0.1 2.1 -0.2 3.2 -0.3 C4.4 -0.4 5.6 -0.4 6.8 -0.5 C8 -0.5 9.2 -0.4 10.5 -0.4 C11.6 -0.3 12.8 -0.1 14 0 C15 0.3 15.9 0.6 16.9 0.8 C18.1 1.4 18.1 1.4 19.4 2 C20.6 2.7 20.6 2.7 21.8 3.4 C22.5 3.9 23.3 4.5 24 5 C24.7 5.6 25.4 6.2 26.1 6.8 C26.7 7.5 27.3 8.1 27.9 8.8 C28.8 9.9 28.8 9.9 29.6 10.9 C30.3 11.9 30.3 11.9 31 13 C31.4 13.6 31.7 14.2 32.1 14.9 C32.5 15.8 32.5 15.8 32.9 16.8 C33.2 17.7 33.2 17.7 33.6 18.7 C33.7 19.5 33.9 20.2 34 21 C34.1 21.9 34.2 22.9 34.3 23.9 C34.4 25.4 34.4 25.4 34.4 26.9 C34.4 28 34.4 29 34.3 30 C34.2 31 34.1 32 34 33 C33.7 34.2 33.7 34.2 33.3 35.5 C33 36.3 32.7 37 32.4 37.8 C32 38.5 31.6 39.2 31.3 40 C30.9 40.6 30.4 41.3 30 42 C29.5 42.7 29.1 43.3 28.6 44 C28.1 44.6 27.6 45.2 27.1 45.9 C26.6 46.4 26 47 25.5 47.6 C25 48 24.5 48.5 24 49 C23.1 49.6 22.2 50.3 21.3 50.9 C20.5 51.3 19.8 51.6 19 52 C18 52 17 52 16 52 C16 59.3 16 66.5 16 74 C20.2 74 20.2 74 24.6 74 C33.9 73.9 43.3 73.9 52.7 73.8 C58.4 73.8 64.1 73.8 69.7 73.8 C75.2 73.7 80.7 73.7 86.2 73.7 C88.3 73.7 90.4 73.7 92.5 73.7 C95.4 73.7 98.3 73.7 101.3 73.7 C102.1 73.6 103 73.6 103.9 73.6 C105.5 73.6 107.1 73.7 108.7 73.7 C109.4 73.8 110.2 73.9 111 74 C111.8 74.2 112.7 74.4 113.5 74.6 C115.1 75.1 116.6 75.7 118.1 76.2 C119.1 76.6 119.1 76.6 120 77 C120.8 77.5 121.6 78.1 122.5 78.6 C123.8 79.8 125 81 126.3 82.2 C127.1 83.1 127.1 83.1 128 84 C128.8 85 129.6 86 130.4 87 C131.2 88.5 131.2 88.5 132 90 C132.4 90.9 132.7 91.8 133.1 92.8 C133.3 93.7 133.3 93.7 133.6 94.7 C133.7 95.4 133.9 96.2 134 97 C134.1 98 134.1 99 134.2 100 C134.3 103.8 134.3 107.5 134.3 111.3 C134.3 112.8 134.3 114.2 134.3 115.7 C134.3 119.6 134.3 123.5 134.3 127.5 C134.3 129.9 134.3 132.4 134.3 134.8 C134.4 143.4 134.4 152 134.4 160.6 C134.4 168.6 134.4 176.6 134.4 184.6 C134.4 191.5 134.5 198.4 134.5 205.3 C134.5 209.4 134.5 213.5 134.5 217.6 C134.5 221.4 134.5 225.3 134.5 229.1 C134.5 230.6 134.5 232 134.5 233.4 C134.5 235.3 134.5 237.2 134.5 239.2 C134.5 240.4 134.4 241.5 134.4 242.7 C134.2 244.3 134.2 244.3 134 246 C133.7 247 133.4 248 133.1 249 C132.6 250.4 132.6 250.4 132.1 251.7 C131.7 252.5 131.4 253.3 131 254.1 C130.7 254.7 130.3 255.3 130 256 C129.4 256.9 128.8 257.9 128.2 258.8 C127.5 259.5 126.8 260.3 126 261 C125.4 261.4 124.8 261.9 124.2 262.3 C122.9 263.2 121.6 264.1 120.3 264.9 C119.5 265.3 118.8 265.6 118 266 C117 266.3 116.1 266.7 115.1 267.1 C114.4 267.2 113.8 267.4 113.2 267.6 C112.5 267.7 111.7 267.9 111 268 C110.2 268.1 109.3 268.1 108.5 268.2 C105.5 268.2 102.6 268.2 99.6 268.2 C98.5 268.2 97.4 268.2 96.3 268.2 C92.9 268.2 89.5 268.2 86.1 268.1 C83.7 268.1 81.4 268.1 79.1 268.1 C73.4 268.1 67.7 268 62 268 C62 276.2 62 284.5 62 293 C66.1 293 70.2 292.9 74.5 292.9 C77.8 292.9 81.1 292.9 84.4 292.8 C87.9 292.8 91.4 292.8 94.9 292.8 C98.9 292.7 102.9 292.7 106.9 292.7 C108.8 292.7 108.8 292.7 110.6 292.7 C113 292.7 115.3 292.7 117.7 292.7 C118.8 292.8 119.9 292.9 121 293 C122.1 293.2 123.2 293.4 124.4 293.6 C126.4 294.1 128.4 294.6 130.4 295.1 C131.7 295.5 131.7 295.5 133 296 C133.8 296.4 134.6 296.9 135.4 297.3 C136.1 297.8 136.7 298.2 137.4 298.7 C138 299.2 138.6 299.7 139.3 300.3 C139.8 300.8 140.4 301.4 141 302 C141.6 302.6 142.1 303.2 142.7 303.9 C143.5 304.8 143.5 304.8 144.3 305.8 C144.8 306.5 145.3 307.2 145.7 307.9 C146.2 308.6 146.6 309.3 147 310 C147.3 310.7 147.7 311.4 148 312.1 C148.5 313.2 148.5 313.2 148.9 314.3 C149.1 315 149.3 315.8 149.5 316.5 C149.7 317.4 149.8 318.2 150 319 C150.1 320 150.1 321 150.2 322 C150.2 324 150.2 325.9 150.1 327.9 C150.1 328.9 150.1 328.9 150 330 C151 330.3 151 330.3 152.1 330.7 C153.5 331.3 153.5 331.3 155 332 C156 332.7 157.1 333.5 158.1 334.2 C159.3 335.1 160.4 336 161.6 336.9 C162.2 337.4 162.8 337.9 163.4 338.4 C165.9 340.4 168.3 342.4 170.7 344.4 C172.7 346.2 174.8 348.1 176.8 350 C179 352.1 181.2 354.2 183.4 356.4 C184.1 357.1 184.8 357.9 185.6 358.7 C186.3 359.5 187 360.3 187.7 361.2 C188.9 362.7 190.1 364.2 191.3 365.7 C192.8 367.7 194.2 369.6 195.6 371.6 C197 373.7 198.4 375.8 199.7 377.9 C200.5 379.3 201.4 380.6 202.2 382 C202.9 383.3 203.6 384.7 204.3 386 C205.3 388 206.3 390 207.2 392 C208.4 394.7 209.6 397.3 210.7 400 C211.7 402.7 212.8 405.3 213.7 408 C214 408.7 214.2 409.3 214.4 410 C214.6 410.7 214.8 411.3 215 412 C215.3 413.4 215.6 414.8 215.8 416.2 C216 417.6 216.3 418.9 216.6 420.2 C216.9 421.5 217.2 422.7 217.5 424 C218 425 218.5 426 219 427 C219.9 427.5 220.9 428 221.8 428.6 C222.9 428.9 224 429.2 225.2 429.5 C226.3 429.7 227.5 430 228.7 430.2 C230.3 430.6 230.3 430.6 232 431 C232.9 431.5 233.7 431.9 234.6 432.4 C235.4 433 236.1 433.5 236.9 434.1 C237.6 434.7 238.3 435.3 239 436 C239.7 436.6 240.3 437.3 241 438 C241.7 438.8 242.3 439.5 243 440.3 C243.6 441.1 244.2 442 244.9 442.8 C245.4 443.7 246 444.5 246.6 445.4 C247 446.3 247.5 447.1 248 448 C248.4 448.8 248.7 449.7 249.1 450.5 C249.4 451.3 249.7 452.2 249.9 453 C250.1 453.8 250.4 454.6 250.6 455.5 C250.7 456.3 250.9 457.1 251 458 C251.1 458.8 251.2 459.6 251.3 460.5 C251.3 461.3 251.3 462.1 251.4 463 C251.3 463.8 251.3 464.6 251.3 465.5 C251.2 466.3 251.1 467.1 251 468 C250.8 468.8 250.7 469.6 250.5 470.5 C250.2 471.7 250.2 471.7 249.9 473 C249.6 473.8 249.3 474.6 249 475.5 C248.7 476.3 248.4 477.1 248 478 C247.6 478.9 247.2 479.7 246.8 480.6 C246.1 481.9 246.1 481.9 245.4 483.2 C244.9 484 244.3 484.8 243.8 485.7 C243.2 486.4 242.6 487.2 242 488 C241.3 488.7 240.7 489.3 240 490 C239.2 490.6 238.5 491.3 237.8 491.9 C237 492.4 236.2 493 235.4 493.5 C234.6 494 233.8 494.5 233 495 C232.2 495.4 231.4 495.8 230.6 496.3 C229.7 496.6 228.9 497 228.1 497.4 C226.8 497.8 226.8 497.8 225.5 498.3 C224.7 498.5 223.9 498.8 223 499 C222.2 499.2 221.3 499.4 220.5 499.5 C219.7 499.6 218.8 499.8 218 499.9 C216.8 500 216.8 500 215.5 500 C214.7 500 213.9 500 213 500 C212.2 499.9 211.3 499.8 210.4 499.7 C209.6 499.6 208.7 499.5 207.9 499.3 C207 499.1 206.2 498.9 205.4 498.7 C204.2 498.4 204.2 498.4 203 498 C202.3 497.8 201.6 497.5 200.9 497.3 C200.3 497 199.6 496.7 198.9 496.4 C198.3 496 197.7 495.7 197 495.3 C196.3 494.9 195.7 494.4 195 494 C194.2 493.5 193.5 492.9 192.7 492.3 C191.9 491.7 191.2 491.1 190.4 490.4 C189.6 489.8 188.9 489.1 188.1 488.4 C187.4 487.6 186.7 486.8 186 486 C185.4 485.1 184.8 484.1 184.1 483.2 C183.1 481.3 182.1 479.4 181.1 477.5 C180.7 476.7 180.4 475.9 180 475 C179.8 474.4 179.6 473.8 179.4 473.1 C179.2 472.4 179.1 471.7 179 471 C178.9 469.9 178.8 468.8 178.8 467.7 C178.7 465.7 178.7 463.8 178.7 461.9 C178.7 461.2 178.7 460.5 178.7 459.8 C178.8 458.6 178.9 457.3 179 456 C179.4 454.5 179.4 454.5 179.8 453 C180.1 452.2 180.4 451.3 180.8 450.4 C181.1 449.7 181.5 448.9 181.9 448.1 C182.2 447.4 182.6 446.7 183 446 C183.6 445 184.1 443.9 184.7 442.9 C185.5 441.9 186.2 441 187 440 C187.7 439.3 188.4 438.6 189.1 437.9 C190.7 436.5 192.2 435.1 193.8 433.7 C194.5 433.2 195.2 432.6 196 432 C197.1 431.4 197.1 431.4 198.3 430.8 C198.8 430.5 199.4 430.3 200 430 C199.6 428 199.3 426 198.9 423.9 C198.4 422 198 420 197.5 418 C197.4 417.3 197.2 416.7 197 416 C196.6 414.8 196.2 413.6 195.8 412.3 C195.1 410.5 194.4 408.6 193.6 406.8 C192.5 404.2 191.2 401.5 190 398.9 C189 396.7 187.9 394.6 186.8 392.4 C186 391 185.3 389.6 184.5 388.1 C183.7 386.7 182.8 385.4 182 384 C181.2 382.7 180.3 381.5 179.4 380.3 C178.6 379.1 177.7 377.9 176.8 376.8 C175.8 375.6 174.9 374.5 174 373.4 C172.5 371.6 170.9 369.9 169.4 368.2 C167.2 365.9 164.9 363.6 162.7 361.3 C161.7 360.4 160.7 359.4 159.7 358.5 C159.1 358 158.6 357.5 158 357 C156.8 356.1 155.5 355.2 154.3 354.3 C153.7 353.9 153.1 353.4 152.4 353 C151.7 352.5 151.7 352.5 151 352 C151 353.4 151 353.4 151 354.7 C151 376.7 150.9 398.7 150.8 420.7 C150.8 431.4 150.7 442 150.7 452.6 C150.7 461.9 150.7 471.2 150.6 480.4 C150.6 485.3 150.6 490.3 150.6 495.2 C150.6 499.8 150.6 504.4 150.6 509 C150.6 510.7 150.5 512.4 150.6 514.1 C150.6 517.1 150.5 520.2 150.5 523.2 C150.4 523.9 150.4 524.6 150.4 525.3 C150.3 526.5 150.1 527.7 150 529 C149.7 530.1 149.4 531.1 149.1 532.2 C148.8 533.1 148.4 534 148.1 534.9 C147.7 535.7 147.4 536.4 147 537.2 C146.7 537.8 146.3 538.4 146 539 C145.5 539.8 144.9 540.7 144.4 541.6 C143.2 542.8 142.1 544 140.9 545.2 C140.3 545.8 139.7 546.4 139 547 C138.3 547.5 137.7 548 137 548.5 C136.3 549 135.6 549.4 134.9 549.9 C134.3 550.2 133.7 550.6 133.1 551 C132.4 551.3 131.7 551.7 131 552 C129.6 552.5 129.6 552.5 128.2 553 C127.2 553.4 126.1 553.7 125 554 C124 554.1 123.1 554.2 122.1 554.2 C121.1 554.2 120.1 554.2 119.1 554.2 C117.9 554.2 116.8 554.2 115.6 554.2 C114.4 554.2 113.2 554.2 111.9 554.2 C110.7 554.2 109.4 554.2 108.1 554.2 C104.8 554.2 101.5 554.2 98.2 554.1 C94.8 554.1 91.4 554.1 88 554.1 C81.3 554.1 74.7 554 68 554 C68 555 68 556 68 557 C68.1 566.2 68.2 575.4 68.2 584.6 C68.2 589.4 68.3 594.1 68.3 598.9 C68.3 603.4 68.4 608 68.4 612.6 C68.4 614.3 68.4 616.1 68.4 617.8 C68.5 620.3 68.5 622.7 68.5 625.2 C68.5 625.9 68.5 626.6 68.5 627.4 C68.5 628 68.5 628.7 68.5 629.4 C68.3 630.6 68.2 631.8 68 633 C67.1 634.5 67.1 634.5 66.2 635.9 C65.5 636.6 64.8 637.3 64 638 C62.7 638.2 61.4 638.4 60.1 638.6 C59.4 638.6 58.8 638.7 58.1 638.7 C57.1 638.3 57.1 638.3 56 638 C55.1 637.3 54.3 636.6 53.4 635.9 C52.2 634.5 52.2 634.5 51 633 C50.8 631.8 50.6 630.6 50.4 629.4 C50.4 628.7 50.4 628.1 50.4 627.4 C50.4 626.3 50.4 626.3 50.4 625.2 C50.4 624 50.4 624 50.4 622.8 C50.4 620.3 50.5 617.8 50.5 615.2 C50.5 613.7 50.5 612.1 50.5 610.5 C50.6 604.8 50.6 599 50.7 593.2 C50.8 580.3 50.9 567.3 51 554 C22 554 -7.1 554 -37 554 C-36.8 579.8 -36.8 579.8 -36.5 605.5 C-36.5 610.5 -36.5 610.5 -36.5 612.9 C-36.5 614.5 -36.5 616.1 -36.5 617.8 C-36.4 620.2 -36.4 622.7 -36.4 625.2 C-36.4 625.9 -36.4 626.6 -36.4 627.4 C-36.4 628 -36.4 628.7 -36.4 629.4 C-36.6 630.6 -36.8 631.8 -37 633 C-38.1 634.5 -38.1 634.5 -39.3 635.9 C-40.6 637 -40.6 637 -42 638 C-43.2 638.2 -44.3 638.4 -45.5 638.6 C-46.7 638.4 -47.8 638.2 -49 638 C-49.9 637.3 -50.8 636.6 -51.7 635.9 C-52.4 635 -53.2 634 -54 633 C-54.3 631.2 -54.3 631.2 -54.6 629.4 C-54.6 628.7 -54.6 628.1 -54.6 627.4 C-54.6 626.6 -54.6 625.9 -54.6 625.2 C-54.6 624 -54.6 624 -54.6 622.8 C-54.6 620.3 -54.5 617.8 -54.5 615.2 C-54.5 613.5 -54.5 611.7 -54.5 609.9 C-54.4 605.3 -54.4 600.7 -54.3 596 C-54.3 591.3 -54.3 586.6 -54.2 581.8 C-54.2 572.6 -54.1 563.3 -54 554 C-54.7 554 -55.4 554 -56.1 554 C-62.7 554.1 -69.2 554.2 -75.8 554.2 C-79.1 554.2 -82.5 554.3 -85.9 554.3 C-89.8 554.4 -93.7 554.4 -97.6 554.4 C-98.7 554.4 -99.9 554.4 -101.2 554.5 C-103.4 554.5 -105.7 554.4 -107.9 554.4 C-109.4 554.2 -109.4 554.2 -111 554 C-112 553.7 -113 553.4 -114 553.1 C-114.9 552.8 -115.7 552.4 -116.7 552.1 C-117.4 551.7 -118.2 551.4 -119 551 C-119.7 550.7 -120.3 550.4 -121 550 C-121.9 549.4 -122.8 548.8 -123.8 548.2 C-125.2 546.9 -126.6 545.6 -128 544.3 C-128.7 543.5 -129.3 542.8 -130 542 C-130.5 541.1 -131.1 540.3 -131.6 539.4 C-132.1 538.5 -132.5 537.6 -133 536.7 C-133.4 535.9 -133.7 535 -134.1 534.2 C-134.4 533.5 -134.7 532.7 -135 532 C-135.5 530.5 -135.5 530.5 -136 529 C-136.1 527.4 -136.1 527.4 -136.1 525.9 C-136.1 524.6 -136.2 523.3 -136.2 521.9 C-136.2 521.2 -136.2 520.5 -136.2 519.7 C-136.2 517.3 -136.2 514.8 -136.2 512.4 C-136.2 510.7 -136.2 508.9 -136.2 507.2 C-136.3 502.4 -136.3 497.7 -136.3 493 C-136.3 488 -136.4 483 -136.4 478.1 C-136.4 468.7 -136.5 459.3 -136.5 450 C-136.6 439.3 -136.6 428.6 -136.7 417.9 C-136.8 395.9 -136.9 374 -137 352 C-138.4 353.1 -139.9 354.2 -141.3 355.3 C-142.1 355.9 -142.9 356.5 -143.7 357.2 C-144.4 357.8 -145.2 358.4 -146 359 C-147.2 360 -148.4 361.1 -149.6 362.2 C-151.3 363.8 -153 365.5 -154.7 367.2 C-155.9 368.5 -157.1 369.8 -158.3 371.1 C-158.9 371.7 -159.4 372.3 -160 373 C-161 374.3 -162.1 375.6 -163.1 376.9 C-164 378.2 -165 379.5 -165.9 380.9 C-166.8 382.2 -167.7 383.6 -168.5 384.9 C-169.8 386.9 -171 389 -172.2 391 C-173.3 393 -174.3 395 -175.4 397.1 C-176 398.4 -176.7 399.7 -177.3 401 C-177.9 402.4 -178.4 403.7 -179 405 C-179.5 406.3 -180 407.7 -180.5 409 C-181 410.3 -181.4 411.6 -181.9 412.9 C-182.6 415.2 -183.3 417.6 -184 420 C-184.5 422 -184.9 424 -185.3 425.9 C-185.6 427.3 -185.8 428.6 -186 430 C-185.4 430.3 -184.9 430.7 -184.3 431 C-182.7 432 -181.1 433 -179.5 434.1 C-178.3 435 -178.3 435 -177 436 C-176.3 436.7 -175.5 437.4 -174.8 438.1 C-174.1 438.8 -173.4 439.5 -172.7 440.2 C-172 441 -171.4 441.8 -170.7 442.6 C-170.2 443.4 -169.6 444.2 -169 445 C-168.5 445.7 -168.1 446.5 -167.6 447.2 C-167.2 448 -166.9 448.7 -166.5 449.5 C-166.1 450.7 -166.1 450.7 -165.6 452 C-165.4 453 -165.2 454 -165 455 C-164.9 456 -164.9 456 -164.8 457 C-164.7 458.4 -164.6 459.9 -164.5 461.3 C-164.5 462.8 -164.5 464.3 -164.5 465.8 C-164.6 467.2 -164.7 468.7 -164.8 470.1 C-164.9 471 -164.9 471 -165 472 C-165.3 473 -165.5 473.9 -165.8 474.9 C-166.3 476 -166.3 476 -166.8 477.2 C-167.1 477.9 -167.5 478.5 -167.9 479.2 C-168.2 479.8 -168.6 480.4 -169 481 C-169.6 482 -170.1 483 -170.7 484.1 C-171.5 485 -172.2 486 -173 487 C-173.6 487.7 -174.2 488.3 -174.9 489 C-175.6 489.7 -176.3 490.4 -177.1 491.1 C-177.9 491.8 -178.7 492.5 -179.5 493.2 C-180.3 493.8 -181.1 494.4 -182 495 C-183.2 495.7 -183.2 495.7 -184.5 496.4 C-185.3 496.8 -186.2 497.1 -187.1 497.5 C-188.4 497.9 -188.4 497.9 -189.8 498.4 C-190.9 498.6 -191.9 498.8 -193 499 C-194.3 499.1 -195.6 499.2 -196.9 499.4 C-198.3 499.4 -199.7 499.5 -201.1 499.5 C-202.4 499.5 -203.8 499.4 -205.2 499.4 C-206.4 499.3 -207.7 499.1 -209 499 C-210 498.8 -211 498.5 -212 498.3 C-212.8 498 -213.6 497.7 -214.5 497.4 C-215.3 497 -216 496.6 -216.8 496.3 C-218.3 495.4 -219.7 494.6 -221.2 493.7 C-222.2 493 -222.2 493 -223.2 492.3 C-223.9 491.8 -224.5 491.3 -225.2 490.8 C-225.8 490.2 -226.4 489.6 -227 489 C-227.6 488.3 -228.1 487.6 -228.7 486.9 C-229.2 486.1 -229.8 485.4 -230.3 484.6 C-230.8 483.9 -231.3 483.1 -231.8 482.3 C-232.2 481.5 -232.6 480.8 -233 480 C-233.3 479.3 -233.7 478.7 -234 478 C-234.3 477.4 -234.5 476.7 -234.8 476.1 C-235 475.4 -235.2 474.8 -235.5 474.1 C-235.7 473.1 -235.7 473.1 -236 472 C-236.2 471.2 -236.3 470.5 -236.5 469.7 C-236.6 468.4 -236.6 468.4 -236.8 467.2 C-236.9 466.3 -236.9 465.5 -237 464.6 C-237 463.8 -237 462.9 -237 462 C-236.9 460.7 -236.9 460.7 -236.8 459.3 C-236.7 458.4 -236.6 457.5 -236.4 456.6 C-236.1 455.2 -236.1 455.2 -235.8 453.8 C-235.6 452.9 -235.3 452 -235 451 C-234.4 449.6 -234.4 449.6 -233.8 448.1 C-233.3 447.2 -232.9 446.2 -232.4 445.2 C-231.8 444.3 -231.3 443.4 -230.8 442.5 C-230.2 441.7 -229.6 440.9 -229 440 C-228.4 439.3 -227.8 438.6 -227.2 437.9 C-226.6 437.3 -226 436.7 -225.3 436.1 C-224.3 435.3 -224.3 435.3 -223.3 434.5 C-222.5 434 -221.8 433.5 -221 433 C-220.1 432.5 -219.2 432 -218.3 431.5 C-216.4 430.6 -214.6 429.7 -212.7 428.8 C-211.4 428.4 -211.4 428.4 -210 428 C-208.9 428 -207.8 427.9 -206.7 427.9 C-205.8 427.9 -204.9 428 -204 428 C-203.9 427.3 -203.9 426.7 -203.8 426 C-203.5 423.9 -203.2 421.8 -202.8 419.8 C-202.5 418.5 -202.3 417.3 -202 416 C-201.7 414.7 -201.3 413.3 -201 412 C-200.3 409.8 -199.6 407.6 -198.9 405.4 C-198.3 403.8 -197.7 402.2 -197.1 400.6 C-196.3 398.8 -195.5 397 -194.7 395.2 C-193.3 392.1 -191.8 389.2 -190.2 386.2 C-188.7 383.3 -187.1 380.4 -185.5 377.5 C-184.6 376 -183.6 374.4 -182.7 372.9 C-181.8 371.7 -181 370.5 -180.2 369.4 C-179 367.8 -177.7 366.3 -176.5 364.8 C-175.7 363.9 -174.8 363 -174 362 C-173.6 361.5 -173.1 361 -172.7 360.5 C-170.8 358.4 -169 356.3 -167.1 354.2 C-165 352 -162.8 349.8 -160.6 347.6 C-159 346.2 -157.4 344.7 -155.8 343.3 C-153.6 341.5 -151.4 339.7 -149.1 338 C-147.7 337 -146.4 336 -145 334.9 C-144 334.2 -144 334.2 -143 333.5 C-142.4 333 -141.8 332.6 -141.1 332.1 C-140.1 331.4 -139.1 330.7 -138 330 C-137.3 330 -136.7 330 -136 330 C-136 329.3 -136.1 328.7 -136.1 328 C-136.2 327.1 -136.2 326.1 -136.2 325.2 C-136.2 324.2 -136.2 323.2 -136.2 322.1 C-136.2 321.1 -136.1 320.1 -136 319 C-135.7 317.6 -135.7 317.6 -135.4 316.1 C-135.1 315.2 -134.7 314.3 -134.4 313.3 C-134.1 312.4 -133.7 311.5 -133.3 310.6 C-132.9 309.7 -132.4 308.9 -132 308 C-131.5 307.3 -131.1 306.5 -130.6 305.7 C-129.8 304.7 -129.8 304.7 -129 303.7 C-128.4 303.1 -127.8 302.4 -127.2 301.8 C-126.5 301.2 -125.7 300.6 -125 300 C-124 299.4 -123.1 298.8 -122.1 298.2 C-120.1 297.2 -118 296.1 -116 295.1 C-115 294.8 -114 294.4 -113 294 C-112.1 293.8 -111.1 293.6 -110.2 293.4 C-109.1 293.3 -108.1 293.1 -107 293 C-106 293 -105 292.9 -104 292.9 C-102.5 292.9 -102.5 292.9 -100.9 292.9 C-99.7 292.9 -98.5 292.9 -97.3 292.9 C-95.4 292.9 -95.4 292.9 -93.5 292.9 C-91.6 292.9 -91.6 292.9 -89.6 292.9 C-86.1 292.9 -82.7 292.9 -79.2 292.9 C-75.7 292.9 -72.2 292.9 -68.7 293 C-61.8 293 -54.9 293 -48 293 C-48 284.8 -48 276.5 -48 268 C-51.4 268 -54.8 268.1 -58.3 268.1 C-61.7 268.2 -65 268.2 -68.3 268.2 C-70.6 268.2 -72.9 268.3 -75.2 268.3 C-78.6 268.4 -81.9 268.4 -85.2 268.4 C-86.2 268.4 -87.2 268.4 -88.3 268.5 C-89.3 268.5 -90.2 268.5 -91.3 268.5 C-92.7 268.4 -92.7 268.4 -94.1 268.3 C-95.1 268.2 -96 268.1 -97 268 C-98 267.7 -99 267.5 -100 267.2 C-101.9 266.6 -103.8 265.9 -105.6 265.2 C-106.4 264.8 -107.2 264.4 -108 264 C-108.7 263.5 -109.4 262.9 -110.2 262.4 C-111 261.6 -111 261.6 -111.9 260.8 C-112.5 260.2 -113 259.6 -113.6 258.9 C-114 258.3 -114.5 257.7 -115 257 C-115.4 256.3 -115.8 255.6 -116.3 254.9 C-116.6 254.2 -117 253.5 -117.4 252.8 C-117.7 252.2 -118 251.5 -118.3 250.9 C-118.5 250.3 -118.8 249.6 -119 249 C-119.2 248.4 -119.4 247.9 -119.5 247.3 C-119.8 246.1 -119.8 246.1 -120 245 C-120 244.1 -120.1 243.2 -120.1 242.2 C-120.1 241.2 -120.1 240.1 -120.1 239 C-120.2 237.7 -120.2 236.5 -120.2 235.2 C-120.2 233.9 -120.2 232.5 -120.2 231.1 C-120.2 229.7 -120.2 228.3 -120.2 226.8 C-120.2 222.1 -120.2 217.4 -120.2 212.6 C-120.2 211 -120.2 209.4 -120.3 207.7 C-120.3 200.1 -120.3 192.4 -120.3 184.7 C-120.3 175.9 -120.3 167 -120.4 158.2 C-120.4 151.4 -120.4 144.5 -120.4 137.7 C-120.4 133.6 -120.4 129.5 -120.5 125.4 C-120.5 121.6 -120.5 117.8 -120.5 113.9 C-120.5 112.5 -120.5 111.1 -120.5 109.7 C-120.5 107.8 -120.5 105.8 -120.5 103.9 C-120.4 102.7 -120.4 101.6 -120.4 100.4 C-120.2 98.7 -120.2 98.7 -120 97 C-119.7 95.9 -119.5 94.9 -119.2 93.8 C-118.9 92.8 -118.5 91.9 -118.2 90.9 C-117.7 89.6 -117.7 89.6 -117.2 88.3 C-116.8 87.6 -116.4 86.8 -116 86 C-115.4 85.2 -114.8 84.4 -114.2 83.6 C-113.6 82.9 -113 82.3 -112.4 81.6 C-111.8 81 -111.2 80.4 -110.6 79.8 C-109.7 79.2 -108.9 78.6 -108 78 C-107.3 77.7 -106.6 77.3 -105.9 77 C-104.2 76.2 -102.5 75.5 -100.7 74.9 C-99.8 74.6 -98.9 74.3 -98 74 C-97.2 73.9 -96.4 73.8 -95.6 73.6 C-94.8 73.6 -94 73.6 -93.2 73.5 C-91.5 73.5 -89.8 73.5 -88.1 73.5 C-87.1 73.5 -86.2 73.5 -85.2 73.5 C-82.1 73.5 -79.1 73.6 -76 73.6 C-73.9 73.6 -71.7 73.6 -69.6 73.6 C-64 73.6 -58.4 73.7 -52.8 73.7 C-47.1 73.8 -41.4 73.8 -35.6 73.8 C-24.4 73.8 -13.2 73.9 -2 74 C-2 66.7 -2 59.5 -2 52 C-3.3 51.7 -4.6 51.3 -6 51 C-6.7 50.6 -7.3 50.2 -8 49.8 C-9.4 48.8 -10.7 47.7 -12.1 46.7 C-12.7 46.1 -13.4 45.6 -14 45 C-14.8 44 -15.6 43 -16.4 42 C-16.9 41 -17.4 40 -18 39 C-18.4 38.1 -18.7 37.2 -19.1 36.2 C-19.5 34.6 -19.5 34.6 -20 33 C-20.2 31.5 -20.2 31.5 -20.4 29.9 C-20.4 28.9 -20.4 27.8 -20.4 26.8 C-20.4 25.1 -20.4 25.1 -20.4 23.3 C-20.2 22.2 -20.1 21.1 -20 20 C-19.7 19.1 -19.4 18.1 -19.2 17.2 C-18.8 16.3 -18.4 15.5 -18 14.6 C-17.3 13.4 -17.3 13.4 -16.6 12.2 C-16.1 11.5 -15.5 10.8 -15 10 C-14.4 9.3 -13.8 8.6 -13.1 7.9 C-12.5 7.3 -11.8 6.7 -11.1 6.1 C-10.4 5.5 -9.7 5 -9 4.4 C-8 3.7 -8 3.7 -7 3 C-6 2.4 -4.9 1.7 -3.9 1.1 C-3.3 0.9 -2.7 0.7 -2.2 0.4 C-1.1 0.2 -1.1 0.2 0 0 Z M4 17 C2.4 18 2.4 18 0.7 19.1 C-0.2 20 -1.1 21 -2 22 C-2.4 23.2 -2.7 24.3 -3.1 25.5 C-3 26.7 -3 27.8 -3 29 C-2.6 29.9 -2.3 30.8 -1.9 31.8 C-1.3 32.5 -0.7 33.2 0 34 C0.9 34.6 1.8 35.3 2.8 35.9 C4.4 36.5 4.4 36.5 6 37 C7.2 36.8 8.4 36.6 9.7 36.4 C10.8 36 11.9 35.5 13 35 C13.6 34.4 14.2 33.8 14.9 33.2 C15.2 32.5 15.6 31.8 16 31 C16.4 29.5 16.4 29.5 16.9 28.1 C16.9 27.1 17 26 17 25 C16.6 24.1 16.2 23.2 15.8 22.3 C15.2 21.5 14.6 20.8 14 20 C13.1 19.1 13.1 19.1 12.2 18.2 C11.5 17.8 10.7 17.4 10 17 C9.1 16.8 8.1 16.7 7.1 16.5 C5.6 16.7 5.6 16.7 4 17 Z M-93 91 C-93.7 91.2 -94.3 91.4 -95 91.6 C-95.9 92 -95.9 92 -96.9 92.3 C-98.4 93.2 -98.4 93.2 -100 94 C-100.7 95 -101.3 96 -102 97 C-102.2 97.9 -102.4 98.9 -102.6 99.8 C-102.7 100.9 -102.9 101.9 -103 103 C-103 103.9 -103.1 104.9 -103.1 105.9 C-103.1 106.9 -103.1 107.8 -103.1 108.9 C-103.1 110 -103.1 111.2 -103.1 112.4 C-103.1 113.6 -103.1 114.9 -103.1 116.1 C-103.1 117.5 -103.2 118.8 -103.2 120.2 C-103.2 123.8 -103.2 127.4 -103.2 131 C-103.2 133.3 -103.2 135.6 -103.2 137.8 C-103.2 145.8 -103.2 153.7 -103.2 161.6 C-103.2 169 -103.2 176.3 -103.2 183.7 C-103.2 190.1 -103.2 196.4 -103.2 202.7 C-103.2 206.5 -103.2 210.3 -103.2 214.1 C-103.3 217.6 -103.3 221.2 -103.2 224.7 C-103.2 226.7 -103.3 228.6 -103.3 230.5 C-103.3 232.7 -103.2 235 -103.2 237.2 C-103.1 238.1 -103.1 239 -103 240 C-102.8 241.1 -102.8 241.1 -102.6 242.3 C-102.4 242.9 -102.3 243.6 -102.1 244.2 C-101.6 245.6 -101.6 245.6 -101 247 C-100.1 247.9 -100.1 247.9 -99.2 248.9 C-98.1 249.4 -98.1 249.4 -97 250 C-96.3 250.2 -95.6 250.4 -94.9 250.6 C-93.4 250.8 -93.4 250.8 -92 251 C-90.1 251.1 -88.1 251.1 -86.2 251.1 C-85 251.1 -85 251.1 -83.9 251.1 C-83.1 251.1 -82.3 251.1 -81.4 251.1 C-78.7 251.2 -76 251.2 -73.3 251.2 C-71.3 251.2 -69.4 251.2 -67.4 251.2 C-62.1 251.2 -56.8 251.2 -51.5 251.2 C-48.2 251.2 -44.9 251.2 -41.6 251.2 C-31.3 251.2 -20.9 251.2 -10.6 251.2 C1.4 251.2 13.3 251.3 25.3 251.3 C34.5 251.3 43.8 251.3 53 251.3 C58.5 251.3 64 251.3 69.6 251.3 C74.7 251.4 79.9 251.4 85.1 251.4 C87 251.4 88.9 251.4 90.8 251.4 C93.4 251.4 96 251.4 98.6 251.4 C99.8 251.4 99.8 251.4 100.9 251.4 C101.6 251.4 102.3 251.4 103 251.4 C105 251.2 105 251.2 107 251 C107.6 250.8 108.3 250.7 109 250.5 C109.6 250.3 110.2 250.1 110.8 249.9 C111.9 249.2 112.9 248.6 114 248 C114.6 247.1 115.3 246.1 115.9 245.2 C116.3 244.1 116.6 243.1 117 242 C117.1 241 117.2 240.1 117.4 239.1 C117.4 238 117.4 237 117.4 235.9 C117.4 234.1 117.4 234.1 117.4 232.3 C117.4 231 117.4 229.7 117.4 228.4 C117.4 227 117.4 225.6 117.4 224.2 C117.4 220.4 117.4 216.7 117.4 212.9 C117.4 209 117.4 205 117.4 201.1 C117.4 194.5 117.4 187.8 117.4 181.2 C117.4 173.6 117.4 165.9 117.4 158.3 C117.4 151.7 117.4 145.1 117.4 138.5 C117.4 134.6 117.4 130.7 117.4 126.7 C117.4 123.1 117.4 119.4 117.4 115.7 C117.4 113.7 117.4 111.7 117.4 109.7 C117.4 108.5 117.4 107.3 117.4 106.1 C117.4 105 117.4 104 117.4 102.9 C117.3 102 117.1 101 117 100 C116.6 98.9 116.3 97.9 115.9 96.8 C115.3 95.9 114.7 95 114 94 C113 93.4 111.9 92.8 110.8 92.1 C109.9 91.8 109.9 91.8 109 91.5 C108 91.2 108 91.2 107 91 C105.7 90.9 104.4 90.8 103 90.6 C101.6 90.6 100.1 90.6 98.6 90.6 C97.4 90.6 97.4 90.6 96.1 90.6 C93.4 90.6 90.7 90.6 88 90.6 C86 90.6 84 90.6 82.1 90.6 C76.8 90.6 71.4 90.6 66.1 90.6 C60.6 90.6 55 90.6 49.4 90.6 C40.1 90.6 30.8 90.6 21.4 90.6 C10.6 90.6 -0.2 90.6 -11 90.6 C-20.3 90.6 -29.5 90.6 -38.8 90.6 C-44.4 90.6 -49.9 90.6 -55.4 90.6 C-60.6 90.6 -65.8 90.6 -71.1 90.6 C-73 90.6 -74.9 90.6 -76.8 90.6 C-79.4 90.6 -82 90.6 -84.6 90.6 C-85.4 90.6 -86.1 90.6 -86.9 90.6 C-87.6 90.6 -88.3 90.6 -89 90.6 C-91 90.8 -91 90.8 -93 91 Z M-31 268 C-31 276.2 -31 284.5 -31 293 C-5.9 293 19.2 293 45 293 C44.5 280.6 44.5 280.6 44 268 C19.2 268 -5.5 268 -31 268 Z M-109 311 C-110.7 311.9 -110.7 311.9 -112.5 312.9 C-113.3 313.6 -114.1 314.3 -115 315 C-115.9 316 -115.9 316 -116.8 317.1 C-117.2 317.7 -117.6 318.3 -118 319 C-118.3 320 -118.7 321 -119 322 C-119.1 323.9 -119.1 325.8 -119.1 327.7 C-119.1 328.4 -119.1 329.2 -119.1 330 C-119.1 330.9 -119.1 331.7 -119.1 332.5 C-119.2 335.3 -119.2 338.1 -119.2 340.9 C-119.2 342.9 -119.2 344.9 -119.2 346.9 C-119.2 352.3 -119.2 357.7 -119.2 363.1 C-119.2 366.5 -119.2 369.9 -119.2 373.2 C-119.2 383.8 -119.2 394.4 -119.2 405 C-119.2 417.2 -119.3 429.4 -119.3 441.6 C-119.3 451.1 -119.3 460.5 -119.3 469.9 C-119.3 475.6 -119.3 481.2 -119.3 486.9 C-119.4 492.2 -119.4 497.5 -119.4 502.8 C-119.4 504.7 -119.4 506.7 -119.4 508.6 C-119.4 511.3 -119.4 513.9 -119.4 516.6 C-119.4 517.4 -119.4 518.1 -119.4 518.9 C-119.4 519.6 -119.4 520.4 -119.4 521.1 C-119.2 522.4 -119.1 523.7 -119 525 C-118.5 526.1 -118.1 527.3 -117.6 528.4 C-117.1 529.3 -116.5 530.1 -116 531 C-115.3 531.8 -115.3 531.8 -114.5 532.6 C-113 533.8 -111.5 534.9 -110 536 C-109 536.3 -108 536.7 -107 537 C-104 537.1 -101 537.1 -98 537.1 C-97.1 537.2 -96.2 537.2 -95.2 537.2 C-92.1 537.2 -89 537.2 -85.9 537.2 C-83.6 537.2 -81.4 537.2 -79.2 537.2 C-73.1 537.2 -67 537.2 -60.9 537.2 C-57.1 537.2 -53.3 537.2 -49.5 537.3 C-39 537.3 -28.5 537.3 -18 537.3 C-15.3 537.3 -12.5 537.3 -9.8 537.3 C-8.8 537.3 -8.8 537.3 -7.7 537.3 C3.2 537.3 14.2 537.3 25.2 537.4 C36.5 537.4 47.8 537.4 59 537.4 C65.4 537.4 71.7 537.4 78 537.5 C84 537.5 89.9 537.5 95.9 537.5 C98.1 537.5 100.3 537.5 102.4 537.5 C105.4 537.5 108.4 537.5 111.4 537.5 C112.3 537.5 113.1 537.5 114 537.5 C114.8 537.5 115.6 537.5 116.5 537.5 C117.6 537.4 117.6 537.4 118.8 537.3 C119.5 537.2 120.2 537.1 121 537 C121.7 536.8 122.5 536.6 123.2 536.4 C123.9 536.1 124.6 535.8 125.3 535.5 C126 535.1 126.6 534.7 127.3 534.4 C127.9 533.9 128.4 533.5 129 533 C129.5 532.4 129.9 531.9 130.4 531.3 C130.7 530.6 131.1 530 131.5 529.3 C131.8 528.6 132.1 527.9 132.4 527.2 C132.6 526.5 132.8 525.7 133 525 C133.1 524.3 133.2 523.6 133.3 522.9 C133.4 522.3 133.4 521.6 133.5 520.9 C133.5 519.4 133.5 517.9 133.5 516.4 C133.5 515.5 133.5 514.7 133.5 513.9 C133.5 511.1 133.5 508.3 133.5 505.6 C133.5 503.6 133.5 501.6 133.5 499.6 C133.5 494.2 133.5 488.8 133.5 483.4 C133.5 477.7 133.5 472.1 133.5 466.4 C133.5 457 133.5 447.5 133.5 438 C133.4 427 133.4 416.1 133.4 405.1 C133.5 394.6 133.5 384 133.4 373.5 C133.4 369 133.4 364.5 133.4 360 C133.4 354.7 133.4 349.4 133.4 344.1 C133.4 342.2 133.4 340.3 133.4 338.3 C133.4 335.7 133.4 333 133.4 330.4 C133.4 329.6 133.4 328.8 133.4 328.1 C133.4 327.3 133.4 326.6 133.4 325.9 C133.3 324.6 133.1 323.3 133 322 C132.5 320.9 132.1 319.8 131.6 318.6 C130.8 317.3 130.8 317.3 130 316 C129.2 315.2 128.3 314.5 127.4 313.7 C126.2 312.9 126.2 312.9 125 312 C124 311.5 124 311.5 123 311 C120.9 310.9 118.8 310.9 116.7 310.9 C115.8 310.9 114.9 310.9 114 310.9 C113 310.8 112.1 310.8 111.1 310.8 C107.9 310.8 104.8 310.8 101.6 310.8 C99.3 310.8 97 310.8 94.7 310.8 C88.5 310.8 82.3 310.8 76.1 310.8 C72.3 310.8 68.4 310.8 64.5 310.7 C53.8 310.7 43.1 310.7 32.4 310.7 C29.6 310.7 26.8 310.7 24.1 310.7 C23.4 310.7 22.7 310.7 22 310.7 C10.8 310.7 -0.4 310.7 -11.6 310.6 C-23.1 310.6 -34.6 310.6 -46.1 310.6 C-52.6 310.6 -59 310.6 -65.5 310.5 C-71.5 310.5 -77.6 310.5 -83.7 310.5 C-85.9 310.5 -88.1 310.5 -90.4 310.5 C-93.4 310.5 -96.4 310.5 -99.5 310.5 C-100.4 310.5 -101.3 310.5 -102.2 310.5 C-103.4 310.5 -103.4 310.5 -104.6 310.5 C-105.4 310.5 -106.2 310.6 -106.9 310.6 C-107.6 310.8 -108.3 310.9 -109 311 Z M-207 445 C-208.1 445.5 -209.3 446.1 -210.4 446.6 C-211.7 447.8 -211.7 447.8 -213 449 C-213.5 449.5 -213.9 450 -214.4 450.5 C-214.9 451 -215.3 451.5 -215.8 452.1 C-216.9 453.5 -216.9 453.5 -218 455 C-218.3 456 -218.7 457 -219 458 C-219.1 458.8 -219.2 459.6 -219.3 460.4 C-219.4 461.3 -219.4 462.2 -219.4 463.1 C-219.4 464.1 -219.4 465.1 -219.4 466.1 C-219.3 467 -219.1 468 -219 469 C-218.7 469.9 -218.3 470.7 -217.9 471.6 C-217.5 472.4 -217 473.1 -216.5 473.9 C-215.9 474.7 -215.4 475.4 -214.8 476.1 C-213.9 477 -213.9 477 -213 478 C-212.1 478.7 -212.1 478.7 -211.1 479.4 C-210.5 479.8 -209.9 480.2 -209.2 480.6 C-208.5 480.8 -207.8 481.1 -207.1 481.4 C-206.4 481.6 -205.7 481.8 -205 482 C-204.2 482.1 -203.5 482.2 -202.7 482.3 C-201.9 482.4 -201.2 482.4 -200.4 482.4 C-199.6 482.4 -198.9 482.4 -198.1 482.3 C-197.1 482.2 -197.1 482.2 -196 482 C-194.5 481.5 -194.5 481.5 -192.9 481 C-191.9 480.3 -191 479.7 -190 479 C-189.4 478.4 -188.8 477.8 -188.1 477.1 C-186.9 475.7 -185.6 474.4 -184.4 472.9 C-184 472.3 -183.5 471.7 -183 471 C-182.5 469.5 -182.5 469.5 -182 468 C-181.9 467.3 -181.8 466.7 -181.8 466 C-181.7 464.9 -181.7 464.9 -181.7 463.8 C-181.7 463 -181.7 462.2 -181.7 461.4 C-181.8 460.6 -181.9 459.8 -182 459 C-182.2 458.3 -182.5 457.6 -182.7 456.8 C-183 456.1 -183.3 455.4 -183.6 454.8 C-184.2 453.8 -184.2 453.8 -184.7 452.8 C-185.4 451.9 -185.4 451.9 -186 451 C-186.5 450.5 -187 450 -187.5 449.4 C-188 449 -188.5 448.5 -189.1 448.1 C-190.5 447 -190.5 447 -192 446 C-193 445.7 -194 445.3 -195 445 C-196.3 444.9 -196.3 444.9 -197.7 444.8 C-199.8 444.7 -201.9 444.7 -204.1 444.7 C-205.5 444.9 -205.5 444.9 -207 445 Z M209 445 C207.7 445.5 207.7 445.5 206.3 446.1 C205.6 446.5 204.8 447 204 447.5 C203.3 448.1 202.6 448.6 201.8 449.2 C201.2 449.8 200.6 450.4 200 451 C199.5 451.6 199 452.2 198.6 452.9 C198.2 453.5 197.8 454.1 197.4 454.8 C197.2 455.5 196.9 456.2 196.6 456.9 C196.4 457.6 196.2 458.3 196 459 C195.9 459.8 195.8 460.5 195.7 461.3 C195.6 462.1 195.6 462.8 195.6 463.6 C195.6 464.4 195.6 465.1 195.7 465.9 C195.8 466.6 195.9 467.3 196 468 C196.3 469 196.7 470.1 197 471.1 C197.7 472.1 198.3 473 199 474 C199.6 474.6 200.2 475.2 200.8 475.9 C202.2 477.1 203.6 478.4 205 479.6 C205.6 480 206.3 480.5 207 481 C208 481.3 208 481.3 209 481.7 C209.7 481.8 210.3 481.9 211 482 C212.9 482.2 212.9 482.2 214.8 482.3 C215.4 482.3 216.1 482.3 216.9 482.3 C217.6 482.2 218.3 482.1 219 482 C219.7 481.8 220.4 481.6 221.1 481.4 C222.1 480.9 222.1 480.9 223.1 480.5 C223.8 480.1 224.4 479.8 225.1 479.4 C226 478.7 226 478.7 227 478 C227.9 477.1 227.9 477.1 228.8 476.2 C229.6 475.3 229.6 475.3 230.4 474.2 C230.9 473.6 231.4 472.9 231.9 472.1 C232.2 471.4 232.6 470.7 233 470 C233.2 469.3 233.5 468.7 233.7 468 C233.9 467.1 233.9 467.1 234.1 466.1 C234.1 465.1 234.1 465.1 234.2 464.1 C234.1 463.4 234.1 462.7 234 462 C233.9 461.3 233.8 460.5 233.7 459.7 C233.4 458.6 233.4 458.6 233.1 457.4 C232.8 456.7 232.5 455.9 232.2 455.2 C231.8 454.5 231.4 453.7 231 453 C230.4 452.3 229.7 451.6 229.1 450.9 C228.4 450.3 227.7 449.6 226.9 449 C226.2 448.4 225.6 447.9 224.8 447.3 C224.2 446.9 223.6 446.4 223 446 C222.3 445.7 221.7 445.3 221 445 C220.2 444.9 219.3 444.8 218.5 444.7 C217.5 444.6 216.5 444.6 215.4 444.6 C214.4 444.6 213.3 444.6 212.2 444.6 C210.6 444.8 210.6 444.8 209 445 Z " transform="translate(505,193)" fill="currentColor" />
<path d="M0 0 C1.2 -0.1 2.4 -0.2 3.6 -0.4 C4.7 -0.3 5.8 -0.1 7 0 C7.8 0.2 8.6 0.3 9.4 0.5 C10.2 0.7 11.1 0.9 11.9 1.1 C12.8 1.4 13.6 1.7 14.5 2 C15.3 2.3 16.2 2.6 17 3 C17.7 3.4 18.5 3.9 19.2 4.3 C20.2 5 20.2 5 21.2 5.8 C22.2 6.5 22.2 6.5 23.2 7.3 C23.8 7.9 24.4 8.4 25 9 C25.6 9.6 26.1 10.1 26.7 10.7 C27.2 11.3 27.8 11.8 28.3 12.4 C28.8 13 29.3 13.6 29.8 14.2 C30.2 14.8 30.6 15.4 31 16 C31.5 16.9 31.5 16.9 32 17.8 C32.3 18.4 32.5 19 32.8 19.6 C33.4 21.3 33.4 21.3 34 23 C34.2 23.8 34.5 24.6 34.7 25.4 C34.9 26.9 35 28.4 35.2 29.9 C35.2 30.6 35.3 31.4 35.3 32.1 C35.3 32.9 35.3 33.7 35.3 34.5 C35.1 35.7 35.1 35.7 35 37 C34.7 38.4 34.7 38.4 34.3 39.7 C34 40.7 33.7 41.6 33.4 42.6 C33 43.5 32.6 44.4 32.3 45.4 C31.6 46.7 31.6 46.7 31 48 C30.6 48.7 30.2 49.5 29.7 50.3 C29.3 50.9 28.8 51.6 28.3 52.3 C27.8 52.9 27.3 53.6 26.8 54.2 C26.2 54.8 25.6 55.4 25 56 C24.3 56.6 23.6 57.2 22.8 57.8 C21.3 58.8 19.9 59.8 18.3 60.8 C17.6 61.2 16.8 61.6 16 62 C15.1 62.4 14.1 62.8 13.1 63.1 C12.1 63.4 11.1 63.7 10 64 C8.9 64.1 7.8 64.2 6.7 64.3 C4.3 64.4 1.9 64.4 -0.5 64.3 C-1.6 64.2 -2.8 64.1 -4 64 C-4.9 63.8 -5.9 63.6 -6.9 63.3 C-7.7 63 -8.5 62.7 -9.4 62.4 C-10.2 62.1 -10.9 61.7 -11.8 61.3 C-12.5 60.9 -13.2 60.4 -14 60 C-14.7 59.5 -15.5 59 -16.2 58.5 C-16.9 57.9 -17.6 57.4 -18.3 56.8 C-19 56.2 -19.6 55.6 -20.2 55 C-20.8 54.3 -21.4 53.7 -22 53 C-22.5 52.3 -23 51.5 -23.5 50.8 C-24 50 -24.4 49.3 -24.9 48.5 C-25.3 47.7 -25.6 47 -26 46.2 C-26.4 45.5 -26.7 44.7 -27 44 C-27.4 42.8 -27.9 41.7 -28.3 40.5 C-28.5 39.3 -28.8 38.2 -29 37 C-29.1 36.3 -29.1 35.6 -29.2 34.9 C-29.2 34.2 -29.3 33.4 -29.3 32.7 C-29.3 31.9 -29.3 31.2 -29.2 30.4 C-29.2 29.6 -29.1 28.8 -29 28 C-28.9 27.2 -28.7 26.4 -28.6 25.5 C-28.4 24.7 -28.2 23.9 -27.9 23 C-27.7 22.2 -27.4 21.3 -27.1 20.5 C-26.7 19.7 -26.4 18.8 -26 18 C-25.5 17.2 -25 16.4 -24.5 15.6 C-24 14.8 -23.4 14 -22.8 13.2 C-22.2 12.5 -21.6 11.8 -20.9 11 C-20.3 10.4 -19.7 9.7 -19 9 C-18.4 8.4 -17.8 7.8 -17.2 7.2 C-16.5 6.7 -15.9 6.2 -15.2 5.6 C-14.6 5.2 -13.9 4.7 -13.2 4.2 C-12.5 3.8 -11.8 3.4 -11 3 C-10.1 2.7 -9.2 2.3 -8.3 2 C-7.4 1.7 -6.4 1.4 -5.4 1.1 C-4.5 0.9 -3.6 0.7 -2.6 0.5 C-1.3 0.2 -1.3 0.2 0 0 Z M-2 18 C-3.7 18.8 -3.7 18.8 -5.4 19.7 C-6.7 20.8 -6.7 20.8 -8 22 C-8.6 22.7 -9.2 23.4 -9.9 24.1 C-10.2 25 -10.6 26 -11 27 C-11.1 27.8 -11.3 28.7 -11.4 29.5 C-11.4 30.5 -11.5 31.4 -11.6 32.4 C-11.5 33.3 -11.5 34.3 -11.5 35.3 C-11.3 36.2 -11.2 37.1 -11 38 C-10.6 38.7 -10.2 39.5 -9.8 40.2 C-9.3 40.8 -8.8 41.4 -8.3 42.1 C-7.8 42.6 -7.2 43.1 -6.6 43.7 C-5.8 44.3 -5.8 44.3 -5 45 C-4.2 45.5 -3.5 46 -2.7 46.5 C-1.8 46.7 -0.9 46.8 0 47 C0.7 47 1.4 47.1 2.1 47.1 C2.8 47.1 3.6 47 4.4 47 C5.1 46.9 5.9 46.8 6.7 46.7 C7.5 46.5 8.2 46.2 9 46 C9.7 45.6 10.4 45.1 11.1 44.7 C11.7 44.1 12.4 43.6 13 43.1 C13.6 42.5 14.1 42 14.7 41.5 C15.3 40.7 15.3 40.7 16 40 C16.3 39.3 16.7 38.7 17 38 C17.1 36.8 17.1 36.8 17.2 35.6 C17.3 34.7 17.3 33.7 17.3 32.8 C17.3 31.8 17.3 30.8 17.3 29.8 C17.2 28.9 17.1 27.9 17 27 C16.4 25.8 15.9 24.7 15.3 23.5 C14.5 22.7 13.8 21.9 13 21 C12.3 20.4 11.6 19.8 10.9 19.1 C9.9 18.8 9 18.4 8 18 C7.2 17.9 6.5 17.8 5.7 17.7 C4.4 17.6 4.4 17.6 3.1 17.6 C2.2 17.6 1.3 17.6 0.4 17.6 C-0.4 17.8 -1.2 17.9 -2 18 Z " transform="translate(457,326)" fill="currentColor" />
<path d="M0 0 C1.1 -0.1 2.2 -0.2 3.4 -0.3 C5.2 -0.2 5.2 -0.2 7 0 C7.8 0.2 8.6 0.3 9.4 0.5 C10.6 0.8 10.6 0.8 11.9 1.1 C12.8 1.4 13.6 1.7 14.5 2 C15.3 2.3 16.2 2.6 17 3 C17.7 3.4 18.5 3.9 19.2 4.3 C20.2 5 20.2 5 21.2 5.8 C21.9 6.3 22.5 6.8 23.2 7.3 C24.4 8.4 25.5 9.5 26.7 10.6 C27.5 11.4 27.5 11.4 28.2 12.2 C28.7 12.8 29.2 13.4 29.7 14 C30.1 14.6 30.6 15.3 31 16 C31.4 16.8 31.8 17.7 32.3 18.5 C32.6 19.4 33 20.3 33.4 21.2 C33.7 22.2 34 23.1 34.3 24.1 C34.5 25.1 34.8 26 35 27 C35.1 27.9 35.2 28.9 35.3 29.8 C35.4 30.8 35.4 31.7 35.4 32.6 C35.4 33.5 35.4 34.4 35.3 35.4 C35.2 36.2 35.1 37.1 35 38 C34.9 38.8 34.7 39.6 34.6 40.4 C34.4 41.1 34.1 41.9 33.9 42.6 C33.7 43.3 33.4 44.1 33.1 44.8 C32.6 45.9 32.6 45.9 32 47 C31.3 48.2 31.3 48.2 30.6 49.3 C30 50.1 29.4 50.9 28.9 51.7 C28.3 52.4 27.7 53.2 27 53.9 C26.4 54.6 25.7 55.3 25 56 C24.3 56.6 23.5 57.2 22.8 57.8 C22 58.4 21.3 58.9 20.5 59.4 C19.7 59.9 19 60.4 18.2 60.8 C17.5 61.2 16.7 61.6 16 62 C14.9 62.5 13.9 62.9 12.8 63.4 C11.5 63.6 10.3 63.8 9 64 C8 64.1 7 64.2 6 64.2 C4.9 64.3 3.8 64.3 2.6 64.4 C1.5 64.4 0.4 64.3 -0.8 64.3 C-1.8 64.2 -2.9 64.1 -4 64 C-4.9 63.8 -5.7 63.5 -6.6 63.3 C-7.7 62.8 -7.7 62.8 -8.9 62.3 C-9.6 61.9 -10.3 61.6 -11 61.2 C-11.7 60.8 -12.3 60.4 -13 60 C-13.9 59.5 -13.9 59.5 -14.9 58.9 C-15.5 58.6 -16.1 58.2 -16.7 57.8 C-17.2 57.4 -17.8 57 -18.4 56.5 C-18.9 56 -19.4 55.5 -20 55 C-20.5 54.4 -21.1 53.7 -21.7 53 C-22.2 52.3 -22.7 51.6 -23.2 50.8 C-23.7 50 -24.2 49.3 -24.7 48.5 C-25.1 47.6 -25.6 46.8 -26 46 C-26.3 45.2 -26.7 44.3 -27 43.5 C-27.3 42.6 -27.6 41.8 -27.9 40.9 C-28.1 40.1 -28.3 39.3 -28.5 38.4 C-28.7 37.6 -28.8 36.8 -29 36 C-29.2 34.1 -29.2 34.1 -29.4 32.1 C-29.4 31.5 -29.4 30.8 -29.3 30.2 C-29.2 29.5 -29.1 28.7 -29 28 C-28.8 27.1 -28.6 26.1 -28.4 25.2 C-28.1 24.2 -27.9 23.2 -27.6 22.1 C-27.2 21.1 -26.8 20.1 -26.5 19 C-26 18 -25.5 17 -25 16 C-24.3 15.1 -23.7 14.1 -23 13.1 C-22.3 12.3 -21.5 11.4 -20.8 10.5 C-20 9.7 -19.2 8.9 -18.4 8.1 C-17.6 7.4 -16.8 6.7 -16 6 C-15.3 5.5 -14.6 5.1 -13.9 4.6 C-13.3 4.2 -12.6 3.9 -11.9 3.5 C-11.3 3.2 -10.6 3 -10 2.7 C-8.6 2.2 -7.3 1.8 -6 1.3 C-5 1 -5 1 -3.9 0.8 C-3.3 0.6 -2.6 0.5 -1.9 0.3 C-1.3 0.2 -0.7 0.1 0 0 Z M-1 18 C-1.7 18.2 -2.3 18.5 -3 18.7 C-3.6 19 -4.3 19.4 -4.9 19.7 C-6.4 20.8 -6.4 20.8 -8 22 C-8.6 22.7 -9.3 23.4 -9.9 24.1 C-10.3 25.1 -10.6 26 -11 27 C-11.1 27.8 -11.2 28.5 -11.3 29.3 C-11.4 30.2 -11.4 31.1 -11.4 31.9 C-11.4 32.8 -11.4 33.7 -11.4 34.6 C-11.2 35.4 -11.1 36.2 -11 37 C-10.4 38.1 -9.8 39.3 -9.2 40.4 C-8 41.9 -6.6 43.4 -5.3 44.8 C-4.5 45.2 -3.8 45.6 -3 46 C-2.3 46.2 -1.7 46.3 -1 46.5 C-0.2 46.6 0.6 46.7 1.4 46.9 C2.6 47 2.6 47 3.8 47.1 C4.9 47 4.9 47 6 47 C7.1 46.6 8.1 46.3 9.2 45.9 C10.2 45.3 11.1 44.7 12 44 C12.9 43.1 13.9 42.2 14.8 41.2 C15.5 40.2 16.3 39.1 17 38 C17.3 36.9 17.7 35.8 18 34.6 C18 33.4 18 32.2 18 31 C17.9 30.3 17.7 29.6 17.6 28.9 C17.3 28.2 17.1 27.5 16.9 26.8 C16.6 26.1 16.3 25.5 16 24.8 C15.5 23.9 15.5 23.9 15 23 C14.2 22.2 13.3 21.4 12.4 20.6 C11.6 20 10.8 19.5 10 19 C9.3 18.7 8.7 18.3 8 18 C7.4 17.9 6.7 17.8 6.1 17.8 C5.3 17.7 4.6 17.7 3.8 17.7 C2.6 17.7 2.6 17.7 1.4 17.7 C0.6 17.8 -0.2 17.9 -1 18 Z " transform="translate(561,326)" fill="currentColor" />
</svg>
