<?xml version="1.0" encoding="UTF-8"?>

<svg version="1.1" xmlns="http://www.w3.org/2000/svg" width="1024" height="1024" viewBox="0 0 1024 1024" fill="currentColor">
<path d="M0 0 C7.7 -0.2 15.5 -0.2 23.2 -0.1 C26.2 -0 29.3 0 32.3 0.1 C34.4 0.3 36.6 0.4 38.7 0.6 C40.5 0.8 42.2 1 44 1.2 C45.7 1.5 47.4 1.8 49.1 2.1 C50.8 2.4 52.6 2.8 54.3 3.1 C55.2 3.3 56.2 3.5 57.2 3.7 C60.3 4.4 63.3 5.1 66.4 5.8 C69.4 6.6 72.4 7.4 75.4 8.2 C77.3 8.8 79.1 9.4 81 10.1 C83.6 11 86.2 12 88.7 13 C91.9 14.3 95.1 15.7 98.3 17.1 C99.4 17.6 99.4 17.6 100.5 18.1 C102.6 19 104.7 19.9 106.8 20.9 C108.9 21.9 111 22.9 113.1 24 C114.6 24.8 116.1 25.6 117.6 26.4 C120 27.9 122.4 29.3 124.8 30.8 C127.2 32.3 129.6 33.9 132 35.5 C133.5 36.6 135 37.7 136.5 38.8 C139.4 41 142.2 43.3 145 45.6 C146.8 47.1 148.5 48.6 150.3 50.1 C151 50.7 151.8 51.4 152.6 52 C153.8 53 155 54.1 156.2 55.2 C156.9 55.8 157.6 56.5 158.3 57.1 C159 57.8 159 57.8 159.7 58.5 C162.1 60.7 164.5 63 166.8 65.3 C168 66.6 169.2 67.9 170.5 69.1 C171.7 70.5 172.8 71.8 174 73.2 C175.7 75.2 177.3 77.3 179 79.4 C181.1 82.3 183.2 85.2 185.3 88.1 C186 89.1 186 89.1 186.7 90.2 C188.1 92.2 189.5 94.2 190.9 96.2 C192.3 98.4 193.6 100.6 194.9 102.7 C195.9 104.4 196.8 106.1 197.7 107.7 C199.2 110.5 200.6 113.3 202 116.2 C203.4 119.1 204.7 122.1 206 125.1 C206.8 127.1 207.7 129.1 208.5 131.1 C209.6 134.1 210.6 137.1 211.7 140.1 C212.6 143.1 213.6 146.1 214.4 149.1 C215.3 152.2 216.1 155.2 216.8 158.3 C217.5 161.4 218.1 164.5 218.8 167.6 C219.3 170.4 219.8 173.3 220.3 176.1 C220.4 176.9 220.5 177.7 220.7 178.4 C220.9 179.8 221.1 181.3 221.3 182.7 C221.5 184.1 221.7 185.5 221.8 186.9 C221.9 188.4 222 189.9 222.1 191.4 C222.4 195.9 222.5 200.4 222.6 204.8 C222.6 210.1 222.6 215.2 222.4 220.4 C222.3 222.8 222.2 225.1 222.1 227.4 C221.9 229.5 221.7 231.5 221.5 233.5 C221.2 236.4 220.8 239.3 220.3 242.3 C219.6 246.3 218.9 250.4 218 254.4 C217.3 257.6 216.6 260.8 215.8 264 C215 267 214.2 270.1 213.3 273.1 C212.7 275 212 276.9 211.4 278.8 C210.4 281.4 209.4 284.1 208.4 286.7 C207.4 289.2 206.3 291.7 205.3 294.1 C205 294.9 204.6 295.6 204.3 296.4 C203.4 298.5 202.4 300.7 201.5 302.8 C200.5 304.9 199.5 306.9 198.4 309 C197.2 311.3 195.9 313.5 194.6 315.8 C192.8 318.9 190.9 321.9 189 325 C187.7 327 186.4 328.9 185.1 330.9 C183.9 332.5 182.8 334.1 181.7 335.6 C180.2 337.5 178.8 339.3 177.3 341.1 C175 343.7 172.7 346.3 170.4 348.8 C168.5 350.9 166.6 353.1 164.7 355.2 C163 357.2 161.2 359.2 159.5 361.1 C158.1 362.4 156.8 363.8 155.5 365.1 C154 366.5 152.4 367.9 150.9 369.2 C148 371.6 145.2 373.9 142.3 376.1 C141.7 376.5 141.2 377 140.7 377.4 C138.3 379.2 135.9 381 133.5 382.8 C131.5 384.3 129.4 385.7 127.3 387.1 C124.8 388.7 122.2 390.3 119.6 391.8 C116.1 393.8 112.5 395.8 108.9 397.8 C106.5 399 104.1 400.2 101.7 401.4 C99.5 402.4 97.3 403.4 95.1 404.4 C92.8 405.3 90.6 406.2 88.3 407.1 C84.8 408.4 81.3 409.7 77.8 410.9 C74.3 412 70.8 413.1 67.3 414.1 C65 414.7 62.8 415.3 60.5 415.9 C58.3 416.4 56.2 416.8 54 417.3 C51.5 417.8 48.9 418.2 46.4 418.6 C40 419.5 33.6 420.3 27.3 421.1 C31.2 421.8 35.1 422.4 39 423.1 C40.1 423.2 41.2 423.4 42.3 423.6 C45.6 424.2 49 424.7 52.3 425.1 C55.4 425.5 58.5 425.7 61.6 426 C63.8 426.1 66.1 426.2 68.3 426.3 C71.6 426.3 74.8 426.3 78.1 426.2 C80.3 426.1 82.6 426 84.8 425.8 C88 425.5 91.2 425.2 94.4 424.8 C97.6 424.4 100.9 423.9 104.2 423.3 C106.7 422.9 109.2 422.4 111.7 421.9 C114.2 421.4 116.7 420.8 119.3 420.1 C121.9 419.4 124.4 418.7 127 417.9 C129.6 417.1 132.2 416.2 134.8 415.2 C136.7 414.5 138.5 413.8 140.3 413.1 C143.2 411.9 146.2 410.6 149.1 409.3 C152 407.9 154.9 406.5 157.8 405 C159.6 404.1 161.5 403.1 163.3 402.1 C164.9 401.2 166.5 400.3 168 399.3 C170.2 398 172.4 396.6 174.5 395.2 C176.4 393.8 178.4 392.5 180.3 391.1 C180.9 390.7 181.4 390.3 182 389.9 C183.7 388.7 185.4 387.4 187 386.2 C189.1 384.5 191.2 382.9 193.3 381.1 C195.5 379.2 197.7 377.3 199.8 375.3 C202.5 372.8 205.2 370.2 207.8 367.6 C209.3 366.1 210.9 364.5 212.3 362.9 C213.8 361.3 215.3 359.6 216.8 357.9 C217.8 356.7 218.8 355.4 219.8 354.2 C221.4 352.1 222.9 349.9 224.5 347.8 C226.5 344.9 228.4 342.1 230.3 339.1 C231.5 337.2 232.7 335.2 233.9 333.3 C235 331.3 236.1 329.3 237.1 327.3 C239.1 323.6 240.9 319.8 242.7 316.1 C243.9 313.5 245 311 246.1 308.4 C247.2 305.8 248.3 303.1 249.3 300.4 C250.3 297.6 251.2 294.8 252.1 292 C253 289.1 253.8 286.1 254.5 283.1 C255.3 280.1 256 277.1 256.6 274 C257 272 257.4 269.9 257.7 267.7 C258 265.6 258.3 263.4 258.6 261.2 C258.9 258.8 259.1 256.5 259.3 254.1 C259.5 250.7 259.6 247.4 259.7 244 C259.8 240.4 259.8 236.9 259.7 233.4 C259.7 230.6 259.6 227.9 259.5 225.1 C259.4 222.5 259.2 220 259 217.4 C258.7 215.2 258.4 212.9 258.1 210.6 C257.8 208.4 257.5 206.3 257.1 204.1 C256.5 201.1 255.9 198.1 255.3 195.1 C254.7 192.5 254 189.9 253.3 187.3 C252.8 185.6 252.3 184 251.8 182.4 C251 180 250.2 177.5 249.3 175.1 C247.9 171.5 246.4 167.9 244.9 164.3 C243.1 160.2 241.2 156.1 239.3 152 C238.3 150.1 237.4 148.2 236.4 146.3 C235.4 144.5 234.4 142.7 233.4 141 C232.2 139 230.9 137 229.6 135 C227.8 132.3 225.9 129.6 224 126.9 C222.3 124.5 220.6 122.3 218.9 120 C217.4 118.2 216 116.4 214.5 114.7 C211.4 111.2 208.4 107.7 205.2 104.3 C204 102.9 202.8 101.5 201.5 100.1 C201.1 99.4 200.7 98.8 200.3 98.1 C200.1 96.8 199.9 95.5 199.8 94.2 C199.8 93.5 199.8 92.8 199.9 92.1 C200 91.4 200.1 90.8 200.3 90.1 C200.9 89.1 201.6 88.1 202.2 87.1 C203.7 86.1 203.7 86.1 205.3 85.1 C206 85 206.7 84.8 207.4 84.7 C208.6 84.6 208.6 84.6 209.8 84.6 C210.6 84.6 211.3 84.7 212.1 84.7 C212.8 84.8 213.6 85 214.3 85.1 C215.1 85.6 216 86.1 216.9 86.6 C218.8 88.6 220.6 90.6 222.4 92.6 C223.7 94.1 225 95.6 226.3 97.1 C227.1 98.1 228 99 228.8 100 C230.7 102.2 232.6 104.4 234.4 106.6 C235.4 107.7 236.3 108.9 237.3 110.1 C238.6 112 239.9 113.8 241.2 115.7 C243.3 118.8 245.3 121.9 247.3 125.1 C248.7 127.4 250 129.7 251.4 132.1 C252.7 134.4 254 136.8 255.3 139.1 C255.6 139.7 255.9 140.3 256.3 140.9 C257.3 142.7 258.2 144.6 259.2 146.4 C260.3 148.5 261.2 150.6 262.2 152.7 C263 154.4 263.7 156.2 264.4 157.9 C266.1 162.1 267.6 166.3 269.1 170.6 C270.2 173.7 271.3 176.9 272.3 180.1 C273.1 182.9 273.8 185.7 274.5 188.5 C275.3 191.9 276.1 195.3 276.8 198.7 C277.7 203.1 278.3 207.4 279 211.7 C279.3 213.1 279.5 214.5 279.8 215.9 C280 217 280 217 280.3 218.1 C280.9 220.6 281.7 223 282.4 225.5 C282.7 226.3 282.9 227.1 283.2 228 C284.3 231.4 285.3 234.7 286.3 238.1 C286.9 240.5 287.5 242.8 288 245.2 C288.5 247.6 289 249.9 289.5 252.3 C289.9 254.7 290.3 257.2 290.6 259.6 C291 262.2 291.3 264.8 291.5 267.4 C291.8 270.1 292 272.7 292.1 275.4 C292.3 279.1 292.4 282.8 292.5 286.5 C292.5 290.1 292.5 293.8 292.4 297.5 C292.3 300 292.2 302.5 292 304.9 C291.8 307.3 291.6 309.6 291.3 311.9 C291 314.3 290.7 316.7 290.3 319.1 C289.8 321.9 289.3 324.7 288.8 327.4 C288.1 330.3 287.5 333.2 286.8 336.1 C286.1 339.2 285.3 342.2 284.4 345.2 C283.5 348.3 282.5 351.4 281.5 354.5 C280.4 357.5 279.4 360.5 278.3 363.4 C277.4 365.9 276.4 368.3 275.4 370.8 C274.7 372.2 274.1 373.6 273.5 375 C272.5 377 271.5 379.1 270.4 381.1 C268.8 384 267.1 387 265.4 389.9 C264 392.2 262.6 394.5 261.2 396.7 C259.8 398.9 258.3 401.1 256.8 403.2 C254.9 406 252.9 408.7 250.8 411.4 C248.4 414.5 245.8 417.7 243.3 420.8 C241.3 423.2 239.3 425.5 237.3 427.8 C235.3 430 233.3 432.2 231.2 434.3 C229.3 436.4 227.2 438.4 225.2 440.4 C223.4 442.1 221.5 443.8 219.6 445.4 C216.9 447.7 214.1 449.9 211.3 452.1 C210.7 452.6 210.2 453 209.6 453.5 C207 455.5 204.5 457.5 201.9 459.5 C200.5 460.5 199 461.5 197.6 462.6 C196 463.6 194.4 464.7 192.8 465.7 C190.2 467.3 187.6 468.8 185 470.3 C181.4 472.3 177.9 474.2 174.3 476.1 C173.5 476.5 172.7 477 171.9 477.4 C169.7 478.6 167.4 479.7 165.2 480.8 C163.6 481.5 162 482.3 160.5 483 C158.8 483.7 157 484.4 155.3 485.1 C152 486.4 148.6 487.6 145.3 488.7 C140.7 490.3 136.1 491.8 131.4 493.2 C129.5 493.8 127.5 494.3 125.5 494.9 C123 495.5 120.6 496 118.1 496.6 C116.7 496.8 115.4 497.1 114 497.4 C112.5 497.6 110.9 497.9 109.3 498.1 C107.6 498.4 107.6 498.4 105.8 498.7 C103.1 499 100.4 499.4 97.7 499.7 C96.2 499.9 94.8 500 93.3 500.1 C91 500.2 88.7 500.3 86.5 500.4 C82.5 500.5 78.5 500.5 74.6 500.4 C73.8 500.4 72.9 500.4 72.1 500.4 C67.2 500.4 62.3 500.4 57.4 500.2 C55.5 500.1 53.6 500 51.8 499.9 C49.9 499.7 47.9 499.5 46 499.2 C43.6 498.9 41.2 498.5 38.8 498.1 C37.3 497.8 35.8 497.4 34.3 497.1 C33 496.9 33 496.9 31.7 496.6 C26.5 495.5 21.4 494.4 16.3 493.1 C20.8 495.5 25.3 497.8 29.9 500 C32.2 501.1 34.6 502.2 37 503.2 C40.3 504.6 43.7 506 47 507.2 C49.6 508.2 52.3 509.1 54.9 510 C57.6 510.8 60.2 511.6 62.9 512.4 C65.7 513.1 68.5 513.8 71.3 514.5 C73.4 514.9 75.5 515.4 77.6 515.8 C83.1 516.7 88.6 517.6 94.1 518.4 C97.3 518.8 100.4 519.1 103.6 519.4 C106.8 519.7 110 519.9 113.3 520.1 C115.9 520.2 118.5 520.3 121.2 520.3 C125.9 520.3 130.6 520.3 135.3 520.1 C137.9 520 140.4 519.9 143 519.7 C145.6 519.4 148.2 519.2 150.8 518.9 C154.6 518.4 158.4 517.8 162.2 517.2 C165.3 516.6 168.4 516.1 171.6 515.4 C174.8 514.7 178 513.9 181.3 513.1 C184.7 512.2 188.1 511.2 191.5 510.1 C194.9 509 198.3 507.8 201.7 506.6 C203.9 505.8 206.1 505 208.3 504.1 C211.3 502.9 214.4 501.5 217.4 500.2 C220.2 498.8 223.1 497.4 225.9 496 C227.7 495.1 229.5 494.1 231.3 493.1 C233.9 491.6 236.5 490.1 239.1 488.5 C241.5 487 243.9 485.5 246.2 483.9 C248.6 482.3 250.9 480.7 253.2 479 C254.7 477.8 256.3 476.5 257.8 475.2 C259 474.2 259 474.2 260.3 473.1 C261.4 472.2 262.6 471.2 263.7 470.2 C267.3 467.3 270.8 464.2 274.3 461.1 C275.7 459.8 277.2 458.4 278.6 457.1 C279.8 455.8 281.1 454.5 282.3 453.1 C283.7 451.5 285.2 449.8 286.6 448.1 C288.2 446.1 289.7 444.1 291.3 442.1 C291.7 441.6 292.1 441 292.6 440.5 C294.5 438.1 296.3 435.6 298.1 433.2 C299.1 431.9 300 430.5 300.9 429.2 C301.8 427.8 302.7 426.4 303.6 424.9 C305 422.7 306.3 420.4 307.5 418.1 C309.1 415.1 310.7 412.1 312.3 409.1 C312.8 408.2 312.8 408.2 313.3 407.2 C314.2 405.4 315.1 403.6 316 401.8 C316.8 400 317.6 398.1 318.4 396.2 C319.4 393.9 320.3 391.5 321.1 389.2 C322.4 385.6 323.6 382 324.7 378.4 C325.5 375.8 326.2 373.3 326.9 370.7 C327.5 368.4 328.1 366.1 328.6 363.8 C329.2 360.9 329.7 358 330.3 355.1 C330.5 353.9 330.7 352.7 331 351.5 C331.2 349.7 331.2 349.7 331.5 347.9 C331.8 345.8 332 343.8 332.1 341.7 C332.3 338.6 332.4 335.4 332.5 332.2 C332.6 327 332.6 321.8 332.5 316.6 C332.5 314.1 332.4 311.6 332.3 309.1 C332.2 307.2 332 305.2 331.8 303.2 C331.7 301.4 331.4 299.7 331.2 297.9 C331 296.1 330.7 294.4 330.4 292.6 C329.8 289.7 329.2 286.9 328.6 284 C327.9 280.8 327.1 277.5 326.2 274.2 C325.3 270.9 324.3 267.7 323.3 264.4 C322.6 262.2 321.9 260.1 321.2 257.9 C320 254.8 318.8 251.8 317.5 248.7 C316.3 245.7 315 242.8 313.6 239.9 C312.7 238.1 311.8 236.3 310.9 234.4 C309.5 231.9 308.1 229.4 306.7 226.9 C305.4 224.7 304 222.4 302.6 220.2 C301.3 218.2 300 216.2 298.6 214.2 C297.1 212.1 295.5 209.9 294 207.8 C293.4 206.9 292.8 206 292.3 205.1 C292 204.2 291.8 203.4 291.5 202.4 C291.4 201.7 291.3 200.9 291.3 200.1 C291.5 199.3 291.8 198.4 292 197.5 C292.4 196.7 292.9 195.9 293.3 195.1 C293.6 194.5 294 194 294.4 193.4 C295 193 295.6 192.5 296.3 192.1 C298.2 191.7 298.2 191.7 300.2 191.2 C300.8 191.1 301.5 191 302.1 190.9 C302.8 191 303.6 191.1 304.3 191.1 C305.1 191.5 305.9 191.8 306.7 192.2 C308 193.1 308 193.1 309.3 194.1 C309.7 194.6 310.1 195.1 310.6 195.6 C311.2 196.5 311.2 196.5 311.9 197.4 C312.8 198.7 313.6 200 314.5 201.3 C315 202 315.5 202.7 316 203.5 C317.4 205.7 318.9 207.9 320.3 210.1 C322.3 213.4 324.1 216.7 326 220 C327.1 222 328.2 224.1 329.3 226.1 C329.8 227.1 330.4 228.2 330.9 229.2 C332.5 232.2 334 235.2 335.4 238.3 C335.7 238.9 336 239.5 336.3 240.1 C337.2 242.5 338.1 244.8 339 247.2 C339.8 249.6 340.6 252 341.4 254.4 C341.6 255.1 341.8 255.7 342 256.4 C343.3 260.3 344.6 264.2 345.7 268.2 C346.3 270.1 346.7 271.9 347.2 273.8 C348.2 278.2 349.1 282.6 349.9 287 C350.4 289.7 350.9 292.4 351.3 295.1 C351.6 297.3 351.8 299.5 352.1 301.8 C352.1 302.5 352.2 303.3 352.3 304.1 C352.3 305.6 352.4 307 352.4 308.5 C352.5 310 352.5 311.5 352.5 313 C352.5 313.8 352.5 314.7 352.5 315.5 C352.6 324.3 352.6 333.1 352.3 341.9 C352.3 343.8 352.2 345.7 352.1 347.7 C351.9 349.5 351.7 351.4 351.5 353.3 C351.3 354.9 351 356.5 350.8 358.1 C350.3 360.4 349.8 362.8 349.3 365.1 C349.1 366 348.9 366.9 348.7 367.9 C348 370.8 347.3 373.7 346.6 376.6 C345.8 379.5 345 382.4 344.1 385.3 C343.3 388 342.4 390.7 341.5 393.4 C340.6 396 339.7 398.6 338.7 401.2 C337.6 403.9 336.4 406.5 335.3 409.1 C333.9 412.1 332.5 415 331 418 C329.5 420.9 327.9 423.8 326.4 426.7 C325.4 428.5 324.3 430.3 323.3 432.1 C322.3 433.7 321.3 435.2 320.3 436.8 C319 438.8 317.6 440.9 316.1 442.9 C314.2 445.6 312.2 448.3 310.1 451 C308.9 452.6 307.6 454.2 306.3 455.8 C304 458.4 301.8 461 299.5 463.5 C298.7 464.3 298 465.1 297.3 465.9 C296.6 466.6 295.9 467.4 295.3 468.1 C294.7 468.9 294.2 469.6 293.6 470.4 C293.2 471 292.7 471.5 292.3 472.1 C291.6 472.1 291 472.1 290.3 472.1 C289.9 473.1 289.6 474.1 289.3 475.1 C288.8 475.6 288.4 476.1 287.9 476.6 C287 477.3 287 477.3 286 478.1 C283.5 480.2 281 482.3 278.6 484.5 C276.5 486.4 274.4 488.2 272.2 490 C270.9 491.1 269.6 492.1 268.3 493.1 C265.8 494.9 263.3 496.7 260.8 498.4 C255.6 501.9 250.3 505.2 245 508.5 C242.9 509.8 240.8 511.1 238.7 512.3 C237.2 513.1 235.7 513.9 234.3 514.7 C232.6 515.5 230.9 516.3 229.3 517.1 C224.9 519.1 220.4 521 216 522.9 C211.4 524.7 206.9 526.5 202.3 528.1 C199.5 529.1 196.7 530 193.9 530.8 C191.4 531.6 188.8 532.3 186.3 532.9 C182.1 533.9 177.9 534.9 173.7 535.9 C171.2 536.4 168.6 536.9 166.1 537.3 C164.5 537.6 162.9 537.9 161.3 538.1 C160.6 538.2 159.9 538.4 159.2 538.5 C157.8 538.7 156.4 538.9 155 539.1 C153.5 539.3 152.1 539.5 150.6 539.6 C148.9 539.7 147.2 539.9 145.5 540 C140 540.2 134.5 540.3 129.1 540.4 C122.6 540.5 116.2 540.4 109.7 540.3 C107 540.2 104.2 540.1 101.5 539.9 C99.2 539.8 96.9 539.6 94.7 539.4 C91.6 539 88.5 538.6 85.4 538.2 C82.2 537.7 79.1 537.1 76 536.5 C72.8 535.8 69.5 535.1 66.3 534.3 C61.4 533.1 56.6 531.8 51.7 530.4 C49.4 529.7 47.1 529 44.8 528.2 C42.7 527.5 40.5 526.7 38.4 525.9 C35.5 524.8 32.6 523.6 29.7 522.4 C26.7 521.1 23.7 519.7 20.7 518.3 C19.9 517.9 19.1 517.5 18.3 517.1 C17.4 516.7 16.6 516.3 15.8 515.9 C12.2 514.2 8.7 512.4 5.2 510.6 C3.5 509.6 1.7 508.7 -0.1 507.7 C-1.9 506.6 -3.6 505.6 -5.4 504.5 C-8 502.7 -10.6 501 -13.2 499.2 C-15.6 497.4 -18.1 495.7 -20.5 493.9 C-22.6 492.2 -24.7 490.6 -26.7 488.9 C-29.6 486.5 -32.4 484 -35.2 481.5 C-36.7 480.2 -38.1 478.9 -39.6 477.7 C-41.2 476.2 -42.9 474.7 -44.6 473.2 C-45.6 472.2 -45.6 472.2 -46.7 471.1 C-47.3 470.5 -47.9 469.9 -48.4 469.3 C-49.5 468 -50.6 466.8 -51.7 465.5 C-54.4 462.3 -57.3 459.2 -60.2 456.1 C-62.3 453.7 -64.5 451.4 -66.7 449.1 C-67.5 448.4 -68.3 447.7 -69.1 446.9 C-70.9 445.3 -72.8 443.7 -74.7 442.1 C-76.8 440.4 -78.8 438.7 -80.8 436.9 C-81.8 436 -81.8 436 -82.7 435.1 C-83.3 434.5 -83.8 434 -84.4 433.4 C-86.2 431.3 -88 429.2 -89.7 427.1 C-90.5 426.2 -91.3 425.3 -92.2 424.3 C-94.6 421.6 -96.9 418.8 -99.2 416 C-100.8 414.1 -102.3 412.1 -103.8 410.1 C-105.9 407.2 -107.9 404.3 -109.9 401.4 C-111.3 399.4 -112.6 397.3 -114 395.1 C-115.5 392.6 -117 390 -118.4 387.4 C-119.6 385.4 -120.7 383.3 -121.7 381.1 C-122.6 379.3 -123.4 377.5 -124.2 375.7 C-124.6 374.8 -125.1 373.9 -125.5 372.9 C-126.3 371.1 -127.1 369.3 -127.9 367.5 C-128.3 366.6 -128.7 365.8 -129.1 364.9 C-129.5 364.1 -129.9 363.3 -130.3 362.5 C-130.8 361.7 -131.2 360.9 -131.7 360.1 C-132.4 359.4 -133 358.7 -133.7 357.9 C-135.6 355.9 -137.7 354 -139.7 352.1 C-140.5 351.2 -141.3 350.4 -142.1 349.5 C-144.3 346.7 -146.5 343.9 -148.7 341.1 C-149.4 340.3 -149.4 340.3 -150 339.5 C-151.9 337.1 -153.7 334.7 -155.5 332.2 C-156.9 330.2 -158.3 328.2 -159.7 326.1 C-161.2 323.8 -162.6 321.5 -164 319.2 C-165.9 316 -167.7 312.7 -169.5 309.5 C-171 306.6 -172.5 303.7 -174 300.8 C-175 298.7 -175.9 296.6 -176.9 294.5 C-177.8 292.3 -178.8 290 -179.7 287.8 C-180.9 284.5 -182.1 281.1 -183.3 277.8 C-184.4 274.4 -185.5 271 -186.5 267.6 C-187.2 265.2 -187.8 262.7 -188.5 260.2 C-189.3 256.8 -190 253.5 -190.7 250.1 C-190.9 249.4 -191.1 248.6 -191.2 247.8 C-191.5 246.3 -191.8 244.8 -192.1 243.2 C-192.4 241.6 -192.7 240 -192.9 238.3 C-193.1 236.4 -193.3 234.5 -193.5 232.6 C-193.7 230 -193.8 227.4 -193.9 224.7 C-194.1 218 -194.1 211.3 -194.1 204.5 C-194 199.7 -193.9 194.9 -193.7 190.1 C-193.6 187.9 -193.4 185.7 -193.3 183.6 C-193.1 181.8 -192.8 180 -192.6 178.2 C-192.3 176.5 -192.1 174.8 -191.8 173.1 C-191.4 171.5 -191.1 169.8 -190.7 168.1 C-190.5 167.2 -190.3 166.3 -190.2 165.3 C-189.5 162.3 -188.9 159.3 -188.2 156.3 C-187.4 153.3 -186.6 150.2 -185.7 147.2 C-185 145.1 -184.3 143 -183.6 140.9 C-182.5 137.7 -181.2 134.5 -180 131.3 C-178.7 128.2 -177.4 125.1 -176 122 C-174.8 119.3 -173.5 116.5 -172.1 113.7 C-170.9 111.3 -169.6 108.9 -168.3 106.5 C-167.2 104.3 -166 102.2 -164.7 100.1 C-163.4 98 -162.1 95.9 -160.7 93.7 C-158.3 90.2 -155.7 86.7 -153.2 83.3 C-151.5 81.1 -149.8 78.9 -148 76.7 C-146.7 75.1 -145.4 73.6 -144 72 C-141.3 69 -138.5 66.1 -135.7 63.1 C-134.8 62.2 -134 61.3 -133.1 60.3 C-131.3 58.5 -129.5 56.7 -127.7 54.9 C-126.7 53.9 -125.7 53 -124.7 52.1 C-123 50.7 -121.3 49.3 -119.5 47.8 C-117.2 46 -114.8 44.2 -112.4 42.4 C-110.9 41.3 -109.5 40.2 -108.1 39 C-106.3 37.7 -104.6 36.5 -102.9 35.2 C-100.5 33.6 -98.1 32.1 -95.6 30.5 C-93.3 29.1 -90.9 27.7 -88.5 26.3 C-85.9 24.9 -83.3 23.5 -80.7 22.1 C-78 20.8 -75.2 19.4 -72.4 18.1 C-69.5 16.9 -66.5 15.6 -63.6 14.4 C-60.7 13.3 -57.8 12.1 -54.8 11.1 C-51.9 10.1 -49.1 9.2 -46.2 8.2 C-43.3 7.4 -40.5 6.6 -37.6 5.8 C-35.7 5.4 -33.7 4.9 -31.7 4.5 C-27.9 3.7 -24 3 -20.2 2.3 C-17.7 1.9 -15.2 1.5 -12.7 1.1 C-11.7 1 -11.7 1 -10.7 0.8 C-9.3 0.6 -7.9 0.5 -6.4 0.3 C-4.3 0.2 -2.1 0.1 0 0 Z M-1.9 19.6 C-5.2 19.9 -8.5 20.3 -11.8 20.6 C-15.1 21.1 -18.4 21.6 -21.7 22.1 C-23.8 22.5 -25.8 22.9 -27.8 23.4 C-30.7 24.1 -33.6 24.8 -36.5 25.6 C-39.2 26.4 -42 27.2 -44.7 28.1 C-47.3 29 -49.8 29.9 -52.4 30.8 C-54.8 31.8 -57.3 32.8 -59.8 33.9 C-63.2 35.4 -66.6 37 -70 38.7 C-72.7 40 -75.4 41.4 -78.1 42.8 C-80.6 44.2 -83.2 45.6 -85.7 47.1 C-87.3 48.1 -88.8 49.1 -90.3 50 C-92.4 51.5 -94.6 53 -96.7 54.5 C-98.7 56 -100.7 57.5 -102.7 59.1 C-106.1 61.9 -109.4 64.7 -112.6 67.5 C-114.4 69 -116 70.6 -117.7 72.1 C-119.6 73.9 -121.4 75.7 -123.1 77.5 C-123.7 78 -124.2 78.6 -124.7 79.1 C-125.5 80 -126.2 80.8 -127 81.7 C-130.7 86.2 -134.3 90.8 -137.8 95.4 C-139.7 98 -141.6 100.5 -143.4 103.1 C-144.3 104.4 -145.1 105.8 -146 107.1 C-147.1 109 -148.3 111 -149.4 113 C-151.6 117.1 -153.8 121.2 -155.8 125.3 C-156.9 127.4 -157.9 129.5 -158.9 131.6 C-159.9 133.8 -160.8 135.9 -161.7 138.1 C-162.6 140.3 -163.4 142.4 -164.2 144.6 C-164.9 146.8 -165.6 149.1 -166.3 151.3 C-167.1 153.8 -167.8 156.3 -168.4 158.8 C-169.4 162.5 -170.3 166.3 -171.1 170 C-171.8 173.5 -172.5 176.9 -173.1 180.3 C-173.4 181.7 -173.6 183 -173.8 184.3 C-174 185.7 -174.1 187 -174.3 188.3 C-174.4 189.8 -174.5 191.2 -174.6 192.6 C-174.8 196.7 -174.9 200.7 -175 204.8 C-175 208.3 -175 211.8 -175 215.3 C-174.9 217.6 -174.8 219.8 -174.7 222.1 C-174.6 224.1 -174.4 226.2 -174.3 228.2 C-174 231 -173.6 233.9 -173.2 236.7 C-172.8 239.5 -172.3 242.3 -171.7 245.1 C-171.1 248 -170.5 250.9 -169.8 253.8 C-169 256.7 -168.3 259.6 -167.4 262.5 C-166.6 265.3 -165.7 268.1 -164.8 270.8 C-163.9 273.5 -163 276.1 -162 278.7 C-161 281.4 -160 283.9 -158.9 286.5 C-157.7 289.2 -156.5 291.9 -155.2 294.5 C-153.9 297.2 -152.5 299.9 -151.1 302.5 C-149.7 305.1 -148.2 307.6 -146.7 310.1 C-145.7 311.7 -144.7 313.2 -143.7 314.8 C-142.3 316.9 -140.7 319.1 -139.2 321.2 C-136.9 324.4 -134.5 327.5 -132 330.5 C-130.7 332.2 -129.4 333.7 -128.1 335.3 C-125.5 338.2 -122.9 341 -120.3 343.8 C-118.4 345.7 -116.6 347.6 -114.7 349.5 C-113.4 350.8 -112.1 352 -110.8 353.3 C-109.4 354.5 -108 355.7 -106.7 356.9 C-104.6 358.6 -102.4 360.3 -100.3 361.9 C-96.8 364.5 -93.3 367 -89.8 369.5 C-87.8 370.8 -85.9 372.1 -84 373.3 C-82 374.5 -80 375.7 -77.9 376.9 C-75.6 378.2 -73.2 379.5 -70.8 380.7 C-68.2 382 -65.5 383.3 -62.9 384.6 C-60.2 385.8 -57.5 387 -54.7 388.1 C-52.1 389.2 -49.4 390.2 -46.7 391.1 C-44.1 392 -41.4 392.8 -38.8 393.7 C-36.3 394.4 -33.8 395.1 -31.3 395.8 C-29 396.4 -26.7 396.9 -24.4 397.4 C-21.5 398 -18.6 398.6 -15.7 399.1 C-13.9 399.5 -13.9 399.5 -12 399.8 C-10.8 400 -9.6 400.2 -8.3 400.4 C-6.3 400.6 -4.3 400.8 -2.2 401 C0.8 401.2 3.7 401.3 6.7 401.3 C11.6 401.4 16.4 401.4 21.2 401.4 C23.6 401.3 25.9 401.2 28.3 401.1 C30.2 401 32.2 400.9 34.1 400.7 C35.9 400.5 37.7 400.3 39.5 400.1 C41.2 399.8 43 399.5 44.8 399.2 C47.6 398.7 50.5 398.1 53.3 397.4 C56.5 396.7 59.7 395.9 62.8 395 C66 394.1 69.1 393.1 72.3 392.1 C74.2 391.5 76.2 390.8 78.1 390.1 C80.8 389 83.5 387.9 86.2 386.8 C88.8 385.7 91.3 384.5 93.8 383.3 C97.1 381.7 100.3 380.1 103.4 378.4 C105.7 377.2 107.9 375.9 110.1 374.7 C112.2 373.4 114.2 372.2 116.2 370.9 C118 369.7 119.8 368.4 121.6 367.2 C124.4 365.1 127.2 363 129.9 360.9 C131.5 359.6 133.1 358.3 134.7 356.9 C136.9 355 139.1 353.1 141.3 351.1 C143.8 348.8 146.3 346.4 148.8 344 C150.7 342.1 152.6 340.1 154.4 338.2 C155.7 336.8 156.9 335.4 158 334.1 C159.8 332 161.4 329.8 163.1 327.7 C165.7 324.2 168.2 320.7 170.6 317.2 C171.9 315.2 173.2 313.3 174.5 311.4 C175.7 309.4 176.9 307.4 178.1 305.3 C179.4 303 180.6 300.6 181.9 298.2 C183.2 295.6 184.5 292.9 185.7 290.2 C186.9 287.6 188.1 284.9 189.3 282.1 C190.3 279.6 191.3 277 192.2 274.4 C193.1 271.8 193.9 269.2 194.7 266.6 C195.6 263.8 196.3 261 197 258.2 C197.7 255.1 198.4 252.1 199.1 249 C199.9 245.1 200.6 241.1 201.3 237.1 C201.7 234.6 202 232.1 202.3 229.6 C202.6 227.3 202.8 224.9 203 222.6 C203.2 219.7 203.4 216.8 203.5 213.9 C203.5 212.4 203.6 211 203.6 209.6 C203.6 208.1 203.6 206.6 203.5 205.1 C203.4 202.5 203.3 199.8 203.1 197.2 C202.8 194 202.5 190.7 202.2 187.5 C201.8 184.1 201.3 180.8 200.8 177.4 C200.5 175.3 200.1 173.1 199.7 171 C199 167.9 198.3 164.9 197.6 161.8 C196.8 158.8 196 155.9 195.1 153 C194.3 150.2 193.4 147.4 192.5 144.7 C191.6 142.1 190.6 139.5 189.6 136.9 C188.5 134.3 187.4 131.7 186.3 129.1 C185 126.4 183.7 123.7 182.4 121.1 C181 118.4 179.6 115.8 178.2 113.1 C177.2 111.5 176.3 109.8 175.3 108.1 C174.3 106.6 173.3 105 172.3 103.4 C170.8 101.3 169.3 99.1 167.8 97 C166.8 95.6 165.8 94.3 164.8 93 C163.8 91.8 162.8 90.6 161.8 89.4 C160.4 87.7 158.9 86.1 157.5 84.6 C156.6 83.6 155.6 82.7 154.7 81.7 C153.5 80.4 153.5 80.4 152.3 79.1 C151.2 77.8 150.1 76.5 149 75.1 C148.4 74.5 147.9 73.9 147.3 73.2 C146.6 72.5 146 71.8 145.3 71.1 C143.7 69.7 142.2 68.3 140.6 66.9 C138.8 65.3 137 63.7 135.2 62.2 C133.9 61.2 132.6 60.1 131.3 59.1 C129.3 57.6 127.3 56.2 125.3 54.8 C122.6 52.9 119.9 51.1 117.2 49.4 C114.3 47.5 111.5 45.7 108.5 44 C106.8 43 105 42.1 103.3 41.1 C100.2 39.6 97.1 38.1 93.9 36.6 C90.5 35.1 87.1 33.6 83.6 32.1 C81.6 31.2 79.5 30.4 77.5 29.6 C76.3 29.2 75.2 28.8 74 28.4 C72.1 27.8 70.3 27.2 68.4 26.7 C65 25.8 61.5 24.9 58.1 24.1 C54.1 23.2 50.1 22.4 46.2 21.6 C44.3 21.3 42.5 21 40.6 20.7 C38.1 20.4 35.6 20.1 33 19.8 C29.8 19.5 26.5 19.3 23.3 19.1 C21 19 18.7 18.9 16.4 18.8 C14.9 18.8 13.4 18.8 11.8 18.8 C7.2 18.9 2.7 19.2 -1.9 19.6 Z M271.3 294.1 C270.9 295.3 270.6 296.5 270.2 297.8 C269.1 301.4 267.9 305.1 266.7 308.7 C265.9 310.9 265.1 313 264.3 315.1 C262.8 318.6 261.2 322.1 259.6 325.5 C257.4 330.1 255.2 334.6 252.9 339.2 C251.9 341 250.9 342.8 249.9 344.6 C249 346 248.2 347.3 247.3 348.7 C246.1 350.4 244.9 352.2 243.7 353.9 C242.9 355 242.1 356.1 241.3 357.1 C240.9 357.7 240.5 358.2 240.1 358.8 C238.4 361 236.8 363.2 235.1 365.4 C233.8 367 232.6 368.6 231.3 370.1 C229.5 372.2 227.7 374.2 225.9 376.2 C224 378.2 222.2 380.2 220.3 382.1 C219.8 382.6 219.3 383.1 218.8 383.6 C216.9 385.7 215 387.7 213 389.7 C211.4 391.2 209.9 392.7 208.3 394.1 C206.6 395.6 204.9 397 203.2 398.4 C200.9 400.2 198.5 402 196.1 403.8 C193.1 406 190 408.2 186.9 410.2 C184.4 411.9 181.8 413.5 179.3 415.1 C176.7 416.7 174 418.3 171.3 419.8 C168.7 421.3 166 422.7 163.3 424.1 C161.4 425.1 159.5 426 157.5 426.9 C155.6 427.8 153.6 428.6 151.6 429.4 C148.5 430.7 145.5 431.8 142.4 432.9 C138.9 434.2 135.3 435.4 131.8 436.5 C129 437.3 126.3 438.1 123.5 438.9 C120.7 439.6 117.8 440.3 115 440.9 C110.7 441.9 106.4 442.7 102.1 443.5 C100.2 443.9 98.2 444.2 96.3 444.4 C94.9 444.6 93.5 444.7 92.2 444.8 C89.5 445 86.7 445.1 84 445.2 C79 445.4 73.9 445.4 68.9 445.4 C65 445.4 61.1 445.3 57.3 445.1 C55.1 445 52.8 444.8 50.6 444.7 C47.5 444.4 44.4 444 41.3 443.6 C38.3 443.2 35.3 442.7 32.3 442.1 C29.2 441.5 26.1 440.8 23 440.1 C19.9 439.4 16.9 438.6 13.9 437.8 C10.4 436.8 6.9 435.7 3.4 434.6 C1.1 433.8 -1.1 433 -3.4 432.2 C-5.9 431.2 -8.3 430.2 -10.7 429.1 C-17.2 426.2 -23.7 423.1 -30.1 420 C-32 419.1 -33.9 418.1 -35.7 417.1 C-37.1 416.3 -38.4 415.4 -39.7 414.5 C-40.3 414.1 -41 413.7 -41.6 413.3 C-42.7 412.7 -42.7 412.7 -43.7 412.1 C-44.6 411.7 -45.5 411.4 -46.4 411 C-49.6 409.8 -52.7 408.6 -55.9 407.5 C-59.4 406.2 -62.9 404.9 -66.3 403.5 C-67.4 403.1 -68.6 402.6 -69.7 402.1 C-71.8 401.1 -73.9 400.1 -76 399 C-78.8 397.6 -81.6 396.1 -84.3 394.5 C-85.1 394.1 -85.9 393.6 -86.8 393.2 C-87.4 392.8 -88.1 392.4 -88.9 392 C-89.8 391.6 -89.8 391.6 -90.7 391.1 C-91.7 391.1 -92.7 391.1 -93.7 391.1 C-90.5 395.5 -87.1 399.9 -83.7 404.1 C-80.5 408.1 -77.1 411.9 -73.8 415.7 C-72 417.7 -70.3 419.6 -68.5 421.5 C-67.3 422.8 -66 424.1 -64.7 425.3 C-63.3 426.6 -61.8 428 -60.3 429.2 C-57.4 431.6 -54.6 433.9 -51.7 436.1 C-50.8 436.9 -49.8 437.7 -48.8 438.5 C-46.7 440.2 -44.6 441.8 -42.5 443.5 C-41.2 444.4 -40 445.2 -38.7 446.1 C-36.4 447.7 -34 449.2 -31.6 450.6 C-28.2 452.7 -24.8 454.7 -21.3 456.7 C-18.9 458 -16.5 459.3 -14.1 460.6 C-11.8 461.8 -9.5 462.9 -7.2 464 C-5.5 464.7 -3.9 465.4 -2.3 466.1 C0.5 467.2 3.3 468.3 6.1 469.3 C10.2 470.7 14.3 472.1 18.4 473.4 C21.2 474.3 24.1 475.1 26.9 475.8 C29.3 476.4 31.8 477 34.2 477.5 C37.2 478.1 40.2 478.6 43.3 479.1 C45.2 479.5 45.2 479.5 47.2 479.8 C49.2 480.1 51.2 480.4 53.2 480.6 C54.7 480.7 56.1 480.9 57.6 481 C60.8 481.2 63.9 481.3 67 481.3 C72 481.4 77 481.4 82 481.4 C84.5 481.3 86.9 481.2 89.3 481.1 C91.3 481 93.2 480.8 95.2 480.7 C97 480.5 98.8 480.2 100.7 480 C102.4 479.7 104.2 479.5 106 479.2 C108.7 478.7 111.4 478.1 114.1 477.5 C117 476.9 119.9 476.2 122.8 475.4 C125.7 474.7 128.6 473.9 131.5 473 C134.2 472.1 137 471.2 139.7 470.3 C142.4 469.4 145 468.4 147.6 467.4 C150.2 466.3 152.7 465.2 155.3 464.1 C157.7 463 160.2 461.8 162.6 460.6 C165 459.4 167.3 458.1 169.6 456.8 C172 455.5 174.3 454.1 176.6 452.7 C179.7 450.7 182.8 448.7 185.8 446.7 C188.7 444.7 191.5 442.7 194.3 440.6 C196.8 438.8 199.3 436.9 201.7 434.9 C203.2 433.7 204.8 432.4 206.3 431.1 C207 430.5 207.7 429.8 208.4 429.1 C209.6 428 210.7 426.8 211.8 425.7 C212.5 424.9 212.5 424.9 213.3 424.1 C214.4 423.2 215.5 422.3 216.7 421.4 C217.2 420.9 217.8 420.4 218.4 419.9 C219 419.3 219.6 418.7 220.3 418.1 C221.8 416.4 223.2 414.7 224.7 412.9 C225.8 411.5 225.8 411.5 227 410 C228.1 408.6 228.1 408.6 229.3 407.1 C230.4 405.9 230.4 405.9 231.5 404.6 C233 402.9 234.4 401.1 235.9 399.3 C236.7 398.3 237.5 397.2 238.3 396.1 C239.7 394 241.1 391.9 242.4 389.7 C244.3 386.7 246.2 383.5 248 380.4 C249.2 378.3 250.4 376.1 251.5 373.9 C252.9 371.3 254.2 368.6 255.5 366 C256.7 363.5 257.8 361 258.9 358.5 C259.9 356.1 260.9 353.7 261.8 351.2 C262.6 349.1 263.3 346.9 264.1 344.7 C265.2 341.2 266.2 337.7 267.2 334.2 C267.9 331.5 268.6 328.8 269.3 326.1 C269.8 323.6 270.3 321.1 270.8 318.5 C271.1 316.2 271.5 313.8 271.8 311.5 C272 310 272.1 308.6 272.3 307.1 C272.4 305.8 272.4 304.4 272.5 303.1 C272.5 300.8 272.4 298.5 272.4 296.3 C272.3 295.6 272.3 294.9 272.3 294.1 C271.9 294.1 271.6 294.1 271.3 294.1 Z " transform="translate(432.7236328125,241.87548828125)" fill="currentColor" />
<path d="M0 0 C1.2 -0 2.4 -0 3.7 -0.1 C6.9 -0 10 0.1 13.2 0.3 C15.5 0.4 17.8 0.6 20 0.8 C21.6 1 23.3 1.2 24.9 1.4 C26.6 1.6 28.4 1.9 30.2 2.2 C33.3 2.8 36.3 3.4 39.4 4.1 C42.7 4.8 45.9 5.6 49.1 6.4 C51.1 7 53.1 7.6 55.2 8.2 C56.9 8.8 58.6 9.4 60.3 10 C61.9 10.6 63.5 11.3 65.1 11.9 C67.4 12.9 69.6 14 71.9 15.1 C75 16.6 78.1 18.2 81.2 19.8 C83.5 21 85.8 22.3 88 23.6 C89.4 24.5 90.8 25.3 92.2 26.2 C93.3 27 94.5 27.8 95.7 28.6 C96.8 29.4 97.8 30.2 98.9 31.1 C101 32.8 103.1 34.5 105.2 36.2 C106 36.9 106 36.9 106.9 37.6 C109.3 39.6 111.7 41.6 114.1 43.7 C115.8 45.1 117.5 46.7 119.2 48.2 C120 49.1 120.9 50 121.9 50.9 C123.1 52.2 123.1 52.2 124.3 53.5 C126 55.4 127.6 57.3 129.2 59.2 C131 61.6 132.9 63.9 134.7 66.4 C136.1 68.3 137.5 70.2 138.8 72.2 C139.7 73.5 140.6 74.8 141.4 76.1 C142.6 78.1 143.7 80 144.8 82 C146 84 147 86 148.1 88.1 C149.6 91 151 93.9 152.4 96.9 C153.4 99.1 154.4 101.4 155.4 103.7 C156 105.2 156.6 106.7 157.2 108.2 C157.7 109.6 158.2 111.1 158.7 112.5 C159.3 114.7 160 116.8 160.6 118.9 C161.1 121 161.7 123.1 162.2 125.2 C162.8 128 163.4 130.8 163.9 133.6 C164.4 136.1 164.8 138.7 165.2 141.2 C165.5 143.6 165.7 146 166 148.5 C166.1 150.3 166.2 152.2 166.3 154 C166.4 158.1 166.4 162.2 166.4 166.4 C166.4 169.6 166.3 172.9 166.2 176.2 C166 178 165.8 179.8 165.7 181.6 C165.4 183.2 165.2 184.9 165 186.6 C164.6 189 164.1 191.4 163.6 193.8 C163 197 162.3 200.2 161.6 203.3 C161 205.7 160.3 208 159.7 210.4 C159.2 212 158.7 213.6 158.2 215.2 C157.3 217.7 156.4 220.3 155.4 222.8 C154.4 225.4 153.4 227.9 152.3 230.4 C151.3 232.7 150.2 235.1 149.1 237.4 C148.4 238.7 147.7 240.1 147 241.5 C146.3 242.8 145.5 244.1 144.8 245.4 C144 246.7 143.2 248 142.4 249.2 C141.1 251.3 139.7 253.3 138.3 255.3 C136.9 257.3 135.3 259.4 133.8 261.4 C132.3 263.3 130.7 265.3 129.2 267.2 C127.7 268.9 126.2 270.7 124.6 272.4 C122.7 274.5 120.7 276.6 118.6 278.7 C117.9 279.4 117.9 279.4 117.2 280.2 C116.7 280.7 116.2 281.1 115.7 281.6 C114.3 283 112.8 284.4 111.4 285.8 C110.4 286.7 109.4 287.6 108.4 288.5 C107.3 289.4 106.2 290.3 105.2 291.2 C103.3 292.6 101.4 294 99.4 295.4 C96.7 297.3 94 299.1 91.2 300.9 C88.6 302.5 86 304.2 83.3 305.7 C81.4 306.9 79.4 308 77.4 309.1 C75.2 310.2 73.1 311.2 70.9 312.2 C68.5 313.3 66.1 314.4 63.7 315.4 C62 316 60.4 316.7 58.7 317.3 C56.8 318 55 318.6 53.2 319.2 C49.9 320.1 46.6 321 43.2 321.8 C39.2 322.8 35.1 323.7 31 324.6 C30.1 324.8 29.1 325 28.2 325.2 C26.2 325.5 24.2 325.8 22.2 326 C21.2 326.1 21.2 326.1 20.2 326.2 C16.9 326.3 13.7 326.4 10.5 326.4 C3.7 326.5 -3.1 326.5 -9.9 326.3 C-12.2 326.2 -14.5 326.1 -16.9 326 C-18.4 325.8 -20 325.6 -21.6 325.4 C-23 325.2 -24.3 324.9 -25.7 324.7 C-27.8 324.2 -29.8 323.7 -31.8 323.2 C-32.7 323 -33.5 322.8 -34.3 322.6 C-37 321.9 -39.7 321.2 -42.3 320.5 C-45 319.7 -47.6 318.9 -50.3 318.1 C-52 317.5 -53.6 316.9 -55.3 316.3 C-57.7 315.3 -60 314.3 -62.3 313.3 C-65.2 312 -68 310.6 -70.8 309.2 C-73.3 308 -75.6 306.7 -78 305.4 C-79.7 304.4 -81.4 303.4 -83.1 302.4 C-85 301.1 -86.9 299.7 -88.8 298.4 C-91.6 296.4 -94.3 294.4 -97 292.3 C-98.9 290.8 -100.8 289.3 -102.6 287.7 C-104.2 286.3 -105.8 284.9 -107.3 283.4 C-109.2 281.7 -111 279.9 -112.8 278.2 C-113.6 277.5 -114.3 276.9 -115 276.2 C-116.3 274.9 -117.6 273.7 -118.9 272.4 C-119.5 271.7 -120.2 270.9 -120.8 270.2 C-122.5 268.2 -124.1 266.2 -125.7 264.2 C-127 262.5 -128.3 260.8 -129.6 259 C-130.9 257.2 -132.2 255.3 -133.4 253.4 C-134.7 251.4 -136 249.4 -137.2 247.4 C-138.5 245.3 -139.7 243.3 -140.8 241.2 C-142 239.1 -143 237 -144.1 234.9 C-145.1 232.8 -146.1 230.7 -147 228.5 C-148 226.4 -148.8 224.2 -149.7 222 C-150.5 219.8 -151.3 217.5 -152.1 215.3 C-152.8 213.1 -153.5 210.8 -154.2 208.5 C-154.6 206.9 -155.1 205.3 -155.5 203.7 C-156.2 200.4 -156.9 197.2 -157.6 193.9 C-157.9 192.4 -158.2 190.9 -158.5 189.4 C-158.7 187.9 -159 186.4 -159.2 184.9 C-159.4 183.2 -159.5 181.6 -159.7 179.9 C-159.8 178 -159.9 176 -160 174.1 C-160.1 168.2 -160.1 162.2 -160.1 156.3 C-160 153.9 -159.9 151.6 -159.8 149.2 C-159.7 147.3 -159.6 145.5 -159.4 143.6 C-159.2 142 -159 140.4 -158.7 138.7 C-158.5 137.2 -158.2 135.6 -157.9 134 C-157.4 131.5 -156.8 129 -156.2 126.6 C-155.6 123.8 -154.8 121.1 -154.1 118.4 C-153.3 115.8 -152.5 113.2 -151.7 110.6 C-151.1 109.1 -150.6 107.5 -150 105.9 C-149.5 104.6 -148.9 103.2 -148.3 101.8 C-147.5 99.8 -146.6 97.9 -145.7 95.9 C-145.1 94.7 -144.5 93.4 -143.8 92.2 C-143.5 91.6 -143.2 90.9 -142.9 90.3 C-142 88.4 -141 86.5 -140 84.6 C-139 82.7 -138 80.8 -136.9 79 C-136.2 77.8 -135.5 76.6 -134.7 75.4 C-133.5 73.6 -132.3 71.9 -131.1 70.1 C-129.8 68.4 -128.5 66.6 -127.2 64.9 C-125.3 62.5 -123.4 60.1 -121.5 57.8 C-120 56 -118.5 54.2 -116.9 52.5 C-115.9 51.4 -114.9 50.3 -113.8 49.2 C-112.4 47.7 -110.9 46.2 -109.3 44.8 C-107.9 43.4 -106.4 42 -104.8 40.7 C-102.9 39 -100.9 37.4 -98.9 35.8 C-96.9 34.3 -94.9 32.8 -92.9 31.3 C-90.9 29.9 -88.8 28.5 -86.8 27.1 C-84.6 25.8 -82.5 24.5 -80.3 23.2 C-77.9 21.8 -75.5 20.4 -73 19.1 C-70.4 17.7 -67.7 16.4 -64.9 15.1 C-62.3 13.8 -59.7 12.7 -57 11.5 C-55.1 10.7 -53.2 10 -51.3 9.3 C-49.9 8.8 -48.5 8.3 -47.1 7.9 C-45.5 7.4 -43.9 6.9 -42.3 6.5 C-39.6 5.8 -36.8 5.1 -34 4.4 C-31.2 3.8 -28.4 3.2 -25.6 2.7 C-23.8 2.4 -22 2.1 -20.3 1.8 C-17.8 1.4 -15.4 1.1 -12.9 0.9 C-10.6 0.7 -8.3 0.5 -6 0.3 C-4 0.2 -2 0.1 0 0 Z M-14.6 20.4 C-16.1 20.5 -17.6 20.7 -19.1 20.9 C-20.5 21.1 -21.9 21.3 -23.3 21.6 C-24.7 21.9 -26.1 22.2 -27.5 22.6 C-31.2 23.6 -35 24.6 -38.7 25.7 C-41.8 26.7 -44.9 27.8 -47.9 28.9 C-49.9 29.6 -51.9 30.4 -53.8 31.2 C-55.6 32 -57.4 32.8 -59.1 33.6 C-60.7 34.4 -62.4 35.2 -64 36.1 C-65.5 36.9 -67.1 37.8 -68.6 38.6 C-70.7 39.9 -72.8 41.1 -74.8 42.4 C-76.1 43.2 -77.3 44.1 -78.5 44.9 C-79.7 45.7 -80.8 46.5 -82 47.4 C-83.1 48.2 -84.2 49 -85.2 49.9 C-86.9 51.2 -88.5 52.6 -90.1 54 C-92.2 55.8 -94.2 57.7 -96.2 59.6 C-97.1 60.5 -97.9 61.3 -98.8 62.2 C-99.6 62.8 -100.3 63.5 -101 64.1 C-101.6 64.7 -102.3 65.3 -102.9 65.9 C-103.5 66.6 -104.2 67.2 -104.8 67.9 C-105.5 68.6 -106.1 69.4 -106.8 70.2 C-108.2 71.9 -109.5 73.6 -110.9 75.3 C-112.3 77.2 -113.7 79.2 -115.1 81.1 C-116.5 83.1 -117.8 85.1 -119.1 87.1 C-120.3 89 -121.4 90.9 -122.5 92.9 C-123.7 94.9 -124.7 96.9 -125.8 99 C-126.9 101.3 -128 103.5 -129 105.8 C-130.1 108.3 -131.1 110.8 -132.1 113.2 C-132.7 115 -133.4 116.7 -134 118.4 C-134.3 119.3 -134.6 120.2 -134.8 121.2 C-135.4 123.2 -135.9 125.2 -136.4 127.3 C-137.3 131.2 -138.2 135.1 -138.9 139 C-139.3 140.7 -139.6 142.4 -139.8 144.2 C-140.1 145.7 -140.3 147.3 -140.5 148.8 C-140.6 150.3 -140.7 151.7 -140.8 153.2 C-140.9 154.6 -141 156 -141.1 157.5 C-141.1 160.6 -141.1 163.8 -141.1 167 C-141 168.7 -140.9 170.4 -140.8 172.2 C-140.7 173.9 -140.6 175.6 -140.4 177.3 C-140.1 180 -139.7 182.6 -139.3 185.2 C-138.9 187.9 -138.4 190.5 -137.8 193.2 C-137.5 194.9 -137.1 196.7 -136.7 198.4 C-136 201.1 -135.3 203.7 -134.5 206.3 C-134 208 -133.4 209.8 -132.8 211.5 C-132.2 213.3 -131.5 215.2 -130.7 217 C-129.5 219.7 -128.3 222.5 -127 225.2 C-125.7 227.8 -124.4 230.4 -123.1 232.9 C-122.3 234.3 -121.5 235.7 -120.7 237.1 C-119.8 238.7 -118.7 240.3 -117.7 241.9 C-116.5 243.7 -115.2 245.4 -113.8 247.2 C-113.2 248 -112.6 248.9 -111.9 249.7 C-110.6 251.4 -109.3 253.1 -108 254.7 C-105.7 257.4 -103.4 260.1 -101 262.7 C-99.3 264.6 -97.6 266.4 -95.8 268.2 C-94.5 269.4 -94.5 269.4 -93.2 270.6 C-91.4 272.1 -89.6 273.6 -87.7 275 C-84.8 277.3 -81.8 279.5 -78.7 281.7 C-77.1 282.8 -75.4 284 -73.7 285 C-72.4 285.8 -71.1 286.6 -69.9 287.4 C-67.8 288.6 -65.7 289.7 -63.5 290.9 C-61.4 292 -59.2 293.1 -57 294.2 C-55 295.1 -53 296 -51 296.9 C-49.7 297.4 -48.4 297.9 -47.2 298.4 C-45.9 298.9 -44.6 299.4 -43.2 299.8 C-41.8 300.3 -40.3 300.8 -38.8 301.2 C-35 302.2 -31.2 303.1 -27.3 304 C-24.7 304.6 -22 305.2 -19.3 305.7 C-17.2 306.1 -15 306.5 -12.9 306.8 C-11.6 307 -10.2 307.1 -8.8 307.2 C-6.1 307.3 -3.3 307.4 -0.6 307.4 C3.7 307.4 7.9 307.4 12.1 307.3 C13.1 307.3 14.1 307.2 15.2 307.2 C16.9 307 18.6 306.9 20.3 306.7 C21.9 306.5 23.5 306.2 25.1 306 C26.6 305.7 28.2 305.4 29.7 305.2 C31.9 304.7 34.1 304.2 36.4 303.7 C38.5 303.1 40.7 302.5 42.8 301.9 C44.9 301.3 47 300.6 49.1 299.9 C51.2 299.2 53.2 298.4 55.2 297.6 C57.2 296.8 59.2 295.9 61.2 295 C63.9 293.8 66.5 292.5 69.2 291.2 C71.2 290.1 73.3 289 75.3 287.9 C76.6 287.2 77.9 286.4 79.3 285.6 C80.6 284.8 81.9 284 83.2 283.2 C84.4 282.3 85.7 281.4 87 280.4 C88.8 279.1 90.6 277.6 92.3 276.2 C94 274.9 95.6 273.5 97.2 272.2 C98 271.5 98.9 270.7 99.8 270 C101.3 268.7 102.8 267.4 104.2 266.1 C105.5 264.8 106.7 263.6 107.9 262.3 C109.1 261.1 110.2 259.7 111.3 258.4 C113.4 255.8 115.5 253.2 117.5 250.6 C119.1 248.5 120.6 246.4 122.2 244.2 C123.3 242.4 124.5 240.6 125.6 238.8 C126.8 236.9 127.9 235 129 233.1 C130.1 231.2 131.1 229.2 132.1 227.3 C133.1 225.4 134 223.4 134.8 221.5 C135.4 220.2 136 218.8 136.5 217.5 C137.1 216.1 137.6 214.6 138.2 213.2 C139 210.6 139.9 208.1 140.7 205.5 C141.7 202.2 142.7 198.8 143.6 195.4 C144.1 193.5 144.5 191.6 144.9 189.6 C145.1 188.6 145.3 187.6 145.5 186.6 C145.7 184.8 145.9 183 146.2 181.2 C146.3 180.3 146.4 179.4 146.5 178.5 C146.7 176.7 146.8 174.8 147 173 C147.1 171.1 147.2 169.2 147.3 167.2 C147.3 165.1 147.3 163 147.3 160.8 C147.2 158.2 147.1 155.6 146.9 153.1 C146.7 150.8 146.5 148.6 146.2 146.3 C146 144.8 145.8 143.2 145.6 141.6 C145.3 140 145 138.3 144.7 136.7 C144.1 134.1 143.5 131.5 142.9 129 C142.3 126.5 141.6 124 140.9 121.5 C140.4 120 140 118.6 139.5 117.1 C138.8 115.2 138.1 113.4 137.4 111.5 C136.6 109.7 135.9 107.9 135 106.1 C133.7 103.3 132.4 100.5 131 97.8 C129.9 95.6 128.7 93.5 127.6 91.3 C126.8 89.9 126 88.6 125.2 87.2 C124.4 85.9 123.6 84.7 122.8 83.5 C121.6 81.7 120.3 79.9 119.1 78.2 C118.2 77.1 117.4 76 116.5 74.9 C115.1 73.1 113.7 71.4 112.2 69.8 C110.7 68.1 109.2 66.4 107.7 64.8 C105.3 62.3 102.9 59.9 100.5 57.5 C99.6 56.7 98.7 55.8 97.8 55 C96.9 54.2 96 53.4 95.1 52.6 C94.1 51.8 93.2 51 92.2 50.2 C91 49.3 89.9 48.5 88.7 47.7 C86.9 46.4 85 45.1 83.1 43.9 C81.1 42.6 79.1 41.4 77.2 40.2 C76.5 39.8 75.9 39.4 75.2 39 C73.2 37.8 71.2 36.7 69.2 35.6 C67.8 34.8 66.4 34.1 64.9 33.4 C63.4 32.6 61.8 31.9 60.2 31.2 C58.2 30.4 56.3 29.7 54.4 28.9 C51.3 27.8 48.2 26.8 45.1 25.8 C41.3 24.7 37.6 23.6 33.8 22.5 C32.4 22.2 31 21.9 29.6 21.6 C28.2 21.3 26.8 21.1 25.4 20.9 C23.9 20.7 22.4 20.5 20.9 20.4 C17.6 20.1 14.3 20 11 19.9 C7.1 19.8 3.1 19.8 -0.8 19.8 C-5.4 19.9 -10 20.1 -14.6 20.4 Z " transform="translate(443.84765625,284.81640625)" fill="currentColor" />
</svg>
