<?xml version="1.0" encoding="UTF-8"?>

<svg version="1.1" xmlns="http://www.w3.org/2000/svg" width="1024" height="1024" viewBox="0 0 1024 1024" fill="currentColor">
<path d="M0 0 C0.9 -0.1 1.9 -0.2 2.9 -0.2 C4.5 -0.3 4.5 -0.3 6.2 -0.3 C7.8 -0.4 7.8 -0.4 9.5 -0.4 C10.6 -0.3 11.8 -0.1 13 0 C13.6 0.2 14.3 0.5 14.9 0.7 C15.9 1.2 15.9 1.2 17 1.7 C17.6 2 18.3 2.4 19 2.8 C19.7 3.2 20.3 3.6 21 4 C21.9 4.7 21.9 4.7 22.9 5.3 C24.1 6.3 25.3 7.3 26.5 8.3 C27.2 8.8 27.8 9.3 28.4 9.9 C29.1 10.4 29.8 11 30.5 11.6 C31.9 12.8 33.4 14 34.8 15.2 C37.7 17.6 40.5 19.9 43.4 22.3 C44.8 23.4 46.2 24.6 47.6 25.8 C53.1 30.2 58.5 34.7 64 39.1 C68.9 43.1 73.8 47.1 78.6 51.1 C84.3 55.8 90.1 60.5 96 65 C98.2 66.8 100.4 68.5 102.6 70.4 C104.8 72.2 106.9 74 109.1 75.9 C111.3 77.8 113.6 79.6 115.8 81.5 C118.3 83.4 120.7 85.3 123.2 87.2 C124.8 88.5 126.4 89.7 128 91 C128.5 91.4 129.1 91.8 129.6 92.3 C130.2 92.7 130.7 93.1 131.2 93.6 C132.1 94.4 133.1 95.2 134 96 C134.5 96.7 135.1 97.4 135.6 98.1 C136.2 99.1 136.2 99.1 136.8 100.1 C137.2 100.8 137.6 101.5 138 102.1 C138.5 103.1 138.5 103.1 139 104 C139.3 105 139.7 106 140 107 C140.1 108 140.2 109 140.3 110 C140.3 111.2 140.3 112.4 140.4 113.6 C140.4 114.8 140.3 116.1 140.3 117.4 C140.2 118.6 140.1 119.8 140 121 C139.7 122.3 139.7 122.3 139.4 123.5 C139 124.3 138.7 125 138.4 125.8 C137.9 126.6 137.5 127.4 137 128.2 C136 129.6 136 129.6 135 131 C132.8 133.9 130.5 136.7 128.1 139.6 C126.3 141.8 124.4 143.9 122.6 146.1 C121.3 147.6 120.1 149.1 119 150.6 C118.4 151.2 117.9 151.9 117.4 152.6 C110.2 161.9 102.8 171 95.4 180.1 C88.1 188.9 80.9 197.8 73.8 206.8 C73.4 207.4 72.9 208 72.4 208.6 C71.3 210 70.1 211.5 69 213 C68.3 214 67.7 215 67 216 C68.3 216 68.3 216 69.6 215.9 C72.8 215.8 75.9 215.8 79.1 215.7 C80.5 215.7 81.9 215.7 83.2 215.6 C85.2 215.6 87.2 215.5 89.2 215.5 C90.4 215.5 91.5 215.5 92.8 215.4 C93.8 215.6 94.9 215.8 96 216 C97 216.8 97.9 217.6 98.9 218.4 C99.6 219.2 100.3 220.1 101 221 C101.2 221.8 101.5 222.5 101.7 223.3 C101.7 224 101.7 224.7 101.7 225.5 C101.7 226.2 101.7 227 101.8 227.7 C101.5 228.5 101.3 229.2 101 230 C99.8 231.3 99.8 231.3 98.7 232.6 C98.1 233 97.6 233.5 97 233.9 C96.3 234.3 95.7 234.6 95 235 C94.2 235.2 93.4 235.3 92.6 235.5 C91.7 235.5 90.8 235.6 89.9 235.6 C87.8 235.7 85.7 235.7 83.6 235.6 C82.5 235.6 81.3 235.7 80.1 235.7 C76.9 235.7 73.7 235.7 70.6 235.7 C67.1 235.6 63.7 235.7 60.2 235.7 C53.5 235.7 46.7 235.7 40 235.7 C34.5 235.7 29 235.7 23.5 235.7 C22.4 235.7 22.4 235.7 21.2 235.7 C19.6 235.7 18 235.7 16.4 235.7 C1.6 235.7 -13.3 235.7 -28.1 235.6 C-40.9 235.6 -53.6 235.6 -66.4 235.7 C-81.2 235.7 -96 235.7 -110.8 235.7 C-112.4 235.7 -114 235.7 -115.5 235.7 C-116.3 235.7 -117.1 235.7 -117.9 235.7 C-123.4 235.7 -128.9 235.7 -134.3 235.7 C-141 235.7 -147.7 235.7 -154.3 235.7 C-157.7 235.7 -161.1 235.6 -164.5 235.7 C-168.2 235.7 -171.9 235.7 -175.6 235.6 C-176.7 235.6 -177.8 235.7 -178.9 235.7 C-179.9 235.7 -180.9 235.6 -181.9 235.6 C-182.8 235.6 -183.7 235.5 -184.6 235.5 C-185.4 235.3 -186.2 235.2 -187 235 C-187.7 234.6 -188.3 234.3 -189 233.9 C-189.6 233.5 -190.1 233.1 -190.7 232.6 C-191.4 231.7 -192.2 230.9 -193 230 C-193.4 228.9 -193.4 228.9 -193.8 227.7 C-193.7 227 -193.7 226.3 -193.7 225.5 C-193.7 224.8 -193.7 224 -193.7 223.3 C-193.5 222.5 -193.2 221.8 -193 221 C-192.4 220.1 -191.8 219.3 -191.2 218.4 C-190.1 217.6 -189.1 216.8 -188 216 C-186.8 215.8 -186.8 215.8 -185.6 215.5 C-184.7 215.5 -183.8 215.4 -182.8 215.3 C-180.8 215.3 -178.7 215.3 -176.6 215.3 C-175.5 215.3 -174.4 215.3 -173.2 215.2 C-169.7 215.2 -166.2 215.2 -162.7 215.2 C-160.3 215.2 -157.9 215.1 -155.5 215.1 C-149.7 215 -143.8 215 -138 215 C-138.6 214.5 -139.1 214 -139.7 213.6 C-140.4 212.9 -141.1 212.3 -141.9 211.7 C-142.6 211 -143.3 210.4 -144.1 209.8 C-145 208.9 -145 208.9 -146 208 C-146.6 207.2 -147.2 206.3 -147.8 205.5 C-148.2 204.8 -148.6 204.1 -148.9 203.3 C-149.3 202.6 -149.7 201.9 -150.1 201.1 C-150.5 200.1 -150.5 200.1 -151 199 C-151.2 198.3 -151.4 197.7 -151.6 197 C-151.8 196 -151.8 196 -152 195 C-152.1 194.3 -152.2 193.7 -152.2 193 C-152.3 192.3 -152.3 191.6 -152.3 190.9 C-152.3 189.8 -152.3 189.8 -152.3 188.6 C-152.1 187.3 -152.1 187.3 -152 186 C-151.8 185.2 -151.6 184.4 -151.3 183.6 C-150.7 181.9 -150 180.2 -149.3 178.6 C-148.9 177.7 -148.4 176.9 -148 176 C-147.5 175.3 -147 174.6 -146.5 173.8 C-146 173.2 -145.5 172.5 -144.9 171.8 C-143.8 170.4 -142.6 169.1 -141.4 167.8 C-140.2 166.3 -138.9 164.8 -137.7 163.3 C-137 162.6 -136.4 161.8 -135.8 161.1 C-134.2 159.2 -132.6 157.3 -131.1 155.4 C-130.2 154.2 -129.3 153.1 -128.4 151.9 C-124.5 146.9 -120.5 141.9 -116.5 137 C-112.5 132 -108.4 127 -104.5 122 C-100 116.3 -95.4 110.6 -90.8 105 C-87.3 100.7 -83.9 96.4 -80.5 92 C-74.9 84.8 -69.2 77.8 -63.4 70.8 C-59 65.3 -54.6 59.8 -50.2 54.2 C-45 47.5 -39.6 40.8 -34.1 34.3 C-31.9 31.6 -29.7 28.9 -27.5 26.1 C-26.3 24.5 -25 22.8 -23.7 21.1 C-21.4 18 -19 15.1 -16.6 12.1 C-15.1 10.4 -13.6 8.7 -12.1 7 C-11.4 6.4 -10.7 5.7 -10 5 C-9.3 4.5 -8.7 4 -8 3.5 C-7.4 3.2 -6.8 2.8 -6.1 2.4 C-5.1 2 -4.1 1.5 -3 1 C-2 0.7 -1 0.3 0 0 Z M4 19 C3.2 19.5 2.5 20.1 1.7 20.6 C0.8 21.4 -0.1 22.2 -1 23 C-1.8 24 -2.6 24.9 -3.4 25.9 C-4.3 27 -5.2 28.1 -6 29.2 C-7 30.5 -7.9 31.8 -8.9 33 C-9.4 33.7 -9.9 34.3 -10.4 35 C-13.1 38.4 -15.8 41.7 -18.5 45 C-22.6 50 -26.6 55 -30.5 60 C-35 65.7 -39.6 71.4 -44.2 77 C-47.6 81.3 -51.1 85.6 -54.4 89.9 C-58.6 95.3 -62.9 100.6 -67.2 105.8 C-72.5 112.2 -72.5 112.2 -77.7 118.7 C-78.8 120.1 -79.9 121.6 -81 123 C-86.9 130.6 -92.9 138.1 -99.1 145.6 C-103.9 151.4 -103.9 151.4 -108.7 157.4 C-110.2 159.5 -111.8 161.6 -113.4 163.7 C-115.4 166.2 -117.3 168.7 -119.4 171.1 C-119.9 171.8 -120.5 172.5 -121.1 173.3 C-122.3 174.6 -123.4 176 -124.5 177.4 C-125.6 178.6 -126.6 179.9 -127.6 181.2 C-128.5 182.4 -129.4 183.6 -130.3 184.9 C-130.7 185.5 -131.1 186 -131.5 186.7 C-132.2 188.3 -132.2 188.3 -133 190 C-132.8 191.3 -132.8 191.3 -132.5 192.7 C-131.8 193.8 -131.8 193.8 -131 195 C-130.1 196 -130.1 196 -129.2 196.9 C-128.5 197.5 -127.8 198.1 -127.1 198.8 C-126.3 199.4 -125.5 200.1 -124.6 200.8 C-123.8 201.5 -122.9 202.3 -122 203 C-120.6 204.2 -120.6 204.2 -119.1 205.4 C-116.4 207.6 -113.7 209.8 -111 212 C-110.2 212.7 -109.5 213.4 -108.7 214.1 C-107.8 214.7 -106.9 215.4 -106 216 C-105 216.2 -104.1 216.3 -103.1 216.5 C-102 216.5 -100.9 216.5 -99.8 216.6 C-98 216.6 -98 216.6 -96.1 216.6 C-94.7 216.6 -93.4 216.6 -92 216.6 C-90.5 216.6 -89.1 216.7 -87.7 216.7 C-83.7 216.7 -79.8 216.8 -75.9 216.8 C-73.5 216.8 -71 216.8 -68.6 216.8 C-60 216.9 -51.4 216.9 -42.9 216.9 C-34.9 216.9 -27 217 -19 217.1 C-12.2 217.2 -5.3 217.2 1.5 217.2 C5.6 217.2 9.7 217.2 13.8 217.3 C17.6 217.3 21.5 217.4 25.3 217.3 C26.7 217.3 28.1 217.3 29.5 217.4 C30.2 217.4 30.9 217.4 31.5 217.4 C33.4 217.4 33.4 217.4 35.3 217.3 C36.5 217.2 37.6 217.1 38.8 217 C39.9 216.7 40.9 216.3 42 216 C42.9 215.2 43.8 214.4 44.8 213.6 C45.6 212.6 46.4 211.6 47.2 210.6 C47.9 209.7 48.6 208.7 49.3 207.7 C49.8 206.8 50.4 205.9 51 205 C51.9 203.8 52.9 202.6 53.8 201.4 C54.6 200.4 55.4 199.4 56.2 198.3 C60.8 192.5 65.5 186.7 70.2 181 C73.6 176.7 77.1 172.4 80.4 168.1 C85.2 161.9 90.1 156 95.1 150 C98 146.5 100.9 143 103.6 139.4 C104.1 138.7 104.6 138.1 105.1 137.4 C108.3 133.3 111.6 129.2 114.9 125.1 C115.4 124.5 115.9 123.9 116.4 123.3 C116.9 122.7 117.3 122.1 117.8 121.6 C118.2 121.1 118.6 120.5 119 120 C120 118.5 120 118.5 121 117 C121.1 116 121.2 114.9 121.2 113.9 C121.1 113.3 121 112.6 120.9 112 C120.6 111.3 120.3 110.7 120 110 C119.4 109.3 118.8 108.6 118.2 107.9 C117.4 107.2 116.6 106.5 115.8 105.8 C111.7 102.3 107.4 99 103.2 95.6 C102.6 95.2 102 94.7 101.4 94.2 C99 92.4 96.6 90.5 94.3 88.6 C92.7 87.2 91.1 85.9 89.5 84.5 C86.8 82.2 84.1 79.9 81.3 77.6 C79.5 76.2 77.8 74.9 76 73.5 C73.1 71.2 70.1 68.9 67.3 66.6 C65 64.7 62.8 62.8 60.6 60.9 C58.3 58.9 55.9 57 53.6 55 C52 53.8 50.4 52.5 48.8 51.3 C45.1 48.3 41.4 45.2 37.8 42.2 C31.8 37.3 25.8 32.4 19.6 27.6 C18.1 26.4 16.5 25.2 15 24 C13.9 23.1 12.8 22.2 11.8 21.2 C10.4 20.1 10.4 20.1 9 19 C8.2 18.8 7.3 18.6 6.4 18.4 C5.6 18.6 4.8 18.8 4 19 Z " transform="translate(558,204)" fill="currentColor" />
<path d="M0 0 C0.9 0 1.9 0.1 2.9 0.1 C4.4 0.6 4.4 0.6 6 1 C6.9 1.6 7.7 2.2 8.6 2.9 C9.4 3.9 10.2 4.9 11 6 C11.2 6.8 11.4 7.5 11.7 8.3 C11.8 9.2 12 10 12.1 10.9 C12.3 12.9 12.6 14.8 12.8 16.8 C12.9 17.7 13 18.6 13.1 19.6 C13.4 22.7 13.7 25.8 14 29 C14.4 34.7 14.7 40.3 15 46 C16 45.9 17 45.8 18 45.6 C21.7 45.2 25.4 44.7 29.1 44.3 C30.7 44.1 32.3 43.9 33.9 43.7 C36.2 43.4 38.5 43.2 40.8 42.9 C41.5 42.8 42.2 42.7 42.9 42.6 C44.3 42.5 45.6 42.3 47 42.2 C47.6 42.1 48.3 42.1 49 42 C50.5 41.9 51.9 41.9 53.4 41.9 C55.2 41.9 55.2 41.9 57 42 C57.7 42.3 58.4 42.6 59.1 42.8 C59.5 43.2 60 43.6 60.4 44.1 C61.7 45.5 61.7 45.5 63 47 C63.4 48.2 63.7 49.3 64.1 50.5 C64 51.7 64 52.8 64 54 C63.4 55.4 63.4 55.4 62.9 56.8 C62.3 57.5 61.6 58.2 61 59 C60.3 59.5 59.5 60 58.8 60.6 C57.9 61 56.9 61.5 56 62 C55 62.2 54 62.4 52.9 62.6 C51.8 62.7 50.7 62.8 49.5 62.9 C48.2 63.1 47 63.2 45.7 63.3 C43.7 63.5 43.7 63.5 41.8 63.7 C40.5 63.8 39.2 63.9 37.9 64.1 C34.2 64.4 30.6 64.8 27 65 C25.2 65 23.4 65.1 21.6 65.1 C20.4 65.1 19.2 65 18 65 C18.1 66 18.2 67 18.4 68 C18.8 71.7 19.3 75.4 19.7 79.1 C19.9 80.7 20.1 82.3 20.3 83.9 C20.6 86.2 20.8 88.5 21.1 90.8 C21.2 91.5 21.3 92.2 21.4 92.9 C21.5 94.3 21.7 95.6 21.8 97 C22 98.4 22 99.8 22.1 101.2 C22.1 101.9 22.1 102.6 22.1 103.3 C22.1 104.5 22 105.8 22 107 C21.6 107.9 21.2 108.9 20.8 109.9 C20.2 110.6 19.6 111.3 19 112 C18.1 112.7 18.1 112.7 17.2 113.4 C16.5 113.6 15.8 113.8 15 114 C13.9 114 12.7 114 11.6 113.9 C10.4 113.6 9.2 113.3 8 113 C7.1 112.3 6.3 111.6 5.4 110.9 C4.6 109.9 3.8 109 3 108 C2.7 106.9 2.4 105.8 2.1 104.7 C1.9 102.9 1.9 102.9 1.6 101 C1.6 100.4 1.5 99.7 1.4 99 C1.1 97 0.9 94.9 0.7 92.8 C0.5 91.4 0.3 90 0.2 88.6 C-0.1 86 -0.4 83.4 -0.7 80.8 C-0.9 78.9 -0.9 78.9 -1 77 C-1.1 74 -1 71 -1 68 C-2.8 68.2 -2.8 68.2 -4.7 68.4 C-9.2 69 -13.7 69.4 -18.2 69.9 C-20.1 70.1 -22.1 70.4 -24 70.6 C-26.8 70.9 -29.6 71.2 -32.4 71.5 C-33.3 71.6 -34.2 71.7 -35.1 71.8 C-35.9 71.9 -36.7 72 -37.6 72.1 C-38.3 72.1 -39.1 72.2 -39.9 72.2 C-40.6 72.1 -41.3 72.1 -42 72 C-43.7 71.1 -43.7 71.1 -45.5 70.1 C-46.3 69.4 -47.2 68.7 -48 68 C-48.5 67.4 -48.9 66.8 -49.4 66.2 C-49.6 65.5 -49.8 64.7 -50 64 C-50 62.8 -49.9 61.7 -49.9 60.5 C-49.6 59.3 -49.3 58.2 -49 57 C-48.4 56.3 -47.9 55.6 -47.3 54.9 C-46.5 54.2 -45.8 53.6 -45 53 C-44.2 52.7 -43.4 52.5 -42.6 52.2 C-41.7 52.1 -40.8 52 -39.9 51.9 C-38.8 51.7 -37.8 51.6 -36.7 51.4 C-35.5 51.3 -34.3 51.1 -33 51 C-31.5 50.8 -30.1 50.6 -28.6 50.4 C-27 50.2 -25.5 50.1 -23.9 49.9 C-23.2 49.8 -22.5 49.7 -21.8 49.6 C-20.3 49.4 -18.9 49.3 -17.4 49.2 C-16.6 49.1 -15.8 49.1 -15 49 C-11.3 48.9 -7.7 48.9 -4 49 C-4.1 48 -4.2 47 -4.4 45.9 C-4.8 42.1 -5.3 38.3 -5.7 34.4 C-5.9 32.8 -6.1 31.1 -6.3 29.5 C-6.6 27.1 -6.8 24.7 -7.1 22.3 C-7.2 21.6 -7.3 20.9 -7.4 20.1 C-7.6 18.1 -7.8 16 -8 14 C-8 12.7 -8.1 11.4 -8.1 10.1 C-8.1 8.6 -8.1 8.6 -8 7 C-7.7 6.4 -7.3 5.7 -7 5 C-6.6 4.6 -6.1 4.1 -5.7 3.6 C-4.8 2.8 -3.9 1.9 -3 1 C-2 0.7 -1 0.3 0 0 Z " transform="translate(557,285)" fill="currentColor" />
<path d="M0 0 C2.3 -0 4.5 -0.1 6.8 -0.1 C7.9 -0.1 9 -0.1 10.1 -0.1 C11.7 -0.1 11.7 -0.1 13.2 -0.1 C14.2 -0.1 15.1 -0.2 16 -0.2 C16.9 -0 17.7 0.1 18.6 0.2 C19.5 0.7 20.4 1.1 21.3 1.6 C22.1 2.1 22.9 2.7 23.6 3.2 C24.3 4.1 24.9 5 25.6 6 C25.9 7 26.3 8.1 26.6 9.2 C26.4 10.4 26.2 11.7 26 12.9 C25.6 14 25.1 15.1 24.6 16.2 C24.2 16.8 23.7 17.5 23.2 18.1 C22.7 18.5 22.2 18.8 21.6 19.2 C20.6 19.5 19.6 19.9 18.6 20.2 C17.7 20.3 16.7 20.3 15.8 20.4 C14.6 20.4 13.4 20.4 12.3 20.4 C5.3 20.5 -1.6 20.6 -8.5 21 C-9.8 21.1 -11.1 21.1 -12.4 21.2 C-13.4 21.3 -14.5 21.5 -15.5 21.6 C-17.3 21.8 -19.1 22.1 -20.9 22.5 C-23.3 23 -25.7 23.5 -28.1 24.1 C-29.5 24.4 -30.9 24.8 -32.4 25.2 C-33 25.4 -33.7 25.6 -34.4 25.8 C-36.3 26.3 -38.2 26.9 -40.1 27.5 C-42.5 28.3 -44.9 29.3 -47.4 30.2 C-49.5 31.1 -51.6 32 -53.7 32.9 C-55.9 33.9 -58 34.9 -60.2 36 C-61.6 36.7 -63 37.5 -64.4 38.2 C-65.7 39 -67 39.8 -68.4 40.6 C-70.3 41.8 -72.2 43 -74 44.3 C-75.2 45.1 -76.4 46 -77.6 46.9 C-78.2 47.3 -78.8 47.8 -79.4 48.2 C-80.5 49.2 -81.7 50.2 -82.8 51.2 C-84.8 53 -86.8 54.9 -88.8 56.8 C-89.6 57.6 -90.5 58.4 -91.4 59.2 C-92.6 60.2 -92.6 60.2 -93.9 61.1 C-94.7 61.8 -95.5 62.5 -96.4 63.2 C-97.2 64.2 -98 65.1 -98.9 66.1 C-99.8 67.2 -100.7 68.3 -101.6 69.5 C-102 70.1 -102.5 70.7 -103 71.3 C-104.5 73.3 -105.9 75.2 -107.4 77.2 C-108.7 79.1 -110 81.1 -111.3 83 C-112.6 85 -113.8 87 -115 89 C-115.8 90.4 -116.6 91.8 -117.4 93.2 C-118.1 94.7 -118.9 96.2 -119.6 97.6 C-120.7 99.9 -121.7 102.2 -122.7 104.4 C-123.6 106.7 -124.5 108.9 -125.4 111.2 C-126.1 113.3 -126.9 115.5 -127.5 117.6 C-128 119 -128.4 120.4 -128.8 121.9 C-129.3 124 -129.9 126.1 -130.4 128.2 C-130.7 129.5 -131 130.7 -131.3 132 C-131.6 133.3 -131.8 134.7 -132.1 136 C-132.5 139.4 -132.9 142.8 -133.4 146.2 C-133.7 158.1 -134 170 -134.4 182.2 C-61.1 181.9 12.1 181.6 87.6 181.2 C88 174.6 88.3 168 88.6 161.2 C89.3 159.3 90 157.4 90.7 155.4 C91.1 154.7 91.6 153.9 92.1 153.2 C92.6 152.5 93.1 151.9 93.6 151.2 C94.2 150.5 94.8 149.9 95.5 149.2 C96.1 148.6 96.8 147.9 97.4 147.3 C98.3 146.5 98.3 146.5 99.3 145.7 C100.1 145.2 100.8 144.7 101.6 144.2 C102.8 143.7 103.9 143.2 105.1 142.7 C105.8 142.4 106.5 142.1 107.3 141.9 C108.1 141.7 108.8 141.4 109.6 141.2 C110.8 141.1 110.8 141.1 112.1 140.9 C113.8 140.9 115.5 140.8 117.3 140.8 C118.7 140.8 118.7 140.8 120.1 140.8 C121.1 140.8 122.1 140.8 123.1 140.8 C125.2 140.8 127.3 140.8 129.3 140.8 C132.5 140.8 135.6 140.8 138.8 140.7 C140.8 140.7 142.8 140.7 144.9 140.7 C145.8 140.7 146.7 140.7 147.7 140.7 C148.6 140.7 149.5 140.7 150.4 140.7 C151.3 140.8 152.1 140.8 153 140.9 C153.9 141 154.7 141.1 155.6 141.2 C156.5 141.5 157.4 141.8 158.4 142 C160.1 142.7 161.8 143.3 163.4 144 C164.2 144.4 164.9 144.8 165.6 145.2 C166.3 145.8 167 146.3 167.8 146.9 C168.3 147.4 168.9 147.9 169.5 148.4 C170.3 149.2 170.3 149.2 171.1 149.9 C171.8 151.1 171.8 151.1 172.6 152.2 C174.6 156.7 174.6 156.7 176.6 161.2 C177 167.8 177.3 174.4 177.6 181.2 C250.9 181.5 324.1 181.9 399.6 182.2 C399.3 170.3 399 158.5 398.6 146.2 C398 141.3 398 141.3 397.4 136.2 C397.2 134.9 396.9 133.6 396.6 132.2 C396.3 130.9 396 129.5 395.6 128.2 C395.3 127.1 395.3 127.1 395 125.9 C394.4 123.3 393.7 120.8 393 118.3 C392.5 116.6 392 114.9 391.4 113.3 C390.8 111.6 390.2 109.9 389.6 108.2 C388.9 106.5 388.2 104.8 387.5 103.2 C386.4 100.7 385.3 98.3 384.1 95.8 C383 93.6 381.8 91.4 380.6 89.2 C380 88 379.3 86.9 378.6 85.7 C377.9 84.7 377.2 83.7 376.6 82.7 C374.7 79.9 372.7 77.3 370.7 74.6 C369.4 72.9 368 71.3 366.7 69.7 C366 68.8 365.3 68 364.6 67.2 C363.9 66.4 363.2 65.6 362.5 64.7 C361 63 359.5 61.3 358 59.7 C357.2 58.8 356.4 58 355.6 57.2 C354.8 56.5 354 55.7 353.1 54.9 C351.4 53.4 349.5 52 347.7 50.5 C344.9 48.4 342.2 46.4 339.3 44.4 C337.4 43.2 335.5 41.9 333.6 40.6 C332.3 39.8 331 39 329.6 38.2 C327.4 37.1 325.2 36 323 34.9 C321.6 34.3 320.2 33.6 318.8 33 C318.2 32.7 317.5 32.4 316.9 32.1 C315.8 31.5 314.7 30.9 313.6 30.2 C313 29.4 312.3 28.6 311.7 27.7 C311.3 26.9 311 26.1 310.6 25.2 C310.6 24.1 310.6 22.9 310.6 21.7 C311 20.6 311.3 19.4 311.6 18.2 C312.3 17.2 313 16.3 313.7 15.3 C314.7 14.6 315.6 13.9 316.6 13.2 C317.8 13.1 319 13 320.3 12.8 C321 12.8 321.7 12.9 322.4 12.9 C323.5 13.1 323.5 13.1 324.6 13.2 C325.3 13.5 326.1 13.7 326.8 14 C327.5 14.3 328.2 14.6 329 15 C330.5 15.8 332 16.6 333.6 17.5 C334.4 17.9 335.2 18.4 336.1 18.8 C338.6 20.3 341.1 21.7 343.6 23.2 C345.9 24.6 348.1 26 350.3 27.5 C352.4 29 354.5 30.5 356.6 32 C357.9 33.1 359.3 34.1 360.6 35.2 C362.7 37 364.7 38.7 366.7 40.5 C369.2 42.9 371.6 45.2 374.1 47.6 C374.6 48.2 375.1 48.7 375.6 49.2 C376.5 50.1 377.3 50.9 378.2 51.8 C379.3 52.9 379.3 52.9 380.4 54.1 C381.1 54.9 381.8 55.7 382.5 56.5 C383.6 58 384.8 59.4 385.9 60.9 C387.3 62.8 388.7 64.8 390.1 66.7 C392 69.5 393.8 72.4 395.6 75.2 C397 77.4 398.3 79.6 399.6 81.8 C400.9 84 402.1 86.3 403.3 88.6 C404.1 90.1 404.9 91.7 405.6 93.2 C406.3 94.7 407 96.3 407.6 97.8 C408.3 99.4 408.9 100.9 409.4 102.5 C410 104.1 410.6 105.6 411.1 107.2 C411.9 109.8 412.7 112.3 413.4 114.9 C414.1 117.6 414.8 120.3 415.4 123.1 C415.6 123.9 415.8 124.7 416 125.5 C416.2 126.3 416.4 127.2 416.6 128 C417 130.1 417.3 132.2 417.6 134.2 C418.2 138.2 418.6 142.1 418.9 146.1 C419.2 149.2 419.4 152.2 419.6 155.2 C419.8 160.8 419.9 166.3 419.9 171.8 C419.9 175.6 419.9 179.4 419.9 183.1 C419.9 185.9 419.9 188.6 419.9 191.4 C419.9 198 419.9 204.6 419.9 211.3 C419.9 216.7 419.9 222 419.9 227.4 C419.9 228.2 419.9 229 419.9 229.8 C419.9 231.3 419.9 232.9 419.9 234.5 C419.9 249.1 419.9 263.7 419.9 278.4 C419.9 290.9 419.9 303.5 419.9 316 C419.9 330.6 419.9 345.2 419.9 359.8 C419.9 361.4 419.9 362.9 419.9 364.5 C419.9 365.2 419.9 366 419.9 366.8 C419.9 372.2 419.9 377.6 419.9 382.9 C419.9 389.5 419.9 396.1 419.9 402.6 C419.9 406 419.9 409.3 419.9 412.6 C419.9 416.3 419.9 419.9 419.9 423.5 C419.9 424.6 419.9 425.6 419.9 426.7 C419.9 428.6 419.9 430.6 419.8 432.5 C419.8 433.4 419.7 434.3 419.6 435.2 C419.5 436.2 419.4 437.1 419.2 438 C418.9 439.7 418.5 441.4 418.2 443.1 C418 443.8 417.8 444.5 417.6 445.2 C417.2 446.3 416.8 447.4 416.4 448.5 C415.5 450.5 414.5 452.4 413.4 454.3 C412.8 455.3 412.2 456.2 411.6 457.2 C411 458.1 410.3 458.9 409.7 459.8 C408.9 460.5 408.2 461.3 407.5 462.1 C406.7 462.8 406 463.5 405.2 464.2 C404.4 464.9 403.5 465.5 402.6 466.2 C401.1 467.1 401.1 467.1 399.5 468.1 C398.5 468.6 397.4 469.2 396.3 469.7 C395.3 470.2 394.3 470.6 393.3 471.1 C392.4 471.5 391.5 471.8 390.6 472.2 C390 472.4 389.4 472.6 388.7 472.8 C387.7 473 387.7 473 386.6 473.2 C384.6 473.3 382.7 473.3 380.7 473.4 C379.9 473.4 379.1 473.4 378.2 473.4 C376.9 473.4 376.9 473.4 375.6 473.4 C372.7 473.4 369.8 473.4 366.9 473.4 C364.8 473.4 362.8 473.4 360.7 473.4 C354.9 473.4 349.1 473.4 343.4 473.4 C337.2 473.4 331 473.4 324.8 473.4 C310.5 473.4 296.2 473.4 281.9 473.5 C274.8 473.5 267.8 473.5 260.7 473.5 C236.5 473.5 212.3 473.5 188.2 473.5 C186.6 473.5 185.1 473.5 183.6 473.5 C182.9 473.5 182.1 473.5 181.3 473.5 C177.5 473.5 173.7 473.5 169.9 473.5 C169.1 473.5 168.4 473.5 167.6 473.5 C143.1 473.5 118.5 473.5 94 473.6 C68.1 473.6 42.1 473.6 16.2 473.6 C13.3 473.6 10.5 473.6 7.6 473.6 C6.6 473.6 6.6 473.6 5.5 473.6 C-5.8 473.6 -17.1 473.7 -28.3 473.7 C-39.7 473.7 -51 473.7 -62.4 473.7 C-68.5 473.7 -74.7 473.7 -80.8 473.7 C-86.4 473.7 -92.1 473.7 -97.7 473.7 C-99.7 473.7 -101.8 473.7 -103.8 473.7 C-107.4 473.7 -111 473.7 -114.6 473.7 C-116.2 473.6 -117.7 473.5 -119.3 473.4 C-120.3 473.3 -120.3 473.3 -121.4 473.2 C-122.5 472.9 -123.7 472.7 -124.9 472.4 C-126.4 471.9 -126.4 471.9 -127.9 471.4 C-129.1 470.9 -129.1 470.9 -130.3 470.3 C-131 470 -131.7 469.6 -132.4 469.2 C-133.1 468.8 -133.9 468.3 -134.6 467.8 C-135.3 467.4 -135.9 467 -136.6 466.5 C-137.5 465.8 -137.5 465.8 -138.5 465 C-139.8 463.7 -141.1 462.5 -142.5 461.3 C-143.2 460.5 -143.8 459.8 -144.6 459.1 C-145.2 458.3 -145.9 457.6 -146.5 456.8 C-147.1 455.9 -147.7 455.1 -148.4 454.2 C-149.2 452.8 -149.2 452.8 -149.9 451.3 C-150.8 449.3 -151.7 447.3 -152.5 445.3 C-152.8 444.3 -153.1 443.3 -153.4 442.2 C-153.6 441.1 -153.7 439.9 -153.9 438.7 C-154.1 437.2 -154.2 435.7 -154.4 434.2 C-154.5 431.5 -154.5 428.7 -154.5 426 C-154.5 424.9 -154.5 423.9 -154.5 422.8 C-154.5 421.7 -154.5 420.5 -154.5 419.4 C-154.5 415.6 -154.5 411.8 -154.5 408 C-154.5 405.3 -154.5 402.6 -154.5 399.9 C-154.5 393.3 -154.5 386.7 -154.5 380.1 C-154.5 374.7 -154.5 369.3 -154.5 363.9 C-154.6 348.6 -154.6 333.3 -154.6 318.1 C-154.6 317.2 -154.6 316.4 -154.6 315.6 C-154.6 314.7 -154.6 313.9 -154.6 313.1 C-154.6 299.7 -154.6 286.4 -154.6 273.1 C-154.6 259.4 -154.6 245.6 -154.6 231.9 C-154.6 224.2 -154.6 216.6 -154.6 208.9 C-154.6 202.3 -154.6 195.8 -154.6 189.2 C-154.6 185.9 -154.6 182.5 -154.6 179.2 C-154.6 172.2 -154.6 165.3 -154.5 158.3 C-154.4 156.3 -154.3 154.2 -154.2 152.1 C-153.9 147.7 -153.5 143.2 -153 138.7 C-152.8 137.2 -152.6 135.7 -152.4 134.2 C-152 131.9 -151.5 129.5 -151.1 127.1 C-150.6 125 -150.1 122.8 -149.6 120.6 C-148.8 117.6 -147.9 114.6 -147.1 111.7 C-146.4 109.4 -145.6 107.1 -144.9 104.8 C-144.3 103.3 -143.8 101.9 -143.2 100.4 C-142.7 99 -142.1 97.5 -141.5 96.1 C-140.5 94.1 -139.6 92 -138.6 90 C-137.2 87.4 -135.8 84.8 -134.4 82.2 C-134 81.6 -133.7 80.9 -133.3 80.3 C-132.2 78.3 -131.2 76.4 -130.1 74.5 C-129.3 73.3 -128.6 72.1 -127.8 70.8 C-127 69.6 -126.2 68.4 -125.4 67.2 C-124.5 66 -123.5 64.8 -122.6 63.7 C-120.7 61.4 -118.8 59.2 -116.9 57.1 C-116.1 56.1 -115.2 55.2 -114.4 54.2 C-113.8 53.5 -113.2 52.8 -112.5 52 C-111.5 50.7 -110.4 49.5 -109.3 48.2 C-107.8 46.7 -106.4 45.2 -104.9 43.7 C-103.4 42.3 -102 40.9 -100.5 39.6 C-98.8 38.1 -97.1 36.6 -95.4 35.2 C-93.4 33.7 -91.4 32.2 -89.4 30.7 C-87.3 29.1 -85.1 27.6 -82.9 26.1 C-81.4 25.2 -79.9 24.2 -78.4 23.2 C-76 21.8 -73.6 20.5 -71.2 19.1 C-68.8 17.9 -66.4 16.6 -64 15.4 C-61.8 14.3 -59.6 13.3 -57.3 12.3 C-56 11.7 -54.7 11.2 -53.4 10.6 C-52.1 10.2 -50.9 9.7 -49.6 9.2 C-48.2 8.7 -46.9 8.3 -45.6 7.9 C-43.1 7.1 -40.7 6.5 -38.3 5.8 C-35.6 5.1 -32.9 4.5 -30.1 3.8 C-26.9 3.1 -23.6 2.5 -20.3 1.8 C-18.4 1.5 -16.5 1.2 -14.6 0.9 C-12.7 0.7 -10.7 0.5 -8.8 0.3 C-5.8 0.2 -2.9 0.1 0 0 Z M149.6 160.2 C147.5 160.2 145.5 160.1 143.4 160.2 C142.6 160.2 141.8 160.2 141 160.2 C139.7 160.2 139.7 160.2 138.5 160.2 C136.7 160.3 135 160.3 133.2 160.4 C130.6 160.4 127.9 160.4 125.2 160.5 C123.5 160.5 121.9 160.5 120.2 160.6 C119 160.6 119 160.6 117.7 160.6 C116.6 160.6 116.6 160.6 115.5 160.7 C114.2 160.8 112.9 161 111.6 161.2 C110.3 162.5 109 163.9 107.6 165.2 C107.6 170.8 107.6 176.4 107.6 182.2 C124.1 182.2 140.6 182.2 157.6 182.2 C157.6 176.6 157.6 171 157.6 165.2 C156.6 163.9 155.6 162.6 154.6 161.2 C153.6 160.8 153.6 160.8 152.5 160.5 C151.1 160.3 151.1 160.3 149.6 160.2 Z M-134.4 201.2 C-134.5 243.1 -134.5 243.1 -134.6 285.1 C-134.6 290.7 -134.6 296.4 -134.6 302 C-134.6 302.7 -134.6 303.5 -134.6 304.2 C-134.6 315.6 -134.6 327.1 -134.7 338.5 C-134.7 350.2 -134.7 362 -134.7 373.7 C-134.8 380.3 -134.8 386.9 -134.8 393.5 C-134.8 399.7 -134.8 405.9 -134.8 412.1 C-134.8 414.4 -134.8 416.7 -134.8 418.9 C-134.9 422 -134.9 425.1 -134.9 428.3 C-134.9 429.2 -134.9 430.1 -134.9 431 C-134.9 431.8 -134.9 432.7 -134.9 433.5 C-134.8 434.3 -134.8 435.1 -134.7 435.9 C-134.6 436.7 -134.5 437.4 -134.4 438.2 C-134.1 439 -133.8 439.8 -133.5 440.5 C-133.2 441.3 -132.8 442 -132.4 442.7 C-131.9 443.7 -131.9 443.7 -131.4 444.6 C-131.1 445.1 -130.7 445.7 -130.4 446.2 C-129.8 446.9 -129.2 447.6 -128.7 448.2 C-128.1 448.7 -127.6 449.1 -127 449.6 C-126.5 450.1 -125.9 450.5 -125.3 451 C-124.7 451.4 -124 451.8 -123.4 452.2 C-122.5 452.6 -121.7 452.9 -120.8 453.3 C-119.7 453.6 -118.5 453.9 -117.4 454.2 C-115.4 454.3 -115.4 454.3 -113.4 454.5 C-111.9 454.5 -110.4 454.5 -108.8 454.5 C-107.6 454.5 -107.6 454.5 -106.3 454.5 C-103.4 454.5 -100.6 454.5 -97.7 454.5 C-95.7 454.5 -93.6 454.5 -91.5 454.5 C-85.9 454.5 -80.2 454.5 -74.5 454.5 C-68.4 454.5 -62.3 454.5 -56.2 454.5 C-44.2 454.5 -32.2 454.5 -20.2 454.5 C-10.5 454.5 -0.7 454.5 9 454.5 C10.4 454.5 11.8 454.5 13.2 454.5 C15.3 454.5 17.4 454.5 19.5 454.5 C39.1 454.5 58.7 454.5 78.3 454.5 C79.4 454.5 79.4 454.5 80.6 454.5 C84.3 454.5 88.1 454.5 91.8 454.5 C92.6 454.5 93.3 454.5 94.1 454.5 C95.6 454.5 97.1 454.5 98.6 454.5 C122 454.5 145.4 454.5 168.8 454.6 C195.1 454.6 221.4 454.6 247.7 454.6 C250.5 454.6 253.3 454.6 256.1 454.6 C256.8 454.6 257.5 454.6 258.2 454.6 C268.6 454.6 279 454.6 289.5 454.6 C301.3 454.6 313.2 454.6 325 454.6 C331.1 454.6 337.1 454.6 343.2 454.6 C348.7 454.6 354.3 454.6 359.8 454.6 C361.8 454.6 363.8 454.6 365.8 454.6 C368.5 454.6 371.3 454.6 374 454.6 C374.8 454.6 375.5 454.6 376.3 454.6 C377.1 454.6 377.8 454.6 378.6 454.6 C379.2 454.6 379.9 454.5 380.6 454.5 C381.3 454.4 382 454.3 382.6 454.2 C383.3 454 383.9 453.8 384.6 453.6 C385.2 453.3 385.8 453.1 386.5 452.8 C387.5 452.3 388.6 451.8 389.6 451.2 C390.7 450.5 391.7 449.8 392.8 449 C394.2 447.6 394.2 447.6 395.6 446.2 C396.2 445.4 396.2 445.4 396.8 444.5 C397.1 443.9 397.4 443.3 397.8 442.7 C398.3 441.6 398.3 441.6 398.8 440.5 C399.1 439.8 399.3 439 399.6 438.2 C399.8 437.1 399.8 437.1 400 435.9 C400 435.1 400.1 434.3 400.1 433.5 C400.1 431.8 400.1 430 400.1 428.3 C400.1 427.3 400.1 426.3 400.1 425.3 C400.1 422.1 400.1 418.8 400.1 415.6 C400.1 413.2 400.1 410.9 400.1 408.5 C400.1 402.2 400.1 395.9 400 389.6 C400 383.6 400 377.7 400 371.7 C400 359.9 400 348.1 399.9 336.4 C399.9 324.9 399.9 313.5 399.8 302 C399.8 301 399.8 301 399.8 299.9 C399.8 293.7 399.8 287.5 399.8 281.3 C399.8 254.6 399.7 227.9 399.6 201.2 C326 201.2 252.4 201.2 176.6 201.2 C176.3 214.7 176 228.3 175.6 242.2 C174 245.5 172.3 248.8 170.6 252.2 C169.2 253.7 169.2 253.7 167.7 255.2 C166.2 256.2 166.2 256.2 164.6 257.2 C163.1 258.1 163.1 258.1 161.6 259 C160.1 259.6 160.1 259.6 158.6 260.2 C157.9 260.4 157.2 260.6 156.5 260.8 C155.6 260.9 154.6 261.1 153.6 261.2 C152.2 261.3 150.8 261.3 149.3 261.4 C147.7 261.4 146 261.4 144.3 261.4 C142.9 261.4 142.9 261.4 141.5 261.4 C139.6 261.4 137.7 261.5 135.8 261.5 C132.9 261.5 130 261.5 127.1 261.5 C125.2 261.5 123.4 261.5 121.5 261.5 C120.2 261.6 120.2 261.6 118.9 261.6 C117.3 261.6 115.7 261.5 114 261.5 C113.2 261.4 112.4 261.3 111.6 261.2 C110.8 261 110 260.8 109.1 260.6 C107.6 260.1 106.1 259.6 104.6 259.1 C104 258.8 103.3 258.5 102.6 258.2 C102 257.9 101.3 257.5 100.6 257.1 C99.7 256.6 99.7 256.6 98.9 256.1 C98.3 255.7 97.8 255.2 97.2 254.8 C96.7 254.3 96.2 253.8 95.6 253.2 C95.1 252.5 94.6 251.8 94.1 251 C93.7 250.2 93.2 249.4 92.8 248.6 C92.4 247.8 92 247.1 91.6 246.3 C91.3 245.6 91 244.9 90.6 244.2 C90.3 243.2 90 242.2 89.6 241.2 C89.3 228 89 214.8 88.6 201.2 C15 201.2 -58.6 201.2 -134.4 201.2 Z M107.6 201.2 C107.5 207.1 107.5 212.9 107.4 218.9 C107.3 220.7 107.3 222.6 107.3 224.5 C107.3 225.9 107.2 227.4 107.2 228.9 C107.2 229.6 107.2 230.4 107.2 231.1 C107.2 231.9 107.2 232.6 107.2 233.3 C107.3 234.6 107.5 235.9 107.6 237.2 C108.3 238.7 108.3 238.7 109.1 240.2 C109.9 240.9 110.8 241.5 111.6 242.2 C112.3 242.4 112.9 242.5 113.6 242.7 C114.7 242.8 114.7 242.8 115.9 242.9 C117.6 242.9 119.3 242.9 121.1 242.9 C122 242.9 122.9 242.9 123.8 242.9 C125.8 242.9 127.7 242.9 129.7 242.9 C132.6 242.8 135.6 242.9 138.5 242.9 C140.4 242.9 142.3 242.9 144.2 242.9 C145.1 242.9 146 242.9 146.9 242.9 C148.1 242.9 148.1 242.9 149.4 242.9 C150.1 242.8 150.9 242.7 151.7 242.7 C152.6 242.4 152.6 242.4 153.6 242.2 C154.5 241.6 155.3 240.9 156.2 240.2 C156.7 239.2 157.1 238.2 157.6 237.2 C157.8 235.9 157.9 234.7 158.1 233.3 C158.1 231.8 158.1 230.4 158 228.9 C158 228.2 158 227.5 158 226.7 C158 224.1 157.9 221.5 157.9 218.9 C157.8 213.1 157.7 207.2 157.6 201.2 C141.1 201.2 124.6 201.2 107.6 201.2 Z " transform="translate(379.37109375,346.78125)" fill="currentColor" />
<path d="M0 0 C0.8 -0 1.6 -0.1 2.5 -0.1 C3.4 -0.1 4.2 -0.1 5.1 -0.1 C6 0 6.9 0.1 7.9 0.2 C8.8 0.4 9.7 0.6 10.7 0.8 C11.6 1.1 12.5 1.4 13.5 1.8 C14.4 2.1 15.3 2.5 16.2 2.9 C17.1 3.3 18 3.7 18.9 4.2 C19.6 4.7 20.4 5.2 21.2 5.7 C21.8 6.3 22.5 6.8 23.2 7.4 C23.9 8 24.5 8.6 25.1 9.2 C25.7 9.8 26.3 10.5 26.9 11.2 C27.4 12 27.9 12.7 28.4 13.5 C28.9 14.3 29.3 15.1 29.8 15.9 C30.2 16.7 30.6 17.4 30.9 18.2 C31.2 18.8 31.5 19.5 31.9 20.2 C32.4 21.7 32.4 21.7 32.9 23.2 C32.9 24.2 33 25.2 33.1 26.2 C33.1 28.7 33.2 31.2 33.1 33.6 C33 35.4 33 35.4 32.9 37.2 C32.6 38.1 32.4 38.9 32.2 39.8 C31.9 40.6 31.6 41.3 31.3 42.1 C30.9 42.8 30.6 43.5 30.2 44.2 C29.3 45.6 28.3 47 27.4 48.3 C26.8 49 26.2 49.7 25.7 50.4 C25.1 51.1 24.5 51.7 23.9 52.4 C23.2 53 22.5 53.6 21.9 54.2 C21 54.7 20.2 55.3 19.4 55.8 C18.2 56.5 18.2 56.5 16.9 57.2 C15.6 57.9 14.2 58.5 12.9 59.2 C12.9 60.5 13 61.8 13 63.1 C13.1 63.9 13.2 64.8 13.3 65.6 C13.5 66.5 13.7 67.3 13.9 68.2 C14.2 69 14.5 69.8 14.8 70.7 C15.2 71.4 15.6 72.2 16 73 C16.5 73.7 16.9 74.5 17.4 75.2 C17.9 75.9 18.4 76.5 18.9 77.2 C19.9 78 20.9 78.8 21.9 79.7 C22.9 80.2 23.9 80.7 24.9 81.2 C25.5 81.4 26.1 81.6 26.7 81.8 C27.4 81.9 28.1 82.1 28.9 82.2 C29.7 82.2 30.5 82.3 31.3 82.3 C32.3 82.3 33.2 82.3 34.1 82.3 C35.2 82.3 36.3 82.3 37.4 82.3 C39.1 82.4 39.1 82.4 40.9 82.4 C42.8 82.4 42.8 82.4 44.7 82.4 C48.1 82.4 51.5 82.4 54.8 82.4 C57 82.4 59.1 82.4 61.2 82.4 C67.8 82.4 74.5 82.4 81.1 82.4 C88.8 82.4 96.4 82.5 104.1 82.5 C110 82.5 115.9 82.5 121.8 82.5 C125.4 82.5 128.9 82.5 132.4 82.5 C136.4 82.6 140.3 82.6 144.3 82.5 C146 82.6 146 82.6 147.8 82.6 C149.9 82.6 152 82.5 154.1 82.5 C155.5 82.3 155.5 82.3 156.9 82.2 C157.7 82 158.5 81.8 159.3 81.6 C160 81.3 160.7 81.1 161.5 80.8 C162.6 80.3 163.7 79.8 164.9 79.2 C165.8 78.3 166.7 77.4 167.7 76.5 C168.4 75.4 169.1 74.3 169.9 73.2 C170.2 72.5 170.5 71.9 170.8 71.2 C171.1 70.6 171.4 69.9 171.7 69.2 C171.9 68.5 172.1 67.8 172.3 67.1 C172.8 65.5 173.2 63.8 173.7 62.1 C173.3 60.6 173.3 60.6 172.9 59.2 C172.2 58.7 171.5 58.2 170.8 57.7 C169.1 56.7 167.3 55.7 165.5 54.7 C164.6 54.2 163.7 53.7 162.9 53.2 C162.2 52.7 161.6 52.1 161 51.6 C160.5 51.1 160 50.5 159.5 49.9 C159 49.4 158.6 48.8 158.1 48.2 C157.5 47.2 157.5 47.2 156.9 46.2 C156.2 45.1 156.2 45.1 155.6 43.9 C155.2 43.1 154.9 42.3 154.5 41.5 C154.2 40.7 153.9 39.8 153.6 38.9 C153.3 38 153.1 37.1 152.9 36.2 C152.7 35.2 152.6 34.2 152.5 33.2 C152.4 32.2 152.4 31.2 152.4 30.2 C152.4 29.2 152.4 28.2 152.5 27.1 C152.6 26.2 152.7 25.2 152.9 24.2 C153.1 23.3 153.3 22.4 153.5 21.5 C153.8 20.6 154.1 19.8 154.4 18.9 C154.8 18.1 155.2 17.3 155.5 16.5 C156 15.7 156.4 15 156.9 14.2 C157.3 13.5 157.8 12.7 158.3 12 C158.9 11.3 159.4 10.6 160 9.9 C160.9 8.9 160.9 8.9 161.8 7.9 C162.5 7.4 163.2 6.8 163.9 6.2 C164.7 5.7 165.5 5.2 166.4 4.6 C167.3 4.2 168.1 3.7 169 3.3 C169.9 2.9 170.7 2.5 171.5 2.1 C172.3 1.8 173.1 1.5 173.9 1.2 C174.5 1 175.2 0.8 175.8 0.6 C176.5 0.5 177.2 0.3 177.9 0.2 C178.7 0.1 179.5 0.1 180.3 -0 C182.2 -0 184.1 -0 186 -0 C186.9 0.1 187.9 0.1 188.9 0.2 C189.6 0.3 190.4 0.4 191.2 0.5 C192.3 0.8 192.3 0.8 193.4 1.1 C194.1 1.4 194.9 1.7 195.6 2 C196.3 2.4 197.1 2.8 197.9 3.2 C198.7 3.8 199.6 4.5 200.5 5.1 C201.4 5.9 202.3 6.6 203.2 7.4 C204 8.2 204.8 9 205.7 9.8 C206.4 10.6 207.1 11.4 207.9 12.2 C208.6 13.3 208.6 13.3 209.3 14.5 C209.9 15.5 209.9 15.5 210.4 16.6 C210.9 17.8 211.4 19 211.9 20.2 C212.2 21.2 212.5 22.2 212.9 23.2 C212.9 24.2 213 25.2 213.1 26.2 C213.1 28.6 213.2 31.1 213.1 33.5 C213 34.7 213 36 212.9 37.2 C212.7 38.1 212.5 39.1 212.2 40.1 C212 40.9 211.7 41.7 211.4 42.6 C211 43.3 210.6 44.1 210.3 44.9 C209.8 45.7 209.3 46.4 208.9 47.2 C208 48.3 208 48.3 207 49.5 C206.4 50.2 205.7 50.9 205 51.6 C204.3 52.3 203.6 52.9 202.9 53.6 C202.2 54.1 201.5 54.6 200.9 55.2 C199.7 55.9 198.6 56.5 197.5 57.2 C196.6 57.5 195.8 57.9 194.9 58.2 C194.2 58.2 193.5 58.2 192.9 58.2 C192.9 58.8 192.9 59.4 193 60 C193 60.9 193 61.7 193 62.6 C193 63.5 193 64.4 193 65.3 C193 66.3 192.9 67.2 192.9 68.2 C192.6 69.4 192.6 69.4 192.4 70.7 C192.2 71.5 192 72.4 191.7 73.2 C191.5 74 191.2 74.8 190.9 75.7 C190.4 76.9 190.4 76.9 189.9 78.2 C189.2 79.5 189.2 79.5 188.6 80.8 C188.1 81.6 187.6 82.5 187.1 83.4 C186.6 84.2 186.1 85 185.5 85.9 C185 86.6 184.4 87.4 183.9 88.2 C183.4 88.8 182.9 89.5 182.3 90.2 C181.8 90.8 181.3 91.3 180.7 91.9 C180.2 92.5 179.6 93 179 93.6 C178.3 94.1 177.6 94.6 176.9 95.2 C175.9 95.8 174.9 96.3 173.9 96.9 C171.8 98 169.7 99 167.6 100 C166.3 100.6 166.3 100.6 164.9 101.2 C164.3 101.4 163.7 101.6 163 101.8 C162.3 101.9 161.6 102 160.9 102.2 C159.6 102.3 159.6 102.3 158.3 102.3 C157.3 102.3 156.3 102.3 155.3 102.3 C153.6 102.3 153.6 102.3 151.9 102.4 C150 102.4 150 102.4 148.1 102.4 C146.8 102.4 145.5 102.4 144.1 102.4 C139.8 102.4 135.4 102.4 131.1 102.4 C129.6 102.4 128.1 102.4 126.6 102.4 C119.6 102.5 112.5 102.5 105.5 102.5 C97.4 102.5 89.3 102.5 81.2 102.6 C74.9 102.6 68.6 102.6 62.3 102.6 C58.6 102.6 54.8 102.6 51.1 102.6 C47.6 102.7 44 102.7 40.5 102.7 C38.6 102.7 36.7 102.7 34.8 102.7 C32.5 102.7 30.3 102.6 28 102.6 C27 102.4 25.9 102.3 24.9 102.2 C23.3 101.8 23.3 101.8 21.7 101.4 C20.8 101 19.8 100.7 18.8 100.4 C18 100 17.1 99.7 16.2 99.4 C15.5 99 14.7 98.6 13.9 98.2 C13 97.7 12.2 97.1 11.3 96.6 C10.6 96.1 9.9 95.5 9.1 95 C8.4 94.4 7.7 93.8 6.9 93.2 C6.2 92.5 5.6 91.9 4.9 91.2 C4.2 90.5 3.6 89.8 2.9 89.1 C2.3 88.4 1.7 87.6 1 86.9 C0.5 86.1 -0.1 85.4 -0.6 84.6 C-1.1 83.8 -1.6 83 -2.1 82.2 C-2.8 80.9 -2.8 80.9 -3.4 79.6 C-3.8 78.7 -4.1 77.9 -4.5 77 C-4.8 76.2 -5.1 75.3 -5.4 74.5 C-5.7 73.7 -5.9 73 -6.1 72.2 C-6.4 71.2 -6.6 70.1 -6.9 69.1 C-7 68.1 -7.1 67.2 -7.1 66.2 C-7.2 64.7 -7.2 63.3 -7.2 61.8 C-7.2 60.6 -7.2 59.4 -7.1 58.2 C-7.9 58 -8.7 57.9 -9.6 57.7 C-10.8 57.2 -11.9 56.7 -13.1 56.2 C-13.9 55.7 -14.6 55.1 -15.4 54.6 C-16.2 53.9 -17 53.2 -17.8 52.6 C-18.5 51.9 -19.3 51.2 -20.1 50.4 C-21.1 49.3 -21.1 49.3 -22.1 48.2 C-22.6 47.5 -23.1 46.7 -23.6 46 C-23.9 45.3 -24.3 44.6 -24.6 43.9 C-25.4 42.1 -25.4 42.1 -26.1 40.2 C-26.6 38.7 -26.6 38.7 -27.1 37.2 C-27.2 36.2 -27.3 35.2 -27.3 34.1 C-27.4 31.6 -27.4 29.2 -27.3 26.7 C-27.3 25.5 -27.2 24.4 -27.1 23.2 C-27 22.4 -26.9 21.6 -26.8 20.8 C-26.6 20.2 -26.4 19.6 -26.2 18.9 C-25.9 18.3 -25.7 17.7 -25.4 17.1 C-25 16.5 -24.6 15.9 -24.1 15.2 C-23.5 14.3 -22.9 13.5 -22.2 12.6 C-21.1 11.3 -21.1 11.3 -20 9.9 C-19.2 9.1 -18.4 8.3 -17.6 7.4 C-16.8 6.7 -16 5.9 -15.1 5.2 C-14.1 4.5 -14.1 4.5 -12.9 3.7 C-12.3 3.3 -11.6 3 -10.9 2.6 C-10.2 2.4 -9.6 2.1 -8.9 1.8 C-7.5 1.3 -6.1 0.9 -4.8 0.4 C-3.2 0.3 -1.6 0.1 0 0 Z M0.9 19.2 C-0.7 19.7 -0.7 19.7 -2.4 20.3 C-3.3 20.9 -4.2 21.6 -5.1 22.2 C-6.1 23.3 -6.1 23.3 -7.1 24.4 C-7.4 25.3 -7.8 26.2 -8.1 27.2 C-8.1 28.5 -8.1 29.8 -8.1 31.2 C-8 31.9 -7.9 32.6 -7.8 33.3 C-7.6 33.9 -7.4 34.5 -7.1 35.2 C-6.5 36.2 -5.8 37.1 -5.1 38.1 C-4.1 38.8 -3.1 39.5 -2.1 40.2 C-1.5 40.4 -0.9 40.6 -0.2 40.9 C0.4 41 1.1 41.1 1.8 41.3 C2.8 41.3 2.8 41.3 3.9 41.4 C4.5 41.3 5.2 41.3 5.9 41.2 C7 40.7 8.1 40.1 9.2 39.6 C10.1 38.8 11 38 11.9 37.2 C12.3 36.4 12.8 35.7 13.3 34.9 C13.5 34 13.7 33.1 13.9 32.2 C13.8 30.5 13.8 30.5 13.8 28.7 C13.3 27 13.3 27 12.9 25.2 C12.2 24.2 11.5 23.3 10.7 22.3 C9.8 21.6 8.8 20.9 7.9 20.2 C6.7 19.9 5.6 19.5 4.4 19.2 C3.2 19.2 2.1 19.2 0.9 19.2 Z M180.9 19.2 C179.3 19.7 179.3 19.7 177.7 20.3 C176.3 21.2 176.3 21.2 174.9 22.2 C173.9 23.6 173.9 23.6 172.9 24.9 C172.6 26 172.2 27.1 171.9 28.2 C171.9 29.4 171.9 30.5 171.9 31.8 C172.2 32.9 172.5 34 172.9 35.2 C173.9 36.6 173.9 36.6 175 38.1 C175.9 38.8 176.9 39.5 177.9 40.2 C179 40.5 180.1 40.9 181.3 41.2 C182.5 41.2 183.6 41.2 184.9 41.2 C186.5 40.6 186.5 40.6 188.1 40.1 C189.5 39.1 189.5 39.1 190.9 38.2 C191.5 37.4 192.1 36.7 192.7 35.9 C193.1 35 193.5 34.1 193.9 33.2 C194 32.2 194.1 31.3 194.3 30.3 C194.2 29.2 194 28.2 193.9 27.2 C193.3 26.1 192.7 25 192.1 23.9 C191.4 23 190.6 22.1 189.9 21.2 C189.2 20.7 188.6 20.3 187.9 19.8 C187.2 19.6 186.6 19.4 185.9 19.2 C184.7 19 184.7 19 183.5 18.9 C182.2 19 182.2 19 180.9 19.2 Z " transform="translate(419.140625,612.80859375)" fill="currentColor" />
</svg>
