<?xml version="1.0" encoding="UTF-8"?>

<svg version="1.1" xmlns="http://www.w3.org/2000/svg" width="1024" height="1024" viewBox="0 0 1024 1024" fill="currentColor">
<path d="M0 0 C3.3 -0.1 6.6 -0.1 9.9 -0.1 C11 -0.1 12.1 -0.1 13.3 -0.1 C15.5 -0.1 17.7 -0.1 19.9 -0.1 C21 -0 22 0 23.1 0.1 C24.1 0.2 25.1 0.3 26.2 0.5 C27.2 0.6 28.1 0.8 29.1 1 C30 1.1 30.9 1.3 31.8 1.5 C32.5 1.7 33.3 1.9 34.1 2.1 C35.1 2.5 36.1 2.9 37.1 3.4 C38.7 4.4 40.3 5.4 41.8 6.4 C43.3 7.5 44.7 8.6 46.1 9.7 C46.7 10.2 47.3 10.7 47.9 11.3 C48.4 11.9 48.9 12.4 49.5 13 C50 13.7 50.5 14.4 51.1 15.1 C51.7 16.2 51.7 16.2 52.4 17.2 C53 18.5 53 18.5 53.6 19.7 C54.2 21.2 54.2 21.2 54.9 22.7 C55.3 23.8 55.7 24.9 56.1 26.1 C56.3 26.8 56.4 27.4 56.6 28.1 C56.9 29.6 57.2 31 57.5 32.5 C58.1 36.4 58.8 40.3 59.4 44.2 C59.7 46.6 60.1 49 60.5 51.4 C60.7 52.9 61 54.3 61.2 55.8 C61.5 57.6 61.8 59.3 62.1 61.1 C62.4 61.8 62.8 62.4 63.1 63.1 C63.8 63.3 64.6 63.6 65.3 63.8 C66.3 64 67.2 64.2 68.2 64.4 C69.3 64.6 70.4 64.9 71.5 65.1 C73.2 65.5 73.2 65.5 75 65.9 C79.7 66.9 84.4 68 89.1 69.1 C92 69.9 94.9 70.8 97.7 71.7 C101.2 72.8 104.7 73.9 108.1 75.1 C108.5 74.3 108.5 74.3 108.8 73.5 C109.5 72.3 109.5 72.3 110.1 71.1 C111.5 69.1 113 67.1 114.5 65.2 C117.8 61 121.1 56.8 124.5 52.7 C125 52.2 125.4 51.6 125.9 51 C126.4 50.5 126.8 50 127.3 49.4 C127.7 48.9 128.1 48.4 128.6 47.9 C129.4 47 130.2 46.1 131.1 45.1 C132.4 44 132.4 44 133.6 42.9 C134.5 42.3 135.3 41.7 136.1 41.1 C136.9 40.7 137.6 40.3 138.4 39.9 C139.9 39.2 141.4 38.6 143 37.9 C143.7 37.7 144.4 37.4 145.1 37.1 C145.9 36.9 146.7 36.6 147.5 36.4 C149.1 36.2 150.7 36.1 152.2 35.9 C153.1 35.9 153.9 35.8 154.7 35.8 C155.6 35.8 156.4 35.8 157.3 35.8 C158.2 35.9 159.1 36 160.1 36.1 C160.9 36.3 161.7 36.5 162.6 36.8 C164.4 37.4 166.2 38.1 168 38.8 C169.6 39.5 169.6 39.5 171.1 40.1 C173.2 41.1 175.3 42.2 177.4 43.3 C179.5 44.5 181.7 45.7 183.8 46.9 C184.9 47.4 185.9 48 187 48.6 C189.1 49.8 191.2 51 193.3 52.2 C194.2 52.8 195.1 53.5 196.1 54.1 C196.9 54.8 197.7 55.5 198.5 56.2 C199.3 56.8 200 57.5 200.7 58.2 C201.3 58.9 201.9 59.6 202.6 60.2 C203.3 61.2 203.3 61.2 204.1 62.1 C205 63.5 205 63.5 205.9 65 C206.3 65.8 206.7 66.6 207 67.4 C207.4 68.2 207.8 69.1 208.2 69.9 C208.5 70.6 208.8 71.4 209.1 72.1 C209.4 73.1 209.8 74.1 210.1 75.1 C210.2 76.1 210.3 77.1 210.4 78.2 C210.5 80.2 210.6 82.2 210.6 84.2 C210.6 84.9 210.6 85.6 210.6 86.4 C210.5 87.1 210.5 87.9 210.4 88.7 C210.3 89.5 210.2 90.3 210.1 91.1 C209.9 91.9 209.7 92.8 209.5 93.6 C209 95.3 208.4 97 207.8 98.7 C206.6 102.1 205.4 105.5 204 108.8 C203.2 110.9 202.3 113 201.5 115.1 C201 116.2 200.6 117.4 200.1 118.5 C199.5 120 199.5 120 198.9 121.5 C198.6 122.3 198.4 123.2 198.1 124.1 C198.1 125 198.2 125.8 198.2 126.7 C198.5 127.5 198.8 128.3 199.1 129.1 C199.7 129.8 200.3 130.4 200.9 131.1 C201.7 131.7 202.5 132.4 203.3 133 C207.2 136.4 207.2 136.4 209.1 138.1 C211.6 140.5 214 142.9 216.4 145.3 C217 145.9 217.6 146.5 218.2 147.1 C219.8 148.7 221.5 150.4 223.1 152.1 C224.1 153.2 225.1 154.4 226 155.5 C226.7 156.4 227.4 157.2 228.1 158.1 C230.5 157.5 232.8 156.8 235.1 156.1 C236.1 155.7 237.1 155.4 238.1 155.1 C242.1 153.6 246.1 152.1 250 150.5 C252.1 149.7 254.1 148.9 256.1 148.1 C257.5 147.5 257.5 147.5 258.8 147 C259.6 146.7 260.3 146.4 261.1 146.1 C262.1 145.8 263.1 145.4 264.1 145.1 C265.2 145 266.4 144.9 267.5 144.9 C269.6 144.8 271.7 144.8 273.8 144.8 C275.3 144.8 276.7 144.9 278.1 144.9 C279.1 145 279.1 145 280.1 145.1 C281.1 145.3 282 145.5 283 145.7 C283.8 146 284.6 146.3 285.5 146.5 C286.6 147.1 286.6 147.1 287.8 147.7 C288.6 148.1 289.3 148.6 290.1 149.1 C290.9 149.7 291.8 150.3 292.6 150.9 C293.5 151.6 294.3 152.3 295.2 153 C296.1 153.8 296.9 154.6 297.7 155.5 C298.5 156.3 299.3 157.2 300.1 158.1 C300.8 159 301.5 160 302.2 160.9 C302.8 161.9 303.4 162.9 304.1 164 C305.5 166.3 306.8 168.7 308.1 171.1 C308.5 171.9 309 172.7 309.4 173.5 C311.7 177.6 313.9 181.8 316.1 186 C316.5 186.7 316.8 187.4 317.2 188.1 C317.6 189.1 317.6 189.1 318.1 190.1 C318.3 190.8 318.5 191.5 318.7 192.2 C318.8 192.8 319 193.4 319.1 194.1 C319.2 195.6 319.2 195.6 319.3 197.2 C319.4 199.6 319.4 202 319.4 204.4 C319.3 205.6 319.2 206.9 319.1 208.1 C318.9 209.1 318.7 210.1 318.5 211.2 C318 212.5 318 212.5 317.6 213.9 C317.2 214.8 316.9 215.7 316.5 216.6 C316 217.4 315.6 218.3 315.1 219.1 C314.6 219.9 314.1 220.6 313.5 221.4 C312.9 222.1 312.3 222.9 311.7 223.6 C311 224.3 310.3 225.1 309.6 225.8 C308.8 226.6 308 227.3 307.1 228.1 C305.5 229.5 303.8 230.9 302.1 232.2 C299.7 234.1 297.3 235.9 294.9 237.7 C293.7 238.6 292.6 239.5 291.4 240.5 C289 242.5 286.6 244.5 284.2 246.5 C283.5 247 282.8 247.6 282.1 248.1 C281.4 248.1 280.8 248.1 280.1 248.1 C280.6 249.6 280.6 249.6 281.2 251.1 C282.6 255.1 284 259.1 285.2 263.1 C285.8 265.2 286.4 267.4 287 269.5 C288.1 274.2 289.1 278.9 290.2 283.7 C290.4 284.8 290.7 285.8 290.9 287 C291.1 287.9 291.3 288.9 291.5 289.9 C291.8 291 291.8 291 292.1 292.1 C292.4 292.4 292.8 292.8 293.1 293.1 C295.7 293.6 298.3 294 300.9 294.3 C302.6 294.6 304.2 294.8 305.9 295.1 C308.4 295.5 311 295.9 313.6 296.2 C317.7 296.8 321.8 297.4 325.8 298.2 C326.6 298.3 327.3 298.5 328.1 298.6 C328.7 298.8 329.4 298.9 330.1 299.1 C331.2 299.5 332.3 299.9 333.4 300.4 C334.3 300.8 335.2 301.2 336.1 301.7 C336.8 302.1 337.6 302.5 338.3 303 C338.9 303.3 339.5 303.7 340.1 304.1 C341 304.7 341.9 305.3 342.9 305.9 C343.6 306.6 344.3 307.3 345.1 308.1 C345.6 308.8 346.1 309.4 346.6 310.1 C347.2 310.8 347.7 311.6 348.2 312.4 C349 313.5 349 313.5 349.7 314.7 C350.2 315.5 350.6 316.3 351.1 317.1 C351.4 317.8 351.8 318.5 352.1 319.2 C352.6 320.5 353.1 321.7 353.6 323 C353.8 324 353.8 324 354.1 325.1 C354.3 326.1 354.5 327.1 354.7 328.1 C354.7 328.7 354.8 329.3 354.9 329.9 C355 330.6 355 331.4 355.1 332.1 C355.2 335.2 355.3 338.3 355.3 341.4 C355.3 342.6 355.3 343.7 355.3 344.9 C355.3 346 355.3 347.1 355.3 348.2 C355.3 350.5 355.3 352.7 355.3 354.9 C355.2 356 355.2 357 355.1 358.1 C355 359.1 354.9 360.2 354.7 361.2 C354.4 363 354.1 364.9 353.8 366.7 C353.5 367.5 353.3 368.3 353.1 369.1 C352.5 370.4 352.5 370.4 352 371.7 C351.6 372.5 351.2 373.2 350.8 374 C350.3 374.7 349.9 375.4 349.4 376.2 C349 376.8 348.6 377.5 348.1 378.1 C347.3 379 346.6 379.9 345.8 380.8 C344.9 381.6 344 382.3 343.1 383.1 C342.5 383.6 342 384.1 341.4 384.6 C340.7 385.2 340.1 385.7 339.4 386.2 C338.7 386.7 338.1 387.2 337.4 387.7 C336.3 388.4 336.3 388.4 335.1 389.1 C334.4 389.4 333.8 389.7 333.1 389.9 C331.5 390.4 329.9 390.9 328.3 391.4 C327.2 391.6 326.2 391.9 325.1 392.1 C322.3 392.6 319.5 393.1 316.7 393.5 C313.6 393.9 310.5 394.4 307.5 394.8 C305.9 395 304.3 395.2 302.7 395.5 C298.8 396 295 396.6 291.1 397.1 C291.1 397.7 291 398.4 291 399 C290.9 401 290.7 402.9 290.5 404.8 C290.4 405.9 290.2 407 290.1 408.1 C289.9 409.2 289.6 410.2 289.4 411.3 C288.6 414.7 287.7 418 286.7 421.3 C286.3 423 286.3 423 285.8 424.7 C284.9 427.8 284.1 431 283.1 434.1 C282.5 435.7 282 437.3 281.4 438.9 C281 440 280.5 441 280.1 442.1 C280.9 442.4 280.9 442.4 281.7 442.8 C282.5 443.2 283.3 443.7 284.1 444.1 C286.3 445.8 288.5 447.4 290.7 449.2 C291.3 449.7 291.9 450.1 292.5 450.7 C293.8 451.7 295 452.7 296.3 453.7 C297.9 455 299.6 456.3 301.3 457.6 C303.1 459 304.9 460.5 306.8 462 C307.9 463 307.9 463 309.1 464.1 C309.7 464.8 310.4 465.5 311 466.2 C311.5 466.9 312.1 467.5 312.6 468.2 C313 468.9 313.5 469.5 314 470.2 C314.3 470.8 314.7 471.5 315.1 472.1 C315.4 472.7 315.8 473.3 316.1 474 C316.4 474.6 316.6 475.2 316.9 475.8 C317.3 476.9 317.7 478 318.1 479.1 C318.3 479.9 318.5 480.7 318.7 481.5 C318.8 482.4 318.9 483.2 319.1 484.1 C319.2 484.9 319.3 485.8 319.3 486.6 C319.4 487.5 319.4 488.3 319.4 489.2 C319.5 490.1 319.5 490.9 319.5 491.8 C319.4 492.9 319.2 494 319.1 495.1 C318.8 496.3 318.8 496.3 318.4 497.5 C318.1 498.4 317.8 499.3 317.5 500.2 C317.1 501.1 316.8 502.1 316.4 503.1 C316 504.1 315.5 505.1 315.1 506.1 C314.1 508.2 313 510.3 311.9 512.4 C310.7 514.6 309.5 516.7 308.3 518.9 C307.7 519.9 307.1 521 306.5 522.1 C305.3 524.2 304.1 526.3 302.9 528.4 C302.3 529.3 301.7 530.2 301.1 531.1 C300.2 532.2 300.2 532.2 299.3 533.3 C298.7 533.9 298.1 534.6 297.4 535.2 C296.9 535.7 296.3 536.3 295.7 536.8 C294.9 537.4 294.9 537.4 294.1 538.1 C293.3 538.7 292.5 539.2 291.7 539.8 C290.2 540.6 288.8 541.4 287.3 542.1 C286.6 542.4 285.8 542.8 285.1 543.1 C284 543.5 283 544 281.9 544.4 C280.6 544.6 279.4 544.9 278.1 545.1 C277.2 545.2 276.3 545.3 275.3 545.4 C274.2 545.4 273.2 545.5 272.1 545.5 C271 545.5 269.8 545.5 268.7 545.5 C266.9 545.3 266.9 545.3 265.1 545.1 C264 544.8 262.8 544.6 261.6 544.3 C259.2 543.5 256.7 542.6 254.3 541.8 C251.1 540.5 248 539.2 244.8 537.9 C243.9 537.6 243 537.2 242.1 536.8 C240.3 536.1 238.6 535.3 236.8 534.5 C236 534.2 235.2 533.8 234.3 533.5 C233.3 533 233.3 533 232.2 532.5 C231.5 532.4 230.8 532.3 230.1 532.1 C229.4 532.4 228.7 532.6 228 532.9 C227.4 533.3 226.7 533.7 226.1 534.1 C225.3 535 224.4 535.8 223.5 536.7 C222.6 537.8 221.6 538.8 220.7 539.9 C218.5 542.3 216.3 544.7 214.1 547.1 C209.8 551.5 205.5 555.8 201.1 560.1 C199.8 561.4 198.4 562.8 197.1 564.1 C197.5 565 197.8 565.9 198.2 566.9 C199.5 570.3 200.8 573.7 202.2 577.1 C202.7 578.6 203.3 580.1 203.9 581.6 C204.7 583.7 205.6 585.8 206.4 587.9 C206.6 588.6 206.9 589.2 207.2 589.9 C207.8 591.6 208.5 593.4 209.1 595.1 C209.3 595.8 209.5 596.6 209.8 597.3 C209.9 598.2 209.9 598.2 210.1 599.1 C210.2 600.2 210.3 601.3 210.3 602.4 C210.4 604.4 210.4 606.3 210.4 608.3 C210.4 608.9 210.4 609.6 210.4 610.3 C210.3 611.5 210.2 612.8 210.1 614.1 C209.9 615.1 209.7 616 209.4 617 C209.1 617.9 208.8 618.7 208.5 619.5 C208.1 620.3 207.7 621.1 207.4 621.9 C206.5 623.4 205.7 624.8 204.8 626.3 C204.3 627 203.8 627.7 203.4 628.4 C202.9 629 202.4 629.6 201.9 630.2 C201.3 630.8 200.7 631.5 200.1 632.1 C199.6 632.6 199 633.1 198.4 633.5 C197.1 634.5 195.8 635.5 194.5 636.5 C193.3 637.3 193.3 637.3 192.1 638.1 C190.2 639.2 188.4 640.4 186.5 641.5 C184.5 642.6 182.4 643.7 180.4 644.9 C179.4 645.4 178.4 646 177.3 646.6 C171.8 649.7 171.8 649.7 169.1 651.1 C168.2 651.5 167.4 651.9 166.5 652.3 C165.7 652.5 164.9 652.8 164.1 653.1 C163.1 653.3 162.1 653.4 161.1 653.6 C158.9 653.8 156.6 653.9 154.4 654.1 C153.3 654.1 152.2 654.1 151.1 654.1 C149.8 654 149.8 654 148.6 653.9 C147.8 653.8 147.1 653.6 146.4 653.5 C145.6 653.3 144.9 653.1 144.2 652.9 C143.5 652.6 142.8 652.4 142.1 652.1 C141 651.6 141 651.6 139.9 651.2 C138.7 650.6 138.7 650.6 137.6 650 C136.5 649.4 136.5 649.4 135.3 648.7 C134.6 648.2 133.9 647.6 133.1 647.1 C132 646.2 132 646.2 130.9 645.2 C129.8 644.2 129.8 644.2 128.7 643.1 C127.6 641.9 127.6 641.9 126.4 640.8 C125.2 639.4 124 638 122.8 636.6 C119.9 632.8 117 629 114.1 625.1 C112.7 623.3 111.4 621.6 110 619.8 C109.4 619.1 108.9 618.4 108.3 617.6 C107.9 617.1 107.5 616.6 107.1 616.1 C105.4 616.4 103.8 616.8 102.1 617.1 C100.3 617.6 98.5 618.1 96.6 618.6 C95.1 619.1 95.1 619.1 93.5 619.5 C92.4 619.8 91.3 620.2 90.2 620.5 C85.8 621.7 81.5 622.9 77.1 624.1 C74.3 624.8 71.4 625.4 68.5 626 C66.7 626.4 64.9 626.8 63.1 627.1 C62.6 628.8 62.1 630.4 61.6 632.1 C61.4 632.8 61.3 633.4 61.1 634.1 C60.7 636.5 60.3 638.8 60 641.2 C59.8 642.6 59.6 643.9 59.4 645.3 C59.1 647.3 58.8 649.4 58.5 651.5 C58 654.8 57.5 658.2 56.9 661.5 C56.7 662.7 56.4 663.9 56.1 665.1 C55.7 666.1 55.4 667.1 55 668.1 C54.6 669 54.1 669.9 53.7 670.8 C53.3 671.6 52.8 672.3 52.4 673.1 C52 673.8 51.5 674.4 51.1 675.1 C50.4 676 49.7 677 48.9 677.9 C47.4 679.4 45.9 680.8 44.4 682.2 C43.3 683.1 43.3 683.1 42.1 684.1 C41.5 684.6 40.8 685 40.1 685.5 C39.5 685.8 38.9 686.2 38.2 686.5 C37.3 686.9 37.3 686.9 36.4 687.3 C35.6 687.6 34.9 687.8 34.1 688.1 C33.3 688.3 32.6 688.5 31.8 688.7 C29.9 689 28.1 689.4 26.2 689.7 C24.7 689.9 24.7 689.9 23.1 690.1 C21.5 690.2 21.5 690.2 19.9 690.3 C16.5 690.4 13.1 690.4 9.7 690.4 C8 690.4 8 690.4 6.2 690.5 C4 690.5 1.7 690.4 -0.6 690.4 C-1.7 690.3 -2.8 690.2 -3.9 690.1 C-5 689.9 -6.1 689.7 -7.3 689.5 C-9.3 689 -11.3 688.5 -13.3 688 C-14.6 687.6 -14.6 687.6 -15.9 687.1 C-17.2 686.5 -17.2 686.5 -18.5 685.8 C-19.6 685.1 -19.6 685.1 -20.6 684.5 C-21.4 684 -22.1 683.4 -22.8 682.9 C-24.2 681.7 -25.7 680.4 -27.1 679.2 C-28.1 678.1 -28.1 678.1 -29.2 677 C-29.9 676.3 -30.5 675.5 -31.2 674.7 C-31.7 673.8 -32.3 673 -32.9 672.1 C-33.3 671.3 -33.7 670.4 -34.1 669.5 C-34.6 668.1 -34.6 668.1 -35.1 666.6 C-35.4 665.5 -35.7 664.4 -36 663.3 C-36.5 660.9 -37 658.6 -37.4 656.2 C-38.4 650.7 -39.3 645.3 -40.2 639.8 C-40.4 637.9 -40.7 636 -40.9 634.1 C-41 633 -41 633 -41 631.8 C-41 631.2 -41 630.5 -41 629.8 C-41 628.9 -40.9 628 -40.9 627.1 C-42.1 626.9 -43.3 626.7 -44.5 626.5 C-48.9 625.7 -53.4 624.8 -57.9 623.8 C-58.9 623.6 -59.9 623.4 -60.9 623.1 C-65.1 621.9 -69.2 620.6 -73.4 619.3 C-74.4 619 -75.4 618.6 -76.4 618.3 C-77.3 618 -78.2 617.7 -79.2 617.4 C-80.4 617 -80.4 617 -81.7 616.6 C-82.8 616.3 -82.8 616.3 -83.9 616.1 C-85 616.2 -85 616.2 -86.1 616.4 C-86.7 616.6 -87.3 616.9 -87.9 617.1 C-88.6 617.9 -89.4 618.8 -90.2 619.7 C-91 620.8 -91.8 621.9 -92.6 623 C-93.5 624.2 -94.4 625.4 -95.2 626.5 C-95.7 627.1 -96.1 627.7 -96.6 628.3 C-97.8 630 -99.1 631.6 -100.4 633.2 C-101.1 634.2 -101.9 635.1 -102.7 636.1 C-103.4 637 -104.1 637.8 -104.8 638.7 C-105.5 639.5 -106.2 640.3 -106.9 641.1 C-108.5 642.8 -110.2 644.5 -111.9 646.1 C-112.4 646.6 -113 647.1 -113.5 647.6 C-114 648 -114.5 648.3 -115 648.7 C-115.6 649.1 -116.2 649.5 -116.8 650 C-117.8 650.5 -117.8 650.5 -118.9 651.1 C-119.8 651.4 -120.6 651.8 -121.5 652.1 C-122.4 652.4 -123.4 652.6 -124.3 652.9 C-125.3 653.1 -126.2 653.4 -127.2 653.6 C-128.5 653.8 -128.5 653.8 -129.9 654.1 C-131.2 654.3 -132.5 654.4 -133.8 654.5 C-134.4 654.5 -135.1 654.5 -135.7 654.4 C-137.3 654.2 -138.9 653.9 -140.5 653.7 C-141.5 653.4 -142.4 653.2 -143.5 652.9 C-145.1 652.4 -145.1 652.4 -146.8 651.8 C-147.4 651.6 -148 651.3 -148.7 651.1 C-149.4 650.8 -150.1 650.4 -150.9 650.1 C-152.8 649.1 -154.7 648.2 -156.6 647.2 C-158.7 646 -160.7 644.9 -162.8 643.7 C-163.8 643.2 -164.7 642.6 -165.8 642.1 C-167.6 641 -169.5 639.9 -171.4 638.7 C-172.2 638.2 -173 637.7 -173.9 637.1 C-175 636.3 -175 636.3 -176 635.5 C-176.6 635 -177.3 634.5 -177.9 634 C-178.7 633.2 -178.7 633.2 -179.5 632.5 C-180 632 -180.4 631.6 -180.9 631.1 C-181.5 630.4 -182.1 629.6 -182.8 628.9 C-183.7 627.4 -184.7 625.9 -185.6 624.4 C-186 623.7 -186.5 622.9 -186.9 622.1 C-187.4 621.1 -187.4 621.1 -187.9 620 C-188.2 619.3 -188.5 618.6 -188.8 617.9 C-189 617.2 -189.2 616.4 -189.4 615.7 C-189.6 614.8 -189.7 614 -189.9 613.1 C-190.1 611.6 -190.1 611.6 -190.3 610 C-190.4 608.3 -190.4 608.3 -190.5 606.6 C-190.4 605.4 -190.4 604.2 -190.4 603 C-190.2 601.7 -190.1 600.4 -189.9 599.1 C-189.7 598.5 -189.6 597.8 -189.4 597.1 C-189 595.7 -188.6 594.4 -188.1 593 C-187.1 590.1 -186 587.3 -184.8 584.4 C-183.5 581 -182.2 577.6 -181 574.1 C-179.6 570.5 -178.3 566.8 -176.9 563.1 C-177.9 562.2 -178.8 561.3 -179.8 560.4 C-191.2 549.9 -191.2 549.9 -196.6 544.5 C-198.7 542.4 -200.8 540.3 -202.9 538.1 C-204 536.9 -205 535.7 -206.1 534.4 C-206.7 533.7 -207.3 532.9 -207.9 532.1 C-210.9 533.1 -213.9 534.1 -216.9 535.1 C-221.9 537 -226.8 539 -231.8 541 C-233.3 541.5 -233.3 541.5 -234.8 542.1 C-235.7 542.5 -236.6 542.9 -237.5 543.2 C-238.3 543.5 -239.1 543.8 -239.9 544.1 C-240.6 544.3 -241.3 544.5 -242 544.7 C-242.6 544.8 -243.3 545 -243.9 545.1 C-244.9 545.2 -245.9 545.3 -247 545.3 C-249.4 545.4 -251.8 545.4 -254.2 545.4 C-256 545.2 -256 545.2 -257.9 545.1 C-258.9 544.9 -259.9 544.7 -260.9 544.5 C-262.3 544 -262.3 544 -263.7 543.5 C-264.6 543.2 -265.5 542.8 -266.4 542.4 C-267.2 542 -268 541.6 -268.9 541.1 C-270.1 540.4 -270.1 540.4 -271.3 539.6 C-272.1 539.1 -272.9 538.5 -273.6 538 C-274.7 537.1 -274.7 537.1 -275.9 536.1 C-276.5 535.4 -277.2 534.8 -277.9 534.1 C-278.5 533.5 -279 532.8 -279.6 532.1 C-280.2 531.4 -280.7 530.7 -281.3 529.9 C-282.1 528.7 -282.1 528.7 -282.9 527.4 C-285.6 523 -288.1 518.6 -290.6 514.2 C-291.1 513.3 -291.6 512.5 -292.1 511.7 C-293 510 -293.9 508.4 -294.7 506.7 C-295.1 505.8 -295.5 505 -295.9 504.1 C-296.2 503.2 -296.6 502.2 -296.9 501.3 C-297.2 500.3 -297.4 499.4 -297.7 498.4 C-298 497.5 -298.2 496.6 -298.4 495.6 C-298.7 494.4 -298.7 494.4 -298.9 493.1 C-299 491.9 -299 490.8 -299.1 489.5 C-298.9 487.4 -298.7 485.3 -298.5 483.2 C-298.3 482.2 -298.1 481.2 -297.9 480.1 C-297.6 478.8 -297.6 478.8 -297.2 477.4 C-296.9 476.5 -296.6 475.7 -296.3 474.9 C-296 474.1 -295.6 473.3 -295.2 472.4 C-294.8 471.7 -294.4 470.9 -293.9 470.1 C-293.4 469.4 -292.9 468.6 -292.3 467.8 C-291.7 467.1 -291.1 466.4 -290.5 465.6 C-289.4 464.5 -289.4 464.5 -288.4 463.4 C-287.5 462.6 -286.7 461.9 -285.9 461.1 C-283.8 459.4 -281.7 457.7 -279.6 456.1 C-278.5 455.3 -277.4 454.4 -276.2 453.6 C-275.1 452.8 -274 451.9 -272.9 451.1 C-269.9 448.7 -267 446.2 -264 443.7 C-263.3 443.2 -262.6 442.7 -261.9 442.1 C-261.2 442.1 -260.6 442.1 -259.9 442.1 C-260.3 441.1 -260.6 440 -261 438.9 C-262.4 434.9 -263.8 430.9 -265.1 426.8 C-265.6 425 -266.2 423.1 -266.7 421.3 C-267.4 418.5 -268.1 415.7 -268.8 412.9 C-269 412 -269.2 411.1 -269.4 410.2 C-269.6 409.4 -269.8 408.5 -270 407.7 C-270.2 406.9 -270.4 406.2 -270.5 405.4 C-270.7 404.7 -270.8 403.9 -270.9 403.1 C-270.9 402 -270.9 400.9 -271 399.8 C-270.9 398.9 -270.9 398 -270.9 397.1 C-272.4 396.9 -272.4 396.9 -273.9 396.7 C-277.5 396.2 -281.2 395.7 -284.9 395.1 C-286.5 394.9 -288 394.7 -289.6 394.5 C-294.1 393.8 -298.5 393.2 -303 392.5 C-303.6 392.3 -304.2 392.2 -304.9 392.1 C-306.5 391.7 -306.5 391.7 -308.1 391.3 C-309.8 390.9 -311.4 390.4 -313 389.9 C-313.6 389.6 -314.3 389.4 -314.9 389.1 C-316 388.5 -317.1 387.9 -318.2 387.2 C-319.1 386.5 -320 385.8 -320.9 385.1 C-321.8 384.3 -322.6 383.5 -323.5 382.7 C-325 381.1 -326.5 379.5 -328 377.9 C-328.6 376.9 -329.2 376 -329.9 375.1 C-330.3 374.4 -330.6 373.7 -331 373 C-331.7 371.5 -332.4 370 -333.1 368.5 C-333.5 367.3 -333.5 367.3 -333.9 366.1 C-334.1 365.2 -334.3 364.3 -334.4 363.4 C-334.6 362.3 -334.7 361.2 -334.9 360.1 C-335 359.1 -335 358 -335.1 357 C-335.1 353.3 -335.1 349.6 -335.1 346 C-335.2 344.7 -335.2 343.5 -335.2 342.2 C-335.2 339.7 -335.2 337.2 -335.2 334.7 C-335.1 333.5 -335 332.3 -334.9 331.1 C-334.7 330 -334.5 328.9 -334.3 327.7 C-333.8 325.7 -333.3 323.7 -332.8 321.7 C-332.5 320.9 -332.2 320 -331.9 319.1 C-331.5 318.2 -331 317.2 -330.6 316.3 C-329.9 315 -329.9 315 -329.3 313.8 C-328.8 313 -328.2 312.2 -327.7 311.4 C-327.1 310.6 -326.5 309.9 -325.9 309.1 C-325.2 308.4 -324.5 307.7 -323.8 307 C-323 306.4 -322.2 305.8 -321.5 305.2 C-320.4 304.4 -320.4 304.4 -319.3 303.6 C-318.5 303.1 -317.7 302.6 -316.9 302.1 C-315.9 301.6 -314.9 301.1 -313.8 300.6 C-313.2 300.4 -312.6 300.1 -311.9 299.8 C-311.2 299.6 -310.6 299.4 -309.9 299.1 C-309.2 298.9 -308.5 298.8 -307.8 298.6 C-305.6 298.2 -303.4 297.8 -301.1 297.5 C-300.3 297.4 -299.5 297.2 -298.7 297.1 C-296.1 296.7 -293.5 296.3 -291 295.9 C-289.2 295.6 -287.5 295.4 -285.7 295.1 C-281.4 294.4 -277.2 293.8 -272.9 293.1 C-271.7 288.8 -270.5 284.5 -269.3 280.2 C-269 279.1 -268.7 278 -268.4 276.8 C-267.8 274.6 -267.2 272.3 -266.6 270.1 C-265.8 266.7 -264.9 263.4 -263.9 260.1 C-262.6 256.1 -261.3 252.1 -259.9 248.1 C-260.8 247.7 -260.8 247.7 -261.7 247.3 C-262.8 246.7 -262.8 246.7 -263.9 246.1 C-264.5 245.7 -265.1 245.2 -265.7 244.8 C-266.3 244.3 -266.9 243.8 -267.5 243.3 C-268.1 242.8 -268.8 242.2 -269.5 241.7 C-270.5 240.8 -270.5 240.8 -271.6 239.9 C-275.7 236.5 -275.7 236.5 -279.9 233.1 C-281.6 231.8 -283.3 230.6 -285 229.3 C-286 228.5 -286 228.5 -287.1 227.7 C-287.7 227.2 -288.3 226.6 -288.9 226.1 C-289.8 225.2 -289.8 225.2 -290.6 224.3 C-291.2 223.7 -291.7 223 -292.2 222.4 C-292.9 221.4 -292.9 221.4 -293.6 220.3 C-294 219.6 -294.5 218.9 -294.9 218.1 C-295.3 217.3 -295.7 216.4 -296.2 215.6 C-296.5 214.7 -296.9 213.8 -297.3 212.9 C-297.6 211.9 -297.9 211 -298.2 210 C-298.4 209.1 -298.7 208.1 -298.9 207.1 C-299 206.1 -299.2 205.1 -299.3 204.1 C-299.4 202.2 -299.4 200.3 -299.4 198.4 C-299.3 197.3 -299.1 196.2 -298.9 195.1 C-298.7 194.3 -298.4 193.5 -298.2 192.7 C-297.5 190.8 -296.8 188.9 -296.1 187 C-295.7 186.1 -295.3 185.1 -294.9 184.1 C-294 182.2 -293.1 180.4 -292.2 178.6 C-290.2 174.8 -288.1 171 -286 167.3 C-285 165.5 -283.9 163.8 -282.9 162.1 C-282.5 161.5 -282.1 160.9 -281.6 160.2 C-281.1 159.5 -281.1 159.5 -280.5 158.7 C-279.7 157.8 -279 157 -278.3 156.1 C-277.6 155.4 -276.9 154.7 -276.1 154 C-275.4 153.3 -274.7 152.7 -273.9 152.1 C-273 151.5 -272.2 150.9 -271.3 150.2 C-270.4 149.7 -269.5 149.1 -268.6 148.5 C-267.8 148.1 -267 147.6 -266.2 147.2 C-265.4 146.8 -264.7 146.5 -263.9 146.1 C-263.3 145.9 -262.7 145.7 -262 145.5 C-260.3 145.2 -258.6 144.9 -257 144.7 C-255.8 144.6 -254.6 144.5 -253.3 144.4 C-252.7 144.4 -252 144.4 -251.3 144.4 C-250.6 144.4 -249.8 144.4 -249.1 144.4 C-248.3 144.5 -247.5 144.6 -246.6 144.6 C-245.7 144.8 -244.8 144.9 -243.9 145.1 C-242.8 145.4 -241.8 145.7 -240.7 146 C-238.3 146.8 -235.9 147.7 -233.6 148.5 C-229 150.3 -224.5 152.1 -219.9 153.9 C-218.9 154.3 -217.9 154.7 -216.9 155.1 C-213.9 156.2 -210.9 157.1 -207.9 158.1 C-207.5 157.6 -207 157.2 -206.6 156.7 C-204.5 154.5 -202.5 152.3 -200.4 150.1 C-199.7 149.4 -199 148.6 -198.3 147.9 C-194.2 143.5 -190.1 139.2 -185.8 135 C-185.2 134.4 -184.6 133.7 -183.9 133.1 C-181.6 131.1 -179.3 129.1 -176.9 127.1 C-177.4 125.8 -177.4 125.8 -177.9 124.5 C-179.1 121.4 -180.3 118.2 -181.5 115 C-182 113.7 -182.5 112.3 -183 110.9 C-183.8 109 -184.5 107 -185.3 105 C-185.7 103.9 -186.2 102.7 -186.7 101.4 C-187.5 99.3 -188.3 97.1 -189 94.9 C-189.5 93.5 -189.5 93.5 -189.9 92.1 C-190 90.8 -190.1 89.5 -190.2 88.2 C-190.3 86 -190.3 83.8 -190.3 81.6 C-190.2 80.1 -190.2 78.6 -190.1 77.1 C-190 76.4 -190 75.8 -189.9 75.1 C-189.7 74.1 -189.5 73.1 -189.3 72.1 C-189 71.3 -188.8 70.5 -188.5 69.7 C-188.1 68.9 -187.7 68.2 -187.3 67.4 C-186.6 66.3 -186.6 66.3 -185.9 65.1 C-185.3 64.2 -184.6 63.4 -184 62.5 C-183.3 61.6 -182.5 60.8 -181.8 59.9 C-181 59 -180.2 58.2 -179.3 57.3 C-178.5 56.6 -177.7 55.9 -176.9 55.1 C-176.2 54.6 -175.5 54.1 -174.8 53.5 C-174.1 53.1 -173.3 52.6 -172.6 52.2 C-170.7 51.1 -168.8 50.1 -166.9 49.1 C-165.3 48.2 -163.7 47.3 -162.1 46.4 C-160.3 45.4 -158.5 44.4 -156.8 43.4 C-155.9 42.9 -155.1 42.4 -154.2 41.9 C-152.6 41 -150.9 40.1 -149.3 39.2 C-148.1 38.7 -148.1 38.7 -146.9 38.1 C-145.8 37.7 -145.8 37.7 -144.7 37.3 C-144 37.2 -143.3 37 -142.6 36.8 C-141.4 36.6 -140.2 36.3 -138.9 36.1 C-138 36 -137.2 35.9 -136.3 35.8 C-135.6 35.8 -134.8 35.7 -134.1 35.7 C-133.2 35.7 -132.4 35.8 -131.6 35.8 C-130.7 35.9 -129.8 36 -128.9 36.1 C-128 36.4 -127 36.6 -126 36.9 C-124.2 37.5 -122.4 38.2 -120.5 38.8 C-119.7 39.3 -118.8 39.7 -117.9 40.1 C-116.4 41 -116.4 41 -114.9 42 C-113.9 42.7 -112.9 43.4 -111.9 44.1 C-111.1 44.8 -110.4 45.6 -109.6 46.3 C-105.4 51 -105.4 51 -103.4 53.3 C-101.1 56.1 -98.9 59 -96.7 61.9 C-94.5 64.7 -92.3 67.6 -90.2 70.5 C-89.7 71 -89.3 71.6 -88.9 72.1 C-88.2 72.8 -87.6 73.4 -86.9 74.1 C-86.3 74.1 -85.7 74 -85.1 74 C-84.4 73.8 -83.6 73.6 -82.9 73.4 C-82.1 73.2 -81.3 73 -80.5 72.8 C-75.4 71.4 -70.3 69.9 -65.2 68.4 C-63.5 67.9 -61.7 67.4 -60 66.9 C-58.3 66.5 -56.6 66 -55 65.7 C-50.6 64.8 -46.3 63.9 -41.9 63.1 C-41.8 62.2 -41.6 61.2 -41.5 60.3 C-41 56.7 -40.5 53.2 -40 49.6 C-39.8 48.1 -39.5 46.6 -39.3 45 C-38.8 41.4 -38.3 37.7 -37.7 34.1 C-37.4 32.8 -37.2 31.4 -36.9 30.1 C-36.6 29 -36.2 27.9 -35.9 26.7 C-35.2 24.9 -34.6 23 -33.9 21.2 C-33.5 20.5 -33.2 19.8 -32.9 19.1 C-32.3 18 -31.7 17 -31.1 15.9 C-29.9 14.4 -28.7 12.9 -27.5 11.4 C-26.9 10.8 -26.4 10.2 -25.8 9.5 C-25.2 9 -24.6 8.4 -24 7.8 C-23 7 -23 7 -21.9 6.1 C-21 5.6 -20.2 5.1 -19.3 4.6 C-17.5 3.7 -15.7 2.9 -13.8 2.1 C-12.9 1.7 -11.9 1.4 -10.9 1.1 C-9.7 0.9 -8.6 0.7 -7.4 0.5 C-6.7 0.4 -6 0.3 -5.3 0.3 C-3.5 0.1 -1.8 0.1 0 0 Z M-5.9 23.1 C-7 23.6 -8.1 24.2 -9.2 24.7 C-10.1 25.5 -11 26.3 -11.9 27.1 C-12.5 28.2 -13.1 29.2 -13.7 30.3 C-13.9 30.9 -14.1 31.5 -14.3 32.1 C-14.5 32.8 -14.7 33.4 -14.9 34.1 C-15 34.8 -15.2 35.5 -15.4 36.2 C-15.6 37.7 -15.9 39.2 -16.1 40.7 C-16.2 41.5 -16.3 42.3 -16.4 43.1 C-16.5 43.9 -16.6 44.8 -16.8 45.6 C-17.2 48.3 -17.5 50.9 -17.9 53.6 C-18.4 57.1 -18.9 60.6 -19.4 64.1 C-19.5 64.9 -19.6 65.7 -19.7 66.5 C-19.9 68 -20.2 69.5 -20.4 71 C-20.6 71.7 -20.7 72.4 -20.9 73.1 C-21.2 74.1 -21.2 74.1 -21.5 75.1 C-21.9 76 -21.9 76 -22.2 77 C-22.8 78 -23.3 79 -23.9 80.1 C-24.5 80.7 -25.1 81.3 -25.8 82 C-26.5 82.3 -27.2 82.7 -27.9 83.1 C-28.7 83.3 -29.4 83.6 -30.2 83.8 C-31.1 84 -31.9 84.1 -32.8 84.3 C-33.8 84.5 -34.7 84.7 -35.7 84.8 C-36.7 85 -37.8 85.2 -38.8 85.4 C-43.2 86.3 -47.6 87.2 -51.9 88.1 C-54.7 88.8 -57.5 89.6 -60.3 90.3 C-64.5 91.6 -68.7 92.8 -72.9 94.1 C-74.4 94.6 -75.8 95.1 -77.3 95.6 C-78 95.9 -78.6 96.1 -79.3 96.4 C-81.1 97 -82.9 97.7 -84.7 98.3 C-85.7 98.6 -86.8 98.8 -87.9 99.1 C-89.1 99.1 -90.3 99 -91.5 99 C-93.2 98.6 -93.2 98.6 -94.9 98.1 C-96.2 97.3 -96.2 97.3 -97.5 96.4 C-98.7 95.3 -98.7 95.3 -99.9 94.1 C-101.1 92.7 -101.1 92.7 -102.3 91.2 C-103.2 90.1 -104 89 -104.9 87.9 C-105.9 86.6 -106.8 85.4 -107.8 84.1 C-108.3 83.5 -108.8 82.8 -109.3 82.2 C-112.1 78.6 -114.9 75.1 -117.7 71.5 C-118.2 70.9 -118.8 70.2 -119.3 69.5 C-120.3 68.3 -121.3 67 -122.4 65.8 C-123.4 64.7 -124.3 63.6 -125.3 62.5 C-125.8 62.1 -126.2 61.6 -126.7 61.1 C-127.8 60.5 -128.8 59.8 -129.9 59.1 C-130.6 58.9 -131.2 58.8 -131.9 58.6 C-132.6 58.6 -133.3 58.5 -134.1 58.5 C-134.8 58.5 -135.6 58.5 -136.4 58.6 C-137.2 58.8 -138.1 58.9 -138.9 59.1 C-139.8 59.4 -140.7 59.8 -141.6 60.1 C-142.5 60.6 -143.4 61 -144.3 61.5 C-146.2 62.5 -148.1 63.5 -150 64.6 C-151 65.1 -151.9 65.6 -152.9 66.1 C-154.3 66.9 -154.3 66.9 -155.7 67.7 C-156.6 68.2 -157.5 68.8 -158.4 69.4 C-159.2 69.9 -160.1 70.5 -160.9 71.1 C-161.6 71.7 -162.4 72.4 -163.1 73 C-164.4 74.3 -165.6 75.5 -166.7 76.8 C-167.1 77.6 -167.5 78.3 -167.9 79.1 C-168 80.3 -168.2 81.5 -168.3 82.8 C-168.2 83.8 -168.2 83.8 -168.2 84.9 C-168.1 86 -168.1 86 -167.9 87.1 C-167.7 87.8 -167.5 88.5 -167.3 89.3 C-167 90 -166.8 90.7 -166.5 91.5 C-165.9 93 -165.3 94.6 -164.6 96.1 C-163.9 97.8 -163.3 99.5 -162.6 101.2 C-161.5 103.9 -160.4 106.5 -159.3 109.2 C-158.3 111.8 -157.2 114.4 -156.2 117 C-155.9 117.8 -155.5 118.5 -155.2 119.3 C-154.9 120.1 -154.6 120.9 -154.3 121.6 C-154 122.4 -153.8 123.1 -153.5 123.9 C-153.3 124.6 -153.1 125.3 -152.9 126.1 C-152.8 126.9 -152.7 127.7 -152.6 128.6 C-152.6 130.1 -152.6 131.6 -152.6 133.2 C-152.7 133.8 -152.8 134.4 -152.9 135.1 C-153.5 136.1 -154.1 137.1 -154.7 138.1 C-155.4 138.8 -155.4 138.8 -156.1 139.6 C-156.7 140.1 -157.3 140.6 -157.9 141.1 C-159.4 142.3 -161 143.6 -162.5 144.8 C-164 146 -165.6 147.2 -167 148.5 C-168.4 149.7 -169.8 150.9 -171.1 152.2 C-176.1 157 -181 161.9 -185.8 166.9 C-187.1 168.2 -188.3 169.6 -189.6 171 C-190.8 172.5 -192.1 174.1 -193.3 175.7 C-194.3 176.9 -194.3 176.9 -195.2 178.2 C-196 179.1 -196 179.1 -196.9 180.1 C-197.5 180.5 -198 180.9 -198.6 181.4 C-199.4 181.6 -200.1 181.9 -200.9 182.1 C-202.7 182.2 -202.7 182.2 -204.5 182.4 C-205.2 182.4 -205.9 182.3 -206.6 182.3 C-207.4 182.3 -208.1 182.2 -208.9 182.1 C-209.6 181.9 -210.3 181.7 -211.1 181.5 C-212.6 181 -214.2 180.4 -215.7 179.8 C-216.5 179.5 -217.3 179.1 -218.1 178.8 C-219.9 178.1 -221.6 177.4 -223.4 176.7 C-226.1 175.6 -228.8 174.5 -231.6 173.4 C-234.2 172.4 -236.9 171.3 -239.6 170.3 C-240.4 170 -241.2 169.6 -242 169.3 C-243.1 168.8 -243.1 168.8 -244.3 168.4 C-245.1 168.1 -245.8 167.9 -246.6 167.6 C-247.4 167.4 -248.1 167.3 -248.9 167.1 C-249.7 167.1 -250.5 167 -251.4 167 C-252.1 167.1 -252.9 167.1 -253.8 167.2 C-254.5 167.3 -255.2 167.4 -256 167.6 C-256.9 167.8 -256.9 167.8 -257.9 168.1 C-258.6 168.6 -259.4 169.1 -260.1 169.6 C-260.6 170.2 -261.1 170.9 -261.6 171.6 C-262.1 172.3 -262.7 173 -263.3 173.7 C-264.4 175.3 -265.4 176.9 -266.5 178.5 C-267 179.3 -267.5 180.1 -268 180.9 C-268.9 182.6 -269.9 184.3 -270.8 186 C-271.3 186.8 -271.8 187.6 -272.3 188.5 C-272.8 189.3 -273.3 190.2 -273.7 191 C-274.1 191.9 -274.5 192.7 -275 193.6 C-275.3 194.4 -275.6 195.2 -275.9 196.1 C-276.1 197 -276.2 197.8 -276.4 198.7 C-276.5 200 -276.5 200 -276.6 201.3 C-276.5 202.1 -276.5 202.9 -276.4 203.8 C-276.3 204.6 -276.1 205.3 -275.9 206.1 C-275.5 206.8 -275.2 207.4 -274.8 208.1 C-274.1 208.9 -274.1 208.9 -273.4 209.8 C-272.8 210.4 -272.3 210.9 -271.7 211.5 C-270.5 212.6 -269.3 213.6 -268 214.7 C-266.7 215.7 -265.4 216.7 -264 217.7 C-263.3 218.2 -262.6 218.8 -261.9 219.3 C-258.2 222.1 -254.4 224.9 -250.8 227.8 C-248.9 229.3 -246.9 230.9 -245 232.5 C-244.4 233 -243.9 233.5 -243.3 234 C-242.7 234.4 -242.2 234.9 -241.7 235.4 C-240.3 236.7 -240.3 236.7 -238.9 238.1 C-238.3 239.1 -237.6 240.1 -237 241.1 C-236.6 242.1 -236.3 243.1 -235.9 244.1 C-235.9 245 -236 245.8 -236.1 246.7 C-236.3 247.6 -236.6 248.4 -236.8 249.4 C-237.1 250.4 -237.4 251.5 -237.7 252.5 C-238.8 255.8 -239.9 259 -241 262.3 C-241.3 263 -241.5 263.7 -241.8 264.5 C-242 265.2 -242.3 266 -242.6 266.8 C-243.4 269.2 -244.2 271.6 -244.9 274.1 C-245.6 276.9 -246.3 279.7 -246.9 282.6 C-247.2 283.5 -247.4 284.4 -247.6 285.4 C-247.8 286.4 -248 287.3 -248.2 288.2 C-249.1 292.2 -249.9 296.2 -250.7 300.3 C-250.9 301.4 -251.2 302.5 -251.4 303.7 C-251.6 304.7 -251.7 305.7 -251.9 306.6 C-252.2 307.5 -252.6 308.3 -252.9 309.1 C-253.6 309.8 -254.3 310.5 -255.1 311.2 C-256.5 312.1 -256.5 312.1 -257.9 313.1 C-258.9 313.4 -259.9 313.7 -261 314 C-262.6 314.2 -262.6 314.2 -264.4 314.5 C-265.6 314.7 -266.9 314.9 -268.1 315.1 C-268.8 315.2 -269.5 315.3 -270.1 315.4 C-272.2 315.7 -274.2 316 -276.2 316.3 C-281.1 317.1 -286 317.8 -290.9 318.6 C-293.2 318.9 -295.6 319.3 -298 319.7 C-299.2 319.9 -300.5 320 -301.7 320.2 C-303.3 320.7 -303.3 320.7 -304.9 321.1 C-305.8 321.7 -306.8 322.3 -307.7 322.9 C-308.4 323.7 -309.2 324.4 -309.9 325.1 C-310.3 325.7 -310.6 326.2 -311 326.8 C-311.3 327.6 -311.6 328.3 -311.9 329.1 C-312 330.2 -312.1 331.3 -312.2 332.4 C-312.2 337.6 -312.2 337.6 -312.3 342.8 C-312.3 345 -312.3 347.2 -312.3 349.4 C-312.4 350.8 -312.4 352.2 -312.4 353.7 C-312.4 354.9 -312.4 356.2 -312.4 357.6 C-312.2 358.7 -312.1 359.9 -311.9 361.1 C-311.4 362.2 -310.8 363.3 -310.2 364.4 C-309.1 365.7 -309.1 365.7 -307.9 367.1 C-307 367.7 -306.1 368.3 -305.2 368.9 C-304.1 369.3 -303 369.7 -301.9 370.1 C-300.9 370.3 -300.9 370.3 -299.9 370.6 C-298.4 370.8 -296.8 371.1 -295.3 371.3 C-294.5 371.4 -293.7 371.5 -292.8 371.6 C-291.9 371.7 -291.1 371.9 -290.2 372 C-287.5 372.4 -284.7 372.7 -282 373.1 C-278.3 373.6 -274.7 374.1 -271.1 374.6 C-270.3 374.7 -269.5 374.8 -268.6 374.9 C-267.1 375.1 -265.6 375.4 -264 375.6 C-263.3 375.8 -262.6 375.9 -261.9 376.1 C-261.2 376.3 -260.6 376.5 -259.9 376.7 C-259.3 376.9 -258.6 377.2 -258 377.4 C-257 378 -256 378.5 -254.9 379.1 C-254.3 379.9 -253.7 380.6 -253 381.4 C-252.5 382.8 -252.5 382.8 -251.9 384.1 C-251.6 385 -251.4 386 -251.1 386.9 C-250.9 387.9 -250.7 389 -250.5 390 C-250.3 391.2 -250 392.3 -249.8 393.5 C-249.6 394.7 -249.3 395.9 -249.1 397.2 C-248.1 402.2 -247 407.1 -245.9 412.1 C-245.2 414.9 -244.4 417.8 -243.5 420.6 C-243.2 421.8 -243.2 421.8 -242.8 423 C-242.5 423.8 -242.3 424.6 -242 425.5 C-241.3 427.7 -240.6 429.9 -239.9 432.1 C-239.4 433.4 -239 434.7 -238.5 436 C-238.1 437.1 -237.7 438.2 -237.3 439.4 C-236.9 440.9 -236.9 440.9 -236.4 442.5 C-236.2 443.3 -236.1 444.2 -235.9 445.1 C-236.3 447 -236.3 447 -236.6 449 C-237.4 450 -238.1 451 -238.9 452.1 C-239.4 452.6 -239.9 453.2 -240.4 453.7 C-241 454.2 -241.6 454.8 -242.2 455.4 C-243.8 456.6 -245.3 457.9 -246.9 459.1 C-248 460 -249.1 460.8 -250.1 461.7 C-252.5 463.6 -254.9 465.4 -257.3 467.3 C-258.2 468 -258.2 468 -259.2 468.7 C-260.3 469.6 -261.4 470.5 -262.5 471.4 C-265 473.3 -267.3 475.2 -269.7 477.1 C-270.8 478.1 -270.8 478.1 -271.9 479.1 C-272.4 479.6 -272.9 480.2 -273.5 480.7 C-273.8 481.2 -274.2 481.7 -274.6 482.2 C-275 483.1 -275.5 484.1 -275.9 485.1 C-276.1 486.3 -276.3 487.5 -276.5 488.7 C-276.5 489.8 -276.5 489.8 -276.4 490.8 C-276.2 491.9 -276.2 491.9 -275.9 493.1 C-275.5 494 -275.2 494.9 -274.8 495.8 C-274.4 496.8 -273.9 497.8 -273.4 498.8 C-271.9 501.5 -270.4 504.2 -268.9 506.9 C-267.2 509.7 -265.5 512.5 -263.8 515.3 C-263.2 516.2 -262.6 517.2 -261.9 518.1 C-260.9 519.3 -260.9 519.3 -259.8 520.4 C-259.2 521 -258.6 521.5 -257.9 522.1 C-256.9 522.4 -255.9 522.8 -254.9 523.1 C-253.9 523.2 -252.8 523.3 -251.8 523.4 C-250.5 523.3 -249.2 523.2 -247.9 523.1 C-247.2 522.9 -246.6 522.7 -245.9 522.5 C-244.4 522 -243 521.4 -241.6 520.8 C-240.4 520.3 -240.4 520.3 -239.3 519.8 C-237.6 519.1 -235.9 518.5 -234.3 517.8 C-231.7 516.7 -229.1 515.6 -226.5 514.5 C-224 513.5 -221.5 512.4 -218.9 511.4 C-218.2 511.1 -217.4 510.7 -216.6 510.4 C-215.5 509.9 -215.5 509.9 -214.4 509.5 C-213.3 509.1 -213.3 509.1 -212.2 508.7 C-211.4 508.5 -210.7 508.3 -209.9 508.1 C-209 508 -208.2 507.9 -207.3 507.8 C-206.4 507.7 -205.5 507.7 -204.6 507.7 C-203.8 507.7 -203 507.7 -202.1 507.7 C-201.4 507.9 -200.7 508 -199.9 508.1 C-198.5 509 -198.5 509 -197 509.8 C-196.3 510.6 -195.6 511.3 -194.9 512.1 C-194.3 512.8 -193.7 513.5 -193.1 514.3 C-192.2 515.4 -192.2 515.4 -191.3 516.6 C-189.9 518.5 -188.4 520.3 -186.9 522.1 C-184.6 524.6 -182.3 527 -179.9 529.3 C-178.9 530.3 -178 531.3 -177 532.3 C-175.5 533.8 -174 535.3 -172.5 536.8 C-170.5 538.7 -168.6 540.7 -166.7 542.5 C-165.7 543.4 -164.8 544.2 -163.9 545.1 C-162.2 546.5 -160.5 547.8 -158.8 549.1 C-158.1 549.6 -157.4 550.1 -156.7 550.6 C-156.1 551.1 -155.5 551.6 -154.9 552.1 C-154.5 552.7 -154.1 553.3 -153.6 553.9 C-153.4 554.5 -153.1 555.1 -152.8 555.7 C-152.3 557.4 -152.3 557.4 -151.9 559.1 C-152 560 -152.1 560.9 -152.1 561.8 C-152.5 563.4 -152.5 563.4 -152.9 565.1 C-153.4 566.3 -153.8 567.6 -154.3 568.9 C-154.9 570.3 -155.4 571.6 -156 573 C-156.7 574.6 -157.3 576.1 -157.9 577.6 C-158.9 580 -159.9 582.4 -160.9 584.8 C-161.9 587.1 -162.8 589.5 -163.8 591.8 C-164.1 592.5 -164.4 593.2 -164.7 593.9 C-165.2 595.3 -165.8 596.6 -166.3 598 C-166.5 598.7 -166.7 599.4 -166.9 600.1 C-167 600.9 -167.2 601.7 -167.4 602.5 C-167.6 604 -167.7 605.6 -167.9 607.1 C-167.9 607.8 -167.9 608.4 -167.9 609.1 C-167.5 610.2 -167.2 611.3 -166.8 612.4 C-166.2 613.3 -165.5 614.2 -164.9 615.1 C-164.2 615.7 -163.6 616.3 -162.9 616.9 C-161.9 617.6 -160.9 618.4 -159.9 619.1 C-158.3 620.1 -156.7 621.1 -155.1 622.1 C-153.3 623.2 -151.5 624.3 -149.6 625.4 C-148.7 625.9 -147.8 626.5 -146.9 627 C-146 627.6 -145.1 628.1 -144.2 628.6 C-143.3 629.1 -142.4 629.6 -141.5 630 C-140.6 630.4 -139.8 630.7 -138.9 631.1 C-138.1 631.3 -137.3 631.4 -136.4 631.6 C-135.7 631.6 -134.9 631.7 -134.1 631.7 C-133.4 631.7 -132.6 631.6 -131.9 631.5 C-131.2 631.4 -130.6 631.3 -129.9 631.1 C-128.9 630.6 -127.8 630.1 -126.7 629.6 C-125.8 628.8 -124.9 627.9 -123.9 627.1 C-123.4 626.6 -122.9 626 -122.4 625.5 C-121.3 624.3 -120.3 623 -119.3 621.7 C-118.7 621 -118.2 620.4 -117.6 619.7 C-117.1 619 -116.5 618.3 -115.9 617.5 C-111.6 612 -107.3 606.5 -103.1 600.9 C-101.6 599 -100.1 597.2 -98.6 595.4 C-97.7 594.6 -96.8 593.9 -95.9 593.1 C-94.9 592.6 -93.9 592.1 -92.9 591.5 C-92.3 591.4 -91.7 591.3 -91.1 591.1 C-90.4 591.1 -89.6 591.1 -88.9 591.1 C-88 591.3 -87 591.5 -86.1 591.7 C-83.8 592.4 -81.6 593.1 -79.4 593.9 C-78.3 594.3 -77.1 594.7 -75.8 595.2 C-70.9 596.9 -65.9 598.5 -60.9 600.1 C-58.8 600.7 -56.7 601.2 -54.6 601.7 C-52.7 602.1 -50.9 602.6 -49 603 C-47.6 603.3 -47.6 603.3 -46.3 603.6 C-42.4 604.4 -38.6 605.2 -34.8 605.9 C-33.6 606.1 -32.5 606.4 -31.3 606.6 C-30.3 606.8 -29.4 607 -28.4 607.1 C-27.1 607.6 -27.1 607.6 -25.9 608.1 C-25.2 608.8 -24.5 609.5 -23.8 610.2 C-23.2 611.1 -22.6 612.1 -21.9 613.1 C-21.6 614.3 -21.3 615.5 -20.9 616.8 C-20.7 618.2 -20.5 619.6 -20.3 621 C-20.2 621.8 -20.1 622.6 -19.9 623.4 C-19.6 625.8 -19.2 628.2 -18.8 630.7 C-17.4 639.9 -17.4 639.9 -15.9 649.1 C-15.4 651.4 -14.9 653.8 -14.4 656.1 C-14.2 657 -13.9 657.9 -13.7 658.8 C-13.4 659.6 -13.2 660.3 -12.9 661.1 C-12.5 661.7 -12.1 662.3 -11.7 662.9 C-11.2 663.4 -10.8 663.8 -10.3 664.3 C-9.5 664.9 -8.7 665.5 -7.9 666.1 C-7.2 666.4 -6.6 666.8 -5.9 667.1 C-4.3 667.2 -4.3 667.2 -2.7 667.3 C-1.4 667.3 -0 667.3 1.3 667.3 C2.1 667.4 2.8 667.4 3.5 667.4 C5 667.4 6.6 667.4 8.1 667.4 C10.4 667.4 12.7 667.5 15 667.5 C16.5 667.5 18 667.5 19.5 667.5 C20.2 667.5 20.8 667.6 21.6 667.6 C22.2 667.6 22.9 667.6 23.5 667.6 C24.7 667.4 25.9 667.3 27.1 667.1 C28 666.6 28.9 666.1 29.9 665.5 C30.6 664.7 31.3 663.9 32.1 663.1 C32.7 662.1 33.2 661 33.8 660 C34 659.4 34.3 658.7 34.5 658.1 C34.7 657.5 34.9 656.8 35.1 656.1 C35.3 655 35.3 655 35.6 653.9 C35.9 652.3 36.2 650.7 36.4 649 C36.6 648.2 36.7 647.3 36.8 646.4 C37.1 644.5 37.4 642.7 37.7 640.8 C38.2 637.9 38.6 635 39 632 C39.5 629.2 39.9 626.4 40.4 623.5 C40.5 622.7 40.6 621.8 40.8 620.9 C41 619.3 41.3 617.7 41.6 616.1 C41.8 615.5 41.9 614.8 42.1 614.1 C42.6 613.1 43 612.1 43.5 611.1 C44.3 610.1 44.3 610.1 45.1 609.1 C46.3 608.5 47.5 608 48.7 607.4 C49.4 607.2 50.1 606.9 50.9 606.7 C51.6 606.5 52.3 606.3 53.1 606.1 C54.5 605.8 56 605.5 57.5 605.3 C59.1 605 60.7 604.7 62.3 604.5 C65.1 604 68 603.4 70.8 602.9 C71.9 602.6 73 602.4 74.1 602.1 C78.6 600.9 83 599.5 87.5 598.1 C90.6 597.1 93.6 596.1 96.7 595.1 C97.8 594.8 98.9 594.4 100.1 594.1 C101.9 593.5 103.7 592.9 105.5 592.3 C106.5 592 106.5 592 107.5 591.6 C108.7 591.5 109.9 591.3 111.1 591.1 C112.9 591.6 112.9 591.6 114.7 592 C115.8 592.7 116.9 593.4 118.1 594.1 C118.6 594.6 119.2 595.1 119.7 595.7 C120.5 596.5 120.5 596.5 121.3 597.4 C122.3 598.8 123.4 600.1 124.4 601.5 C125.2 602.5 125.2 602.5 126.1 603.6 C127.8 605.8 129.4 607.9 131.1 610.1 C132.1 611.4 133 612.6 134 613.9 C135.7 616 137.3 618.2 139 620.3 C140.4 622.2 141.8 624 143.2 625.9 C143.9 626.6 144.5 627.3 145.1 628.1 C145.8 628.7 146.5 629.3 147.3 629.9 C148.7 630.5 148.7 630.5 150.1 631.1 C151.4 631.3 152.7 631.4 154 631.6 C154.8 631.6 155.6 631.5 156.5 631.5 C157.3 631.4 158.2 631.2 159.1 631.1 C160 630.7 161 630.4 161.9 630 C162.9 629.5 163.8 629 164.8 628.5 C166.9 627.3 168.9 626.2 170.9 625 C171.9 624.4 172.9 623.8 173.9 623.3 C175.9 622.1 177.8 621 179.7 619.8 C180.5 619.2 181.3 618.7 182.1 618.1 C183 617.3 183 617.3 183.9 616.4 C184.3 615.9 184.8 615.3 185.2 614.8 C185.9 613.9 186.5 613 187.1 612.1 C187.4 611.4 187.8 610.8 188.1 610.1 C188.2 609.1 188.3 608.1 188.4 607 C188.2 605.1 188.2 605.1 188.1 603.1 C187.9 602.4 187.7 601.8 187.6 601.1 C187.1 599.7 186.5 598.3 186 596.9 C185.7 596.1 185.4 595.4 185.1 594.6 C184.8 593.8 184.5 593 184.1 592.2 C183.2 589.8 182.2 587.3 181.2 584.8 C180.5 583.1 179.8 581.4 179.2 579.7 C177.5 575.5 175.8 571.3 174.1 567.1 C173.8 566.4 173.4 565.8 173.1 565.1 C173 564.4 172.9 563.6 172.8 562.9 C172.8 562 172.8 561.2 172.7 560.3 C172.7 559.4 172.6 558.6 172.6 557.7 C172.8 556.9 172.9 556 173.1 555.1 C173.8 554.3 174.5 553.5 175.2 552.7 C176.1 551.9 177.1 551 178.1 550.1 C179.3 549 180.5 547.8 181.7 546.7 C183 545.5 184.3 544.3 185.6 543 C186.3 542.4 186.9 541.8 187.6 541.2 C189.4 539.5 191.2 537.8 193.1 536.1 C194 535.4 194.9 534.6 195.9 533.9 C196.6 533.3 197.3 532.7 198.1 532.1 C198.7 531.5 199.2 530.9 199.8 530.3 C200.3 529.7 200.8 529.1 201.4 528.5 C204.8 524.4 208.4 520.5 212 516.5 C212.7 515.7 213.4 514.9 214.1 514.1 C214.8 513.2 215.5 512.3 216.2 511.4 C216.9 510.6 217.5 509.9 218.1 509.1 C218.8 508.8 219.4 508.4 220.1 508.1 C221 507.9 221 507.9 221.9 507.8 C222.6 507.7 223.4 507.7 224.2 507.6 C225.1 507.7 226 507.7 226.9 507.7 C228 507.8 229 508 230.1 508.1 C230.7 508.3 231.3 508.5 232 508.6 C233.3 509.1 234.7 509.6 236 510.1 C239.7 511.5 243.3 513 246.9 514.5 C248.4 515.1 249.9 515.7 251.4 516.3 C254.2 517.4 256.9 518.5 259.7 519.7 C260.8 520.2 261.9 520.6 263.1 521.1 C264 521.5 264.9 521.9 265.8 522.3 C266.6 522.6 267.3 522.8 268.1 523.1 C269.3 523.2 270.4 523.3 271.6 523.4 C272.8 523.3 273.9 523.2 275.1 523.1 C276 522.7 276.8 522.4 277.7 522 C278.5 521.4 279.3 520.7 280.1 520.1 C280.9 519.3 281.6 518.5 282.4 517.6 C282.8 517.1 283.3 516.5 283.7 516 C284.2 515.4 284.6 514.8 285.1 514.1 C286.1 512.5 287 511 288 509.4 C288.9 507.6 289.9 505.9 290.9 504.1 C291.3 503.2 291.8 502.4 292.3 501.5 C293.3 499.8 294.2 498.1 295.1 496.4 C295.6 495.2 295.6 495.2 296.1 494.1 C296.4 493 296.7 491.9 297 490.7 C297 489.8 297.1 489 297.1 488.1 C296.8 487 296.6 485.9 296.3 484.8 C296 484.2 295.7 483.6 295.4 483 C294.8 482.1 294.8 482.1 294.1 481.1 C293.1 480.1 293.1 480.1 292.2 479 C291.4 478.3 290.6 477.6 289.8 476.9 C287.4 474.8 284.9 472.8 282.4 470.8 C277.8 467.1 273.1 463.4 268.5 459.8 C266.9 458.7 265.4 457.5 263.9 456.3 C263.1 455.6 262.2 455 261.3 454.3 C260.6 453.6 259.9 452.8 259.1 452.1 C258.5 451.2 257.8 450.3 257.2 449.4 C256.8 448.3 256.5 447.2 256.1 446.1 C256.2 445.1 256.2 445.1 256.2 444.1 C256.4 443.4 256.5 442.6 256.7 441.9 C256.9 441.1 257.1 440.4 257.3 439.6 C258.4 436.1 259.6 432.7 260.8 429.3 C262.3 425.1 263.7 420.9 265.1 416.7 C265.6 414.9 265.6 414.9 266.1 413.1 C267 409.2 267.9 405.3 268.7 401.3 C269.2 398.8 269.6 396.2 270.1 393.6 C270.3 392.5 270.6 391.3 270.8 390.1 C271 389.1 271.1 388 271.3 387 C271.6 386 271.8 385.1 272.1 384.1 C272.6 383.2 273 382.3 273.5 381.4 C274 380.6 274.6 379.9 275.1 379.1 C276.1 378.4 277.1 377.8 278.1 377.1 C278.8 376.9 279.4 376.8 280.1 376.6 C280.8 376.5 281.6 376.4 282.4 376.3 C283.7 376.1 283.7 376.1 285 375.9 C285.9 375.8 286.9 375.6 287.8 375.5 C289.8 375.2 291.7 374.9 293.7 374.6 C296.8 374.1 299.9 373.7 303 373.2 C306 372.8 309 372.3 312 371.9 C312.9 371.7 313.8 371.6 314.8 371.5 C316.5 371.2 318.2 370.9 319.9 370.6 C321 370.4 321 370.4 322.1 370.1 C323.3 369.6 324.4 369.1 325.6 368.6 C326.4 368.1 327.3 367.6 328.1 367.1 C328.7 366.6 329.3 366.1 329.9 365.6 C330.5 364.9 330.5 364.9 331.1 364.1 C331.4 363.1 331.8 362.1 332.1 361.1 C332.2 360.1 332.2 359 332.3 357.9 C332.3 354.4 332.3 351 332.3 347.5 C332.4 345.2 332.4 343 332.4 340.8 C332.4 339.3 332.4 337.9 332.4 336.5 C332.4 335.2 332.4 333.9 332.5 332.6 C332.3 331.4 332.2 330.3 332.1 329.1 C331.6 328.2 331.2 327.2 330.7 326.3 C330.2 325.5 329.6 324.8 329.1 324.1 C328.2 323.3 328.2 323.3 327.3 322.4 C326.6 322 325.9 321.5 325.1 321.1 C324.1 320.9 323.1 320.6 322 320.3 C320.8 320.1 319.5 319.9 318.2 319.7 C317.5 319.6 316.8 319.5 316.1 319.4 C311.6 318.6 307 317.9 302.5 317.3 C299.8 316.8 297.1 316.4 294.4 316 C292.4 315.7 290.4 315.4 288.3 315.1 C287.1 314.9 285.8 314.7 284.6 314.5 C283.4 314.3 282.3 314.1 281.2 314 C280.1 313.7 279.1 313.4 278.1 313.1 C277.2 312.5 276.2 311.8 275.3 311.2 C274.2 310.2 274.2 310.2 273.1 309.1 C272.7 308.3 272.3 307.4 271.9 306.6 C271.5 304.6 271 302.6 270.6 300.6 C270 297.6 269.4 294.5 268.9 291.5 C268 287 267.1 282.6 266.1 278.1 C265.4 275.3 264.6 272.5 263.8 269.8 C262.6 265.9 261.4 262 260.1 258.1 C259.3 256 258.5 253.9 257.7 251.7 C257.4 250.9 257.1 250.1 256.7 249.2 C256.5 248.5 256.3 247.8 256.1 247.1 C256 245.5 256 245.5 256 243.9 C256.3 242.9 256.7 242 257.1 241.1 C257.8 240.1 258.5 239 259.3 237.9 C259.8 237.3 260.4 236.7 260.9 236.1 C261.6 235.5 262.4 234.8 263.1 234.1 C265.8 231.8 268.6 229.6 271.4 227.4 C273.3 226 275.2 224.6 277.1 223.1 C279.6 221.2 282.1 219.2 284.7 217.3 C285.5 216.6 285.5 216.6 286.4 216 C287.5 215.1 288.5 214.3 289.6 213.4 C290.3 212.8 290.3 212.8 291.1 212.1 C291.6 211.6 292.1 211.2 292.6 210.7 C293 210.2 293.5 209.7 293.9 209.2 C294.7 208.2 295.4 207.2 296.1 206.1 C296.4 205 296.8 203.9 297.1 202.7 C297.1 200.9 297.1 200.9 297.1 199.1 C296.6 197.9 296.2 196.6 295.7 195.4 C295.1 194.1 294.4 192.8 293.7 191.5 C293.3 190.8 292.9 190.1 292.6 189.4 C291.4 187.3 290.3 185.2 289.1 183.1 C288.6 182.1 288.6 182.1 288 181.2 C286.4 178.3 284.7 175.5 283.1 172.7 C282.4 171.8 281.8 171 281.1 170.1 C280 169.2 280 169.2 278.8 168.3 C277.9 167.9 277 167.5 276.1 167.1 C274.6 167 274.6 167 273 166.8 C271.7 166.9 270.4 167 269.1 167.1 C268.4 167.3 267.7 167.5 267 167.7 C265.5 168.2 264.1 168.8 262.6 169.4 C261.8 169.7 261 170 260.2 170.4 C258.5 171.1 256.8 171.8 255.1 172.4 C252.4 173.5 249.7 174.6 247.1 175.7 C244.5 176.8 241.9 177.8 239.3 178.8 C238.5 179.2 237.7 179.5 236.9 179.8 C236.1 180.1 235.4 180.4 234.6 180.7 C233.5 181.1 233.5 181.1 232.4 181.5 C231.6 181.7 230.9 181.9 230.1 182.1 C229.3 182.2 228.5 182.3 227.6 182.3 C226.8 182.3 226 182.4 225.2 182.4 C224.1 182.3 224.1 182.3 223 182.3 C222.4 182.2 221.8 182.2 221.1 182.1 C220.1 181.9 219.2 181.6 218.2 181.4 C217.5 180.9 216.8 180.5 216.1 180.1 C215.4 178.8 214.8 177.4 214.1 176.1 C213.7 175.6 213.3 175.1 212.8 174.5 C212.3 174 211.9 173.5 211.4 173 C210.8 172.4 210.3 171.8 209.7 171.2 C209.1 170.6 208.5 169.9 207.9 169.3 C207.3 168.6 206.7 168 206 167.3 C200.3 161.3 194.5 155.3 188.6 149.4 C187.4 148.3 186.3 147.2 185.1 146.1 C184.1 145.2 183 144.4 182 143.5 C180.3 142.2 178.7 141 177 139.7 C176 138.9 176 138.9 175.1 138.1 C174.5 137.3 174.5 137.3 173.8 136.4 C173.6 135.6 173.4 134.9 173.1 134.1 C173 132.9 172.9 131.7 172.9 130.5 C172.9 129.8 172.9 129.1 172.9 128.4 C172.9 127.6 173 126.9 173.1 126.1 C173.3 125.4 173.5 124.7 173.7 123.9 C174.2 122.4 174.8 120.9 175.4 119.4 C175.9 118.2 175.9 118.2 176.4 117 C176.7 116.2 177 115.4 177.4 114.5 C178.4 111.8 179.5 109.2 180.6 106.5 C181.7 103.9 182.8 101.2 183.8 98.6 C184.5 96.9 185.1 95.3 185.8 93.6 C186.4 92.2 187 90.7 187.5 89.2 C187.7 88.5 187.9 87.8 188.1 87.1 C188.2 85.2 188.2 85.2 188.4 83.3 C188.3 82.2 188.2 81.2 188.1 80.1 C187.5 78.4 187.5 78.4 186.9 76.6 C186.5 76.1 186.1 75.5 185.8 74.9 C185.2 74.3 184.7 73.7 184.1 73.1 C183.3 72.5 182.4 71.9 181.6 71.2 C180.6 70.6 179.6 70 178.6 69.4 C176.4 68.1 174.1 66.9 171.9 65.7 C170.3 64.7 170.3 64.7 168.6 63.7 C167.5 63.1 166.4 62.5 165.3 61.9 C164.3 61.4 163.2 60.9 162.1 60.3 C160.6 59.7 160.6 59.7 159.1 59.1 C158.2 58.9 157.3 58.8 156.4 58.6 C155.6 58.6 154.9 58.6 154 58.5 C152.7 58.7 151.4 58.9 150.1 59.1 C149.4 59.4 148.6 59.8 147.9 60.1 C146.7 61.3 145.5 62.5 144.3 63.7 C143.1 65 142 66.3 140.9 67.6 C138.5 70.5 136.2 73.4 134 76.3 C133 77.6 132.1 78.8 131.1 80.1 C129.2 82.7 127.2 85.2 125.2 87.7 C124.8 88.3 124.3 88.9 123.9 89.5 C123.5 90 123 90.6 122.6 91.1 C121.4 92.6 121.4 92.6 120.1 94.1 C118.9 95.3 118.9 95.3 117.6 96.4 C116.8 97 115.9 97.5 115.1 98.1 C114.3 98.4 113.6 98.7 112.8 99 C111.9 99 111 99.1 110.1 99.1 C109 98.8 107.8 98.6 106.6 98.3 C105.3 97.9 103.9 97.5 102.6 97 C101.1 96.6 99.5 96.1 98 95.6 C97.2 95.4 96.4 95.1 95.6 94.9 C91.4 93.6 87.2 92.3 83 91.1 C82.2 90.9 81.3 90.6 80.4 90.3 C77.7 89.6 74.9 88.8 72.1 88.1 C67.8 87.2 63.4 86.4 59.1 85.5 C58.1 85.4 57.1 85.2 56 85 C54.6 84.8 54.6 84.8 53.1 84.5 C52.2 84.3 51.3 84.1 50.4 83.9 C49.7 83.6 48.9 83.4 48.1 83.1 C47.1 82.4 46.1 81.6 45 80.8 C44.4 79.9 43.8 79 43.1 78.1 C42.8 77.2 42.4 76.4 42.1 75.5 C41.7 74.4 41.4 73.3 41.1 72.1 C40.8 70.8 40.6 69.4 40.4 68 C40.1 66.5 39.9 65 39.7 63.5 C39.4 61.8 39.2 60.1 38.9 58.4 C38.5 55.8 38.2 53.2 37.8 50.5 C37.4 48 37 45.4 36.6 42.9 C36.5 42.1 36.4 41.3 36.3 40.5 C36.1 39.1 35.8 37.6 35.6 36.2 C35.4 35.5 35.3 34.8 35.1 34.1 C34.7 32.9 34.3 31.6 33.9 30.3 C33 28.7 33 28.7 32.1 27.1 C30.8 25.9 30.8 25.9 29.4 24.7 C28.3 24.2 27.2 23.6 26.1 23.1 C24.9 22.9 23.8 22.8 22.6 22.6 C21.3 22.6 20 22.6 18.7 22.6 C17.7 22.6 17.7 22.6 16.6 22.6 C15.2 22.6 13.8 22.6 12.3 22.6 C10.1 22.6 7.9 22.6 5.7 22.6 C4.3 22.6 2.9 22.6 1.5 22.6 C-0.4 22.6 -0.4 22.6 -2.4 22.6 C-4.1 22.8 -4.1 22.8 -5.9 23.1 Z " transform="translate(501.898681640625,166.8935546875)" fill="currentColor" />
<path d="M0 0 C3.1 0.1 6.3 0.2 9.4 0.3 C12.5 0.5 15.7 0.7 18.8 1 C21.9 1.4 24.9 1.8 28 2.2 C31 2.7 34 3.2 37 3.8 C40.7 4.6 44.4 5.4 48.1 6.3 C50.7 6.9 53.3 7.7 55.8 8.4 C58.5 9.2 61.1 10.1 63.8 11 C66.8 12.1 69.8 13.3 72.8 14.5 C75.9 15.7 78.9 17 82 18.3 C83.9 19.2 85.9 20.1 87.8 21 C89.5 21.9 91.3 22.8 93 23.8 C95.5 25.1 97.9 26.5 100.2 27.9 C103.1 29.7 105.9 31.5 108.7 33.3 C110.6 34.5 112.4 35.8 114.2 37 C115.8 38.2 117.5 39.5 119.1 40.7 C122 43 124.9 45.3 127.7 47.7 C129.8 49.5 131.8 51.2 133.8 53 C135.1 54.3 136.5 55.6 137.8 56.9 C138.8 57.9 139.8 59 140.8 60 C142 61.2 142 61.2 143.2 62.5 C144.1 63.3 144.9 64.2 145.8 65 C146.3 65.5 146.9 66 147.4 66.6 C148.8 67.8 150.1 69.1 151.4 70.4 C152.2 71.3 153 72.2 153.8 73 C155.2 74.8 156.6 76.5 158 78.3 C159.6 80.3 161.1 82.4 162.6 84.5 C163.7 86 164.7 87.5 165.8 89 C167.4 91.5 169 94 170.5 96.5 C172.6 99.9 174.6 103.3 176.5 106.7 C177.6 108.8 178.8 110.9 179.8 113 C180.4 114.2 181 115.4 181.6 116.6 C183 119.8 184.3 123 185.7 126.2 C186.9 129.3 188.1 132.5 189.3 135.6 C190.2 138.1 191 140.6 191.8 143 C192.5 145.5 193.2 148 193.9 150.5 C194.5 153 195.1 155.5 195.7 158 C196.4 161.3 197.1 164.5 197.7 167.8 C198.1 170.3 198.5 172.7 198.9 175.1 C199.2 177.8 199.5 180.4 199.8 183 C200 186.2 200.3 189.4 200.4 192.6 C200.6 195.9 200.7 199.2 200.8 202.6 C200.8 204.7 200.8 206.9 200.8 209 C200.7 210.9 200.7 212.8 200.6 214.7 C200.4 217.4 200.2 220.1 199.9 222.8 C199.6 225.5 199.2 228.3 198.8 231 C198.1 235.2 197.4 239.4 196.6 243.6 C195.9 246.7 195.3 249.9 194.5 253 C194 255 193.5 256.9 193 258.9 C192.2 261.5 191.4 264.2 190.5 266.8 C189.6 269.4 188.7 272 187.8 274.5 C186.4 277.9 185.1 281.3 183.6 284.7 C182.5 287.2 181.4 289.7 180.2 292.2 C179.4 293.8 178.6 295.4 177.8 297 C176.4 299.5 175.1 301.9 173.6 304.3 C171.8 307.2 170 310.2 168.1 313.1 C166.3 315.8 164.5 318.4 162.7 321 C160.7 323.6 158.6 326.3 156.5 328.9 C154.3 331.6 152.1 334.3 149.8 337 C149.2 337.8 148.6 338.5 147.9 339.3 C146.8 340.6 145.7 341.9 144.5 343.2 C143.9 343.8 143.4 344.4 142.8 345 C141.5 346.2 140.3 347.3 139 348.5 C138.3 349 137.6 349.6 136.9 350.2 C136.2 350.8 135.5 351.4 134.8 352 C133.3 353.4 131.7 354.9 130.2 356.3 C128.4 357.9 126.6 359.5 124.8 361 C123.1 362.4 121.4 363.7 119.7 365 C117.8 366.4 115.9 367.8 114 369.2 C112.6 370.2 111.2 371.1 109.8 372 C107.5 373.5 105.2 374.9 102.8 376.3 C99.6 378.2 96.4 380 93.1 381.8 C90.3 383.3 87.5 384.8 84.6 386.2 C82.6 387.2 80.5 388.2 78.4 389.1 C76 390.1 73.6 391.1 71.1 392.1 C68.2 393.2 65.2 394.2 62.3 395.2 C59.2 396.2 56.1 397.2 53 398.1 C50.8 398.7 48.6 399.3 46.4 399.8 C42 400.8 37.6 401.7 33.2 402.6 C30.4 403.1 27.6 403.6 24.8 404 C22.8 404.3 20.9 404.6 18.9 404.8 C17.8 404.9 17.8 404.9 16.8 405 C15.4 405.1 14.1 405.2 12.8 405.2 C11.4 405.2 10 405.3 8.6 405.3 C7.8 405.3 7 405.3 6.3 405.3 C-1.3 405.4 -8.9 405.4 -16.5 405.2 C-18.1 405.2 -19.7 405.1 -21.2 405 C-23.6 404.9 -26 404.6 -28.4 404.4 C-30.5 404.1 -32.5 403.8 -34.6 403.5 C-36.6 403.1 -38.5 402.7 -40.5 402.4 C-44.4 401.5 -48.4 400.5 -52.3 399.5 C-55.4 398.7 -58.4 397.9 -61.5 396.9 C-64.4 396 -67.3 395 -70.2 394 C-73 393 -75.7 391.9 -78.4 390.8 C-81.1 389.7 -83.7 388.6 -86.3 387.4 C-88.7 386.2 -91.2 385.1 -93.6 383.8 C-95.9 382.6 -98.2 381.4 -100.5 380.2 C-102.7 378.9 -104.9 377.6 -107.1 376.3 C-109.9 374.6 -112.7 372.8 -115.4 371 C-117.5 369.7 -119.5 368.3 -121.4 366.9 C-123.3 365.5 -125.1 364.1 -127 362.7 C-128.7 361.3 -130.4 359.9 -132.1 358.5 C-133.8 356.9 -135.6 355.4 -137.3 353.8 C-141.1 350.3 -144.8 346.7 -148.5 343.1 C-150.8 340.8 -153 338.5 -155.2 336.2 C-156.5 334.8 -157.7 333.5 -158.8 332.2 C-159.8 331.1 -160.7 330 -161.6 328.9 C-162.8 327.3 -163.9 325.7 -165.1 324.2 C-169.7 317.4 -169.7 317.4 -171.7 314.3 C-173.2 311.9 -174.7 309.5 -176.2 307 C-176.6 306.4 -177 305.7 -177.4 305 C-179.2 302.2 -180.8 299.3 -182.5 296.3 C-183.3 294.7 -184.2 293.2 -185 291.6 C-185.8 289.8 -186.6 288.1 -187.4 286.4 C-188.7 283.5 -189.8 280.7 -191 277.8 C-192.1 274.9 -193.2 272 -194.2 269 C-194.9 267 -195.5 265.1 -196.1 263.1 C-197 260.1 -197.8 257.2 -198.6 254.3 C-199.3 251.4 -200 248.6 -200.6 245.8 C-201.2 243.1 -201.7 240.5 -202.2 237.8 C-202.8 234.6 -203.3 231.5 -203.7 228.3 C-204 225.7 -204.3 223.1 -204.6 220.5 C-204.8 218.4 -205 216.3 -205.1 214.2 C-205.2 210.7 -205.3 207.1 -205.4 203.5 C-205.4 201.4 -205.4 199.3 -205.3 197.2 C-205.2 194.9 -205.1 192.6 -204.9 190.3 C-204.6 186.9 -204.3 183.6 -203.9 180.2 C-203.7 178.5 -203.4 176.8 -203.2 175 C-203.1 174.2 -203 173.4 -202.9 172.6 C-202.5 170.1 -202.1 167.6 -201.7 165.2 C-201.4 163.4 -201 161.7 -200.7 159.9 C-200.2 158 -199.7 156 -199.2 154 C-198.1 150.2 -197 146.4 -195.8 142.7 C-194.1 137.5 -192.3 132.4 -190.5 127.3 C-189.7 125.3 -188.9 123.4 -188.1 121.4 C-187.5 119.9 -186.8 118.5 -186.1 117.1 C-185.2 115.2 -184.2 113.4 -183.2 111.6 C-182.9 111 -182.6 110.4 -182.2 109.8 C-181.1 107.9 -180.1 105.9 -179 103.9 C-177.6 101.2 -176.1 98.5 -174.5 95.8 C-173.8 94.5 -173 93.3 -172.2 92 C-171.5 90.9 -170.7 89.9 -170 88.7 C-168.5 86.8 -167 84.8 -165.5 82.8 C-164.7 81.9 -164 81 -163.2 80 C-162.5 79.1 -161.8 78.2 -161.1 77.3 C-158.8 74.5 -156.5 71.8 -154.2 69 C-151.8 66.2 -149.3 63.5 -146.8 60.7 C-145.8 59.7 -144.8 58.6 -143.7 57.5 C-143.2 57 -142.7 56.5 -142.2 56 C-141.3 55.2 -140.4 54.4 -139.4 53.5 C-137.6 52 -135.7 50.6 -133.9 49.1 C-133 48.4 -132.1 47.7 -131.2 47 C-130.4 46.3 -129.6 45.6 -128.8 44.9 C-127 43.4 -125.2 41.9 -123.4 40.5 C-122.4 39.6 -121.3 38.8 -120.2 38 C-118.1 36.6 -116.1 35.1 -113.9 33.7 C-111.5 32.2 -109.1 30.7 -106.6 29.2 C-104.8 28.1 -103 27.1 -101.2 26 C-98.2 24.4 -95.1 22.8 -92 21.3 C-88.8 19.7 -85.6 18.2 -82.4 16.7 C-79.4 15.4 -76.5 14.1 -73.5 12.9 C-71.7 12.2 -70 11.6 -68.3 11 C-66.6 10.4 -64.9 9.8 -63.2 9.3 C-61.4 8.7 -59.7 8.2 -58 7.8 C-55 7 -52.1 6.3 -49.2 5.6 C-46 4.9 -42.9 4.2 -39.7 3.6 C-36.6 3 -33.4 2.5 -30.2 2 C-27.2 1.6 -24.2 1.2 -21.2 0.9 C-18.2 0.7 -15.2 0.4 -12.2 0.2 C-8.2 0.1 -4.1 -0 0 0 Z M-18.4 23.2 C-20.3 23.4 -22.3 23.6 -24.3 23.8 C-27.1 24.2 -29.9 24.5 -32.7 25 C-34.6 25.3 -36.4 25.7 -38.2 26 C-40.1 26.5 -41.9 26.9 -43.8 27.4 C-46.4 28.1 -49.1 28.8 -51.8 29.6 C-54.3 30.4 -56.7 31.2 -59.2 32 C-59.9 32.3 -60.7 32.5 -61.4 32.8 C-63.5 33.5 -65.5 34.2 -67.5 34.9 C-69.5 35.6 -71.4 36.4 -73.3 37.2 C-75.3 38.1 -77.2 38.9 -79.2 39.8 C-81.2 40.7 -83.2 41.7 -85.1 42.7 C-87.2 43.8 -89.2 44.9 -91.2 46 C-93.4 47.3 -95.6 48.7 -97.8 50.1 C-100.7 51.9 -103.5 53.8 -106.3 55.7 C-108 56.9 -109.7 58.2 -111.4 59.4 C-113.2 60.9 -115 62.3 -116.7 63.8 C-118 64.9 -118 64.9 -119.2 66 C-120.1 66.8 -121 67.6 -121.9 68.3 C-124.3 70.5 -126.8 72.8 -129.2 75 C-129.8 75.6 -130.4 76.1 -131 76.7 C-131.8 77.4 -131.8 77.4 -132.7 78.2 C-133.5 79.1 -133.5 79.1 -134.3 79.9 C-134.9 80.6 -135.6 81.3 -136.2 82 C-138.6 84.9 -140.9 87.8 -143.2 90.7 C-144.5 92.5 -145.9 94.3 -147.2 96 C-147.9 96.9 -148.5 97.7 -149.2 98.6 C-150.3 100.1 -151.4 101.7 -152.5 103.3 C-153.8 105.4 -155.1 107.5 -156.4 109.6 C-157.9 112.3 -159.5 115 -161 117.7 C-162.1 119.9 -163.2 122 -164.3 124.2 C-165.4 126.4 -166.4 128.6 -167.4 130.8 C-168.4 133.1 -169.4 135.4 -170.3 137.7 C-171.2 140 -172.1 142.3 -172.9 144.7 C-173.7 147 -174.5 149.3 -175.2 151.7 C-175.7 153.3 -176.1 154.9 -176.6 156.5 C-177 158.2 -177.4 160 -177.8 161.8 C-178.8 166.2 -179.7 170.7 -180.5 175.1 C-180.9 177.6 -181.2 180 -181.5 182.4 C-181.7 184.1 -181.9 185.7 -182 187.4 C-182.2 189.2 -182.3 191.1 -182.3 193 C-182.5 198.7 -182.5 204.4 -182.4 210.1 C-182.4 212.4 -182.3 214.7 -182.2 217 C-182.1 219 -181.9 220.9 -181.7 222.8 C-181.5 224.5 -181.3 226.3 -181 228 C-180.6 230.6 -180.2 233.1 -179.7 235.6 C-179.1 238.8 -178.4 242 -177.6 245.2 C-177 247.5 -176.4 249.9 -175.7 252.2 C-175 254.7 -174.2 257.1 -173.4 259.6 C-172.5 262.3 -171.5 264.9 -170.5 267.5 C-169.5 270.2 -168.4 272.8 -167.4 275.4 C-166.6 277.2 -165.8 278.9 -165 280.6 C-163.8 283.1 -162.6 285.5 -161.3 288 C-160.1 290.3 -158.8 292.6 -157.5 294.9 C-156.7 296.3 -155.8 297.7 -154.9 299.1 C-153.7 300.9 -152.4 302.8 -151.1 304.6 C-149.5 306.8 -147.9 308.9 -146.2 311 C-145.6 311.9 -144.9 312.8 -144.2 313.7 C-143 315.3 -141.7 316.9 -140.4 318.5 C-137.8 321.5 -135.1 324.6 -132.4 327.6 C-130.9 329.3 -129.3 330.9 -127.7 332.5 C-127 333.3 -127 333.3 -126.2 334 C-124.9 335.3 -124.9 335.3 -123.5 336.5 C-120.8 338.7 -118 340.9 -115.2 343 C-113.8 344.2 -113.8 344.2 -112.4 345.4 C-110.8 346.6 -109.3 347.9 -107.7 349.1 C-106.6 350 -105.4 350.8 -104.2 351.7 C-102.8 352.6 -101.4 353.6 -100 354.5 C-97.5 356 -95 357.6 -92.5 359 C-89.7 360.6 -87 362.1 -84.2 363.6 C-82.2 364.6 -80.2 365.5 -78.1 366.5 C-75 367.8 -71.8 369.2 -68.6 370.5 C-65.5 371.7 -62.3 372.9 -59.1 374 C-56.5 374.9 -53.9 375.8 -51.2 376.7 C-49.6 377.1 -48.1 377.5 -46.5 378 C-45 378.4 -43.5 378.7 -41.9 379.1 C-38.7 379.8 -35.4 380.4 -32.1 381 C-29.4 381.4 -26.7 381.8 -24 382.2 C-22.1 382.4 -20.2 382.6 -18.3 382.8 C-16.2 383 -14.1 383.1 -12 383.2 C-8.5 383.3 -5.1 383.4 -1.7 383.4 C1.7 383.4 5.1 383.3 8.5 383.2 C10.6 383.1 12.7 383 14.8 382.8 C16.7 382.7 18.6 382.5 20.4 382.3 C22.2 382 24 381.8 25.9 381.5 C27.6 381.2 29.4 380.9 31.2 380.6 C32.9 380.2 34.7 379.8 36.4 379.4 C39.1 378.8 41.8 378.1 44.4 377.3 C47 376.6 49.6 375.8 52.2 374.9 C55.7 373.7 59.2 372.5 62.6 371.2 C65.1 370.2 67.6 369.2 70.1 368.1 C72.4 367.1 74.7 366.1 76.9 365 C78.9 364.1 80.8 363.1 82.8 362 C85.1 360.7 87.5 359.4 89.8 358 C91.8 356.8 93.9 355.5 95.9 354.2 C99 352.1 102 349.9 105 347.7 C107.2 346.1 109.3 344.4 111.5 342.7 C113.2 341.4 114.8 340 116.5 338.6 C118.7 336.6 120.9 334.6 123.1 332.6 C125.6 330.2 128 327.8 130.4 325.4 C132 323.7 133.7 321.9 135.2 320.1 C136.6 318.5 137.9 316.8 139.2 315.2 C141.3 312.4 143.4 309.5 145.4 306.6 C146.9 304.5 148.3 302.3 149.8 300 C151 298 152.3 296 153.5 293.9 C155 291.3 156.4 288.6 157.8 285.9 C158.1 285.3 158.4 284.7 158.8 284 C159.3 283.1 159.3 283.1 159.7 282.2 C160.6 280.5 161.5 278.7 162.4 276.9 C163 275.7 163.5 274.4 164.1 273.2 C164.7 271.8 165.2 270.4 165.8 269 C166.7 266.4 167.7 263.8 168.6 261.2 C169.5 258.4 170.4 255.6 171.2 252.8 C171.8 250.9 172.3 248.9 172.8 247 C173.4 244.2 174.1 241.3 174.6 238.4 C175.3 235.1 175.9 231.7 176.4 228.3 C176.8 226.1 177.1 223.9 177.4 221.7 C177.5 220.2 177.7 218.6 177.8 217 C177.9 213.9 178 210.9 178 207.8 C178 203 178 198.2 177.9 193.5 C177.8 191.3 177.7 189.2 177.6 187 C177.4 185.1 177.2 183.3 177 181.4 C176.7 178.7 176.3 176 175.8 173.4 C175.3 170.7 174.8 168 174.2 165.3 C173.5 162.5 172.8 159.7 172.1 156.9 C171.3 154.2 170.5 151.4 169.7 148.7 C168.8 146.1 167.9 143.5 167 140.9 C166 138.4 165 135.9 164 133.4 C163 130.9 161.9 128.5 160.8 126 C159.6 123.5 158.3 121 157.1 118.4 C155.8 116 154.5 113.6 153.2 111.2 C152.4 109.8 151.6 108.4 150.8 107 C150.1 105.9 149.4 104.9 148.6 103.8 C148 102.8 147.3 101.9 146.7 101 C145.4 99.3 144.1 97.7 142.8 96 C142.2 95.2 141.5 94.4 140.9 93.6 C139.6 91.9 138.3 90.3 137 88.6 C135 86.3 133 83.9 130.9 81.6 C129 79.6 127.2 77.5 125.2 75.5 C123.8 74.1 122.4 72.6 120.9 71.2 C119 69.4 117 67.5 115 65.7 C113.4 64.4 111.8 63 110.1 61.7 C108.4 60.3 106.6 58.9 104.8 57.6 C102.9 56.2 100.9 54.8 99 53.5 C96.6 51.9 94.3 50.4 91.9 49 C89.3 47.4 86.6 45.8 84 44.3 C82.2 43.3 80.3 42.3 78.5 41.4 C77.6 40.9 76.7 40.5 75.8 40 C74 39.2 72.2 38.4 70.4 37.7 C67.7 36.6 65.1 35.6 62.4 34.6 C59.9 33.7 57.3 32.9 54.8 32 C54 31.8 53.3 31.5 52.5 31.3 C49.6 30.3 46.8 29.5 43.9 28.6 C41.9 28.1 39.8 27.5 37.8 27 C35 26.4 32.2 25.8 29.3 25.3 C26.8 24.8 24.3 24.4 21.8 24 C19.4 23.7 17 23.5 14.5 23.2 C12.6 23.1 10.7 23 8.8 22.9 C3.2 22.8 -2.5 22.8 -8.1 22.8 C-11.5 22.9 -15 23 -18.4 23.2 Z " transform="translate(514.21875,308.96875)" fill="currentColor" />
</svg>
