<?xml version="1.0" encoding="UTF-8"?>

<svg version="1.1" xmlns="http://www.w3.org/2000/svg" width="1024" height="1024" viewBox="0 0 1024 1024" fill="currentColor">
<path d="M0 0 C1.6 -0.1 1.6 -0.1 3.2 -0.2 C5.3 -0.3 7.5 -0.4 9.6 -0.4 C14.3 -0.4 19 -0.4 23.7 -0.2 C24.8 -0.1 25.9 -0.1 27 0 C28 0.1 28.9 0.2 29.9 0.3 C31.7 0.6 33.5 0.9 35.3 1.2 C36.9 1.5 38.6 1.9 40.2 2.2 C42.5 2.8 44.7 3.4 47 4 C47.7 4.2 48.3 4.4 49 4.5 C50.9 5.1 52.8 5.6 54.7 6.2 C55.9 6.6 57.1 7 58.3 7.5 C59.5 8 60.8 8.5 62 9 C63.4 9.6 64.8 10.3 66.2 11 C68.4 12.1 70.6 13.2 72.8 14.4 C74.2 15.1 75.6 15.9 77 16.8 C77.7 17.2 78.3 17.6 79 18 C80.2 18.8 81.4 19.6 82.6 20.5 C84.3 21.7 85.9 23 87.5 24.3 C89 25.5 90.5 26.7 92 28 C92.9 28.8 93.8 29.5 94.7 30.3 C96.4 31.7 98 33.2 99.7 34.7 C101.2 36.2 102.7 37.7 104.3 39.3 C105 40 105.7 40.8 106.5 41.6 C107.2 42.5 108 43.3 108.7 44.2 C109.9 45.6 111.1 47.1 112.2 48.6 C113.5 50.5 114.8 52.3 116.1 54.1 C117.3 56.1 118.6 58 119.8 60 C120.6 61.3 121.4 62.6 122.1 64 C123.2 66 124.2 67.9 125.2 69.9 C126.2 71.9 127.2 74 128.1 76 C129.3 78.6 130.4 81.2 131.5 83.9 C132.3 85.9 133 87.9 133.7 89.9 C134.1 91.2 134.6 92.6 135 94 C135.6 96.2 136.2 98.5 136.7 100.7 C137.3 103 137.7 105.3 138.2 107.6 C138.5 109.1 138.7 110.5 139 112 C139.2 113.2 139.5 114.4 139.7 115.7 C139.9 116.9 140.1 118.1 140.2 119.4 C140.5 121.4 140.7 123.4 140.9 125.5 C141 128.5 141.1 131.5 141.2 134.6 C141.3 139.4 141.3 144.3 141.2 149.1 C141.2 151.4 141.1 153.7 141 156 C140.9 157.8 140.7 159.7 140.5 161.5 C140.3 163.1 140.1 164.7 139.8 166.3 C139.5 167.8 139.3 169.3 139 170.8 C138.5 172.9 138 175 137.5 177 C136.9 179 136.3 180.9 135.8 182.8 C135.3 184 134.9 185.2 134.4 186.4 C133.5 188.8 132.5 191.2 131.4 193.6 C130.9 194.8 130.3 196 129.8 197.2 C129.2 198.3 128.6 199.5 127.9 200.6 C127.3 201.8 126.7 202.9 126 204 C125.3 205.1 124.6 206.2 123.8 207.3 C123.1 208.3 122.3 209.3 121.6 210.4 C120.1 212.3 118.5 214.1 117 216 C116.4 216.7 115.7 217.5 115.1 218.2 C114.5 218.9 113.9 219.5 113.2 220.2 C112.6 220.8 112 221.4 111.3 222.1 C110.5 222.7 109.8 223.3 109 224 C106.8 225.6 104.6 227.2 102.4 228.8 C101.3 229.5 100.2 230.3 99.1 231 C98.1 231.7 97.1 232.3 96 233 C94.9 233.6 93.8 234.2 92.7 234.8 C91.8 235.2 90.9 235.6 90 236 C89.3 236 88.7 236 88 236 C88.2 236.8 88.4 237.5 88.6 238.3 C89.2 240.6 89.7 242.9 90.3 245.1 C90.5 246.4 90.7 247.7 91 249 C91.2 250.2 91.3 251.3 91.5 252.5 C91.7 254.4 91.8 256.3 91.9 258.2 C92 259.6 92 261.1 92 262.5 C92 264.3 92 266 91.9 267.8 C91.7 272 91.4 276.3 91 280.5 C90.5 286.4 89.9 292.3 89.1 298.1 C88.2 305.4 87.1 312.7 86 320 C85.8 321.1 85.7 322.3 85.5 323.4 C84.6 329.3 83.7 335.1 82.6 340.9 C81.3 347.8 79.8 354.7 78.2 361.5 C76 371.4 73.6 381.2 71 391 C69 398.3 66.8 405.5 64.6 412.7 C63.1 417.5 61.6 422.2 60 427 C59.7 428 59.4 428.9 59.1 429.9 C58 433.1 57 436.2 55.9 439.4 C53.2 446.7 50.3 454 47.3 461.2 C44.6 467.8 41.9 474.4 39 481 C36.2 487.3 33.2 493.6 30.1 499.8 C28.4 503.2 26.7 506.6 25 510 C24.2 511.5 24.2 511.5 23.5 513 C20.6 518.7 17.7 524.4 14.7 530 C10.9 536.8 6.9 543.5 2.9 550.2 C-2.4 559.1 -7.8 568 -13.5 576.7 C-17.3 582.5 -21.1 588.2 -25 593.9 C-26.7 596.3 -28.5 598.6 -30.2 601 C-30.8 601.8 -31.5 602.5 -32.1 603.3 C-32.7 604 -33.3 604.6 -34 605.3 C-34.6 605.8 -35.3 606.4 -36 607 C-36.9 607.6 -37.8 608.2 -38.8 608.8 C-39.8 609.4 -40.7 609.9 -41.8 610.5 C-42.7 611 -43.6 611.4 -44.5 611.9 C-45.7 612.4 -45.7 612.4 -47 613 C-47.6 613.2 -48.2 613.4 -48.9 613.6 C-49.6 613.8 -50.3 613.9 -51 614 C-52.1 614.1 -53.3 614.2 -54.5 614.3 C-56.5 614.3 -58.6 614.4 -60.6 614.4 C-62.1 614.4 -63.5 614.3 -65 614.2 C-65.6 614.1 -66.3 614.1 -67 614 C-68.1 613.7 -69.3 613.4 -70.4 613.1 C-71.4 612.7 -72.5 612.3 -73.5 611.9 C-74.5 611.5 -75.4 611 -76.4 610.5 C-77.2 610 -78.1 609.5 -79 609 C-79.8 608.5 -80.5 608 -81.3 607.5 C-82 606.9 -82.7 606.4 -83.4 605.8 C-84 605.2 -84.6 604.6 -85.2 604 C-85.8 603.4 -86.4 602.7 -87 602 C-87.6 601.2 -88.2 600.4 -88.8 599.5 C-89.8 597.8 -90.8 596.1 -91.8 594.4 C-92.2 593.6 -92.6 592.8 -93 592 C-93.6 590.8 -93.6 590.8 -94.1 589.5 C-94.4 588.7 -94.7 587.9 -95 587 C-95.2 586.1 -95.3 585.2 -95.5 584.3 C-95.6 583.4 -95.7 582.4 -95.8 581.4 C-95.9 580.5 -96 579.6 -96.1 578.6 C-96.1 577.4 -96 576.2 -96 575 C-95.9 574.1 -95.7 573.3 -95.6 572.4 C-95.4 571.4 -95.1 570.4 -94.9 569.4 C-94.7 568.4 -94.4 567.3 -94.1 566.2 C-93.7 565.2 -93.4 564.1 -93 563 C-92.3 561.4 -92.3 561.4 -91.6 559.9 C-90.5 557.7 -89.3 555.6 -88.2 553.5 C-87.6 552.4 -86.9 551.4 -86.3 550.2 C-85 547.9 -83.8 545.6 -82.5 543.3 C-81.6 541.7 -81.6 541.7 -80.7 540 C-78.9 536.9 -77.3 533.8 -75.6 530.6 C-74.4 528.2 -73.1 525.7 -71.9 523.1 C-70.5 519.8 -69.1 516.5 -67.7 513.1 C-65.7 508.1 -63.8 503.1 -62 498 C-60 492.3 -58.1 486.5 -56.2 480.8 C-54.8 476 -53.3 471.2 -52 466.4 C-50.4 460.6 -49 454.7 -47.6 448.8 C-46.1 442.4 -44.7 436 -43.4 429.6 C-42.4 424.3 -41.5 419.1 -40.7 413.9 C-38.9 402.3 -37.4 390.7 -36 379 C-35.5 374.7 -35.1 370.4 -34.8 366.1 C-34.1 356.9 -33.6 347.7 -33.2 338.5 C-33 332.9 -32.9 327.4 -32.9 321.9 C-32.9 316 -33 310.1 -33 304.2 C-33.1 281.8 -33.1 281.8 -32.9 274.1 C-32.8 271.5 -32.7 268.9 -32.6 266.3 C-32.5 265.2 -32.5 265.2 -32.5 264.1 C-32.4 262.7 -32.3 261.4 -32.2 260 C-32.1 258.6 -31.9 257.2 -31.7 255.8 C-31.4 253.7 -31.1 251.7 -30.8 249.6 C-30.5 248.3 -30.2 247.1 -30 245.7 C-29.6 244.5 -29.3 243.3 -29 242 C-28.4 240.2 -28.4 240.2 -27.8 238.3 C-26.9 236.1 -26.1 233.9 -25.2 231.8 C-24.8 230.9 -24.4 229.9 -24 229 C-23.3 227.3 -22.7 225.7 -22 224 C-22.9 223.6 -22.9 223.6 -23.8 223.2 C-24.5 222.8 -25.2 222.4 -26 222 C-26.6 221.6 -27.2 221.1 -27.9 220.7 C-29.2 219.5 -30.5 218.3 -31.9 217.2 C-32.6 216.4 -33.3 215.7 -34 215 C-35 213.8 -35 213.8 -36 212.6 C-36.7 211.8 -37.3 210.9 -38 210 C-38.7 209.1 -39.3 208.1 -40 207.1 C-41.4 204.9 -42.8 202.7 -44.1 200.4 C-45.2 198.6 -46.3 196.7 -47.3 194.8 C-47.9 193.5 -48.5 192.2 -49.2 190.9 C-49.6 190 -49.6 190 -50 189 C-50.2 188.4 -50.5 187.7 -50.7 187 C-51.3 185.2 -51.9 183.3 -52.4 181.4 C-53 179.3 -53.5 177.1 -54 175 C-54.3 173.8 -54.3 173.8 -54.5 172.6 C-54.8 171.3 -54.8 171.3 -55 170 C-55.1 169.2 -55.1 168.3 -55.2 167.5 C-55.3 163.5 -55.4 159.5 -55.4 155.4 C-55.4 153.3 -55.3 151.1 -55.2 149 C-55.2 148 -55.1 147 -55 146 C-54.9 145.2 -54.7 144.3 -54.6 143.5 C-54.4 142.8 -54.3 142 -54.1 141.2 C-53.9 140.6 -53.7 139.9 -53.5 139.2 C-53.1 137.8 -52.6 136.5 -52.2 135.2 C-52 134.6 -51.7 134 -51.5 133.4 C-50.6 131.3 -49.7 129.2 -48.7 127.2 C-48.3 126.3 -47.8 125.5 -47.4 124.6 C-46.9 123.7 -46.4 122.9 -45.9 122 C-43.9 118.9 -41.9 115.8 -39.9 112.7 C-36.4 107.4 -36.4 107.4 -33 102 C-32.4 101 -31.9 99.9 -31.3 98.9 C-30.9 98 -30.4 97.1 -30 96.2 C-29.6 95.3 -29.3 94.5 -28.9 93.6 C-28.3 91.8 -27.7 90 -27 88.2 C-26.6 86.7 -26.6 86.7 -26.2 85.2 C-26 84.2 -25.7 83.2 -25.5 82.1 C-25.3 81.1 -25.2 80.1 -25 79 C-24.9 77.9 -24.8 76.8 -24.7 75.7 C-24.6 74.6 -24.6 73.5 -24.6 72.3 C-24.6 71.1 -24.6 70 -24.6 68.8 C-24.8 67.5 -24.9 66.3 -25 65 C-25.2 63.6 -25.5 62.2 -25.8 60.8 C-26.2 58.6 -26.8 56.4 -27.3 54.3 C-27.8 52.2 -28.4 50.1 -29 48 C-29.7 45.7 -30.5 43.3 -31.2 41 C-31.6 40 -31.9 38.9 -32.2 37.9 C-32.5 36.9 -32.7 36 -33 35 C-33.1 34.2 -33.2 33.4 -33.4 32.6 C-33.4 31.8 -33.4 31.1 -33.4 30.3 C-33.4 29.6 -33.3 28.9 -33.3 28.2 C-33.1 26.6 -32.9 25.1 -32.6 23.6 C-32.4 22.3 -32.4 22.3 -32.1 21.1 C-31.8 20.2 -31.5 19.4 -31.2 18.6 C-30.8 17.7 -30.4 16.9 -30 16 C-29.4 15.1 -28.8 14.2 -28.1 13.3 C-27.4 12.4 -26.6 11.5 -25.9 10.6 C-24.7 9.4 -24.7 9.4 -23.4 8.1 C-22.6 7.4 -21.8 6.7 -21 6 C-20.3 5.5 -19.6 5 -18.8 4.6 C-18.1 4.2 -17.4 3.9 -16.7 3.5 C-16 3.3 -15.3 3 -14.6 2.8 C-13.3 2.4 -13.3 2.4 -12 2 C-11.1 1.8 -10.3 1.6 -9.4 1.4 C-7.4 1.1 -5.3 0.7 -3.3 0.4 C-1.7 0.2 -1.7 0.2 0 0 Z M25 26 C27 28.7 29 31.4 31 34 C31.9 35.1 31.9 35.1 32.9 36.2 C34.2 37.8 35.5 39.4 36.9 41.1 C37.6 42 38.3 43 39 44 C39.8 45.2 40.5 46.4 41.3 47.7 C42.5 49.7 43.6 51.7 44.8 53.8 C45.9 55.8 47 57.9 48 60 C48.6 61.2 49.2 62.4 49.7 63.7 C50.2 64.8 50.7 66 51.2 67.2 C52 69.1 52.7 71 53.3 72.9 C53.8 74.4 54.3 75.9 54.7 77.4 C55.4 79.9 56.1 82.5 56.8 85.1 C56.9 85.8 57.1 86.6 57.4 87.4 C57.7 89 58.1 90.7 58.5 92.3 C58.9 94.2 59.2 96.2 59.6 98.2 C59.9 100.5 60.3 102.9 60.6 105.3 C60.7 106.5 60.9 107.7 61 109 C61.1 111.6 61.2 114.1 61.3 116.7 C61.3 119.3 61.3 121.9 61.2 124.4 C61.3 126.4 61.3 126.4 61.3 128.4 C61.3 129.7 61.3 130.9 61.3 132.2 C61.3 133.4 61.3 134.5 61.3 135.7 C61.2 136.8 61.1 137.9 61 139 C60.7 140.3 60.4 141.5 60.1 142.8 C59.8 143.9 59.4 144.9 59 146 C58.3 146.7 57.5 147.3 56.8 148 C55.4 148.5 55.4 148.5 54 149 C53 149 51.9 148.9 50.9 148.9 C49.9 148.6 49 148.3 48 148 C47.4 147.5 46.8 147.1 46.2 146.6 C45.6 145.8 45.6 145.8 45 145 C44.7 144.3 44.3 143.7 44 143 C44 142.1 44 141.2 43.9 140.3 C44 139.2 44 138.1 44 136.9 C44 135.7 44 134.5 44.1 133.2 C44.1 132.2 44.1 132.2 44.1 131.2 C44.2 126.4 44.2 121.6 44.1 116.8 C44.1 115.5 44 114.3 44 113 C43.9 111.1 43.7 109.1 43.5 107.2 C43.3 105.5 43.1 103.8 42.8 102.2 C42.5 100.6 42.3 99 42 97.5 C41.3 94.5 40.7 91.5 40 88.6 C39.6 87.1 39.2 85.7 38.8 84.2 C38.4 82.9 38 81.5 37.5 80.1 C37 78.7 36.5 77.4 36 76 C35.4 74.6 34.8 73.2 34.1 71.8 C33.5 70.4 32.8 69 32.1 67.6 C30.8 65.1 29.4 62.5 28 60 C27.5 59 26.9 58 26.4 57 C25.8 56.1 25.3 55.2 24.8 54.3 C24.2 53.5 23.6 52.6 23.1 51.7 C22 50.4 22 50.4 21 49 C20 47.9 19.1 46.7 18.1 45.6 C16.1 43.4 14 41.1 12 38.9 C11 37.9 10 37 9 36 C7.9 35 6.8 34.1 5.6 33.1 C4.8 32.4 3.9 31.7 3 31 C2.3 31.3 1.7 31.7 1 32 C1.4 32.6 1.9 33.1 2.3 33.7 C3.6 35.4 4.8 37.2 6.1 38.9 C6.7 39.9 7.3 40.9 8 42 C8.5 43.1 9.1 44.1 9.6 45.2 C10.7 47.5 11.6 49.8 12.6 52.2 C13.6 54.8 14.5 57.3 15.4 59.9 C16.1 62 16.7 64 17.3 66.1 C17.7 67.6 18.1 69.1 18.5 70.6 C18.8 72.3 19.2 73.9 19.5 75.6 C20 78.4 20.4 81.2 20.8 83.9 C21.2 86.7 21.5 89.5 21.8 92.4 C22 94.8 22.2 97.2 22.3 99.6 C22.3 101.1 22.4 102.5 22.4 104 C22.4 105.4 22.3 106.9 22.3 108.3 C22.2 109.9 22.1 111.4 22 113 C21.6 117 21.1 120.9 20.6 124.9 C20.3 127.5 19.9 130.2 19.5 132.8 C19.3 133.5 19.2 134.3 19 135 C18.7 135.7 18.4 136.4 18.1 137.2 C17.8 137.8 17.4 138.4 17 139 C15.9 139.5 14.9 139.9 13.8 140.4 C12.5 140.6 11.3 140.8 10 141 C8.9 140.6 7.8 140.2 6.6 139.8 C5.8 139.2 4.9 138.6 4 138 C3.7 137.3 3.3 136.7 3 136 C2.9 134.8 2.9 133.6 2.8 132.4 C2.8 131.6 2.8 130.8 2.8 130 C2.9 129 2.9 128 3 127 C3.3 124.2 3.6 121.4 4 118.6 C4.4 115.7 4.7 112.9 5 110 C5.1 109.1 5.1 108.2 5.2 107.3 C5.2 106.6 5.2 105.9 5.2 105.1 C5.2 104.4 5.2 103.6 5.2 102.8 C4.9 98.8 4.6 94.8 4.2 90.8 C4 88.3 3.7 85.8 3.4 83.4 C3.2 82.6 3.1 81.8 3 81 C2.7 79.6 2.5 78.2 2.2 76.9 C1.5 74.4 0.9 71.9 0.1 69.5 C-0.6 67.1 -1.4 64.8 -2.3 62.5 C-3.1 60.4 -4 58.3 -4.9 56.3 C-5.2 55.5 -5.6 54.8 -6 54 C-6.7 53.3 -7.3 52.7 -8 52 C-7.8 53.9 -7.8 53.9 -7.5 55.8 C-7.3 57.6 -7.2 59.3 -7 61 C-6.9 62.7 -6.8 64.4 -6.8 66.2 C-6.7 69 -6.7 71.8 -6.7 74.6 C-6.7 76.5 -6.8 78.4 -6.8 80.4 C-6.9 81.2 -6.9 82.1 -7 83 C-7.1 83.7 -7.2 84.5 -7.3 85.2 C-7.4 85.8 -7.5 86.5 -7.6 87.2 C-8.1 89 -8.1 89 -8.5 90.8 C-9.1 92.6 -9.1 92.6 -9.6 94.4 C-10.6 97 -11.6 99.6 -12.7 102.1 C-13.6 104.3 -14.6 106.4 -15.6 108.6 C-16.3 110 -17 111.4 -17.8 112.9 C-18.2 113.6 -18.6 114.3 -19 115 C-19.9 116.4 -20.8 117.8 -21.8 119.2 C-23.2 121.3 -24.7 123.3 -26.1 125.4 C-27.4 127.2 -28.7 129.1 -30 131 C-30.6 132 -31.1 133.1 -31.7 134.1 C-32.2 135.1 -32.6 136 -33.1 136.9 C-33.6 138.2 -33.6 138.2 -34.1 139.6 C-34.7 141.1 -35.2 142.6 -35.7 144.1 C-35.9 144.8 -36.1 145.5 -36.3 146.2 C-36.4 147 -36.6 147.7 -36.7 148.4 C-36.8 149.3 -36.9 150.1 -37 151 C-37.1 152.1 -37.2 153.2 -37.3 154.3 C-37.3 155.6 -37.3 156.8 -37.4 158.1 C-37.4 159.4 -37.3 160.6 -37.3 162 C-37.2 163.3 -37.1 164.7 -37 166 C-36.9 166.7 -36.8 167.3 -36.7 168 C-36.5 169.3 -36.2 170.7 -36 172 C-35.7 173.3 -35.3 174.7 -35 176 C-34.6 177.4 -34.2 178.7 -33.7 180 C-33.4 181 -33.4 181 -33 182 C-32.5 183.3 -31.9 184.6 -31.3 185.9 C-30.7 187.2 -30.1 188.5 -29.4 189.8 C-28.8 191 -28 192.2 -27.3 193.5 C-26.6 194.6 -25.8 195.8 -25 197 C-24.2 198.1 -23.3 199.3 -22.4 200.4 C-21.5 201.4 -20.6 202.5 -19.7 203.5 C-18.7 204.5 -17.8 205.5 -16.8 206.4 C-15.9 207.3 -15 208.1 -14 209 C-13.2 209.7 -12.4 210.4 -11.6 211.1 C-10.8 211.6 -10 212.2 -9.1 212.8 C-7.8 213.6 -7.8 213.6 -6.4 214.4 C-5.3 214.9 -4.2 215.5 -3 216 C-1.4 216.6 0.1 217.3 1.7 217.9 C3.5 218.5 5.3 219.1 7.1 219.8 C9.8 220.6 12.6 221.5 15.4 222.3 C17.7 222.9 20.1 223.5 22.4 224.1 C23.9 224.4 25.3 224.7 26.7 224.9 C28.1 225.2 29.6 225.4 31.1 225.6 C32.7 225.7 34.4 225.9 36 226 C39.3 226.2 42.5 226.3 45.8 226.4 C49.1 226.4 52.5 226.4 55.9 226.3 C57.9 226.3 60 226.1 62 226 C63.2 225.9 63.2 225.9 64.4 225.7 C65.1 225.6 65.8 225.5 66.5 225.4 C67.7 225.1 68.9 224.8 70.2 224.5 C71.3 224.1 72.5 223.8 73.6 223.4 C76 222.4 78.4 221.4 80.8 220.3 C82.1 219.7 83.4 219.1 84.7 218.4 C85.9 217.8 87.2 217.1 88.4 216.3 C89 216 89.6 215.6 90.2 215.2 C91.1 214.6 91.1 214.6 92 214 C92.6 213.6 93.1 213.2 93.7 212.7 C94.8 211.8 95.9 210.9 97 210 C98 209.1 99 208.2 100 207.2 C100.5 206.7 100.9 206.3 101.4 205.8 C102.3 204.9 103.1 203.9 104 203 C104.7 202.2 105.4 201.4 106.1 200.6 C106.6 199.8 107.2 199 107.8 198.2 C108.3 197.4 108.9 196.6 109.4 195.8 C110.3 194.3 111.1 192.8 111.9 191.3 C112.9 189.4 113.8 187.4 114.8 185.5 C115.9 183 116.9 180.5 118 178 C118.3 177.1 118.7 176.3 119 175.4 C119.3 174.6 119.5 173.9 119.8 173.1 C120 172.3 120.2 171.5 120.4 170.7 C120.9 168.6 121.3 166.6 121.6 164.5 C121.9 162.5 122.2 160.5 122.4 158.5 C122.7 156.3 122.8 154.2 123 152 C123.1 149.8 123.2 147.5 123.3 145.3 C123.3 142.9 123.3 140.5 123.2 138.1 C123.2 136.4 123.1 134.7 123 133 C122.8 130.1 122.5 127.3 122.2 124.4 C121.8 121.4 121.4 118.5 121 115.6 C120.7 113.7 120.3 111.9 120 110 C119.7 108.4 119.3 106.7 118.9 105.1 C118.6 103.6 118.2 102.1 117.8 100.6 C117.3 99.1 116.9 97.6 116.4 96.2 C115.7 94.1 115 92 114.3 89.9 C113.7 88.6 113.2 87.2 112.7 85.9 C112.1 84.5 111.5 83.2 110.9 81.9 C110 79.9 109 78 108 76 C107.3 74.7 106.6 73.3 105.8 72 C105 70.6 104.2 69.3 103.4 67.9 C102.6 66.6 101.7 65.3 100.9 64 C99.9 62.6 99 61.3 98 60 C96.9 58.7 95.8 57.3 94.7 56 C93.5 54.7 92.4 53.4 91.2 52.1 C90 50.9 88.8 49.7 87.6 48.4 C86.4 47.3 85.2 46.1 84 45 C82.8 44 81.6 42.9 80.4 41.9 C78.2 40.2 76 38.5 73.8 36.9 C72.9 36.2 72 35.6 71 35 C70.1 34.6 69.1 34.2 68.1 33.7 C67.4 33.5 66.7 33.3 66 33 C66.8 34 67.6 35 68.4 36.1 C70.8 39.4 73.2 42.7 75.6 46.1 C76.9 48 78.2 49.9 79.5 51.9 C80.3 53.2 81.2 54.6 82 56 C82.8 57.4 83.5 58.7 84.2 60.1 C85.3 62.2 86.3 64.3 87.2 66.5 C88.2 68.6 89.1 70.8 90 73 C90.9 75.2 91.7 77.4 92.5 79.6 C93.3 81.8 94 84 94.7 86.3 C95.1 87.9 95.6 89.4 96 91 C96.6 93.7 97.2 96.3 97.8 99 C98.4 102.2 99 105.4 99.6 108.5 C100.1 111.3 100.4 114.1 100.8 116.9 C100.9 117.6 100.9 118.3 101 119 C101.1 122.2 101.2 125.4 101.2 128.6 C101.2 130.1 101.2 131.5 101.2 132.9 C101.3 135.1 101.3 137.3 101.3 139.5 C101.3 140.9 101.3 142.3 101.3 143.7 C101.3 145 101.3 146.2 101.4 147.5 C101.2 148.7 101.1 149.8 101 151 C100.5 152.1 100.1 153.2 99.6 154.4 C99.1 155.3 98.5 156.1 98 157 C97.3 157.3 96.7 157.7 96 158 C95.1 158.1 94.1 158.1 93.1 158.2 C92.1 158.1 91.1 158.1 90 158 C89.3 157.8 88.5 157.6 87.8 157.4 C87.2 157 86.6 156.5 86 156 C85.6 155.1 85.3 154.2 84.9 153.2 C84.6 152.3 84.6 152.3 84.4 151.3 C84.3 150.5 84.1 149.8 84 149 C83.9 147.6 83.9 147.6 83.9 146.2 C83.9 142.9 84 139.6 84.1 136.2 C84.1 132.6 84.1 129 84.1 125.4 C84 123.7 84 123.7 84 122 C83.9 121.1 83.9 120.1 83.8 119.1 C83.6 117.4 83.4 115.8 83.1 114.1 C82.8 111.8 82.4 109.5 81.9 107.2 C81.6 105.8 81.3 104.4 81 103 C80.9 102.3 80.7 101.7 80.6 101 C80.1 99.1 79.7 97.2 79.2 95.2 C78.5 92.8 77.8 90.4 77 88 C76.1 85.5 75.2 83 74.3 80.6 C73.5 78.7 72.7 76.8 71.9 74.9 C71.3 73.6 70.6 72.3 70 71 C68.9 68.9 67.8 66.8 66.7 64.8 C65.5 62.7 64.4 60.8 63.2 58.8 C62.8 58.2 62.4 57.6 62 57 C60.9 55.4 60.9 55.4 59.7 53.9 C59 52.9 58.3 52 57.5 51.1 C56 49.4 54.5 47.7 53 46 C52.3 45.2 51.6 44.4 50.9 43.6 C50.2 42.9 49.5 42.1 48.8 41.4 C48 40.7 47.3 39.9 46.5 39.2 C45.7 38.5 44.9 37.8 44 37 C42.9 36.2 41.8 35.3 40.8 34.5 C38.6 32.9 36.3 31.4 34.1 29.8 C33.1 29.2 32.1 28.6 31 28 C29.9 27.6 28.8 27.2 27.6 26.7 C26.7 26.5 25.9 26.3 25 26 Z M-6 234 C-6.6 235.1 -7.2 236.1 -7.8 237.2 C-8.2 238 -8.5 238.7 -8.9 239.5 C-9.3 240.3 -9.6 241.1 -10 242 C-10.3 243 -10.6 243.9 -10.9 244.9 C-11.4 246.9 -11.9 248.9 -12.4 250.9 C-12.6 251.9 -12.8 252.9 -13 254 C-13.3 255.9 -13.6 257.7 -13.8 259.6 C-13.9 260.4 -13.9 261.2 -14 262 C-14.1 264.7 -14.1 267.5 -14.1 270.2 C-14.1 271.2 -14.1 272.2 -14.1 273.3 C-14.1 274.3 -14.1 275.4 -14.1 276.5 C-14.1 279.8 -14.1 283.2 -14.1 286.5 C-14.1 288.8 -14.1 291.1 -14 293.3 C-14 298.9 -14 304.4 -14 310 C-13 310.1 -11.9 310.2 -10.8 310.3 C0.6 311.6 12 312.9 23.4 314.2 C25.3 314.4 27.2 314.6 29.1 314.8 C46.5 316.8 46.5 316.8 52.3 317.6 C54.6 317.9 56.9 318.3 59.2 318.7 C60.1 318.8 61.1 318.9 62 319 C62.9 319 63.9 319 64.9 319.1 C65.6 319 66.3 319 67 319 C67.5 317 68 315 68.4 313 C68.7 311.5 68.7 311.5 69 310 C69.8 304.8 70.5 299.7 71.1 294.5 C71.2 293.8 71.3 293.1 71.4 292.3 C71.9 287.9 72.4 283.5 72.8 279.1 C73 277.1 73.1 275.1 73.2 273.2 C73.3 269.8 73.4 266.4 73.4 263 C73.4 261.5 73.4 261.5 73.4 260 C73.4 258.2 73.3 256.4 73.2 254.6 C73.2 253.7 73.1 252.9 73 252 C72.8 250.7 72.8 250.7 72.5 249.3 C72.1 247.2 71.5 245.1 71 243 C70.4 243 69.8 243.1 69.2 243.1 C64.3 243.4 59.4 243.7 54.5 243.9 C52.3 243.9 50.2 244 48 244 C46.2 244 44.3 243.9 42.5 243.8 C39.8 243.7 37.1 243.4 34.4 243.2 C32.6 243 30.8 242.7 28.9 242.5 C26.9 242.1 24.8 241.8 22.7 241.3 C18.3 240.4 13.8 239.3 9.4 238.2 C4.2 236.9 -0.9 235.5 -6 234 Z M-14 329 C-14.1 330.2 -14.1 331.3 -14.2 332.5 C-15 346.3 -15.8 360.2 -17 374 C-17.7 381.8 -18.6 389.6 -19.6 397.4 C-20.5 404.4 -21.5 411.3 -22.7 418.3 C-23.6 423.6 -24.6 428.8 -25.6 434 C-27.1 441.3 -28.8 448.6 -30.5 455.8 C-32.2 462.6 -34 469.5 -35.9 476.3 C-37.4 481.7 -39.1 487 -40.8 492.3 C-42.5 497.7 -44.4 503.1 -46.4 508.4 C-48.8 515 -51.4 521.5 -54 528 C-55 530.3 -55.9 532.6 -57 534.9 C-57.9 536.9 -58.8 538.8 -59.8 540.7 C-62.1 545.3 -64.6 549.7 -67.1 554.2 C-69.3 558 -71.5 561.9 -73.7 565.7 C-74.5 567.2 -75.4 568.7 -76.1 570.1 C-76.4 570.8 -76.7 571.4 -77 572 C-77.1 572.8 -77.2 573.7 -77.4 574.5 C-77.4 575.4 -77.4 576.3 -77.4 577.2 C-77.4 578.2 -77.4 579.2 -77.4 580.2 C-77.2 581.1 -77.1 582 -77 583 C-76.7 583.8 -76.4 584.5 -76.2 585.3 C-75.6 586.3 -75.6 586.3 -75 587.4 C-74.5 588 -74.1 588.6 -73.6 589.3 C-72.8 590.1 -72.8 590.1 -72 591 C-71.4 591.5 -70.8 592.1 -70.2 592.6 C-69.6 593.1 -69 593.5 -68.3 594 C-67.6 594.4 -66.9 594.8 -66.2 595.2 C-65.1 595.6 -65.1 595.6 -64 596 C-63.2 596.1 -62.4 596.3 -61.5 596.4 C-60.7 596.5 -59.8 596.5 -58.9 596.6 C-58.1 596.5 -57.3 596.5 -56.4 596.4 C-55.6 596.3 -54.8 596.1 -54 596 C-53.3 595.8 -52.7 595.6 -52 595.3 C-51.4 595 -50.9 594.7 -50.2 594.4 C-49.5 593.9 -49.5 593.9 -48.7 593.4 C-47.9 592.7 -47.9 592.7 -47 592 C-46.5 591.5 -46 591 -45.5 590.5 C-44.5 589.3 -43.5 588.1 -42.5 587 C-42 586.3 -41.5 585.7 -41 585 C-40.4 584.1 -40.4 584.1 -39.7 583.1 C-38.5 581.1 -37.3 579.2 -36.1 577.2 C-34.4 574.4 -32.7 571.7 -31 569 C-29.9 567.4 -28.8 565.8 -27.6 564.2 C-26.4 562.5 -25.2 560.8 -24 559 C-20.4 553.2 -16.9 547.3 -13.5 541.5 C-12.2 539.3 -10.9 537.2 -9.6 535.1 C-7.5 531.7 -5.5 528.3 -3.5 524.8 C1.5 515.7 6.2 506.4 10.9 497.1 C13.7 491.6 16.5 486 19.1 480.4 C21.2 475.9 23.1 471.5 25 467 C25.5 465.9 25.9 464.8 26.4 463.7 C29.5 456.3 32.6 448.7 35.5 441.2 C37.9 434.6 40.2 427.9 42.5 421.2 C45.6 412 48.5 402.8 51.3 393.4 C53 387.6 54.6 381.7 56.1 375.8 C58.4 366.4 60.4 356.9 62.3 347.4 C62.9 344.6 63.5 341.8 64 339 C64 338.3 64 337.7 64 337 C39.9 333.5 39.9 333.5 15.7 330.6 C14.5 330.4 13.3 330.3 12.1 330.2 C10.9 330.1 9.8 329.9 8.6 329.8 C6.5 329.6 4.4 329.4 2.2 329.2 C1.2 329.1 0.1 329.1 -1 329 C-4.5 328.9 -8.1 328.9 -11.6 329 C-12.8 329 -12.8 329 -14 329 Z " transform="translate(282,205)" fill="currentColor" />
<path d="M0 0 C2.4 -0.1 4.8 -0.2 7.3 -0.2 C8.6 -0.2 8.6 -0.2 9.9 -0.2 C10.8 -0.2 11.7 -0.2 12.7 -0.2 C15.6 -0.2 18.6 -0.2 21.6 -0.2 C23.1 -0.3 23.1 -0.3 24.6 -0.3 C31.4 -0.2 38.2 -0.2 45 0 C46.4 0.1 47.7 0.1 49.1 0.2 C51.2 0.4 53.4 0.6 55.5 0.8 C58.3 1.2 61 1.6 63.7 2 C65.5 2.3 67.2 2.7 69 3 C70.4 3.2 70.4 3.2 71.9 3.5 C75.9 4.2 79.9 5 83.9 5.8 C86.9 6.5 90 7.2 93 8 C97.4 9.2 101.7 10.4 106 11.7 C110.4 13.1 114.7 14.5 119 16 C122.1 17.1 125.1 18.3 128.2 19.5 C132.2 21.2 136.1 22.9 140 24.6 C144.1 26.5 148 28.4 152 30.4 C155.8 32.4 159.6 34.4 163.4 36.5 C165.8 37.9 168.2 39.3 170.6 40.8 C173.4 42.5 176.1 44.3 178.9 46.1 C180.2 47.1 181.6 48 183 49 C183.8 49.5 184.5 50.1 185.3 50.6 C189.9 53.8 194.5 57.1 199.1 60.5 C200.3 61.4 201.5 62.4 202.6 63.3 C204 64.5 205.3 65.7 206.6 66.9 C207.3 67.5 208 68.1 208.7 68.8 C209.8 69.9 209.8 69.9 211 71 C212.2 72.1 213.4 73.1 214.7 74.1 C216.1 75.4 217.6 76.7 219 78 C224.2 82.9 229.2 88 234.3 93.1 C236.4 95.3 238.6 97.5 240.6 99.8 C241.8 101.1 243 102.5 244.1 103.9 C245.4 105.6 246.7 107.3 248 109 C248.8 110 249.6 111 250.4 112 C252.6 114.7 254.7 117.5 256.7 120.3 C258.4 122.6 260 124.9 261.7 127.2 C263.4 129.7 265 132.3 266.7 134.8 C269.1 138.8 271.6 142.9 273.9 146.9 C276 150.6 278 154.3 280 158 C282 161.9 283.9 165.9 285.8 169.9 C287.6 173.9 289.3 178 291 182 C292.5 185.6 293.9 189.2 295.2 192.9 C296.2 195.6 297.2 198.4 298.1 201.1 C299.4 205.2 300.6 209.3 301.8 213.4 C303 217.8 304.1 222.2 305.2 226.6 C306.3 231.2 307.3 235.9 308.2 240.5 C309.2 246 310.1 251.5 311 257 C311.5 260.2 311.9 263.3 312.2 266.5 C312.6 270.1 312.9 273.7 313.2 277.4 C313.5 282.9 313.8 288.4 314 294 C314.1 295.8 314.1 295.8 314.1 297.6 C314.2 299.9 314.2 302.3 314.2 304.6 C314 309.2 313.8 313.8 313.5 318.4 C313.2 323.1 312.8 327.8 312.4 332.5 C312 335.8 311.6 339.1 311.2 342.4 C310.6 346.5 309.9 350.6 309.2 354.8 C308.2 360.1 307.1 365.5 306 370.8 C305 375.1 304 379.5 302.9 383.8 C302 386.9 301.1 390.1 300.2 393.2 C298.9 397.2 297.6 401.2 296.2 405.1 C294.8 409.1 293.3 412.9 291.7 416.8 C290.1 420.7 288.4 424.5 286.7 428.3 C284.4 433.2 282.1 438 279.6 442.8 C277.6 446.7 275.6 450.5 273.5 454.3 C272.1 456.9 270.6 459.4 269.1 462 C267.1 465.2 265.2 468.3 263.1 471.4 C260.4 475.5 257.6 479.5 254.7 483.5 C252.4 486.7 250 489.8 247.6 493 C246.6 494.2 245.6 495.5 244.5 496.8 C243.2 498.3 241.9 499.7 240.6 501.2 C239.8 501.9 239.1 502.7 238.4 503.5 C237.6 504.3 236.8 505.1 236 506 C234.9 507.2 233.9 508.5 232.8 509.7 C231.6 511.1 230.3 512.6 229 514 C224.1 519.2 219 524.2 213.9 529.3 C211.7 531.4 209.5 533.5 207.3 535.6 C206 536.7 204.6 537.8 203.3 538.9 C201.6 540.3 199.8 541.7 198 543 C196.7 544 195.4 545 194.1 546.1 C189.8 549.4 185.4 552.8 181 556 C178.5 557.8 175.9 559.5 173.4 561.2 C169.2 564 164.9 566.7 160.6 569.4 C157.4 571.3 154.2 573.2 151 575 C150.3 575.4 149.6 575.8 148.9 576.2 C145.9 577.9 142.9 579.5 139.9 581.1 C137.3 582.5 134.7 583.7 132 585 C127.6 587 123.1 588.9 118.6 590.7 C112.3 593.2 105.9 595.7 99.5 598 C96.9 598.9 94.4 599.8 91.8 600.6 C88.3 601.8 84.7 602.8 81.1 603.8 C77 604.9 72.8 605.9 68.7 606.9 C65.5 607.7 62.2 608.4 59 609 C53.4 610 47.7 610.9 42 611.8 C38.1 612.4 34.2 612.9 30.3 613.3 C28.4 613.5 26.5 613.7 24.6 613.8 C21.8 614 19.1 614.1 16.3 614.1 C11.8 614.2 7.3 614.2 2.8 614.2 C-0 614.2 -2.8 614.2 -5.6 614.2 C-10.2 614.2 -14.8 614.2 -19.3 614.1 C-21.1 614 -22.9 613.9 -24.6 613.8 C-27.9 613.6 -31.2 613.2 -34.5 612.9 C-37.8 612.4 -41.2 612 -44.6 611.4 C-47.6 610.9 -50.7 610.3 -53.7 609.7 C-54.7 609.5 -55.8 609.3 -56.9 609 C-59.9 608.4 -63 607.7 -66 607 C-68.2 606.4 -70.4 605.9 -72.6 605.2 C-74.5 604.6 -76.4 604 -78.3 603.4 C-80.9 602.4 -83.5 601.4 -86 600.4 C-88.1 599.6 -90.1 598.7 -92.1 597.8 C-94.7 596.6 -97.3 595.4 -99.9 594.1 C-101.6 593.1 -103.4 592.2 -105.2 591.2 C-106.3 590.5 -107.5 589.8 -108.6 589.1 C-110.3 588.1 -112 587 -113.7 585.9 C-114.8 585.1 -115.9 584.3 -116.9 583.5 C-118 582.7 -119.1 581.9 -120.2 581.1 C-121.8 579.7 -123.4 578.4 -125 577 C-126.7 575.5 -128.4 573.9 -130 572.4 C-131.7 570.7 -133.3 569.1 -134.9 567.4 C-136 566.3 -137 565.1 -138 564 C-138.9 562.9 -139.9 561.8 -140.8 560.6 C-141.6 559.5 -142.5 558.3 -143.3 557.2 C-144.1 556 -144.9 554.8 -145.7 553.7 C-146.5 552.4 -147.3 551.2 -148 550 C-148.8 548.7 -149.5 547.4 -150.2 546.1 C-150.9 544.8 -151.6 543.5 -152.3 542.1 C-153 540.8 -153.6 539.4 -154.2 538.1 C-155.1 536.1 -156 534.1 -156.8 532.1 C-157.3 530.8 -157.7 529.5 -158.2 528.2 C-158.6 527 -159 525.7 -159.4 524.4 C-159.8 523 -160.2 521.6 -160.5 520.3 C-160.9 518.7 -161.2 517 -161.5 515.4 C-162 512.7 -162.4 509.9 -162.8 507.2 C-163.3 503.8 -163.7 500.4 -164 497 C-164.1 495.9 -164.2 494.9 -164.2 493.8 C-164.3 493 -164.3 492.1 -164.3 491.2 C-164.3 490.4 -164.3 489.6 -164.2 488.8 C-163.6 481.3 -163.6 481.3 -163.2 477.8 C-163 475.5 -162.7 473.3 -162.4 471.1 C-162 469.2 -161.6 467.2 -161.3 465.2 C-161 464 -160.7 462.9 -160.4 461.6 C-159.8 459.8 -159.3 457.9 -158.7 456 C-157.9 453.8 -157.1 451.6 -156.3 449.4 C-155.3 446.9 -154.3 444.5 -153.3 442.1 C-152.2 439.7 -151.1 437.3 -150 435 C-149.3 433.6 -148.6 432.3 -147.8 430.9 C-146.8 429 -145.6 427.2 -144.5 425.3 C-143.4 423.5 -142.2 421.7 -141 420 C-139.8 418.3 -138.5 416.5 -137.3 414.8 C-136 413.2 -134.7 411.6 -133.5 410 C-131.9 408.1 -130.4 406.3 -128.8 404.4 C-126.1 401.4 -123.4 398.5 -120.6 395.5 C-115.6 390.1 -110.6 384.7 -105.7 379.2 C-104.3 377.6 -103 376 -101.6 374.3 C-100.7 373.2 -99.9 372.1 -99 371 C-98.2 369.8 -97.3 368.7 -96.5 367.5 C-95.3 365.7 -94.1 364 -93 362.2 C-92 360.5 -91 358.7 -90 357 C-89.5 355.9 -88.9 354.8 -88.4 353.7 C-87.6 351.7 -86.8 349.8 -86 347.8 C-85.3 345.8 -84.6 343.8 -83.9 341.7 C-83.6 340.5 -83.3 339.3 -83 338 C-82.9 337.3 -82.9 336.6 -82.8 335.9 C-82.7 334.3 -82.6 332.8 -82.6 331.2 C-82.6 328.7 -82.6 326.2 -82.7 323.7 C-82.7 322.9 -82.8 322.1 -82.8 321.3 C-82.9 320.5 -82.9 319.8 -83 319 C-83.2 317.8 -83.5 316.7 -83.7 315.5 C-84 314.5 -84.3 313.5 -84.6 312.5 C-85 311.6 -85.4 310.6 -85.8 309.7 C-86.2 308.8 -86.6 307.9 -87 307 C-87.4 306.1 -87.8 305.2 -88.2 304.3 C-88.9 303 -88.9 303 -89.6 301.6 C-90.1 300.7 -90.6 299.8 -91.1 298.9 C-91.7 297.9 -92.4 297 -93 296 C-94.3 294.3 -95.5 292.6 -96.8 290.9 C-100.9 285.7 -105.1 280.7 -109.2 275.8 C-110.8 273.8 -112.4 271.9 -114 270 C-115.3 268.2 -116.6 266.4 -117.9 264.6 C-119 263.1 -120 261.6 -121 260 C-121.6 258.9 -122.3 257.9 -122.9 256.8 C-123.3 255.9 -123.6 255 -124 254 C-124.1 252.8 -124.3 251.6 -124.4 250.4 C-124.3 249.3 -124.1 248.2 -124 247 C-123.5 246.1 -123 245.1 -122.4 244.1 C-121.6 243.4 -120.8 242.7 -120 242 C-118.9 241.7 -117.7 241.3 -116.6 241 C-115.4 241 -114.2 241 -113 241 C-112.2 241.4 -111.3 241.8 -110.5 242.2 C-109.6 242.8 -108.8 243.4 -108 244 C-107.5 244.7 -107 245.4 -106.5 246.1 C-106.1 246.9 -105.6 247.7 -105.2 248.6 C-104.1 250.4 -103.1 252.2 -102 254 C-101.4 254.8 -100.9 255.6 -100.3 256.4 C-98.2 259 -96.1 261.5 -94 264 C-93 265.1 -92.1 266.2 -91.1 267.2 C-88.5 270.2 -86 273.2 -83.4 276.2 C-83 276.8 -82.5 277.4 -82 278 C-81.1 279.2 -80.3 280.4 -79.4 281.6 C-78.3 283.3 -77.1 285 -76 286.8 C-75 288.5 -74 290.3 -73 292 C-72.4 293.1 -71.8 294.2 -71.2 295.4 C-70.7 296.5 -70.2 297.6 -69.6 298.7 C-69.2 299.7 -68.7 300.8 -68.2 301.9 C-67.8 302.9 -67.4 303.9 -67 305 C-66.7 306 -66.3 307 -66 308 C-65.7 309 -65.5 309.9 -65.2 310.9 C-64.8 312.6 -64.4 314.3 -64 316 C-63.8 317.1 -63.5 318.3 -63.3 319.4 C-63.1 321.5 -63 323.5 -62.8 325.6 C-62.8 326.5 -62.8 327.5 -62.8 328.5 C-62.8 329.5 -62.8 330.6 -62.8 331.6 C-62.9 332.7 -62.9 333.9 -63 335 C-63.1 336.2 -63.3 337.3 -63.4 338.5 C-63.7 340.4 -63.7 340.4 -64.1 342.2 C-64.3 343.5 -64.6 344.8 -64.9 346.1 C-65.2 347.4 -65.6 348.7 -66 350 C-66.5 351.3 -66.9 352.7 -67.4 354 C-68 355.4 -68.5 356.7 -69.1 358.1 C-69.7 359.4 -70.4 360.8 -71 362.1 C-71.7 363.4 -72.3 364.7 -73 366 C-73.7 367.2 -74.3 368.4 -75 369.6 C-75.7 370.7 -76.4 371.9 -77.1 373 C-77.9 374.1 -78.6 375.3 -79.4 376.4 C-80.8 378.3 -82.1 380.2 -83.5 382 C-85.7 384.8 -87.9 387.6 -90.2 390.4 C-91.8 392.3 -93.4 394.1 -95 396 C-96.6 397.7 -98.2 399.4 -99.9 401 C-100.6 401.7 -101.3 402.4 -102 403.1 C-102.7 403.7 -103.3 404.3 -104 405 C-105.8 407 -107.5 409 -109.3 411 C-109.8 411.7 -110.4 412.3 -111 413 C-111.6 413.7 -112.2 414.3 -112.9 415 C-114.2 416.4 -115.5 417.9 -116.8 419.3 C-117.5 420.2 -118.3 421.1 -119 422 C-120.3 423.7 -121.5 425.4 -122.7 427.2 C-124 429.1 -125.3 431 -126.5 433 C-127.4 434.3 -128.2 435.7 -129 437 C-130.1 439 -131.2 441 -132.3 443 C-133.3 445 -134.3 447 -135.2 449 C-135.8 450.3 -136.4 451.7 -137 453 C-137.5 454.3 -138 455.6 -138.5 457 C-139.4 459.4 -140.2 461.8 -141 464.2 C-141.3 465.5 -141.7 466.7 -142 468 C-142.4 469.7 -142.8 471.5 -143.1 473.2 C-143.3 474.2 -143.4 475.1 -143.6 476.1 C-143.7 477 -143.9 478 -144 479 C-144.1 480 -144.1 480.9 -144.2 481.9 C-144.3 483.8 -144.3 485.8 -144.3 487.7 C-144.3 488.7 -144.3 489.7 -144.3 490.8 C-144.3 491.8 -144.3 492.8 -144.3 493.9 C-144.3 496 -144.2 498.1 -144.1 500.2 C-144.1 501.1 -144.1 502 -144 503 C-143.9 503.8 -143.9 504.5 -143.8 505.3 C-143.7 506 -143.6 506.7 -143.5 507.4 C-143.3 508.6 -143.1 509.8 -142.9 511.1 C-142.5 512.8 -142.5 512.8 -142 514.6 C-141.5 516.3 -141 518.1 -140.4 519.9 C-139.7 521.9 -138.9 523.8 -138.2 525.8 C-137.2 528.2 -136.1 530.6 -135 533 C-134.1 535 -133.1 536.9 -132.1 538.8 C-131.6 539.7 -131.1 540.6 -130.6 541.5 C-130.1 542.3 -129.5 543.1 -129 544 C-128.1 545.2 -128.1 545.2 -127.2 546.5 C-126.6 547.3 -126 548.2 -125.3 549 C-123.1 551.6 -120.8 554.2 -118.6 556.7 C-117.7 557.6 -116.8 558.6 -115.9 559.5 C-114.5 560.9 -114.5 560.9 -113.1 562.3 C-112.1 563.2 -111 564.1 -110 565 C-108.9 565.9 -107.7 566.8 -106.6 567.6 C-105.3 568.5 -104.1 569.4 -102.9 570.2 C-101.6 571 -100.3 571.8 -99 572.7 C-97 573.8 -95 575 -93 576.1 C-91.7 576.8 -90.4 577.5 -89.1 578.2 C-87.7 578.9 -86.3 579.5 -84.9 580.2 C-83.4 580.8 -81.9 581.4 -80.4 582.1 C-78.7 582.7 -77.1 583.3 -75.4 584 C-72.6 584.9 -69.8 585.9 -66.9 586.8 C-64 587.6 -61 588.5 -58.1 589.3 C-56 589.8 -53.9 590.2 -51.8 590.7 C-47.7 591.5 -43.6 592.2 -39.4 592.8 C-36.6 593.3 -33.8 593.7 -31 594 C-29.1 594.2 -27.3 594.4 -25.4 594.6 C-23.3 594.8 -21.1 594.9 -19 595 C-13.2 595.2 -7.4 595.2 -1.6 595.2 C-0.8 595.2 0 595.2 0.9 595.2 C7.3 595.2 13.8 595.1 20.3 594.9 C22.1 594.8 23.9 594.7 25.6 594.5 C28.1 594.3 30.5 594.1 32.9 593.8 C37.9 593 42.8 592.3 47.8 591.4 C52.4 590.6 57 589.7 61.6 588.8 C64.9 588 68.2 587.3 71.4 586.4 C75.6 585.3 79.7 584.2 83.9 582.9 C88 581.7 92 580.3 96.1 578.9 C100.1 577.5 104.1 576 108.1 574.4 C112 572.8 116 571.2 119.8 569.4 C123.7 567.7 127.5 565.8 131.3 563.9 C134.2 562.5 137 561 139.9 559.4 C143.7 557.3 147.4 555.1 151.1 552.9 C153.8 551.3 156.4 549.7 159 548 C162.1 545.9 165.2 543.8 168.2 541.7 C171.8 539.1 175.3 536.5 178.8 533.9 C181.2 532 183.6 530 186 528 C187 527.2 187.9 526.4 188.9 525.6 C191.3 523.7 193.5 521.8 195.8 519.8 C198.1 517.7 200.4 515.6 202.6 513.5 C205.5 510.7 208.4 507.8 211.3 504.9 C212.2 504 213.2 503.1 214.1 502.2 C216.8 499.5 219.4 496.8 222 494 C223.6 492.1 225.2 490.2 226.8 488.3 C228.2 486.5 229.6 484.8 231 483 C231.5 482.3 232.1 481.6 232.6 480.9 C235.1 477.8 237.5 474.6 239.9 471.3 C242 468.5 244 465.6 245.9 462.7 C248 459.6 249.9 456.5 251.9 453.4 C254.2 449.5 256.4 445.6 258.6 441.6 C261 437 263.4 432.4 265.7 427.8 C267.3 424.5 268.9 421.2 270.4 417.9 C271.6 415 272.8 412.2 273.9 409.2 C275.4 405.5 276.7 401.8 278 398 C279.3 394.2 280.6 390.3 281.8 386.4 C283.2 381.7 284.5 377 285.7 372.2 C286.7 368.5 287.5 364.8 288.4 361.2 C288.9 358.4 289.5 355.7 290 353 C290.8 348.5 291.5 343.9 292.1 339.4 C292.5 336.1 292.9 332.7 293.3 329.4 C293.5 327.4 293.7 325.5 293.8 323.5 C294 320.9 294.1 318.3 294.1 315.7 C294.2 310.8 294.2 306 294.2 301.1 C294.2 300.2 294.2 299.3 294.2 298.4 C294.2 291.5 294.1 284.5 293.9 277.6 C293.8 275.7 293.7 273.9 293.5 272.1 C293.3 269.7 293.1 267.3 292.8 264.9 C292 260.1 291.3 255.4 290.4 250.6 C289.6 246.1 288.7 241.7 287.8 237.3 C286.8 233 285.7 228.7 284.6 224.4 C283.1 219.2 281.6 214.1 280 209 C278.8 205.3 277.6 201.6 276.3 198 C275.3 195.3 274.3 192.6 273.2 189.9 C271.9 186.8 270.6 183.8 269.2 180.7 C267.2 176.5 265.2 172.2 263.1 168 C261.2 164.2 259.2 160.4 257.1 156.7 C255.4 153.5 253.5 150.4 251.6 147.2 C250.4 145.2 249.1 143.1 247.7 141.1 C246.5 139.3 245.3 137.5 244 135.7 C242.4 133.4 240.7 131.2 239 129 C238.6 128.4 238.1 127.8 237.7 127.3 C235.4 124.3 233.2 121.3 230.8 118.4 C229.4 116.7 228 115 226.6 113.4 C224.2 110.7 221.7 108 219.2 105.4 C218.2 104.2 217.1 103.1 216 102 C215.1 101.1 215.1 101.1 214.2 100.1 C210.4 96.2 206.6 92.4 202.7 88.6 C201.2 87.2 199.6 85.8 198.1 84.4 C195.4 82.2 192.7 80.1 190 78 C189 77.2 188.1 76.5 187.1 75.7 C185 74 182.9 72.3 180.7 70.7 C178.8 69.3 176.9 67.9 174.9 66.6 C171.9 64.5 168.8 62.6 165.6 60.6 C160.5 57.4 155.3 54.4 150 51.4 C146.4 49.3 142.6 47.4 138.9 45.4 C136 44 133.1 42.6 130.2 41.3 C127.3 40 124.3 38.7 121.3 37.5 C118.2 36.3 115.1 35.1 112 34 C108.7 32.9 105.4 31.8 102 30.7 C97.5 29.3 93 28.1 88.4 26.9 C85 26 81.6 25.2 78.1 24.5 C73.9 23.6 69.6 22.8 65.4 22 C61.3 21.3 57.2 20.7 53.1 20.2 C50.2 19.8 47.2 19.5 44.3 19.2 C42.8 19.1 41.2 19 39.7 18.9 C35.6 18.7 31.6 18.6 27.5 18.6 C25.8 18.6 24.1 18.6 22.4 18.6 C21.1 18.6 21.1 18.6 19.8 18.6 C14.6 18.6 9.4 18.7 4.3 18.9 C2.2 19 0.2 19.2 -1.9 19.3 C-4 19.6 -6.2 19.9 -8.4 20.2 C-10.3 20.5 -12.2 20.9 -14.1 21.2 C-16.8 21.8 -19.4 22.4 -22 23 C-22.8 23.2 -23.7 23.4 -24.6 23.6 C-27.1 24.1 -29.5 24.7 -32 25.3 C-33.5 25.7 -35.1 26.2 -36.6 26.6 C-38.1 27 -39.5 27.5 -41 28 C-42.4 28.5 -43.8 29 -45.2 29.6 C-46.5 30.1 -47.9 30.7 -49.2 31.2 C-51.2 32.1 -53.1 33.1 -55 34 C-57.8 35.4 -60.5 36.8 -63.2 38.2 C-65.2 39.4 -67.2 40.5 -69.2 41.7 C-70.5 42.4 -71.7 43.2 -73 44 C-74.2 44.8 -75.3 45.6 -76.5 46.4 C-79.4 48.6 -82.2 50.8 -85 53 C-85.9 53.7 -86.8 54.5 -87.7 55.2 C-88.4 55.8 -89.2 56.4 -90 57 C-90.8 57.3 -91.6 57.6 -92.4 57.9 C-93.3 58 -94.1 58 -95 58 C-96.1 57.6 -97.1 57.2 -98.2 56.8 C-99.1 56.2 -100 55.6 -101 55 C-101.7 54 -102.3 53 -103 52 C-103.2 50.8 -103.4 49.5 -103.6 48.2 C-103.5 47.5 -103.5 46.8 -103.5 46.1 C-103.3 45.1 -103.3 45.1 -103 44 C-102.6 43.4 -102.1 42.8 -101.7 42.3 C-100.5 41.1 -99.2 39.9 -98 38.8 C-96.7 37.7 -95.5 36.6 -94.2 35.5 C-92.9 34.5 -91.7 33.6 -90.4 32.7 C-87.4 30.6 -84.5 28.5 -81.4 26.6 C-79.8 25.5 -78.2 24.5 -76.6 23.5 C-74.9 22.5 -73.2 21.6 -71.5 20.6 C-68.9 19.2 -66.3 17.9 -63.6 16.5 C-61.7 15.7 -59.9 14.8 -58 14 C-56.1 13.2 -54.1 12.5 -52.2 11.7 C-49.2 10.6 -46.3 9.6 -43.3 8.7 C-41.2 8 -39.2 7.4 -37.2 6.8 C-35 6.3 -32.8 5.7 -30.6 5.2 C-26.3 4.2 -21.9 3.3 -17.5 2.5 C-14.6 1.9 -11.8 1.4 -9 1 C-6.8 0.7 -4.6 0.4 -2.4 0.2 C-1.2 0.1 -1.2 0.1 0 0 Z " transform="translate(524,205)" fill="currentColor" />
<path d="M0 0 C2 -0.1 2 -0.1 3.9 -0.2 C6.3 -0.3 8.6 -0.3 11 -0.3 C12.6 -0.3 14.2 -0.2 15.8 -0.2 C16.5 -0.1 17.3 -0.1 18 0 C19.1 0.2 20.2 0.5 21.3 0.7 C22.2 1 23.1 1.3 24 1.6 C25.3 2.2 25.3 2.2 26.6 2.8 C27.4 3.2 28.2 3.6 29 4 C30.3 4.6 30.3 4.6 31.6 5.2 C32.4 5.7 33.3 6.2 34.1 6.6 C35.3 7.4 35.3 7.4 36.6 8.2 C37.4 8.8 38.2 9.4 39 10 C40.2 11.1 40.2 11.1 41.4 12.2 C42.2 13 43 13.8 43.8 14.7 C44.5 15.5 45.3 16.4 46 17.3 C46.7 18.2 47.3 19.1 48 20 C48.8 21.4 48.8 21.4 49.6 22.8 C50 23.8 50.5 24.7 50.9 25.7 C51.3 26.5 51.7 27.4 52 28.3 C52.7 30.3 53.4 32.3 54.1 34.3 C54.4 35.5 54.7 36.7 55 38 C55.1 39.3 55.2 40.6 55.3 42 C55.4 44.1 55.4 46.3 55.4 48.4 C55.3 49.9 55.3 51.4 55.2 52.9 C55.1 53.6 55.1 54.3 55 55 C54.7 56.7 54.7 56.7 54.3 58.4 C54 59.4 53.7 60.4 53.4 61.4 C53.1 62.3 52.7 63.3 52.3 64.2 C51.9 65.1 51.5 66.1 51 67 C50.5 68 50 68.9 49.5 69.9 C48.9 70.9 48.3 71.8 47.8 72.8 C47.1 73.7 46.5 74.6 45.9 75.5 C45.3 76.3 44.6 77.2 44 78 C43.4 78.7 42.8 79.3 42.2 80 C41.3 80.9 41.3 80.9 40.3 81.8 C39.6 82.3 39 82.9 38.3 83.4 C37.2 84.2 37.2 84.2 36 85 C35 85.6 34.1 86.1 33.1 86.7 C31.1 87.7 29.1 88.7 27 89.7 C26 90.2 25 90.6 24 91 C22.3 91.6 22.3 91.6 20.6 92.1 C19.4 92.4 18.2 92.7 17 93 C15.1 93.1 15.1 93.1 13.2 93.3 C10.4 93.3 7.7 93.3 4.9 93.2 C3 93.1 3 93.1 1 93 C-0.4 92.8 -0.4 92.8 -1.9 92.5 C-3.1 92.2 -3.1 92.2 -4.3 91.9 C-5.1 91.6 -5.8 91.3 -6.6 91 C-8.3 90.3 -10 89.5 -11.7 88.8 C-12.7 88.3 -13.6 87.9 -14.6 87.4 C-15.5 86.8 -16.4 86.3 -17.3 85.8 C-18.2 85.2 -19.1 84.6 -20 84 C-20.8 83.4 -21.6 82.7 -22.4 82.1 C-23.6 81.1 -23.6 81.1 -24.8 80 C-25.5 79.2 -26.2 78.5 -26.9 77.7 C-27.6 76.8 -28.3 75.9 -29 75 C-29.7 73.9 -30.3 72.7 -31 71.6 C-31.7 70.4 -32.3 69.2 -32.9 67.9 C-33.5 66.7 -34.1 65.5 -34.6 64.3 C-35.4 62.5 -36.1 60.6 -36.9 58.8 C-37.1 58.2 -37.2 57.6 -37.4 57 C-37.6 56.1 -37.6 56.1 -37.8 55.2 C-38 53.4 -38.1 51.6 -38.2 49.8 C-38.2 48.6 -38.3 47.4 -38.3 46.1 C-38.3 44.9 -38.3 43.7 -38.3 42.5 C-38.2 41.3 -38.1 40.2 -38 39 C-37.8 38.1 -37.6 37.1 -37.5 36.2 C-37.2 35.3 -37 34.5 -36.8 33.6 C-36.5 32.8 -36.2 32 -35.9 31.2 C-35.6 30.5 -35.3 29.8 -35 29 C-34.7 28.3 -34.5 27.7 -34.2 27 C-33.8 26 -33.8 26 -33.4 25 C-33 24.4 -32.7 23.7 -32.4 23.1 C-31.9 22.4 -31.5 21.7 -31 21 C-30 19.8 -30 19.8 -29 18.5 C-28.3 17.6 -27.5 16.8 -26.8 15.9 C-26 15 -25.2 14.2 -24.4 13.3 C-23.6 12.6 -22.8 11.8 -22 11 C-21.3 10.4 -20.7 9.8 -20 9.2 C-19.4 8.7 -18.7 8.2 -18.1 7.6 C-17.4 7.2 -16.8 6.7 -16.1 6.2 C-15.4 5.8 -14.7 5.4 -14 5 C-13.1 4.6 -12.3 4.2 -11.4 3.8 C-9.7 3.1 -8 2.4 -6.3 1.8 C-5.5 1.5 -4.8 1.3 -4 1 C-3.4 0.8 -2.7 0.6 -2.1 0.5 C-1.4 0.3 -0.7 0.2 0 0 Z M3 18 C2.1 18.2 1.2 18.5 0.2 18.7 C-0.7 19 -1.5 19.4 -2.4 19.7 C-3.2 20.1 -4 20.4 -4.8 20.8 C-5.5 21.2 -6.3 21.6 -7 22 C-7.6 22.4 -8.2 22.7 -8.8 23.1 C-9.5 23.7 -9.5 23.7 -10.3 24.2 C-11.2 25.2 -12.1 26.1 -13 27 C-13.5 27.6 -13.9 28.2 -14.4 28.8 C-14.8 29.5 -15.3 30.1 -15.8 30.8 C-16.2 31.5 -16.6 32.2 -17 32.9 C-17.5 33.9 -17.5 33.9 -18 35 C-18.2 35.7 -18.5 36.4 -18.8 37 C-18.9 37.7 -19.1 38.4 -19.3 39.1 C-19.5 40.4 -19.8 41.7 -20 43 C-20.1 44.1 -20.2 45.2 -20.3 46.4 C-20.2 47.6 -20.1 48.8 -20 50 C-19.9 50.8 -19.8 51.5 -19.6 52.3 C-19.4 53.1 -19.3 54 -19.1 54.8 C-18.8 55.7 -18.5 56.5 -18.2 57.4 C-17.6 58.7 -17.6 58.7 -17 60 C-16 61.3 -16 61.3 -15.1 62.7 C-14.3 63.6 -13.6 64.5 -12.8 65.4 C-12 66.2 -11.2 67 -10.4 67.9 C-9.2 68.9 -9.2 68.9 -8 70 C-7.3 70.5 -6.5 71 -5.8 71.5 C-4.7 72 -4.7 72 -3.7 72.6 C-2.5 73 -1.3 73.5 0 74 C1 74.3 1 74.3 1.9 74.6 C2.6 74.7 3.3 74.9 4 75 C4.7 75.1 5.5 75.2 6.2 75.2 C7 75.3 7.8 75.3 8.6 75.3 C9.5 75.3 10.4 75.3 11.3 75.3 C12.2 75.2 13.1 75.1 14 75 C14.9 74.8 15.8 74.5 16.7 74.3 C17.5 74 18.4 73.6 19.2 73.3 C20.1 72.9 20.9 72.6 21.8 72.2 C22.9 71.6 22.9 71.6 24 71 C25.1 70.3 26.1 69.6 27.2 68.9 C28.2 67.9 29.1 67 30 66 C30.5 65.2 31.1 64.4 31.7 63.6 C32.7 61.9 33.8 60.1 34.8 58.4 C35.2 57.6 35.6 56.8 36 56 C36.2 55.3 36.4 54.7 36.6 54 C36.8 53.3 36.9 52.7 37 52 C37.1 51.3 37.2 50.6 37.2 49.8 C37.3 48.6 37.3 48.6 37.3 47.4 C37.3 46.6 37.3 45.7 37.3 44.8 C37.2 43.9 37.1 42.9 37 42 C36.8 41.1 36.6 40.1 36.4 39.2 C36 38.3 35.7 37.3 35.4 36.4 C35.1 35.5 34.7 34.6 34.3 33.6 C33.9 32.8 33.5 31.9 33 31 C32.2 29.8 32.2 29.8 31.5 28.7 C30.9 28 30.3 27.3 29.8 26.6 C29.2 25.9 28.6 25.3 27.9 24.7 C27.3 24.1 26.7 23.6 26 23 C25.3 22.6 24.6 22.1 23.9 21.7 C23.2 21.3 22.5 20.9 21.8 20.6 C21.1 20.3 20.5 20 19.8 19.7 C19.2 19.5 18.6 19.2 18 19 C17 18.7 16 18.3 15 18 C13.7 17.9 13.7 17.9 12.4 17.8 C10.4 17.7 8.3 17.7 6.2 17.7 C5.1 17.8 4.1 17.9 3 18 Z " transform="translate(583,276)" fill="currentColor" />
<path d="M0 0 C1.2 -0.1 2.5 -0.3 3.7 -0.4 C5.6 -0.4 5.6 -0.4 7.6 -0.5 C9.4 -0.4 9.4 -0.4 11.4 -0.4 C13.2 -0.2 13.2 -0.2 15 0 C16.1 0.2 17.1 0.4 18.2 0.7 C19.7 1.1 19.7 1.1 21.2 1.6 C22.7 2.1 22.7 2.1 24.2 2.7 C25.1 3.1 26 3.6 27 4 C28.4 4.7 28.4 4.7 29.9 5.5 C30.8 6.1 31.8 6.6 32.8 7.2 C33.6 7.8 34.5 8.4 35.5 9 C36.3 9.7 37.1 10.3 38 11 C38.8 11.7 39.5 12.4 40.3 13.1 C41 13.8 41.7 14.6 42.4 15.3 C43 16.1 43.6 16.8 44.3 17.6 C44.9 18.4 45.4 19.2 46 20 C46.5 20.8 47 21.6 47.5 22.4 C48.1 23.6 48.1 23.6 48.8 24.8 C49.4 26.1 49.4 26.1 50 27.3 C50.3 28.2 50.6 29.1 51 30 C51.3 31 51.6 32 52 33 C52.2 34 52.5 35 52.8 36.1 C53 37.1 53.3 38.1 53.5 39.1 C53.7 40.6 53.7 40.6 54 42 C54.1 42.8 54.2 43.5 54.3 44.3 C54.3 45.1 54.3 45.8 54.4 46.5 C54.3 47.6 54.3 47.6 54.3 48.7 C54.1 49.8 54.1 49.8 54 51 C53.8 52.4 53.8 52.4 53.5 53.9 C53.3 54.9 53 55.9 52.8 56.9 C52.4 58.5 52.4 58.5 52 60 C51.6 61 51.3 62 51 63 C50.7 63.9 50.3 64.7 50 65.6 C49.6 66.5 49.3 67.3 48.9 68.1 C48.4 68.9 48 69.7 47.6 70.6 C47 71.4 46.5 72.2 46 73 C45.4 73.9 44.7 74.7 44.1 75.6 C43.3 76.5 42.6 77.3 41.9 78.2 C40.7 79.4 40.7 79.4 39.5 80.7 C38.7 81.4 37.9 82.2 37 83 C36.1 83.7 35.2 84.4 34.3 85.1 C33.4 85.7 32.5 86.3 31.6 86.9 C30.6 87.5 29.7 88 28.7 88.6 C27.1 89.5 25.4 90.3 23.7 91.1 C23 91.4 22.2 91.7 21.4 91.9 C20.2 92.2 20.2 92.2 19 92.6 C17.5 92.8 17.5 92.8 16 93 C14.6 93.1 13.2 93.2 11.8 93.3 C10.2 93.4 8.7 93.4 7.1 93.4 C5.6 93.4 4 93.4 2.4 93.3 C1.7 93.3 0.9 93.3 0.1 93.2 C-0.6 93.1 -1.3 93.1 -2 93 C-3.1 92.8 -4.3 92.6 -5.5 92.3 C-6.5 92 -7.5 91.7 -8.5 91.4 C-9.4 91.1 -10.4 90.7 -11.3 90.3 C-12.2 89.9 -13.1 89.4 -14 89 C-14.9 88.5 -15.7 88 -16.6 87.5 C-17.9 86.7 -17.9 86.7 -19.2 85.9 C-20 85.3 -20.8 84.7 -21.6 84 C-22.4 83.4 -23.2 82.7 -24 82 C-24.8 81.2 -25.6 80.5 -26.4 79.7 C-27.2 78.9 -28 78.1 -28.8 77.2 C-29.5 76.4 -30.3 75.6 -31 74.7 C-31.7 73.8 -32.3 72.9 -33 72 C-33.5 71.1 -34.1 70.2 -34.6 69.2 C-35.3 67.8 -35.3 67.8 -35.9 66.4 C-36.5 65.1 -36.5 65.1 -37.1 63.7 C-37.6 62 -38.2 60.4 -38.7 58.7 C-38.9 58 -39.1 57.2 -39.3 56.5 C-39.4 55.8 -39.6 55 -39.7 54.3 C-39.9 53.2 -39.9 53.2 -40 52 C-40.1 51.1 -40.1 50.3 -40.2 49.4 C-40.2 48.5 -40.3 47.6 -40.3 46.7 C-40.3 45.8 -40.3 44.8 -40.2 43.9 C-40.2 42.9 -40.1 42 -40 41 C-39.8 39.5 -39.8 39.5 -39.5 37.9 C-39.3 36.9 -39 35.9 -38.8 34.9 C-38.5 33.9 -38.3 32.9 -38 31.8 C-37.6 30.9 -37.3 30 -37 29 C-36.5 27.8 -36.5 27.8 -36 26.6 C-35.4 25.5 -35.4 25.5 -34.9 24.4 C-34.4 23.7 -34 23 -33.6 22.2 C-33 21.5 -32.5 20.8 -32 20 C-31.3 19.2 -30.7 18.3 -30 17.4 C-29.3 16.6 -28.6 15.7 -27.8 14.8 C-27 14 -26.2 13.1 -25.4 12.3 C-24.6 11.5 -23.8 10.8 -23 10 C-22.2 9.4 -21.5 8.8 -20.7 8.2 C-19.9 7.7 -19.1 7.2 -18.2 6.6 C-17.4 6.2 -16.6 5.7 -15.7 5.2 C-14.8 4.8 -13.9 4.4 -13 4 C-12 3.6 -11 3.2 -10 2.8 C-9 2.4 -7.9 2 -6.8 1.6 C-5.7 1.3 -4.6 1 -3.5 0.7 C-1.8 0.4 -1.8 0.4 0 0 Z M4 18 C2.7 18.2 2.7 18.2 1.4 18.4 C0.5 18.6 -0.3 18.8 -1.2 19.1 C-2 19.3 -2.8 19.6 -3.7 19.9 C-4.4 20.3 -5.2 20.6 -6 21 C-7.1 21.6 -7.1 21.6 -8.2 22.2 C-8.9 22.7 -9.6 23.1 -10.2 23.6 C-11.2 24.4 -11.2 24.4 -12.2 25.2 C-13.1 26.1 -13.1 26.1 -14 27 C-14.6 27.8 -15.2 28.5 -15.8 29.3 C-16.3 30.1 -16.9 30.9 -17.4 31.7 C-17.9 32.4 -18.4 33.2 -18.9 33.9 C-19.2 34.6 -19.6 35.3 -20 36 C-20.3 37 -20.7 38 -21 39 C-21.1 40.1 -21.2 41.1 -21.3 42.2 C-21.3 44.2 -21.4 46.1 -21.4 48.1 C-21.4 48.8 -21.3 49.4 -21.3 50.1 C-21.2 51.4 -21.1 52.7 -21 54 C-20.7 55 -20.5 55.9 -20.2 56.9 C-19.8 57.8 -19.4 58.6 -19.1 59.4 C-18.6 60.2 -18.1 61 -17.7 61.8 C-17.1 62.5 -16.6 63.2 -16 64 C-15.3 64.8 -14.6 65.5 -13.9 66.3 C-13.2 67 -12.5 67.7 -11.7 68.4 C-10.9 69.1 -10.1 69.7 -9.3 70.4 C-8.5 70.9 -7.8 71.4 -7 72 C-6.4 72.4 -5.7 72.8 -5.1 73.2 C-4.4 73.4 -3.8 73.7 -3.2 74 C-2.5 74.2 -1.9 74.4 -1.2 74.6 C-0.5 74.7 0.2 74.9 1 75 C2.4 75.1 2.4 75.1 3.9 75.3 C4.9 75.3 5.9 75.3 7 75.4 C8.5 75.3 8.5 75.3 10.1 75.3 C11.1 75.2 12 75.1 13 75 C14.1 74.8 14.1 74.8 15.2 74.6 C16.2 74.3 16.2 74.3 17.2 74 C17.8 73.7 18.4 73.4 19.1 73.2 C19.7 72.8 20.3 72.4 21 72 C21.8 71.5 22.5 70.9 23.3 70.4 C24.1 69.7 24.9 69.1 25.7 68.4 C26.4 67.7 27.2 67 27.9 66.3 C28.6 65.5 29.3 64.8 30 64 C30.6 63.3 31.1 62.5 31.7 61.7 C32.4 60.6 32.4 60.6 33.1 59.4 C33.4 58.5 33.8 57.7 34.2 56.8 C34.5 55.9 34.7 55 35 54 C35.1 52.9 35.3 51.7 35.4 50.6 C35.5 49.4 35.5 48.2 35.6 46.9 C35.5 45.7 35.5 44.6 35.4 43.3 C35.3 42.2 35.1 41.1 35 40 C34.7 38.7 34.7 38.7 34.3 37.4 C34 36.6 33.7 35.8 33.4 35.1 C33 34.4 32.6 33.7 32.2 33 C31.4 31.7 30.6 30.4 29.8 29.1 C29.1 28.2 29.1 28.2 28.4 27.2 C27.9 26.7 27.3 26.1 26.8 25.6 C26.2 25.1 25.6 24.5 25 24 C23.9 23.3 23.9 23.3 22.8 22.5 C21.6 21.8 21.6 21.8 20.3 21.1 C19.5 20.7 18.6 20.3 17.7 19.9 C16.8 19.6 15.9 19.3 15 19 C13.6 18.7 13.6 18.7 12.3 18.4 C11.4 18.2 10.4 18.1 9.5 18 C8.1 17.9 8.1 17.9 6.7 17.9 C5.8 17.9 4.9 18 4 18 Z " transform="translate(700,359)" fill="currentColor" />
<path d="M0 0 C1 -0.1 1 -0.1 2.1 -0.2 C3.5 -0.3 5 -0.4 6.4 -0.5 C7.9 -0.5 9.4 -0.5 10.8 -0.5 C12.2 -0.4 13.7 -0.3 15.1 -0.2 C15.7 -0.2 16.3 -0.1 17 0 C18 0.2 19.1 0.5 20.2 0.7 C21.1 1 22 1.3 22.9 1.6 C23.8 2 24.6 2.4 25.5 2.7 C27.2 3.6 28.9 4.5 30.6 5.4 C31.5 5.8 32.4 6.3 33.2 6.8 C34.1 7.3 34.9 7.8 35.7 8.4 C36.5 8.9 37.2 9.4 38 10 C39 10.8 39 10.8 40 11.6 C40.9 12.4 40.9 12.4 41.8 13.2 C42.3 13.8 42.8 14.4 43.4 15 C44.2 16 44.2 16 45 17 C45.5 17.8 46.1 18.5 46.7 19.3 C47.4 20.6 47.4 20.6 48.2 21.8 C48.7 22.7 49.2 23.5 49.7 24.4 C50.5 26 51.3 27.6 52 29.2 C52.3 29.9 52.6 30.7 52.9 31.4 C53.1 32.3 53.3 33.1 53.5 33.9 C53.8 35.4 53.8 35.4 54 37 C54.1 38.5 54.2 40 54.3 41.4 C54.4 43.1 54.4 44.7 54.4 46.4 C54.4 48 54.4 49.7 54.3 51.4 C54.3 52.9 54.1 54.5 54 56 C53.8 57.2 53.6 58.3 53.4 59.5 C53.1 60.5 52.8 61.5 52.5 62.5 C52.1 63.4 51.8 64.3 51.4 65.3 C50.9 66.2 50.5 67.1 50 68 C49.4 69 48.8 69.9 48.2 70.9 C47.3 72.4 47.3 72.4 46.2 73.8 C45.6 74.7 44.9 75.6 44.1 76.5 C43.1 77.8 43.1 77.8 42 79 C41 80 41 80 40.1 81.1 C39.4 81.7 38.8 82.3 38.1 82.9 C37.5 83.4 36.8 84 36.1 84.5 C35.4 85 34.7 85.5 34 86 C33.2 86.5 32.4 87 31.5 87.5 C29.9 88.3 28.2 89.2 26.6 90 C25.3 90.5 25.3 90.5 24 91 C22.4 91.6 22.4 91.6 20.7 92.1 C18.9 92.6 18.9 92.6 17 93 C16.3 93.1 15.6 93.1 14.9 93.2 C13.5 93.3 12 93.4 10.5 93.4 C8.2 93.4 5.8 93.4 3.5 93.3 C2.7 93.3 1.9 93.2 1.1 93.2 C0.4 93.1 -0.3 93.1 -1 93 C-2.1 92.8 -3.2 92.5 -4.3 92.3 C-5.6 91.8 -5.6 91.8 -7 91.4 C-7.8 91 -8.7 90.6 -9.6 90.3 C-10.4 89.8 -11.2 89.4 -12 89 C-12.9 88.6 -13.7 88.1 -14.6 87.7 C-15.5 87.2 -16.3 86.7 -17.2 86.2 C-18 85.7 -18.8 85.2 -19.7 84.7 C-20.4 84.1 -21.2 83.6 -22 83 C-23.1 82.2 -23.1 82.2 -24.2 81.3 C-24.8 80.7 -25.5 80.1 -26.2 79.4 C-26.8 78.8 -27.5 78.1 -28.1 77.4 C-28.7 76.6 -29.4 75.8 -30 75 C-31 73.5 -31 73.5 -32 71.9 C-32.6 70.8 -33.2 69.7 -33.9 68.6 C-34.4 67.4 -35 66.3 -35.6 65.2 C-36.1 64.1 -36.5 63.1 -37 62 C-37.3 61.2 -37.6 60.4 -37.9 59.6 C-38.1 58.9 -38.2 58.2 -38.4 57.4 C-38.6 56.7 -38.7 56 -38.8 55.3 C-38.9 53.6 -39.1 51.9 -39.2 50.2 C-39.2 49.2 -39.3 48.2 -39.3 47.2 C-39.3 46.2 -39.3 45.2 -39.2 44.1 C-39.2 43.1 -39.1 42.1 -39 41 C-38.9 40 -38.7 39 -38.6 38 C-38.4 37 -38.2 36 -37.9 35 C-37.7 34 -37.4 33 -37.1 32 C-36.7 31 -36.4 30 -36 29 C-35.5 28 -35 26.9 -34.5 25.9 C-34 24.8 -33.4 23.8 -32.8 22.8 C-32.2 21.8 -31.6 20.8 -31 19.8 C-30.3 18.9 -29.7 17.9 -29 17 C-28.4 16.2 -27.7 15.4 -27 14.6 C-26.4 14 -25.7 13.3 -25.1 12.6 C-24 11.6 -24 11.6 -23 10.7 C-21.7 9.6 -20.5 8.6 -19.2 7.5 C-18.6 7.1 -17.9 6.7 -17.3 6.2 C-16.6 5.9 -16 5.5 -15.3 5.1 C-14.5 4.7 -13.8 4.4 -13 4 C-12.1 3.6 -11.2 3.2 -10.2 2.8 C-9.2 2.4 -8.1 2.1 -7.1 1.7 C-6 1.4 -4.8 1.1 -3.7 0.7 C-1.9 0.4 -1.9 0.4 0 0 Z M3 18 C2.2 18.1 1.5 18.2 0.7 18.4 C-0 18.5 -0.8 18.7 -1.5 18.9 C-2.2 19.2 -3 19.5 -3.7 19.8 C-4.5 20.2 -5.2 20.6 -6 21 C-6.9 21.6 -7.7 22.2 -8.6 22.9 C-9.5 23.6 -10.4 24.4 -11.3 25.1 C-12.1 25.9 -13 26.7 -13.8 27.5 C-14.5 28.3 -15.3 29.2 -16 30 C-16.5 30.8 -17 31.5 -17.5 32.3 C-17.8 33.1 -18.2 33.8 -18.6 34.6 C-19 35.7 -19 35.7 -19.4 36.8 C-19.8 38.2 -20.2 39.6 -20.5 41 C-20.6 41.6 -20.8 42.3 -20.9 42.9 C-20.9 43.6 -21 44.2 -21 44.9 C-21 45.6 -21 46.3 -21 47 C-20.9 47.8 -20.9 48.6 -20.8 49.4 C-20.6 50.3 -20.5 51.1 -20.4 52 C-20.2 52.8 -20 53.7 -19.8 54.6 C-19.5 55.4 -19.3 56.2 -19 57 C-18.7 57.7 -18.4 58.4 -18 59.2 C-17.6 59.8 -17.3 60.5 -16.9 61.2 C-16.4 61.8 -16 62.5 -15.5 63.1 C-15 63.7 -14.5 64.4 -14 65 C-13.4 65.6 -12.8 66.3 -12.2 66.9 C-11.2 67.9 -11.2 67.9 -10.2 68.8 C-9.6 69.4 -8.9 69.9 -8.2 70.5 C-7.4 71 -6.7 71.5 -6 72 C-5.3 72.4 -4.6 72.7 -3.8 73.1 C-3.1 73.4 -2.4 73.7 -1.6 73.9 C-0.9 74.1 -0.1 74.4 0.7 74.6 C1.4 74.7 2.2 74.9 3 75 C3.8 75.1 4.6 75.2 5.4 75.3 C6.3 75.4 7.1 75.4 7.9 75.4 C8.8 75.4 9.6 75.4 10.5 75.3 C11.3 75.2 12.1 75.1 13 75 C13.9 74.8 14.7 74.5 15.6 74.3 C16.5 74 17.3 73.7 18.2 73.4 C19 73 19.8 72.6 20.7 72.3 C21.4 71.8 22.2 71.4 23 71 C23.7 70.6 24.3 70.2 25 69.7 C25.9 69 25.9 69 26.8 68.3 C27.4 67.8 27.9 67.3 28.5 66.8 C29 66.2 29.5 65.6 30 65 C30.5 64.3 31 63.5 31.5 62.8 C32 62 32.4 61.2 32.9 60.4 C33.3 59.6 33.7 58.9 34.1 58.1 C34.4 57.4 34.7 56.7 35 56 C35.2 55.4 35.4 54.7 35.6 54 C35.7 53.4 35.9 52.7 36 52 C36.1 51.2 36.2 50.4 36.2 49.6 C36.3 48.2 36.3 48.2 36.3 46.9 C36.3 45.9 36.3 44.9 36.3 43.9 C36.2 43 36.1 42 36 41 C35.8 40.1 35.6 39.2 35.4 38.3 C35 37.5 34.7 36.7 34.4 35.8 C34.1 35 33.7 34.2 33.3 33.4 C32.9 32.6 32.5 31.8 32 31 C31.2 29.9 31.2 29.9 30.5 28.7 C29.9 28 29.3 27.3 28.8 26.6 C28.2 26 27.6 25.3 26.9 24.7 C26 23.9 26 23.9 25 23 C24.3 22.6 23.6 22.1 22.9 21.7 C22.2 21.3 21.5 20.9 20.8 20.6 C20.2 20.3 19.5 20 18.9 19.7 C18.3 19.5 17.6 19.2 17 19 C16.4 18.8 15.7 18.6 15.1 18.4 C14.4 18.3 13.7 18.1 13 18 C12.3 17.9 11.5 17.9 10.7 17.8 C9.5 17.8 9.5 17.8 8.3 17.8 C7.4 17.8 6.6 17.8 5.6 17.8 C4.8 17.9 3.9 17.9 3 18 Z " transform="translate(720,500)" fill="currentColor" />
<path d="M0 0 C1.9 -0.1 3.9 -0.2 5.8 -0.3 C7.2 -0.3 8.6 -0.3 9.9 -0.3 C11.3 -0.3 12.7 -0.2 14 -0.1 C14.7 -0.1 15.3 -0 16 0 C17.2 0.1 18.4 0.3 19.6 0.4 C20.7 0.6 21.8 0.8 23 1 C24.7 1.4 24.7 1.4 26.4 1.8 C27.6 2.2 28.8 2.6 30 3 C31.4 3.5 32.8 4.1 34.1 4.7 C35.5 5.3 36.9 6 38.3 6.7 C39.7 7.4 41 8.1 42.4 8.8 C43.6 9.6 44.8 10.3 46 11 C46.9 11.6 47.8 12.2 48.7 12.8 C49.8 13.7 49.8 13.7 50.9 14.6 C51.6 15.3 52.3 15.9 53 16.6 C53.6 17.4 54.3 18.2 55 19 C55.8 20 56.6 21.1 57.4 22.2 C58.2 23.3 59 24.5 59.8 25.7 C60.6 26.9 61.3 28.1 62.1 29.3 C62.4 29.9 62.7 30.5 63.1 31.2 C63.4 31.8 63.7 32.4 64 33 C64.5 34.2 64.9 35.3 65.4 36.5 C65.8 37.7 66.1 38.8 66.5 39.9 C66.9 41.5 66.9 41.5 67.4 43.2 C67.8 45.3 68.3 47.4 68.8 49.6 C68.9 51.5 69 53.5 69.2 55.5 C69.2 57 69.2 57 69.2 58.4 C69.2 59.5 69.2 60.5 69.2 61.6 C69.1 62.7 69.1 63.8 69 65 C68.8 66.9 68.5 68.9 68.2 70.8 C68 72.2 67.7 73.5 67.5 74.9 C67.2 76.2 66.9 77.6 66.5 79 C66.4 79.6 66.2 80.3 66 81 C65.6 82.3 65.2 83.5 64.8 84.8 C64.4 86 63.9 87.2 63.4 88.5 C62.9 89.7 62.4 91 61.8 92.2 C60.9 94.1 60 96 59 97.9 C58.3 99.3 57.6 100.6 56.9 101.9 C56.1 103.2 55.3 104.5 54.4 105.9 C53.5 107.2 52.6 108.6 51.6 109.9 C51.1 110.6 50.6 111.3 50 112 C48.7 113.5 47.4 115 46.1 116.4 C44.7 117.9 43.3 119.4 41.8 120.9 C40.3 122.3 38.9 123.7 37.4 125.1 C35.9 126.4 34.5 127.7 33 129 C31.7 130 30.4 131.1 29.1 132 C27.9 132.9 26.7 133.8 25.4 134.6 C24.2 135.4 23 136.2 21.7 136.9 C19.9 138 18 139 16.1 140 C14.8 140.7 13.5 141.3 12.2 142 C10.9 142.6 9.5 143.2 8.2 143.7 C6.8 144.3 5.5 144.8 4.1 145.3 C2.7 145.8 1.2 146.2 -0.2 146.7 C-1.7 147.1 -3.2 147.5 -4.7 147.9 C-6.2 148.3 -7.8 148.6 -9.3 148.9 C-10.8 149.2 -12.3 149.5 -13.8 149.7 C-14.5 149.8 -15.3 149.9 -16 150 C-17.4 150.1 -18.8 150.3 -20.2 150.3 C-21.6 150.4 -22.9 150.4 -24.2 150.4 C-25.6 150.4 -26.9 150.4 -28.2 150.3 C-30.7 150.1 -33.1 149.9 -35.5 149.6 C-36.7 149.4 -37.8 149.2 -39 149 C-40.7 148.6 -40.7 148.6 -42.4 148.2 C-43.6 147.8 -44.8 147.4 -46 147 C-47.4 146.5 -48.8 145.9 -50.1 145.3 C-51.5 144.7 -52.9 144 -54.3 143.3 C-55.7 142.6 -57 141.9 -58.4 141.2 C-59.6 140.5 -60.8 139.7 -62 139 C-62.9 138.4 -63.8 137.7 -64.8 137.1 C-65.5 136.4 -66.3 135.8 -67.1 135.1 C-67.7 134.5 -68.4 133.8 -69.1 133.1 C-70.4 131.7 -71.7 130.2 -72.9 128.7 C-73.5 127.9 -74.1 127.1 -74.8 126.2 C-75.3 125.4 -75.9 124.6 -76.4 123.7 C-77 122.8 -77.5 121.9 -78 121 C-78.7 119.5 -78.7 119.5 -79.5 118 C-80.3 116.1 -81.2 114.1 -82 112.2 C-82.3 111.1 -82.6 110.1 -83 109 C-83.4 107.6 -83.8 106.2 -84.1 104.7 C-84.3 104 -84.4 103.2 -84.6 102.4 C-84.7 101.6 -84.9 100.8 -85 100 C-85.1 99.2 -85.1 98.5 -85.2 97.7 C-85.3 96.1 -85.4 94.5 -85.4 92.9 C-85.4 90.3 -85.4 87.7 -85.3 85.1 C-85.2 83.4 -85.1 81.7 -85 80 C-84.9 79.3 -84.8 78.5 -84.7 77.8 C-84.6 77.1 -84.5 76.4 -84.4 75.7 C-84.2 75 -84.1 74.4 -84 73.7 C-83.7 72.4 -83.3 71.1 -83 69.8 C-82.6 68.5 -82.2 67.2 -81.7 65.9 C-81.2 64.6 -80.7 63.3 -80.2 62 C-79.6 60.6 -79 59.3 -78.4 57.9 C-77.7 56.6 -77 55.2 -76.3 53.9 C-75.6 52.5 -74.9 51.2 -74.1 49.9 C-73 48 -71.9 46.2 -70.7 44.3 C-69.9 43.2 -69.1 42 -68.3 40.8 C-67.5 39.7 -66.6 38.5 -65.8 37.4 C-64.9 36.2 -63.9 35.1 -63 34 C-62 32.8 -60.9 31.6 -59.8 30.5 C-58.2 28.8 -56.5 27.1 -54.8 25.4 C-53.2 23.9 -51.6 22.4 -50 21 C-49.2 20.3 -48.4 19.6 -47.5 18.9 C-46.7 18.3 -46 17.8 -45.2 17.2 C-44.4 16.7 -43.6 16.2 -42.8 15.6 C-40.6 14.4 -38.4 13.1 -36.2 11.9 C-34.2 10.9 -32.1 9.8 -30 8.8 C-28 7.8 -26 6.9 -24 6 C-22.9 5.6 -21.8 5.1 -20.7 4.7 C-19.7 4.3 -18.8 4 -17.8 3.6 C-16.3 3.2 -16.3 3.2 -14.8 2.7 C-13 2.2 -11.1 1.8 -9.2 1.3 C-7.7 1 -7.7 1 -6.2 0.8 C-5.3 0.6 -4.3 0.5 -3.3 0.3 C-1.6 0.2 -1.6 0.2 0 0 Z M4 18 C2.1 18.2 2.1 18.2 0.2 18.5 C-2.5 19 -5.2 19.5 -7.9 20 C-9.3 20.3 -10.6 20.7 -12 21 C-13.6 21.5 -13.6 21.5 -15.3 22.1 C-16.3 22.5 -17.3 22.8 -18.3 23.2 C-19.3 23.7 -20.2 24.1 -21.2 24.6 C-23.1 25.5 -24.9 26.5 -26.8 27.5 C-27.7 28 -28.6 28.6 -29.5 29.1 C-30.8 30 -30.8 30 -32.2 30.9 C-33.1 31.6 -34.1 32.3 -35 33 C-36.5 34.3 -38.1 35.5 -39.6 36.9 C-41.1 38.3 -42.6 39.7 -44.1 41.1 C-46 42.9 -47.7 44.8 -49.5 46.7 C-50.3 47.5 -51 48.4 -51.8 49.3 C-52.9 50.7 -52.9 50.7 -54 52.1 C-54.6 53 -55.3 54 -56 55 C-56.6 56.1 -57.3 57.1 -58 58.2 C-58.6 59.4 -59.2 60.5 -59.8 61.7 C-60.4 62.9 -60.9 64 -61.5 65.2 C-62 66.5 -62.5 67.7 -63 69 C-63.5 70.3 -63.9 71.7 -64.3 73.1 C-64.7 74.4 -65.1 75.8 -65.4 77.2 C-65.8 78.5 -66.1 79.9 -66.3 81.2 C-66.6 82.5 -66.8 83.7 -67 85 C-67.1 86 -67.2 87 -67.3 88 C-67.4 88.9 -67.4 89.8 -67.4 90.8 C-67.4 91.6 -67.4 92.5 -67.3 93.4 C-67.2 94.2 -67.1 95.1 -67 96 C-66.8 97.5 -66.8 97.5 -66.5 99 C-66.3 100 -66.1 101 -65.9 102.1 C-65.6 103.1 -65.3 104.1 -65 105.1 C-64.7 106 -64.4 107 -64 108 C-63.6 108.9 -63.2 109.8 -62.7 110.7 C-62 112 -62 112 -61.3 113.3 C-60.8 114.1 -60.3 114.9 -59.7 115.7 C-59.2 116.5 -58.6 117.2 -58 118 C-57.4 118.7 -56.8 119.3 -56.1 120 C-55.5 120.6 -54.8 121.2 -54.1 121.9 C-53.4 122.4 -52.8 123 -52.1 123.5 C-51.4 124 -50.7 124.5 -50 125 C-49 125.6 -49 125.6 -48 126.2 C-47.3 126.6 -46.6 126.9 -45.9 127.3 C-45.3 127.6 -44.6 127.9 -43.9 128.2 C-43.3 128.5 -42.7 128.7 -42 129 C-40.9 129.4 -39.8 129.8 -38.7 130.2 C-37.5 130.5 -36.3 130.7 -35 131 C-34.2 131.1 -33.4 131.3 -32.6 131.4 C-31.8 131.5 -30.9 131.6 -30 131.8 C-29.1 131.8 -28.1 131.9 -27.1 132 C-26.1 132 -25.1 132 -24 132 C-22.2 131.9 -22.2 131.9 -20.4 131.8 C-18.6 131.6 -18.6 131.6 -16.7 131.4 C-15.4 131.2 -14.1 131 -12.8 130.8 C-11.6 130.5 -10.3 130.3 -9 130 C-7.8 129.7 -6.6 129.3 -5.4 129 C-4.2 128.6 -3 128.2 -1.8 127.8 C-0.7 127.4 0.5 126.9 1.7 126.5 C2.8 126 3.9 125.5 5 125 C6 124.5 7.1 124 8.2 123.4 C9.2 122.9 10.2 122.3 11.2 121.8 C12.2 121.2 13.1 120.6 14.1 119.9 C15.1 119.3 16 118.7 17 118 C18 117.3 18.9 116.6 19.9 115.9 C20.8 115.1 21.8 114.4 22.8 113.6 C24.5 112.1 26.3 110.6 28 109 C28.7 108.3 29.4 107.6 30.2 106.9 C31.2 105.8 31.2 105.8 32.2 104.8 C33.1 103.6 33.1 103.6 34.1 102.5 C34.7 101.7 35.4 100.8 36 100 C37 98.5 37 98.5 38.1 97 C38.8 96 39.5 94.9 40.2 93.8 C40.8 92.7 41.5 91.6 42.2 90.5 C42.8 89.3 43.4 88.2 44 87 C44.5 85.7 45.1 84.5 45.6 83.2 C46.4 80.8 47.3 78.4 48.1 76 C48.6 74.4 49.1 72.7 49.5 71.1 C49.7 70.4 49.8 69.7 50 69 C50.1 68.3 50.1 67.7 50.2 67 C50.3 63.8 50.3 60.6 50.3 57.4 C50.3 55.7 50.2 54 50.2 52.3 C50.1 51.5 50.1 50.8 50 50 C49.8 48.9 49.5 47.8 49.3 46.6 C49 45.7 48.7 44.8 48.4 43.9 C48 43 47.6 42.2 47.3 41.4 C46.4 39.8 45.5 38.2 44.7 36.6 C44.2 35.8 43.7 35 43.2 34.2 C42.7 33.5 42.2 32.7 41.7 32 C40.9 31 40.9 31 40 30 C39.1 29.1 39.1 29.1 38.2 28.2 C37.5 27.7 36.9 27.2 36.2 26.7 C35.5 26.2 34.8 25.8 34.1 25.3 C32.7 24.4 31.3 23.6 29.9 22.8 C29.2 22.5 28.5 22.1 27.8 21.8 C27 21.4 26.3 21.1 25.5 20.8 C24.7 20.5 23.8 20.3 23 20 C22 19.8 21 19.5 20 19.3 C18 19 16 18.6 14 18.3 C13 18.2 12 18.1 11 18 C9.3 17.9 9.3 17.9 7.6 17.9 C6.4 17.9 5.2 18 4 18 Z " transform="translate(520,598)" fill="currentColor" />
</svg>
