<?xml version="1.0" encoding="UTF-8"?>

<svg version="1.1" xmlns="http://www.w3.org/2000/svg" width="1024" height="1024" viewBox="0 0 1024 1024" fill="currentColor">
<path d="M0 0 C1.7 0.1 1.7 0.1 3.5 0.2 C5.2 0.6 5.2 0.6 7 1 C7.6 1.5 8.2 1.9 8.9 2.4 C9.2 2.9 9.6 3.4 10 4 C10.3 5 10.7 6 11 7 C11 7.6 11.1 8.3 11.1 8.9 C11.2 10 11.2 10 11.2 11.1 C11.2 11.9 11.2 12.8 11.2 13.6 C11.2 14.5 11.2 15.4 11.2 16.3 C11.2 17.2 11.2 18.1 11.2 19.1 C11.2 21 11.2 23 11.2 24.9 C11.2 27.9 11.3 30.8 11.3 33.8 C11.3 35.7 11.3 37.5 11.3 39.4 C11.3 40.3 11.4 41.2 11.4 42.1 C11.4 43.7 11.3 45.3 11.3 46.9 C11.2 47.6 11.1 48.3 11 49 C10.5 50 10.1 51 9.6 52 C8.8 53 8.8 53 8 54 C7 54.5 7 54.5 6 55 C4.1 55.2 2.1 55.4 0.2 55.6 C-0.5 55.4 -1.3 55.2 -2 55 C-2.9 54.2 -3.7 53.4 -4.6 52.6 C-5 52 -5.5 51.5 -5.9 50.9 C-6.3 50.3 -6.6 49.6 -7 49 C-7.2 48.3 -7.3 47.6 -7.5 46.9 C-7.5 46.1 -7.6 45.3 -7.6 44.6 C-7.7 42.9 -7.7 41.1 -7.6 39.4 C-7.6 38.5 -7.6 37.6 -7.6 36.7 C-7.6 34.8 -7.6 32.8 -7.6 30.9 C-7.6 28 -7.6 25.1 -7.6 22.2 C-7.6 20.3 -7.6 18.4 -7.6 16.6 C-7.6 15.7 -7.6 14.8 -7.6 13.9 C-7.6 13.1 -7.5 12.3 -7.5 11.4 C-7.5 10.7 -7.4 9.9 -7.4 9.1 C-7.3 8.4 -7.1 7.7 -7 7 C-6.4 5.8 -5.8 4.7 -5.2 3.5 C-4.4 2.7 -3.7 1.8 -3 1 C-2 0.7 -1 0.3 0 0 Z " transform="translate(510,194)" fill="currentColor" />
<path d="M0 0 C1.1 -0.1 2.2 -0.2 3.3 -0.4 C4.5 -0.3 5.7 -0.1 7 0 C8.5 1 8.5 1 9.9 2.1 C11 3.5 11 3.5 12 5 C12.2 6.1 12.5 7.2 12.8 8.3 C12.5 9.5 12.3 10.7 12 12 C11.6 12.7 11.1 13.3 10.7 14 C10.1 14.6 9.5 15.3 8.9 16 C8 17 8 17 7 18.1 C6.3 18.7 5.7 19.3 5 20 C4.4 20.5 3.9 21 3.3 21.5 C2.5 22.2 2.5 22.2 1.7 23 C1.1 23.6 0.5 24.1 -0 24.7 C-0.7 25.5 -1.3 26.2 -2 27 C-2.8 28.2 -3.7 29.4 -4.5 30.6 C-5.8 32.6 -7.1 34.7 -8.4 36.8 C-9.3 38.2 -10.1 39.6 -10.9 41 C-11.3 41.7 -11.6 42.3 -12 43 C-12.5 44.1 -13.1 45.2 -13.6 46.4 C-14.4 48.3 -15.2 50.3 -16 52.2 C-16.7 54.1 -17.3 56 -18 57.9 C-18.6 59.6 -19.3 61.3 -20 63 C-20.3 63.7 -20.7 64.3 -21 65 C-22.1 66.1 -22.1 66.1 -23.3 67.2 C-24.6 67.6 -24.6 67.6 -26 68 C-27.2 68 -28.4 68 -29.6 68 C-30.7 67.7 -31.8 67.3 -33 67 C-34.2 65.9 -34.2 65.9 -35.4 64.9 C-36 63.9 -36.5 63 -37 62 C-37.1 60.9 -37.2 59.9 -37.3 58.8 C-37.2 57.5 -37.1 56.3 -37 55 C-36.7 53.8 -36.3 52.6 -36 51.3 C-35.5 50 -35 48.7 -34.5 47.4 C-34.1 46.4 -34.1 46.4 -33.7 45.3 C-33.1 43.9 -32.5 42.5 -31.9 41.1 C-31.3 39.7 -30.7 38.4 -30.1 37.1 C-29.2 35.3 -28.2 33.6 -27.2 31.8 C-26.6 30.7 -25.9 29.5 -25.2 28.4 C-24.1 26.7 -23 25 -21.8 23.3 C-20.7 21.6 -19.4 20 -18.2 18.3 C-16.9 16.7 -15.7 15.1 -14.4 13.6 C-13.4 12.5 -12.5 11.4 -11.5 10.4 C-9.1 7.9 -6.7 5.5 -4.2 3 C-3.5 2.4 -2.8 1.7 -2 1 C-1.3 0.7 -0.7 0.3 0 0 Z " transform="translate(665,225)" fill="currentColor" />
<path d="M0 0 C1.3 -0.1 2.6 -0.2 3.9 -0.3 C4.6 -0.3 5.3 -0.3 6 -0.3 C7 -0.1 7 -0.1 8 0 C8.8 0.6 9.6 1.2 10.4 1.9 C11 2.6 11.5 3.3 12 4 C12.5 5 12.5 5 13 6 C13.1 6.9 13.2 7.9 13.4 8.8 C13.2 10.4 13.2 10.4 13 12 C12.4 12.8 11.8 13.7 11.2 14.5 C10.7 14.9 10.3 15.3 9.8 15.7 C9.2 16.2 8.6 16.6 8 17 C6.3 17.9 4.6 18.9 2.9 19.8 C0.9 20.8 -1 21.9 -3 23 C-4 23.7 -5 24.3 -6 25 C-8.1 26.5 -10.1 28 -12.1 29.5 C-13 30.3 -14 31.2 -15 32 C-15.9 32.9 -16.8 33.7 -17.7 34.6 C-19.4 36.4 -21.1 38.2 -22.7 40.1 C-23.4 41 -24.2 42 -25 43 C-26.5 45.2 -27.9 47.4 -29.4 49.6 C-30.3 51 -30.3 51 -31.2 52.6 C-32.1 53.8 -32.1 53.8 -33 55 C-33.7 55.4 -34.3 55.9 -35 56.3 C-35.7 56.6 -36.3 56.8 -37 57 C-38.2 57 -39.3 56.9 -40.5 56.9 C-41.7 56.6 -42.8 56.3 -44 56 C-44.8 55.5 -45.6 55 -46.4 54.4 C-47 53.6 -47.5 52.8 -48 52 C-48.3 50.9 -48.5 49.7 -48.8 48.6 C-48.8 47.9 -48.7 47.2 -48.7 46.5 C-48.5 45.6 -48.2 44.8 -48 44 C-47.5 43 -46.9 42 -46.4 41 C-45.6 39.9 -44.9 38.9 -44.2 37.8 C-43.4 36.6 -42.5 35.5 -41.7 34.4 C-40.4 32.7 -39 31 -37.7 29.4 C-36.3 27.8 -35 26.3 -33.6 24.8 C-32.7 23.8 -31.8 22.8 -30.8 21.8 C-29 20 -27.2 18.3 -25.4 16.6 C-24.1 15.5 -24.1 15.5 -22.8 14.3 C-21.9 13.6 -21 12.9 -20.1 12.2 C-19 11.5 -18 10.7 -17 10 C-15 8.7 -13 7.5 -11 6.2 C-8 4.4 -5 2.7 -2 1 C-1.3 0.7 -0.7 0.3 0 0 Z " transform="translate(780,236)" fill="currentColor" />
<path d="M0 0 C2 -0.1 4 -0.2 6.1 -0.2 C6.8 -0.2 7.6 -0.2 8.4 -0.2 C9.6 -0.2 9.6 -0.2 10.8 -0.2 C12.5 -0.2 14.2 -0.2 15.9 -0.2 C18.4 -0.2 21 -0.3 23.6 -0.3 C25.2 -0.3 26.9 -0.3 28.5 -0.3 C29.3 -0.3 30 -0.4 30.8 -0.4 C31.9 -0.4 31.9 -0.4 33 -0.4 C33.7 -0.3 34.4 -0.3 35.1 -0.3 C36 -0.1 36 -0.1 37 0 C38.1 0.4 39.2 0.9 40.4 1.3 C41.7 2.2 41.7 2.2 43 3 C43.7 4 44.3 5 45 6 C45.1 7 45.2 7.9 45.2 8.9 C45.2 9.9 45.1 11 45 12 C44.7 12.7 44.5 13.5 44.2 14.2 C43.8 14.8 43.4 15.4 43 16 C42 16.7 41 17.3 40 18 C39.3 18.1 38.7 18.2 38 18.3 C36.9 18.3 36.9 18.3 35.7 18.3 C34.8 18.3 34 18.3 33.1 18.4 C32.1 18.4 31.2 18.4 30.3 18.4 C28.8 18.4 28.8 18.4 27.3 18.4 C25.3 18.4 23.3 18.4 21.2 18.4 C18.1 18.4 15 18.5 11.9 18.5 C10 18.5 8 18.6 6 18.6 C5.1 18.6 4.2 18.6 3.2 18.6 C1.9 18.6 1.9 18.6 0.6 18.6 C-0.2 18.5 -1 18.5 -1.9 18.4 C-2.9 18.2 -2.9 18.2 -4 18 C-5 17.2 -6 16.5 -7.1 15.7 C-7.7 14.8 -8.4 13.9 -9 13 C-9.2 11.8 -9.4 10.7 -9.6 9.5 C-9.4 8.3 -9.2 7.2 -9 6 C-8.4 5.1 -7.9 4.1 -7.3 3.1 C-6.2 2.1 -6.2 2.1 -5 1 C-3.9 0.7 -3.9 0.7 -2.9 0.4 C-1.9 0.3 -1 0.1 0 0 Z " transform="translate(450,257)" fill="currentColor" />
<path d="M0 0 C1.9 -0.1 1.9 -0.1 3.9 -0.3 C5.3 -0.3 6.7 -0.3 8.1 -0.3 C9.3 -0.3 9.3 -0.3 10.4 -0.3 C12 -0.3 13.6 -0.3 15.2 -0.3 C17.6 -0.3 20 -0.3 22.4 -0.3 C23.9 -0.3 25.5 -0.3 27 -0.3 C27.7 -0.3 28.4 -0.3 29.2 -0.3 C29.8 -0.3 30.5 -0.3 31.2 -0.3 C32.5 -0.2 33.7 -0.1 35 0 C36.7 0.5 36.7 0.5 38.4 0.9 C39.7 1.5 39.7 1.5 41 2 C41.9 2.8 41.9 2.8 42.9 3.7 C43.2 4.5 43.6 5.2 44 6 C44.2 7.7 44.2 7.7 44.5 9.4 C44.3 10.6 44.2 11.8 44 13 C43.4 13.9 42.7 14.8 42.1 15.7 C41.1 16.4 40 17.2 39 18 C38.3 18.2 37.6 18.3 36.9 18.5 C36.1 18.5 35.4 18.6 34.6 18.6 C32.8 18.7 31 18.7 29.3 18.6 C27.9 18.6 27.9 18.6 26.4 18.6 C24.5 18.6 22.5 18.6 20.5 18.6 C17.5 18.6 14.5 18.6 11.5 18.6 C9.6 18.6 7.6 18.6 5.7 18.6 C4.4 18.6 4.4 18.6 3 18.6 C2.1 18.6 1.3 18.5 0.4 18.5 C-0.3 18.5 -1.1 18.4 -1.9 18.4 C-2.6 18.3 -3.3 18.1 -4 18 C-5 17.4 -6 16.8 -7 16.2 C-7.7 15.5 -8.3 14.7 -9 14 C-9.3 12.9 -9.7 11.7 -10 10.6 C-10 9.4 -10 8.2 -10 7 C-9.5 5.6 -9.5 5.6 -9 4.2 C-8.3 3.5 -7.7 2.7 -7 2 C-5.5 1.4 -5.5 1.4 -3.9 0.9 C-2.6 0.6 -1.3 0.3 0 0 Z " transform="translate(539,257)" fill="currentColor" />
<path d="M0 0 C0.6 -0.2 1.3 -0.3 1.9 -0.5 C2.6 -0.6 3.3 -0.6 4 -0.7 C4.6 -0.7 5.3 -0.7 5.9 -0.8 C6.6 -0.5 7.3 -0.3 8 0 C8.9 0.8 9.7 1.7 10.6 2.6 C11 3.1 11.4 3.7 11.9 4.2 C12.2 4.8 12.6 5.4 13 6 C13.4 7.2 13.9 8.4 14.3 9.6 C14.7 10.9 15 12.2 15.4 13.6 C16 15.7 16.6 17.8 17.3 20 C17.5 20.6 17.8 21.3 18 22 C18.5 23.1 19 24.3 19.5 25.5 C20.3 27.1 20.3 27.1 21.2 28.7 C21.8 29.7 22.4 30.8 23 31.8 C23.6 32.9 24.3 33.9 25 35 C26.2 36.7 27.4 38.5 28.7 40.2 C30 41.8 31.3 43.5 32.6 45.1 C33.4 46.1 34.2 47 35 48 C35.7 48.8 36.4 49.5 37.2 50.3 C38.3 51.5 39.5 52.6 40.7 53.7 C41.4 54.4 41.4 54.4 42 55 C42.3 55.7 42.7 56.3 43 57 C43.1 58.1 43.2 59.2 43.4 60.3 C43.2 62.1 43.2 62.1 43 64 C42.3 65 41.6 65.9 40.9 66.9 C40 67.6 39 68.3 38 69 C36.9 69.2 35.8 69.5 34.7 69.8 C32.9 69.4 32.9 69.4 31 69 C30.4 68.6 29.7 68.2 29.1 67.8 C28.4 67.2 27.8 66.7 27.1 66.1 C25.7 64.8 24.4 63.4 23 62 C22.3 61.3 21.6 60.6 20.9 59.9 C20.2 59.2 19.4 58.5 18.7 57.7 C17.9 56.8 17.2 56 16.4 55.1 C15.6 54.1 14.8 53.1 14 52 C13 50.6 12.1 49.3 11.2 47.9 C9.7 45.6 8.3 43.3 6.9 41 C6 39.4 5.1 37.9 4.2 36.3 C3.8 35.5 3.4 34.8 3 34 C2.3 32.6 1.7 31.2 1 29.8 C0 27.3 -0.9 24.8 -1.9 22.3 C-2.7 20 -3.4 17.7 -4.1 15.3 C-4.4 14.2 -4.7 13.1 -5 12 C-5.1 10.8 -5.3 9.6 -5.4 8.4 C-5.2 6.7 -5.2 6.7 -5 5 C-4.3 4 -3.7 3.1 -3 2.1 C-1.5 1 -1.5 1 0 0 Z " transform="translate(295,280)" fill="currentColor" />
<path d="M0 0 C1.7 0.1 1.7 0.1 3.5 0.2 C5.2 0.6 5.2 0.6 7 1 C7.6 1.5 8.2 1.9 8.9 2.4 C9.2 2.9 9.6 3.4 10 4 C10.3 5 10.7 6 11 7 C11 7.6 11.1 8.2 11.1 8.9 C11.2 9.9 11.2 9.9 11.2 11 C11.2 11.8 11.2 12.6 11.2 13.5 C11.2 14.3 11.2 15.2 11.2 16.1 C11.2 17 11.2 17.9 11.2 18.8 C11.2 20.7 11.2 22.6 11.2 24.5 C11.2 27.4 11.3 30.2 11.3 33.1 C11.3 35 11.3 36.8 11.3 38.6 C11.3 39.5 11.4 40.4 11.4 41.3 C11.4 42.1 11.4 42.9 11.4 43.7 C11.3 44.5 11.3 45.2 11.3 46 C11.2 46.7 11.1 47.3 11 48 C10.6 49 10.1 50 9.7 51 C9.1 51.6 8.6 52.3 8 53 C7 53.7 6 54.3 5 55 C4.1 55.1 3.1 55.2 2.1 55.4 C1.1 55.3 0.1 55.1 -1 55 C-1.9 54.4 -2.9 53.8 -3.8 53.2 C-4.5 52.5 -5.3 51.7 -6 51 C-6.5 49.5 -6.5 49.5 -7 48 C-7 47.4 -7.1 46.8 -7.1 46.1 C-7.2 45.4 -7.2 44.7 -7.2 44 C-7.2 43.2 -7.2 42.4 -7.2 41.6 C-7.2 40.7 -7.2 39.8 -7.2 38.9 C-7.2 38.1 -7.3 37.2 -7.3 36.2 C-7.3 34.4 -7.3 32.5 -7.3 30.6 C-7.3 27.7 -7.4 24.8 -7.4 22 C-7.4 20.1 -7.4 18.3 -7.4 16.4 C-7.4 15.6 -7.5 14.7 -7.5 13.9 C-7.5 13 -7.5 12.2 -7.5 11.4 C-7.4 10.6 -7.4 9.9 -7.4 9.1 C-7.2 8.4 -7.1 7.7 -7 7 C-6.4 5.8 -5.8 4.7 -5.2 3.5 C-4.4 2.7 -3.7 1.8 -3 1 C-2 0.7 -1 0.3 0 0 Z " transform="translate(510,283)" fill="currentColor" />
<path d="M0 0 C0.8 -0.1 1.6 -0.2 2.4 -0.3 C3.5 -0.4 3.5 -0.4 4.6 -0.5 C6.4 -0.6 6.4 -0.6 8.2 -0.7 C9.8 -0.7 9.8 -0.7 11.4 -0.6 C13.2 -0.3 13.2 -0.3 15 0 C15.9 0.2 16.8 0.5 17.7 0.7 C18.7 1 19.7 1.3 20.8 1.7 C21.8 2 22.8 2.4 23.9 2.8 C25.4 3.4 25.4 3.4 27 4 C27.9 4.5 28.8 4.9 29.7 5.4 C31.4 6.4 33.1 7.4 34.8 8.5 C35.7 9 36.6 9.6 37.5 10.2 C39.5 11.4 41.5 12.7 43.5 14 C45.1 14.9 45.1 14.9 46.7 16 C51.8 19.1 57 22.3 62.1 25.4 C63.9 26.4 65.7 27.5 67.4 28.6 C75.3 33.3 83.1 38.1 90.9 42.8 C99.5 47.9 108 53.1 116.5 58.4 C120.7 60.9 124.8 63.5 129.1 66 C132.2 67.8 135.2 69.6 138.3 71.5 C139.5 72.3 140.8 73.1 142 74 C143.3 75.1 143.3 75.1 144.5 76.2 C145.1 76.8 145.7 77.5 146.4 78.2 C146.9 78.8 147.3 79.5 147.8 80.1 C148.6 81.4 149.4 82.7 150.2 84 C150.6 84.7 150.9 85.4 151.3 86.1 C151.8 87.1 151.8 87.1 152.2 88.1 C152.9 89.8 153.6 91.6 154.2 93.4 C154.6 95.2 154.6 95.2 155 97 C155.1 97.7 155.1 98.3 155.2 99 C155.2 100.7 155.2 102.3 155.2 104 C155.1 105.5 155.1 105.5 155 107 C154.7 109.3 154.3 111.6 154 113.9 C153.5 116.6 153 119.3 152.5 122 C152.2 123.4 152 124.9 151.7 126.4 C151 130.3 150.3 134.3 149.6 138.2 C148.8 142.3 148.1 146.4 147.3 150.5 C146.4 155.5 145.5 160.4 144.6 165.4 C142.8 175.2 141.1 185.1 139.4 194.9 C138.6 199.4 137.8 203.8 137.1 208.3 C136.6 210.7 136.2 213 135.8 215.4 C135.3 218.7 134.7 222 134.1 225.2 C134 226.2 133.8 227.1 133.6 228.1 C133.3 229.8 133 231.6 132.6 233.4 C132.4 234.2 132.2 235.1 132 236 C131.7 237 131.4 238 131.1 239 C130.4 240.8 129.8 242.7 129.1 244.6 C128.7 245.4 128.4 246.2 128 247 C127.5 247.8 127.1 248.6 126.6 249.4 C125.9 250.3 125.9 250.3 125.2 251.3 C124.7 252 124.2 252.6 123.6 253.3 C122.6 254.3 121.6 255.4 120.6 256.4 C120 256.9 119.5 257.3 118.9 257.8 C118.2 258.3 117.5 258.8 116.8 259.4 C115.9 259.9 114.9 260.4 114 261 C113.4 261.3 112.8 261.5 112.2 261.8 C110.2 262.7 108.1 263.5 105.9 264.3 C103.5 265.2 101.1 266.1 98.7 266.9 C96.1 267.9 93.4 268.9 90.7 269.8 C88 270.9 85.2 271.9 82.4 272.9 C73.7 276.1 65.1 279.4 56.5 282.7 C39.5 289.2 22.5 295.6 5.5 302 C3 303 0.4 303.9 -2.1 304.9 C-5.6 306.2 -9.2 307.5 -12.7 308.9 C-13.8 309.3 -14.9 309.7 -16 310.1 C-17 310.5 -17.9 310.8 -19 311.2 C-20.2 311.7 -20.2 311.7 -21.6 312.2 C-22.4 312.5 -23.2 312.7 -24 313 C-24.9 313.2 -25.8 313.4 -26.7 313.6 C-27.5 313.7 -28.2 313.9 -29 314 C-29.7 314.1 -30.3 314.1 -31 314.2 C-31.7 314.2 -32.4 314.2 -33.1 314.2 C-33.8 314.2 -34.6 314.2 -35.4 314.2 C-36.3 314.1 -37.1 314.1 -38 314 C-39.4 313.8 -39.4 313.8 -40.9 313.6 C-41.9 313.4 -42.9 313.2 -43.9 312.9 C-44.9 312.7 -45.9 312.4 -47 312.1 C-48 311.7 -49 311.4 -50 311 C-50.9 310.5 -51.9 310 -52.9 309.6 C-53.8 309 -54.7 308.4 -55.6 307.9 C-56.5 307.3 -57.4 306.6 -58.4 306 C-59.2 305.3 -60.1 304.7 -61 304 C-62.6 302.6 -64.2 301.2 -65.8 299.8 C-66.6 299 -67.4 298.2 -68.3 297.4 C-69.6 296.2 -69.6 296.2 -71 295 C-73.2 293.2 -75.5 291.4 -77.8 289.6 C-83.9 284.9 -83.9 284.9 -86.7 282.6 C-88.4 281.2 -90.1 279.7 -91.8 278.3 C-95.4 275.2 -99.1 272.1 -102.8 269.1 C-103.6 268.5 -104.4 267.9 -105.2 267.2 C-114 260.2 -122.8 253.1 -131.4 245.8 C-132 245.4 -132.5 244.9 -133.1 244.4 C-134.4 243.3 -135.7 242.2 -137 241 C-137.3 240.3 -137.7 239.7 -138 239 C-138.2 237.6 -138.2 237.6 -138.3 236.2 C-138.2 235.1 -138.1 234.1 -138 233 C-137.2 231.6 -137.2 231.6 -136.4 230.2 C-135.6 229.5 -134.8 228.7 -134 228 C-132.9 227.7 -131.7 227.3 -130.6 227 C-129.4 227 -128.2 227 -127 227 C-125.9 227.6 -125.9 227.6 -124.7 228.1 C-123.4 229.1 -123.4 229.1 -122 230 C-120.2 231.4 -118.4 232.9 -116.6 234.3 C-115.9 234.9 -115.2 235.4 -114.6 236 C-109.4 240.3 -104.2 244.5 -98.9 248.6 C-96.6 250.4 -94.3 252.2 -92 254 C-89.1 256.5 -86.2 259 -83.2 261.5 C-81 263.5 -78.7 265.5 -76.3 267.4 C-74 269.2 -71.8 270.9 -69.5 272.7 C-64.5 276.6 -59.6 280.6 -54.7 284.7 C-53.9 285.3 -53.2 285.9 -52.4 286.6 C-51.4 287.4 -51.4 287.4 -50.3 288.3 C-49.7 288.8 -49.1 289.4 -48.5 289.9 C-48 290.3 -47.5 290.6 -47 291 C-46.7 291 -46.3 291 -46 291 C-45.8 290.1 -45.7 289.1 -45.5 288.2 C-43.7 277.2 -41.9 266.2 -40 255.2 C-39.7 253.2 -39.4 251.3 -39.1 249.4 C-34.7 222.7 -30.2 196.1 -25.5 169.5 C-25.3 168.5 -25.1 167.5 -25 166.5 C-24.7 164.7 -24.3 162.9 -24 161.1 C-23.7 159.1 -23.3 157 -23 155 C-23 154 -23 153 -23 152 C-23.6 151.5 -24.1 151 -24.7 150.5 C-25.5 150 -26.3 149.4 -27.1 148.9 C-28.5 148 -28.5 148 -29.9 147.1 C-30.8 146.4 -31.8 145.8 -32.8 145.1 C-34.9 143.8 -36.9 142.4 -38.9 141 C-40 140.4 -41 139.7 -42 139 C-46.2 136.2 -50.3 133.4 -54.4 130.6 C-55.2 130 -56 129.5 -56.7 129 C-64 124 -71.2 119 -78.4 114 C-86.9 108.1 -95.3 102.3 -103.8 96.5 C-107.3 94.1 -110.7 91.8 -114.2 89.4 C-114.8 88.9 -115.5 88.5 -116.1 88 C-117.4 87.2 -118.7 86.3 -120 85.4 C-123.7 82.9 -127.3 80.3 -131 77.8 C-132.4 76.9 -133.7 76 -135.1 75 C-136.5 74 -136.5 74 -138 73 C-138.5 74.6 -139 76.2 -139.4 77.8 C-139.6 78.5 -139.8 79.2 -140 80 C-140.5 82.6 -140.9 85.1 -141.3 87.7 C-141.4 88.7 -141.6 89.7 -141.7 90.7 C-141.9 91.8 -142.1 92.8 -142.2 93.9 C-142.6 96.2 -142.9 98.5 -143.3 100.8 C-143.8 104.4 -144.4 108 -144.9 111.6 C-146.5 121.9 -148.1 132.2 -149.6 142.4 C-150.6 148.7 -151.5 155 -152.5 161.3 C-152.9 163.7 -153.2 166.1 -153.6 168.5 C-154.1 171.8 -154.6 175.2 -155.1 178.5 C-155.3 179.5 -155.4 180.5 -155.6 181.5 C-155.8 183.3 -156.1 185.1 -156.5 186.8 C-156.6 187.5 -156.8 188.3 -157 189 C-157.7 190.5 -157.7 190.5 -158.4 192 C-159.2 193 -159.2 193 -160 194 C-161.5 195 -161.5 195 -163 196 C-164.4 196.2 -164.4 196.2 -165.8 196.4 C-166.9 196.3 -167.9 196.1 -169 196 C-170.1 195.4 -171.2 194.8 -172.4 194.1 C-173.1 193.4 -173.1 193.4 -173.9 192.7 C-174.2 192.1 -174.6 191.6 -175 191 C-175.1 190.4 -175.2 189.8 -175.4 189.1 C-175.3 187.5 -175.3 185.9 -175.3 184.2 C-175.2 183.2 -175.1 182.1 -175 181 C-174.6 177.5 -174.1 174 -173.5 170.6 C-173.1 168.1 -172.7 165.7 -172.3 163.2 C-172.1 161.5 -171.8 159.7 -171.5 158 C-170.8 153.4 -170 148.8 -169.3 144.2 C-168.4 138.7 -167.5 133.2 -166.6 127.8 C-165.9 123.3 -165.2 118.8 -164.5 114.4 C-163.1 106.1 -161.8 97.8 -160.6 89.5 C-160.4 88.1 -160.2 86.6 -159.9 85.1 C-159.5 82.4 -159.2 79.7 -158.8 77 C-158.4 74.7 -158.1 72.4 -157.7 70.1 C-157.3 68.5 -157.3 68.5 -157 67 C-156.7 66.1 -156.4 65.2 -156 64.2 C-155.7 63.4 -155.3 62.6 -154.9 61.8 C-154.6 61.1 -154.3 60.4 -153.9 59.7 C-153.6 59.1 -153.3 58.6 -153 58 C-152.5 57.2 -152 56.4 -151.5 55.6 C-150.6 54.3 -149.6 53.1 -148.6 51.8 C-147.6 50.7 -146.5 49.5 -145.4 48.3 C-144.9 47.8 -144.3 47.3 -143.8 46.8 C-143.2 46.3 -142.6 45.9 -142.1 45.4 C-141.4 44.9 -140.7 44.5 -140 44 C-139.3 43.7 -138.6 43.3 -137.8 43 C-135.2 42 -132.6 41 -130 40 C-126.4 38.8 -122.7 37.6 -119 36.5 C-118 36.1 -117 35.8 -115.9 35.5 C-112.5 34.4 -109 33.3 -105.6 32.2 C-103.2 31.5 -100.8 30.7 -98.4 30 C-81.7 24.7 -64.9 19.5 -48.1 14.4 C-47.1 14.1 -46 13.7 -45 13.4 C-38 11.2 -31 9.1 -24 7 C-22.9 6.7 -21.9 6.3 -20.8 6 C-17.5 5 -14.3 4.1 -11 3.1 C-10 2.8 -9 2.5 -8 2.2 C-6.2 1.6 -4.4 1.1 -2.5 0.6 C-1.7 0.4 -0.9 0.2 0 0 Z M2 18 C1.4 18.1 0.7 18.3 0.1 18.4 C-1.3 18.8 -2.7 19.2 -4.1 19.6 C-8.1 20.8 -12 22 -15.9 23.3 C-17.7 23.9 -19.4 24.4 -21.2 25 C-24.7 26.1 -28.3 27.2 -31.9 28.4 C-38.7 30.5 -45.5 32.6 -52.3 34.7 C-67.9 39.4 -83.4 44.2 -98.9 49.1 C-99.9 49.4 -101 49.7 -102.1 50.1 C-105.1 51 -108.2 52 -111.2 52.9 C-112.1 53.2 -113 53.5 -113.9 53.8 C-118.3 55.1 -122.7 56.5 -127 58 C-126.4 58.6 -125.9 59.2 -125.3 59.8 C-124.5 60.5 -123.8 61.3 -123 62 C-122.3 62.5 -121.6 62.9 -120.9 63.4 C-119.7 64.1 -119.7 64.1 -118.5 64.9 C-116.3 66.2 -114.1 67.6 -112 69 C-108.8 71.2 -105.5 73.5 -102.3 75.8 C-100.6 77 -98.8 78.2 -97.1 79.4 C-96.2 80.1 -95.3 80.7 -94.5 81.3 C-91 83.7 -87.5 86.1 -83.9 88.6 C-83.3 89 -82.7 89.4 -82 89.9 C-78.5 92.3 -75 94.7 -71.5 97.1 C-63.1 102.8 -54.8 108.5 -46.6 114.3 C-41.3 118 -36 121.7 -30.6 125.3 C-29.7 125.9 -28.7 126.5 -27.8 127.1 C-26.9 127.7 -26 128.4 -25 129 C-23.9 129.8 -22.8 130.7 -21.6 131.5 C-21.1 131.9 -20.5 132.4 -19.9 132.8 C-18.3 134 -16.7 135.2 -15.1 136.4 C-14.1 136.9 -13.1 137.5 -12 138 C-10.9 137.9 -9.9 137.8 -8.8 137.8 C-7.5 137.5 -6.3 137.3 -5 137 C-3.8 136.6 -2.6 136.3 -1.4 135.9 C-0.1 135.4 1.2 135 2.5 134.5 C3.2 134.3 3.9 134 4.7 133.8 C7 132.9 9.3 132.1 11.7 131.2 C13.4 130.7 15 130.1 16.7 129.5 C21.8 127.7 26.9 125.8 32 124 C32.7 123.7 33.5 123.5 34.3 123.2 C40.6 120.9 46.9 118.6 53.3 116.3 C68.8 110.7 84.3 105.2 99.8 99.6 C103.2 98.4 106.5 97.2 109.9 96 C110.9 95.6 111.9 95.3 112.9 94.9 C118.3 93 123.7 91 129 89 C128.3 88.3 127.7 87.5 127 86.8 C126.5 86.3 126.1 85.9 125.6 85.4 C125.1 84.9 124.5 84.5 124 84 C123.5 83.6 122.9 83.2 122.4 82.8 C120.4 81.6 118.4 80.4 116.4 79.2 C114.8 78.3 113.2 77.3 111.6 76.3 C110.7 75.8 109.8 75.3 108.9 74.7 C105.2 72.5 101.5 70.2 97.7 68 C96.9 67.5 96.9 67.5 96 66.9 C95.4 66.6 94.8 66.2 94.2 65.8 C84.6 60 75 54.2 65.4 48.4 C55.5 42.5 45.7 36.5 35.9 30.5 C32.9 28.6 30 26.8 27 25 C26.1 24.4 25.1 23.8 24.2 23.2 C23.3 22.7 22.4 22.2 21.5 21.6 C20.7 21.1 20 20.6 19.2 20.1 C18.4 19.8 17.7 19.4 17 19 C16.3 18.8 15.7 18.6 15 18.4 C14.3 18.2 13.7 18.1 13 18 C12.3 17.9 11.6 17.8 10.8 17.7 C9.6 17.7 9.6 17.7 8.4 17.6 C6.9 17.6 6.9 17.6 5.4 17.6 C4.3 17.8 3.2 17.9 2 18 Z M135 105 C134.3 105.2 133.5 105.5 132.7 105.7 C131.3 106.2 131.3 106.2 129.9 106.7 C128.8 107.1 127.7 107.5 126.6 107.9 C125.4 108.3 124.2 108.7 123 109.2 C121.8 109.6 120.5 110.1 119.2 110.5 C115.9 111.7 112.5 112.9 109.1 114.1 C106.3 115.1 103.5 116.1 100.7 117.1 C79.5 124.7 58.4 132.2 37.3 139.9 C36.4 140.2 35.4 140.5 34.5 140.9 C33.6 141.2 32.7 141.5 31.8 141.8 C19.5 146.3 7.3 150.6 -5 155 C-7.1 167.4 -9.2 179.8 -11.3 192.2 C-12.3 198 -13.3 203.7 -14.3 209.5 C-16.7 223.6 -19.1 237.8 -21.5 252 C-22 254.9 -22.5 257.9 -23 260.9 C-23.7 265.3 -24.5 269.7 -25.2 274.2 C-25.5 275.8 -25.7 277.4 -26 279 C-26.4 281.1 -26.7 283.3 -27.1 285.5 C-27.4 287.3 -27.4 287.3 -27.7 289.1 C-27.8 290.1 -27.9 291 -28 292 C-27.7 293 -27.3 294 -27 295 C-3.8 286.4 19.4 277.7 42.5 269 C45.1 268 47.8 267 50.4 266 C55 264.2 59.7 262.4 64.3 260.7 C66.1 260 67.9 259.3 69.7 258.6 C73.8 257.1 77.9 255.5 82 253.9 C85.5 252.6 89 251.3 92.5 250 C94.3 249.3 96.1 248.6 97.9 248 C98.7 247.7 99.5 247.4 100.4 247.1 C101.2 246.8 101.9 246.5 102.7 246.2 C103.5 245.8 104.2 245.5 105 245.2 C105.6 244.8 106.3 244.4 107 244 C107.6 243.5 108.2 243.1 108.8 242.6 C109.3 242.1 109.9 241.5 110.4 241 C110.9 240.4 111.3 239.7 111.8 239.1 C112.2 238.4 112.6 237.7 113 237 C113.3 236.2 113.6 235.4 113.9 234.5 C114.1 233.6 114.3 232.7 114.5 231.8 C114.9 229.7 115.2 227.7 115.6 225.7 C115.8 224.6 116 223.5 116.2 222.3 C116.6 220 117 217.7 117.4 215.4 C118.2 211.1 119 206.8 119.8 202.5 C120.8 197.1 121.8 191.7 122.8 186.3 C123 185.2 123.2 184 123.5 182.8 C126.6 165.9 129.6 149 132.6 132.1 C132.7 131.1 132.9 130.1 133.1 129.1 C133.6 126.4 134 123.6 134.5 120.8 C134.6 120 134.8 119.3 134.9 118.4 C135.7 114 136.4 109.5 137 105 C136.3 105 135.7 105 135 105 Z " transform="translate(675,310)" fill="currentColor" />
<path d="M0 0 C1.2 -0 2.4 -0.1 3.6 -0.1 C4.7 0.2 5.9 0.6 7 1 C7.7 1.7 8.4 2.4 9.2 3.2 C10.1 4.6 10.1 4.6 11 6 C11.2 7 11.4 8.1 11.5 9.2 C11.6 12.9 11.6 16.7 11.6 20.5 C11.6 21.8 11.6 23.1 11.6 24.5 C11.6 25.8 11.6 27 11.6 28.3 C11.6 29.5 11.6 30.7 11.6 31.8 C11.3 33.4 11.3 33.4 11 35 C10.2 35.9 9.5 36.9 8.7 37.9 C7.4 38.9 7.4 38.9 6 40 C4.8 40.2 3.7 40.4 2.5 40.6 C1.3 40.4 0.2 40.2 -1 40 C-1.9 39.3 -2.8 38.6 -3.7 37.9 C-4.4 36.9 -5.2 36 -6 35 C-6.2 33.9 -6.4 32.9 -6.7 31.8 C-6.7 24.4 -6.7 24.4 -6.7 22.1 C-6.7 20 -6.7 17.9 -6.8 15.9 C-6.8 14.5 -6.8 13.2 -6.8 11.9 C-6.7 10.6 -6.6 9.4 -6.6 8.1 C-6.4 7.1 -6.2 6.1 -6 5 C-5.6 4.3 -5.2 3.6 -4.7 3 C-4.2 2.5 -3.7 2 -3.2 1.6 C-2.1 1.1 -1.1 0.5 0 0 Z " transform="translate(411,328)" fill="currentColor" />
<path d="M0 0 C0.7 -0.1 1.3 -0.1 2 -0.2 C3.8 0 5.6 0.2 7.4 0.4 C9.3 0.7 11.2 1 13.1 1.4 C15.5 1.9 17.9 2.5 20.3 3.1 C23 3.7 25.6 4.5 28.3 5.2 C31 6 33.6 6.8 36.3 7.7 C39 8.6 41.7 9.6 44.4 10.6 C47.3 11.7 50.2 12.8 53 14 C57.3 15.9 61.5 17.8 65.8 19.8 C69.9 21.8 74 23.9 78 26 C80.5 27.4 83 28.8 85.5 30.3 C87.7 31.6 89.9 33 92.1 34.4 C94 35.7 96 37 97.9 38.3 C100.5 40.2 103.1 42.1 105.7 44.1 C106.8 45.1 106.8 45.1 108 46 C108.6 46.5 109.2 47 109.8 47.6 C110.2 48 110.6 48.5 111 49 C111.3 49.9 111.6 50.9 111.9 51.9 C111.9 52.9 112 53.9 112 55 C111.6 55.9 111.2 56.8 110.8 57.8 C109.9 58.9 109.9 58.9 109 60 C108 60.7 107 61.3 106 62 C104.9 62.2 103.9 62.3 102.8 62.5 C101.5 62.3 100.3 62.2 99 62 C98.4 61.7 97.8 61.4 97.1 61 C96.5 60.6 95.9 60.2 95.2 59.7 C93.9 58.7 92.5 57.7 91.2 56.6 C88.2 54.4 85.1 52.2 82 50 C80.6 49.1 79.1 48.2 77.6 47.3 C74.7 45.6 71.7 44 68.7 42.4 C67.1 41.6 65.6 40.8 64 40 C63.2 39.6 62.4 39.2 61.5 38.7 C58.1 37 54.7 35.3 51.2 33.6 C48.5 32.4 45.8 31.2 43 30 C40 28.9 37 27.8 34 26.7 C30 25.4 26 24.1 22 22.8 C20 22.3 18 21.7 15.9 21.2 C12.1 20.3 8.3 19.4 4.5 18.6 C3.7 18.5 2.9 18.3 2 18.1 C1.3 18 0.6 17.8 -0.1 17.7 C-0.7 17.5 -1.4 17.2 -2 17 C-2.6 16.6 -3.1 16.1 -3.7 15.6 C-4.1 15.1 -4.6 14.6 -5 14 C-5.3 12.9 -5.6 11.8 -5.9 10.6 C-5.9 9.4 -6 8.2 -6 7 C-5.6 6.1 -5.2 5.1 -4.8 4.2 C-4.2 3.5 -3.6 2.7 -3 2 C-2 1.3 -1 0.7 0 0 Z " transform="translate(200,343)" fill="currentColor" />
<path d="M0 0 C0.7 -0.1 1.5 -0.2 2.3 -0.3 C3.5 -0.3 3.5 -0.3 4.8 -0.4 C6 -0.3 6 -0.3 7.3 -0.3 C8.7 -0.2 8.7 -0.2 10 0 C10.9 0.2 11.8 0.5 12.7 0.7 C13.6 1 14.4 1.3 15.3 1.6 C16.1 2 16.9 2.4 17.8 2.7 C18.9 3.4 18.9 3.4 20 4 C20.6 4.4 21.1 4.9 21.7 5.4 C22.4 6.1 22.4 6.1 23.1 6.8 C24.1 8.4 24.1 8.4 25 10 C25.3 11.8 25.3 11.8 25.7 13.6 C25.5 14.7 25.2 15.8 25 17 C24.2 17.9 23.4 18.9 22.5 19.8 C21.9 20.2 21.4 20.6 20.8 21 C20.2 21.3 19.6 21.7 19 22 C17.1 22.7 17.1 22.7 15.2 23.4 C14.6 23.5 13.9 23.6 13.2 23.8 C12.5 23.9 11.7 23.9 11 24 C10.2 24 9.4 24 8.5 24 C7.7 24 6.9 23.9 6 23.9 C4.7 23.7 4.7 23.7 3.5 23.5 C2.6 23.4 1.8 23.2 1 23 C-0.1 22.6 -0.1 22.6 -1.3 22.2 C-2 21.8 -2.7 21.5 -3.4 21.2 C-4 20.8 -4.6 20.5 -5.3 20.1 C-5.9 19.7 -6.4 19.4 -7 19 C-8.2 18.1 -8.2 18.1 -9.5 17.2 C-10 16.5 -10.5 15.8 -11 15 C-11.2 13.7 -11.4 12.4 -11.6 11.1 C-11.5 10.4 -11.5 9.7 -11.4 9 C-11.2 8 -11.2 8 -11 7 C-10.3 6.1 -9.6 5.1 -8.9 4.1 C-7.9 3.4 -7 2.7 -6 2 C-4.7 1.4 -4.7 1.4 -3.3 0.7 C-2.2 0.5 -1.1 0.2 0 0 Z " transform="translate(602,364)" fill="currentColor" />
<path d="M0 0 C1.4 -0.2 1.4 -0.2 2.9 -0.3 C6.1 -0.4 9.2 -0.4 12.3 -0.4 C14.4 -0.4 16.4 -0.5 18.4 -0.5 C19.7 -0.5 21 -0.6 22.3 -0.6 C23.4 -0.6 24.6 -0.6 25.8 -0.6 C26.9 -0.4 27.9 -0.2 29 0 C30 0.8 30.9 1.5 31.9 2.3 C32.6 3.2 33.3 4.1 34 5 C34.2 6.2 34.4 7.3 34.6 8.5 C34.4 9.7 34.2 10.8 34 12 C33.3 12.9 32.6 13.8 31.9 14.7 C30.9 15.4 30 16.2 29 17 C27.9 17.2 26.8 17.4 25.7 17.6 C24.5 17.6 23.3 17.6 22.1 17.6 C20.1 17.6 20.1 17.6 18.1 17.6 C17.4 17.6 16.7 17.6 16 17.6 C13.9 17.6 11.9 17.6 9.8 17.6 C7.2 17.6 4.7 17.6 2.1 17.5 C0.6 17.3 0.6 17.3 -1 17 C-1.8 16.4 -2.6 15.8 -3.4 15.1 C-3.9 14.4 -4.4 13.7 -5 13 C-5.3 12 -5.6 11.1 -5.9 10.1 C-6 9.1 -6 8 -6 7 C-5.6 6.1 -5.2 5.2 -4.8 4.2 C-4.2 3.5 -3.6 2.8 -3 2 C-2 1.3 -1 0.7 0 0 Z " transform="translate(368,371)" fill="currentColor" />
<path d="M0 0 C1 -0.2 2.1 -0.3 3.2 -0.5 C4.3 -0.5 5.5 -0.5 6.7 -0.5 C7.9 -0.5 9.2 -0.5 10.5 -0.5 C11.8 -0.5 13.1 -0.5 14.5 -0.5 C16.5 -0.5 16.5 -0.5 18.5 -0.5 C20.4 -0.5 20.4 -0.5 22.3 -0.5 C24.1 -0.5 24.1 -0.5 25.8 -0.5 C26.9 -0.3 27.9 -0.2 29 0 C29.9 0.6 30.9 1.2 31.9 1.8 C32.6 2.6 33.3 3.3 34 4 C34.5 5.5 34.5 5.5 35 6.9 C35 7.9 35 9 35 10 C34.6 10.9 34.1 11.8 33.7 12.8 C33.1 13.5 32.6 14.2 32 15 C31.3 15.7 30.7 16.3 30 17 C29 17.1 28 17.2 27 17.3 C23.6 17.4 20.2 17.4 16.8 17.4 C14.6 17.4 12.5 17.5 10.3 17.5 C8.9 17.5 7.5 17.6 6.1 17.6 C4.8 17.6 3.6 17.6 2.3 17.6 C1.2 17.4 0.1 17.2 -1 17 C-1.8 16.2 -2.6 15.4 -3.4 14.6 C-3.9 13.7 -4.5 12.9 -5 12 C-5.2 11.3 -5.4 10.6 -5.6 9.9 C-5.6 9.3 -5.6 8.6 -5.6 7.9 C-5.4 6.6 -5.2 5.3 -5 4 C-4.3 3.3 -3.6 2.5 -2.9 1.8 C-1.9 1.2 -1 0.6 0 0 Z " transform="translate(430,371)" fill="currentColor" />
<path d="M0 0 C0.7 0 1.4 0 2.1 0 C2.9 0.1 3.6 0.2 4.4 0.3 C5.4 0.5 6.3 0.8 7.2 1 C8.2 1.3 9.1 1.6 10.1 1.9 C11.1 2.3 12 2.7 12.9 3 C14.2 3.7 14.2 3.7 15.4 4.3 C16 4.8 16.6 5.2 17.2 5.7 C17.7 6.2 18.2 6.7 18.6 7.2 C19.2 8.2 19.8 9.2 20.4 10.3 C20.6 11.3 20.8 12.3 21 13.4 C20.7 14.8 20.7 14.8 20.4 16.3 C19.9 17.2 19.4 18.1 18.9 19 C18.1 19.8 17.3 20.5 16.4 21.3 C15.9 21.6 15.3 22 14.7 22.3 C13.7 22.7 13.7 22.7 12.8 23.1 C12.1 23.4 11.4 23.6 10.6 23.8 C9.9 24 9.2 24.1 8.4 24.3 C7.7 24.4 7 24.5 6.2 24.6 C5.5 24.6 4.7 24.7 3.9 24.7 C2.8 24.6 2.8 24.6 1.7 24.6 C0.9 24.5 0.2 24.4 -0.6 24.3 C-1.3 24.2 -1.9 24 -2.7 23.8 C-3.3 23.6 -4 23.4 -4.7 23.2 C-5.3 22.9 -6 22.6 -6.6 22.4 C-7.3 22 -7.9 21.7 -8.6 21.3 C-9.6 20.6 -9.6 20.6 -10.6 20 C-11.2 19.5 -11.8 19 -12.5 18.4 C-13.1 17.9 -13.6 17.4 -14.2 16.9 C-14.7 16.3 -15.1 15.8 -15.6 15.3 C-15.9 14.5 -16.3 13.6 -16.7 12.8 C-16.6 11.9 -16.6 11.1 -16.6 10.3 C-16.2 9.5 -15.9 8.6 -15.5 7.8 C-14.9 6.9 -14.2 6.1 -13.6 5.3 C-12.6 4.6 -11.6 3.8 -10.6 3.1 C-9.6 2.5 -8.6 1.9 -7.6 1.3 C-6.9 1.1 -6.3 0.8 -5.7 0.6 C-3.8 0.3 -1.9 0.2 0 0 Z " transform="translate(674.5625,371.6875)" fill="currentColor" />
<path d="M0 0 C0.9 -0.1 1.7 -0.2 2.6 -0.3 C3.5 -0.3 4.4 -0.3 5.4 -0.4 C6.3 -0.3 7.3 -0.3 8.2 -0.3 C9.1 -0.2 10.1 -0.1 11 0 C11.8 0.2 12.6 0.3 13.5 0.5 C14.3 0.7 15 0.9 15.8 1.1 C16.5 1.4 17.2 1.7 18 2 C18.6 2.3 19.3 2.6 20 3 C20.6 3.4 21.2 3.9 21.9 4.3 C22.4 4.8 23 5.3 23.6 5.8 C24 6.3 24.5 6.8 25 7.3 C25.3 7.9 25.6 8.4 26 9 C26.2 10.2 26.4 11.4 26.6 12.6 C26.4 13.7 26.2 14.8 26 16 C25.4 16.9 24.9 17.9 24.3 18.8 C23.5 19.5 22.8 20.3 22 21 C21.3 21.4 20.5 21.7 19.8 22.1 C18.9 22.4 17.9 22.7 17 23 C15.9 23.1 14.8 23.2 13.7 23.3 C11.3 23.3 8.9 23.3 6.5 23.2 C5.3 23.2 4.2 23.1 3 23 C2.2 22.8 1.3 22.7 0.5 22.5 C-0.2 22.3 -0.9 22 -1.6 21.8 C-2.7 21.2 -3.8 20.6 -5 20 C-6 19.2 -6.9 18.5 -7.9 17.7 C-8.6 16.8 -9.3 15.9 -10 15 C-10.4 14 -10.7 13.1 -11.1 12.1 C-11 11.1 -11 10 -11 9 C-10.5 7.9 -10 6.9 -9.5 5.8 C-8.3 4.4 -8.3 4.4 -7 3 C-6 2.4 -5 1.8 -3.9 1.1 C-3.3 0.9 -2.7 0.7 -2.1 0.5 C-1.4 0.3 -0.7 0.2 0 0 Z " transform="translate(737,380)" fill="currentColor" />
<path d="M0 0 C1.9 -0.3 1.9 -0.3 3.9 -0.6 C4.9 -0.6 4.9 -0.6 5.9 -0.7 C6.9 -0.3 6.9 -0.3 8 0 C8.9 0.7 9.7 1.4 10.6 2.1 C11.8 3.5 11.8 3.5 13 5 C13.2 6 13.4 7.1 13.6 8.2 C13.7 9.3 13.7 10.5 13.7 11.7 C13.7 12.9 13.7 14.2 13.7 15.5 C13.7 16.8 13.6 18.1 13.6 19.5 C13.7 21.5 13.7 21.5 13.7 23.5 C13.7 24.8 13.7 26 13.7 27.3 C13.7 28.5 13.7 29.7 13.6 30.8 C13.4 31.9 13.2 32.9 13 34 C12.2 34.9 11.5 35.9 10.7 36.9 C9.4 37.9 9.4 37.9 8 39 C6.8 39.2 5.7 39.4 4.5 39.6 C3.3 39.4 2.2 39.2 1 39 C0.1 38.3 -0.8 37.6 -1.7 36.9 C-2.8 35.5 -2.8 35.5 -4 34 C-4.2 33 -4.4 31.9 -4.6 30.8 C-4.6 29.7 -4.6 28.5 -4.6 27.3 C-4.6 26.1 -4.6 24.8 -4.6 23.5 C-4.6 22.2 -4.6 20.9 -4.6 19.5 C-4.6 18.2 -4.6 16.9 -4.6 15.5 C-4.6 13.1 -4.6 10.6 -4.5 8.2 C-4.4 7.1 -4.2 6.1 -4 5 C-3.4 4.1 -2.8 3.1 -2.2 2.1 C-1.5 1.4 -0.8 0.7 0 0 Z " transform="translate(409,391)" fill="currentColor" />
<path d="M0 0 C1 0 1 0 1.9 0.1 C2.6 0.2 3.3 0.4 4 0.5 C4.7 0.7 5.4 0.9 6.1 1.1 C6.7 1.4 7.3 1.7 8 2 C8.9 2.7 9.8 3.4 10.8 4.1 C11.9 5.5 11.9 5.5 13 7 C13.4 7.6 13.8 8.1 14.2 8.7 C14.6 9.3 14.9 9.9 15.3 10.6 C15.6 11.2 15.9 11.9 16.3 12.6 C16.6 13.8 16.6 13.8 17 15 C17.2 16.5 17.2 16.5 17.4 18 C17.4 20.1 17.4 22.1 17.4 24.2 C17.2 25.6 17.2 25.6 17 27 C16.5 27.9 16.1 28.8 15.6 29.7 C15.1 30.5 14.5 31.2 14 32 C13.3 32.7 12.7 33.3 12 34 C11.4 34.1 10.8 34.3 10.1 34.4 C9.4 34.5 8.6 34.5 7.9 34.6 C6.7 34.5 6.7 34.5 5.5 34.5 C4.6 34.3 3.8 34.2 3 34 C2.3 33.6 1.5 33.2 0.7 32.7 C0 32.1 -0.7 31.6 -1.4 31 C-2 30.4 -2.7 29.7 -3.3 29 C-4.2 28 -4.2 28 -5 27 C-5.4 26.4 -5.8 25.8 -6.2 25.1 C-6.4 24.5 -6.7 23.9 -7 23.2 C-7.2 22.6 -7.4 21.9 -7.6 21.2 C-7.7 20.5 -7.9 19.8 -8 19 C-8.1 18.1 -8.2 17.2 -8.3 16.2 C-8.3 15.3 -8.3 14.3 -8.4 13.3 C-8.3 12.4 -8.3 11.4 -8.3 10.5 C-8.1 9.3 -8.1 9.3 -8 8 C-7.6 7 -7.2 6 -6.8 5 C-6.2 4.3 -5.6 3.7 -5 3 C-4.3 2.4 -3.6 1.7 -2.8 1.1 C-1.9 0.7 -1 0.4 0 0 Z " transform="translate(553,415)" fill="currentColor" />
<path d="M0 0 C1.1 -0.1 2.1 -0.1 3.2 -0.2 C6.4 -0.2 9.7 -0.2 12.9 -0.1 C14.9 -0 16.9 0.1 18.9 0.3 C20.9 0.5 22.9 0.7 24.9 0.9 C26.2 1.2 27.6 1.4 28.9 1.6 C30.3 1.9 31.7 2.2 33.1 2.5 C34.5 2.8 35.9 3.2 37.4 3.5 C38.8 3.9 40.2 4.3 41.6 4.8 C43 5.2 44.4 5.7 45.8 6.2 C47.3 6.7 48.8 7.3 50.3 7.9 C51.8 8.6 53.3 9.3 54.7 10 C55.8 10.5 55.8 10.5 56.9 11 C57.5 11.3 58.2 11.6 58.9 12 C59.5 12.3 60.2 12.6 60.8 12.9 C61.9 13.6 62.9 14.3 64 15 C64.6 15.8 65.3 16.7 65.9 17.5 C66.3 18.3 66.6 19.2 67 20 C67 21.2 67 22.4 67 23.6 C66.7 24.7 66.3 25.8 66 27 C65.3 27.8 64.6 28.6 63.8 29.4 C62.9 30 62 30.5 61 31 C60.1 31.1 59.2 31.2 58.2 31.3 C56.6 31.1 56.6 31.1 55 31 C54 30.6 53 30.2 52 29.8 C51 29.3 49.9 28.8 48.9 28.2 C46.6 27.2 44.3 26.1 42 25 C41 24.6 40 24.2 38.9 23.8 C36.9 23.1 34.9 22.4 32.9 21.8 C31.1 21.3 29.3 20.8 27.4 20.3 C26.5 20.2 25.7 20 24.8 19.8 C23.8 19.7 22.8 19.5 21.8 19.4 C20.6 19.2 19.3 19.1 18 19 C16 18.9 14 18.9 12 18.8 C11 18.8 9.9 18.7 8.8 18.7 C6.6 18.7 4.4 18.6 2.3 18.6 C0.8 18.6 0.8 18.6 -0.8 18.5 C-1.7 18.5 -2.6 18.5 -3.5 18.5 C-4.3 18.3 -5.2 18.2 -6 18 C-6.8 17.4 -7.5 16.8 -8.3 16.2 C-8.9 15.5 -9.4 14.8 -10 14 C-10.2 12.7 -10.4 11.4 -10.6 10.1 C-10.5 9 -10.5 9 -10.5 8 C-10.2 7 -10.2 7 -10 6 C-9.3 5 -8.6 4.1 -7.8 3.1 C-6.9 2.4 -6 1.7 -5 1 C-3.9 0.7 -3.9 0.7 -2.8 0.4 C-1.8 0.3 -0.9 0.1 0 0 Z " transform="translate(232,426)" fill="currentColor" />
<path d="M0 0 C0.7 0.1 1.3 0.1 2 0.2 C2.7 0.4 3.4 0.5 4.1 0.7 C4.8 0.9 5.4 1.1 6.2 1.3 C6.8 1.5 7.4 1.8 8 2 C8.6 2.5 9.3 3 9.9 3.6 C10.3 4.4 10.6 5.2 11 6 C11.2 6.7 11.4 7.3 11.5 8 C11.7 8.7 11.8 9.5 11.9 10.2 C12 11 12.1 11.8 12.1 12.6 C12.1 13.4 12 14.2 12 15 C11.8 15.7 11.6 16.4 11.4 17.2 C11.1 17.8 10.8 18.5 10.5 19.2 C10.1 19.8 9.8 20.5 9.4 21.1 C8.9 21.8 8.5 22.4 8 23 C7.4 23.6 6.9 24.2 6.3 24.8 C5.7 25.3 5.1 25.8 4.5 26.4 C3.9 26.8 3.4 27.3 2.8 27.8 C2.2 28.2 1.6 28.6 1 29 C0 29.6 0 29.6 -1 30.1 C-1.6 30.4 -2.3 30.7 -3 31 C-4.3 31.1 -5.6 31.2 -6.9 31.3 C-7.6 31.3 -8.3 31.3 -9 31.3 C-9.7 31.2 -10.3 31.1 -11 31 C-11.9 30.6 -12.9 30.2 -13.9 29.8 C-14.9 28.9 -14.9 28.9 -16 28 C-16.4 27.4 -16.9 26.9 -17.3 26.3 C-17.5 25.5 -17.8 24.8 -18 24 C-18.2 22.8 -18.3 21.6 -18.5 20.4 C-18.5 19.7 -18.5 19 -18.4 18.3 C-18.3 17.5 -18.1 16.8 -18 16 C-17.6 15.2 -17.3 14.3 -16.9 13.4 C-16.5 12.6 -16 11.7 -15.5 10.8 C-15 10 -14.4 9.1 -13.9 8.3 C-13.2 7.5 -12.6 6.8 -12 6 C-11.3 5.4 -10.7 4.9 -10 4.3 C-9.3 3.8 -8.6 3.4 -7.9 2.9 C-6.9 2.4 -6.9 2.4 -5.9 1.8 C-5.3 1.6 -4.7 1.3 -4 1 C-3.3 0.8 -2.7 0.6 -2 0.3 C-1.3 0.2 -0.7 0.1 0 0 Z " transform="translate(777,444)" fill="currentColor" />
<path d="M0 0 C1.7 -0 1.7 -0 3.4 -0.1 C4.6 0.3 5.8 0.6 7 1 C7.9 1.5 7.9 1.5 8.9 2.1 C9.5 2.5 10.1 3 10.7 3.4 C11.3 4 11.8 4.5 12.4 5.1 C12.9 5.7 13.5 6.3 14 7 C14.7 8.1 14.7 8.1 15.3 9.3 C15.7 10.1 16.1 11 16.4 11.8 C16.7 12.7 17 13.5 17.3 14.4 C17.6 15.3 17.8 16.1 18 17 C18.1 17.8 18.3 18.6 18.4 19.4 C18.4 20.2 18.5 20.9 18.5 21.7 C18.5 22.4 18.4 23.1 18.4 23.9 C18.2 24.9 18.2 24.9 18 26 C17.7 26.7 17.4 27.4 17.2 28.1 C16.8 28.7 16.5 29.3 16.1 30 C15.4 31 14.7 32 14 33 C13 33.5 13 33.5 12 34 C10.1 34.2 10.1 34.2 8.2 34.3 C7.5 34.3 6.8 34.3 6.1 34.3 C5.4 34.2 4.7 34.1 4 34 C2.9 33.5 1.9 33.1 0.8 32.6 C-0.1 31.7 -1 30.9 -2 30 C-2.5 29.4 -3 28.7 -3.4 28.1 C-3.9 27.4 -4.3 26.6 -4.8 25.9 C-5.2 25.1 -5.6 24.3 -6 23.5 C-6.3 22.7 -6.7 21.8 -7 21 C-7.3 19.7 -7.3 19.7 -7.6 18.5 C-7.8 17.6 -7.9 16.8 -8 15.9 C-8 15.1 -8.1 14.3 -8.1 13.4 C-8.1 12.6 -8 11.8 -8 11 C-7.8 9.9 -7.8 9.9 -7.6 8.7 C-7.3 8 -7.1 7.3 -6.9 6.6 C-6.6 5.9 -6.3 5.3 -6 4.6 C-5.7 4.1 -5.3 3.6 -5 3 C-4.3 2.3 -3.5 1.6 -2.8 0.9 C-1.8 0.6 -0.9 0.3 0 0 Z " transform="translate(614,460)" fill="currentColor" />
<path d="M0 0 C1.7 -0 1.7 -0 3.4 -0.1 C4.6 0.3 5.8 0.6 7 1 C7.6 1.4 8.2 1.7 8.9 2.1 C9.5 2.6 10.1 3.1 10.7 3.6 C11.3 4.1 11.8 4.7 12.4 5.2 C12.9 5.8 13.5 6.4 14 7 C14.7 7.9 14.7 7.9 15.3 8.8 C15.7 9.4 16.1 10 16.4 10.6 C16.7 11.3 17 12 17.3 12.7 C17.6 13.4 17.8 14.2 18 15 C18.1 16 18.3 17 18.4 18 C18.4 19 18.5 20.1 18.5 21.1 C18.5 22.1 18.4 23.2 18.4 24.2 C18.3 25.1 18.1 26.1 18 27 C17.6 28 17.6 28 17.2 29.1 C16.8 29.6 16.5 30.1 16.1 30.7 C15.4 31.5 14.7 32.2 14 33 C13 33.5 13 33.5 12 34 C10.2 34.2 10.2 34.2 8.4 34.5 C7.7 34.5 7 34.5 6.2 34.5 C5.1 34.2 5.1 34.2 4 34 C3.3 33.6 2.5 33.1 1.8 32.7 C1.1 32.1 0.4 31.5 -0.3 30.9 C-1.3 30 -1.3 30 -2.3 29 C-3.1 28 -3.1 28 -4 27 C-4.6 25.9 -5.3 24.7 -5.9 23.6 C-6.3 22.4 -6.6 21.2 -7 20 C-7.3 18.7 -7.6 17.4 -7.9 16.1 C-7.9 15.5 -8 14.8 -8.1 14.1 C-8 13.4 -8 12.7 -8 12 C-7.8 10.8 -7.8 10.8 -7.6 9.6 C-7.3 8.8 -7.1 8 -6.9 7.2 C-6.6 6.4 -6.3 5.7 -6 4.9 C-5.7 4.3 -5.3 3.7 -5 3 C-4.3 2.3 -3.5 1.6 -2.8 0.9 C-1.8 0.6 -0.9 0.3 0 0 Z " transform="translate(577,472)" fill="currentColor" />
<path d="M0 0 C1.4 -0.2 1.4 -0.2 2.8 -0.4 C3.9 -0.3 4.9 -0.1 6 0 C7.2 0.5 8.4 1 9.6 1.5 C10.1 1.9 10.7 2.2 11.3 2.6 C11.9 3.1 12.4 3.5 13 4 C13.8 4.9 13.8 4.9 14.5 5.9 C15.2 6.9 15.2 6.9 15.9 8 C16.5 9 16.5 9 17.1 10 C17.4 10.7 17.7 11.3 18 12 C18.2 12.6 18.4 13.3 18.6 13.9 C18.7 14.6 18.9 15.3 19 16 C19.1 17.2 19.1 17.2 19.2 18.4 C19.2 20.1 19.2 21.8 19.2 23.5 C19.1 24.3 19.1 25.2 19 26 C18.6 27.2 18.1 28.3 17.7 29.5 C17.1 30.3 16.6 31.1 16 32 C15 32.7 14 33.3 13 34 C11.2 34.3 11.2 34.3 9.3 34.6 C8.3 34.5 8.3 34.5 7.2 34.5 C6.5 34.3 5.7 34.2 5 34 C4.3 33.6 3.6 33.1 2.8 32.7 C1.8 31.8 1.8 31.8 0.7 30.9 C0 30.3 -0.6 29.6 -1.3 29 C-1.9 28.3 -2.4 27.7 -3 27 C-3.6 25.9 -4.3 24.8 -4.9 23.7 C-5.5 21.9 -5.5 21.9 -6 20 C-6.2 19.2 -6.3 18.4 -6.5 17.6 C-6.6 16.7 -6.7 15.9 -6.9 15 C-6.9 14.2 -7 13.3 -7.1 12.4 C-7 11.6 -7 10.8 -7 10 C-6.8 9.3 -6.7 8.6 -6.5 7.9 C-6.2 7 -6.2 7 -5.8 6.1 C-5.2 5.1 -4.6 4 -4 3 C-3.4 2.4 -2.8 1.7 -2.2 1.1 C-1.1 0.5 -1.1 0.5 0 0 Z " transform="translate(540,484)" fill="currentColor" />
<path d="M0 0 C1.7 -0.2 1.7 -0.2 3.5 -0.3 C6 -0.3 8.6 -0.3 11.1 -0.3 C12.4 -0.2 13.7 -0.1 15 0 C16.1 0.2 17.2 0.4 18.3 0.6 C19.3 0.9 20.4 1.1 21.4 1.4 C23.7 2.1 25.9 2.8 28.2 3.5 C29.5 3.9 30.8 4.3 32.1 4.7 C35 5.6 38 6.5 40.9 7.4 C46.7 9.2 52.4 11 58.2 12.7 C67.1 15.5 76.1 18.2 85 21 C93.2 23.5 101.4 26 109.6 28.5 C112.2 29.3 114.8 30.1 117.5 30.9 C119.1 31.4 120.7 31.9 122.3 32.4 C127.2 33.9 132.1 35.4 137 37 C139.4 37.8 141.8 38.7 144.2 39.6 C145.3 40 146.3 40.4 147.4 40.8 C148.2 41.2 149.1 41.6 150 42 C151.6 43.1 151.6 43.1 153.3 44.2 C154.8 45.7 156.4 47.2 157.9 48.7 C158.6 49.4 159.3 50.2 160 51 C160.5 51.7 161.1 52.3 161.6 53 C162.1 53.6 162.5 54.3 162.9 54.9 C163.3 55.6 163.6 56.2 164 56.8 C164.3 57.5 164.6 58.3 165 59 C165.3 59.7 165.5 60.4 165.8 61.1 C166.3 62.7 166.8 64.3 167.3 66 C167.5 67 167.8 68 168 69 C168.2 70.1 168.3 71.2 168.5 72.3 C169 76.2 169.4 80 169.7 83.9 C169.9 85.4 170 86.9 170.2 88.3 C170.6 92.3 170.9 96.3 171.3 100.3 C171.7 104.5 172.2 108.7 172.6 112.9 C173.3 119.9 174 127 174.6 134 C175.4 142.2 176.2 150.3 177 158.4 C177.8 166.2 178.6 174.1 179.3 181.9 C179.7 185.2 180 188.6 180.3 191.9 C180.7 195.8 181.1 199.7 181.5 203.7 C181.6 205.1 181.7 206.5 181.9 207.9 C182.3 212.3 182.7 216.6 183 221 C183.1 224.1 183.2 227.3 183.2 230.4 C183.1 231.3 183.1 232.1 183 233 C182.8 233.9 182.7 234.8 182.5 235.8 C182.3 236.6 182.1 237.4 181.9 238.2 C181.5 239.4 181.5 239.4 181 240.6 C180.7 241.4 180.3 242.2 180 243 C179.6 243.8 179.2 244.5 178.8 245.3 C178.4 246.1 177.9 246.8 177.4 247.6 C176.9 248.4 176.4 249.1 175.8 249.9 C175.2 250.6 174.6 251.3 174 252 C173 252.9 173 252.9 172.1 253.9 C171.3 254.5 170.6 255.1 169.8 255.8 C167.3 257.7 164.7 259.5 162.1 261.3 C156.5 265.3 150.7 269.1 145 273 C141 275.7 137 278.4 133 281.1 C131.8 281.9 130.6 282.7 129.4 283.5 C120.1 289.9 110.8 296.3 101.6 302.7 C96.2 306.5 90.8 310.2 85.3 313.8 C81.5 316.3 77.8 318.9 74 321.4 C69.4 324.6 64.7 327.8 60 331 C59.3 331.5 58.5 332 57.8 332.5 C54.8 334.5 51.9 336.4 48.9 338.3 C47.9 338.9 47 339.4 46 340 C45.2 340.4 44.4 340.8 43.5 341.2 C42.8 341.4 42 341.7 41.2 342 C40.6 342.2 39.9 342.4 39.1 342.6 C37.6 342.9 36.1 343.2 34.6 343.5 C33.4 343.6 33.4 343.6 32.1 343.8 C31.3 343.9 30.5 343.9 29.7 344 C28.8 344 27.9 344 27 344 C26.1 343.9 25.3 343.8 24.4 343.7 C22.5 343.4 20.7 343 18.8 342.7 C17.9 342.4 17 342.2 16 342 C14.9 341.6 14.9 341.6 13.8 341.3 C12.3 340.7 10.9 340.1 9.5 339.5 C8.4 339 8.4 339 7.2 338.4 C6.3 338.1 5.5 337.7 4.6 337.3 C1.4 335.9 -1.8 334.4 -5 333 C-7.2 332 -9.3 331.1 -11.5 330.1 C-18.9 326.8 -26.3 323.5 -33.6 320.2 C-41.2 316.8 -48.8 313.4 -56.4 310.1 C-69.5 304.2 -82.6 298.3 -95.7 292.4 C-96.6 292 -97.4 291.7 -98.2 291.3 C-99.8 290.6 -101.4 289.8 -103 289.1 C-106.9 287.4 -110.7 285.7 -114.6 284.1 C-115.3 283.7 -116 283.4 -116.8 283.1 C-118.1 282.5 -119.4 282 -120.8 281.4 C-121.7 281 -121.7 281 -122.6 280.6 C-123.7 280.1 -124.9 279.6 -126 279 C-127 278.3 -128.1 277.5 -129.1 276.8 C-130 276.1 -130.8 275.4 -131.7 274.7 C-132.5 273.9 -133.2 273.2 -134 272.4 C-135 271.2 -135 271.2 -136 270 C-136.5 269.2 -137.1 268.4 -137.6 267.6 C-138.1 266.8 -138.5 266 -139 265.1 C-139.3 264.3 -139.7 263.5 -140 262.7 C-140.5 261.4 -140.5 261.4 -141 260 C-141.2 259.2 -141.4 258.4 -141.6 257.6 C-141.9 255.8 -142.2 254 -142.5 252.1 C-142.9 250 -143.1 247.9 -143.4 245.8 C-143.7 242.1 -144 238.5 -144.2 234.8 C-144.3 233.5 -144.5 232.1 -144.6 230.7 C-144.9 226.9 -145.1 223.2 -145.4 219.5 C-145.7 216.3 -145.9 213.2 -146.1 210 C-146.7 202.6 -147.3 195.2 -147.9 187.7 C-148.4 180.1 -149 172.5 -149.6 164.9 C-150.1 158.3 -150.6 151.8 -151.1 145.2 C-151.4 141.3 -151.7 137.4 -152 133.4 C-152.8 124 -153.5 114.5 -154 105 C-154.2 101.1 -154.2 97.2 -154.3 93.4 C-154.3 92.6 -154.3 91.8 -154.3 91 C-154.3 90 -154.3 90 -154.3 88.9 C-154.2 87.6 -154.1 86.3 -154 85 C-153.7 83.8 -153.4 82.6 -153.1 81.3 C-152.7 80.3 -152.4 79.3 -152 78.3 C-151.5 77.4 -151.1 76.5 -150.6 75.5 C-150.1 74.7 -149.5 73.9 -149 73 C-148.5 72.2 -148 71.4 -147.6 70.6 C-147 69.9 -146.4 69.1 -145.9 68.4 C-145.2 67.7 -144.5 66.9 -143.7 66.2 C-142.4 65.1 -142.4 65.1 -141 64 C-140.4 63.6 -139.9 63.3 -139.3 62.9 C-138 62.1 -136.7 61.3 -135.3 60.6 C-132.9 59.3 -130.5 58.1 -128 56.8 C-117.3 51.7 -106.5 46.9 -95.7 42 C-90.5 39.7 -85.4 37.4 -80.4 35 C-79.6 34.7 -78.9 34.4 -78.2 34 C-76.7 33.4 -75.3 32.7 -73.9 32.1 C-59.3 25.4 -44.7 18.8 -30 12.3 C-29.3 12 -28.6 11.7 -27.8 11.4 C-26.4 10.7 -25.1 10.1 -23.7 9.5 C-18.9 7.4 -14.2 5.3 -9.5 3 C-8.3 2.5 -8.3 2.5 -7 2 C-5.9 1.6 -4.8 1.3 -3.6 0.9 C-2.4 0.6 -1.2 0.3 0 0 Z M2 18 C1.1 18.3 0.2 18.5 -0.7 18.8 C-1.6 19.2 -2.5 19.6 -3.5 20 C-5.7 21 -7.8 22 -10 23 C-11.4 23.6 -12.8 24.3 -14.2 24.9 C-19.2 27.1 -24.2 29.4 -29.1 31.6 C-31 32.5 -32.8 33.3 -34.7 34.1 C-37.5 35.4 -40.4 36.7 -43.3 38.1 C-49.9 41 -56.5 44 -63.1 47 C-85.9 57.3 -85.9 57.3 -108.7 67.7 C-110.4 68.5 -112.2 69.4 -114 70.2 C-115 70.7 -116.1 71.1 -117.2 71.6 C-118.1 72 -118.9 72.5 -119.9 72.9 C-120.6 73.3 -121.3 73.6 -122 74 C-122.7 74.7 -123.3 75.3 -124 76 C-115.3 79.7 -106.5 83.2 -97.6 86.7 C-96.2 87.2 -94.8 87.8 -93.4 88.4 C-89.4 89.9 -85.5 91.5 -81.6 93 C-78.9 94 -76.3 95.1 -73.6 96.1 C-51.1 105 -28.6 113.7 -6 122.4 C-5.2 122.7 -4.4 123 -3.6 123.3 C-2.2 123.9 -0.8 124.4 0.7 124.9 C2.4 125.6 4.2 126.3 6 127 C7.3 127.6 7.3 127.6 8.6 128.2 C9.4 128.5 10.2 128.7 11 129 C12 128.9 13 128.9 14 128.8 C15 128.5 16 128.3 17 128 C18.3 127.4 18.3 127.4 19.7 126.7 C20.6 126.1 21.5 125.6 22.5 125 C23.5 124.4 24.6 123.7 25.7 123.1 C26.8 122.4 27.9 121.7 29.1 121 C30.3 120.3 31.5 119.6 32.7 118.8 C34.5 117.7 36.4 116.6 38.3 115.4 C44.4 111.7 50.6 108.1 56.8 104.5 C67.4 98.3 78 92 88.5 85.7 C94.2 82.3 99.9 78.9 105.7 75.5 C106.3 75.1 107 74.7 107.7 74.3 C110.8 72.5 114 70.6 117.2 68.8 C120.5 66.9 123.7 65 127 63 C130 61 133 59.1 136 57 C135.3 56.3 134.7 55.7 134 55 C133.3 54.7 132.7 54.5 132 54.2 C130.7 53.8 130.7 53.8 129.5 53.4 C128.5 53.1 127.5 52.8 126.6 52.5 C125.5 52.2 124.5 51.8 123.4 51.5 C122.3 51.2 121.2 50.8 120.1 50.5 C116.5 49.3 113 48.2 109.4 47.1 C106.9 46.4 104.4 45.6 102 44.8 C83.5 39 65 33.4 46.5 27.9 C42.3 26.7 38.1 25.4 33.9 24.1 C32 23.5 30.1 22.9 28.2 22.3 C26 21.6 23.7 20.9 21.5 20.2 C20.6 19.9 19.6 19.6 18.6 19.3 C17.6 19.1 16.7 18.8 15.7 18.6 C14.8 18.4 13.9 18.2 13 18 C12.1 17.9 11.2 17.8 10.3 17.6 C9.4 17.6 8.5 17.5 7.5 17.5 C6.2 17.5 6.2 17.5 4.8 17.6 C3.8 17.7 2.9 17.9 2 18 Z M148 70 C147.2 70.4 147.2 70.4 146.4 70.7 C145.8 71.1 145.1 71.5 144.5 72 C143.4 72.6 143.4 72.6 142.3 73.3 C141.1 74.1 141.1 74.1 139.9 74.8 C138.3 75.8 136.6 76.9 135 77.9 C134.1 78.4 133.3 78.9 132.4 79.5 C128.9 81.7 125.3 83.8 121.8 85.9 C120.3 86.7 118.9 87.5 117.5 88.3 C116.8 88.8 116.1 89.2 115.3 89.6 C111 92.2 106.6 94.7 102.3 97.3 C100.4 98.4 98.6 99.5 96.7 100.6 C95.3 101.5 95.3 101.5 93.8 102.3 C89.2 105.1 84.6 107.8 80 110.5 C78.2 111.6 76.3 112.7 74.5 113.8 C63.5 120.2 63.5 120.2 60.7 121.9 C58.9 123 57.1 124 55.3 125.1 C50.5 128 45.6 130.8 40.8 133.6 C39.8 134.2 38.8 134.8 37.7 135.4 C35.8 136.5 33.8 137.7 31.9 138.8 C30.6 139.5 30.6 139.5 29.2 140.3 C28.5 140.8 27.7 141.2 26.9 141.7 C26.3 142.1 25.6 142.5 25 143 C24.3 144 23.7 145 23 146 C23 147 23 148 23 149 C23.1 150.3 23.2 151.5 23.3 152.8 C23.4 153.5 23.4 154.2 23.5 154.9 C23.7 157.2 23.9 159.5 24.1 161.9 C24.3 163.5 24.4 165.2 24.6 166.8 C25 171.4 25.4 175.9 25.8 180.4 C26.2 185.2 26.6 189.9 27.1 194.6 C27.8 202.6 28.5 210.6 29.2 218.5 C30.2 229.7 31.2 241 32.2 252.2 C32.9 260 33.6 267.7 34.3 275.5 C34.5 277.4 34.6 279.3 34.8 281.2 C35.3 286.5 35.8 291.9 36.3 297.3 C36.4 298.9 36.5 300.5 36.7 302.2 C36.9 304.4 37.1 306.6 37.3 308.8 C37.4 310.1 37.5 311.3 37.6 312.6 C37.8 313.7 37.9 314.8 38 316 C38.3 318 38.6 320 39 322 C39.7 321.7 40.4 321.5 41.2 321.2 C42.1 320.8 43 320.4 44 320 C44.8 319.5 45.5 319.1 46.3 318.6 C47.2 318 48.1 317.4 48.9 316.8 C50.5 315.7 50.5 315.7 52.2 314.6 C53.4 313.8 54.7 312.9 56 312 C57.6 310.9 59.1 309.9 60.7 308.8 C64.4 306.3 68 303.8 71.7 301.3 C78 297 84.3 292.7 90.5 288.5 C99.1 282.7 107.7 276.9 116.2 271 C120.8 267.8 125.4 264.7 130.1 261.5 C132.9 259.6 135.7 257.7 138.6 255.7 C142 253.3 145.5 251 149 248.7 C150.6 247.6 152.1 246.6 153.6 245.6 C154.3 245.1 155 244.7 155.7 244.2 C156.4 243.8 157 243.3 157.7 242.9 C158.2 242.5 158.8 242 159.3 241.6 C159.9 241.1 160.4 240.5 161 240 C161.4 239.4 161.8 238.9 162.2 238.3 C162.7 237.3 162.7 237.3 163.2 236.4 C163.7 235.3 163.7 235.3 164.2 234.2 C164.5 233.5 164.7 232.8 165 232 C165.1 230.9 165.1 230.9 165.3 229.9 C165.3 229.2 165.3 228.4 165.3 227.7 C165.2 226.1 165.1 224.5 164.9 222.9 C164.9 222 164.8 221.1 164.7 220.2 C164.5 217.1 164.3 214.1 164 211 C163.9 209.3 163.9 209.3 163.7 207.6 C163 199.2 162.1 190.9 161.3 182.5 C160.9 178.9 160.6 175.2 160.2 171.6 C159.6 165.6 159 159.5 158.4 153.5 C157.6 144.9 156.7 136.4 155.9 127.9 C155.3 122 154.7 116 154.1 110.1 C154 108.6 153.8 107.2 153.7 105.8 C153.2 101.1 152.8 96.4 152.3 91.7 C152.2 90.5 152.1 89.3 151.9 88.1 C151.7 86 151.5 83.9 151.3 81.8 C151.1 80 150.9 78.2 150.8 76.5 C150.7 75.7 150.6 75 150.5 74.3 C150.3 72.7 150.3 72.7 150 71 C149 70.5 149 70.5 148 70 Z M-136 91 C-136.1 95.3 -136.1 99.7 -136 104 C-135.8 108.9 -135.4 113.7 -135 118.6 C-134.9 120 -134.8 121.4 -134.7 122.8 C-134.4 126.5 -134.1 130.3 -133.8 134.1 C-133.6 137.3 -133.4 140.4 -133.1 143.6 C-132.6 151.1 -132 158.5 -131.4 166 C-130.8 173.7 -130.2 181.4 -129.7 189.1 C-129.2 195.7 -128.7 202.3 -128.1 208.9 C-127.8 212.9 -127.5 216.8 -127.2 220.8 C-127 224.5 -126.7 228.2 -126.4 231.9 C-126.2 233.9 -126.1 235.9 -125.9 237.9 C-125.8 240.2 -125.6 242.6 -125.4 244.9 C-125.2 246.4 -125.2 246.4 -125 248 C-124.8 248.9 -124.7 249.8 -124.5 250.8 C-124.4 251.6 -124.2 252.4 -124 253.2 C-123.7 254.5 -123.3 255.7 -123 257 C-122.5 257.9 -122 258.8 -121.5 259.7 C-120.7 260.5 -119.9 261.2 -119 262 C-118 262.6 -118 262.6 -116.9 263.2 C-115.7 263.9 -115.7 263.9 -114.5 264.5 C-112.6 265.4 -110.7 266.3 -108.8 267.1 C-107.8 267.6 -106.8 268.1 -105.7 268.6 C-96.5 272.8 -87.3 276.9 -78 281 C-70 284.4 -62.1 287.9 -54.2 291.4 C-52.8 292.1 -51.3 292.8 -49.8 293.4 C-46.6 294.9 -43.4 296.3 -40.2 297.7 C-31.4 301.6 -22.6 305.5 -13.8 309.4 C-9 311.5 -4.2 313.7 0.5 315.8 C4.1 317.4 4.1 317.4 7.7 319 C9.3 319.7 10.9 320.4 12.5 321.2 C13.3 321.5 14.1 321.9 15 322.3 C15.7 322.6 16.4 322.9 17.2 323.3 C17.8 323.5 18.4 323.8 19 324 C19.7 324 20.3 324 21 324 C20.8 317.3 20.4 310.7 20 304 C19.1 292.8 18.1 281.6 17.1 270.3 C16.8 266.9 16.5 263.4 16.2 260 C15.5 251.8 14.7 243.7 14 235.5 C13.2 227.1 12.5 218.7 11.8 210.3 C11.1 203.1 10.5 195.9 9.8 188.6 C9.4 184.3 9 180 8.7 175.7 C8.3 171.6 7.9 167.6 7.6 163.6 C7.5 162.1 7.3 160.6 7.2 159.1 C7 157.1 6.8 155.1 6.6 153.1 C6.5 151.9 6.4 150.8 6.3 149.6 C6.2 148.8 6.1 147.9 6 147 C5.7 146.3 5.3 145.7 5 145 C3.5 144.3 3.5 144.3 2 143.7 C0.7 143.2 -0.7 142.7 -2 142.2 C-2.8 141.9 -3.5 141.6 -4.2 141.3 C-5.9 140.7 -7.5 140.1 -9.1 139.5 C-13.6 137.8 -18 136.1 -22.4 134.4 C-23.8 133.9 -23.8 133.9 -25.3 133.3 C-35.9 129.3 -46.6 125.1 -57.2 120.9 C-61.1 119.4 -64.9 117.9 -68.8 116.4 C-69.8 116 -70.7 115.6 -71.7 115.3 C-81 111.6 -90.4 108 -99.8 104.3 C-100.5 104 -101.2 103.8 -101.9 103.5 C-102.6 103.2 -103.3 103 -104 102.7 C-105 102.3 -105 102.3 -106 101.9 C-107.3 101.4 -108.6 100.9 -109.9 100.4 C-113.6 98.9 -117.3 97.5 -120.9 96.1 C-121.8 95.7 -122.6 95.4 -123.4 95.1 C-125 94.4 -126.6 93.8 -128.3 93.2 C-130.2 92.4 -132.1 91.7 -134 91 C-134.7 91 -135.3 91 -136 91 Z " transform="translate(349,486)" fill="currentColor" />
<path d="M0 0 C0.7 -0.1 1.4 -0.2 2.2 -0.3 C3.3 -0.4 3.3 -0.4 4.4 -0.4 C5.6 -0.4 5.6 -0.4 6.8 -0.3 C7.5 -0.2 8.3 -0.1 9 0 C10 0.6 11 1.2 12 1.9 C12.7 2.6 13.3 3.3 14 4 C14.3 4.7 14.7 5.3 15 6 C15.1 6.7 15.2 7.4 15.3 8.1 C15.3 9.4 15.3 9.4 15.4 10.6 C15.4 11.5 15.4 12.4 15.3 13.3 C15.2 14.2 15.1 15.1 15 16 C14.7 16.8 14.4 17.5 14.1 18.3 C13.6 19 13.2 19.7 12.8 20.4 C12.4 21 11.9 21.7 11.4 22.3 C11 22.9 10.5 23.4 10 24 C9.2 24.8 8.3 25.6 7.4 26.4 C6.6 26.9 5.8 27.4 5 28 C4.4 28.4 3.8 28.7 3.1 29.1 C2.4 29.4 1.7 29.7 1 30 C0.3 30.1 -0.5 30.2 -1.2 30.3 C-2 30.3 -2.7 30.3 -3.5 30.2 C-4.3 30.3 -5 30.3 -5.8 30.3 C-6.5 30.2 -7.2 30.1 -8 30 C-8.7 29.7 -9.4 29.5 -10.2 29.2 C-10.8 28.8 -11.4 28.4 -12 28 C-12.6 27 -13.2 26 -13.9 24.9 C-14.1 24.3 -14.3 23.7 -14.6 23.1 C-14.7 22.4 -14.9 21.7 -15 21 C-15 20.3 -14.9 19.5 -14.9 18.8 C-14.7 17.6 -14.7 17.6 -14.4 16.4 C-14.2 15.7 -14 14.9 -13.8 14.1 C-13.5 13.4 -13.3 12.7 -13 12 C-12.4 10.9 -11.8 9.8 -11.2 8.7 C-10.5 7.8 -9.7 6.9 -9 6 C-8.2 5.3 -7.4 4.5 -6.5 3.8 C-5.7 3.2 -4.9 2.6 -4 2 C-3.4 1.6 -2.8 1.3 -2.1 0.9 C-1.4 0.6 -0.7 0.3 0 0 Z " transform="translate(729,495)" fill="currentColor" />
<path d="M0 0 C1.1 0.2 1.1 0.2 2.1 0.4 C3.3 0.7 3.3 0.7 4.5 1 C5.7 1.4 5.7 1.4 6.9 1.9 C7.9 2.4 7.9 2.4 9 3 C9.9 3.9 10.9 4.8 11.9 5.8 C12.6 6.8 13.3 7.9 14 9 C14.9 10.6 14.9 10.6 15.8 12.2 C16.2 13.4 16.6 14.7 17 16 C17.1 16.9 17.2 17.8 17.3 18.7 C17.4 19.6 17.4 20.6 17.4 21.6 C17.4 22.5 17.4 23.4 17.4 24.4 C17.2 25.3 17.1 26.1 17 27 C16.6 28 16.6 28 16.1 29 C15.6 29.8 15.6 29.8 15.1 30.6 C14.4 31.4 13.7 32.2 13 33 C12.7 33.3 12.3 33.7 12 34 C11.3 34.1 10.6 34.2 9.9 34.3 C8.6 34.3 8.6 34.3 7.3 34.4 C6.4 34.4 5.5 34.3 4.6 34.3 C3.7 34.2 2.9 34.1 2 34 C0.9 33.3 -0.2 32.7 -1.4 32 C-2.2 31 -3.1 30 -4 29 C-4.4 28.3 -4.8 27.7 -5.2 27 C-5.8 26 -5.8 26 -6.3 24.9 C-6.6 24.3 -6.9 23.6 -7.2 23 C-7.5 22.3 -7.7 21.7 -8 21 C-8.2 20.3 -8.4 19.7 -8.6 19 C-8.7 18.3 -8.9 17.7 -9 17 C-9.1 15.9 -9.2 14.9 -9.3 13.8 C-9.2 12.5 -9.1 11.3 -9 10 C-8.6 8.9 -8.6 8.9 -8.3 7.8 C-7.8 6.8 -7.8 6.8 -7.3 5.7 C-6.9 5 -6.6 4.4 -6.2 3.7 C-5.8 3.1 -5.4 2.6 -5 2 C-4.3 1.4 -3.6 0.9 -2.8 0.3 C-1.4 0.2 -1.4 0.2 0 0 Z " transform="translate(603,530)" fill="currentColor" />
<path d="M0 0 C1.3 -0.1 2.6 -0.2 3.9 -0.3 C5.3 -0.4 6.7 -0.4 8.1 -0.4 C9.5 -0.4 10.9 -0.4 12.3 -0.3 C14.1 -0.2 14.1 -0.2 16 0 C16.9 0.2 17.8 0.4 18.7 0.6 C19.4 0.8 20.1 1.1 20.8 1.3 C21.9 1.9 22.9 2.4 24 3 C24.8 3.7 24.8 3.7 25.7 4.4 C26.1 4.9 26.5 5.5 27 6 C27.2 6.9 27.4 7.9 27.6 8.8 C27.4 9.9 27.2 10.9 27 12 C26.3 12.8 26.3 12.8 25.6 13.7 C24.8 14.4 24.8 14.4 23.9 15.2 C23.2 15.7 22.6 16.2 21.9 16.7 C21.3 17.2 20.6 17.6 20 18 C19.1 18.4 18.2 18.9 17.3 19.3 C16.2 19.5 15.1 19.8 14 20 C12.7 20.2 12.7 20.2 11.3 20.4 C10.3 20.5 9.3 20.6 8.2 20.8 C7.2 20.8 6.2 20.9 5.1 21 C3.6 21 3.6 21 2 21 C1.1 20.9 0.2 20.9 -0.8 20.8 C-1.6 20.7 -2.5 20.5 -3.4 20.4 C-4.6 20.1 -4.6 20.1 -5.8 19.8 C-6.5 19.5 -7.3 19.3 -8 19 C-8.6 18.6 -9.3 18.3 -9.9 17.9 C-10.5 17.5 -11 17.1 -11.6 16.6 C-12.4 15.8 -13.2 14.9 -14 14 C-14.4 13.4 -14.8 12.7 -15.2 12.1 C-15.1 11.4 -15.1 10.7 -15 10 C-14.4 9 -13.8 8 -13.2 7 C-12.7 6.5 -12.2 6 -11.8 5.5 C-11.2 5 -10.6 4.5 -10 4 C-9.3 3.6 -8.7 3.2 -8 2.7 C-7.2 2.4 -6.5 2 -5.7 1.6 C-4.8 1.3 -4 1 -3.1 0.7 C-2.1 0.5 -1 0.2 0 0 Z " transform="translate(352,543)" fill="currentColor" />
<path d="M0 0 C1.5 0.1 1.5 0.1 2.9 0.2 C3.9 0.5 5 0.7 6 1 C6.9 1.6 7.9 2.3 8.8 2.9 C9.5 3.6 10.3 4.3 11 5 C11.3 5.7 11.7 6.3 12 7 C12.1 7.6 12.2 8.2 12.3 8.8 C12.3 9.9 12.3 9.9 12.4 11.1 C12.4 11.9 12.4 12.7 12.3 13.5 C12.2 14.3 12.1 15.1 12 16 C11.7 16.8 11.4 17.6 11.1 18.5 C10.6 19.2 10.2 20 9.8 20.8 C9.4 21.6 8.9 22.3 8.4 23.1 C8 23.7 7.5 24.3 7 25 C6.2 25.8 5.4 26.6 4.6 27.4 C3.7 28 2.9 28.5 2 29 C1.1 29.4 0.1 29.8 -0.9 30.2 C-1.9 30.5 -2.9 30.7 -4 31 C-5.2 31.1 -6.4 31.2 -7.6 31.3 C-8.7 31.2 -9.8 31.1 -11 31 C-11.9 30.6 -12.9 30.2 -13.8 29.8 C-14.9 28.9 -14.9 28.9 -16 28 C-16.4 27.4 -16.9 26.9 -17.3 26.3 C-17.5 25.5 -17.8 24.8 -18 24 C-18.2 22.8 -18.3 21.6 -18.5 20.4 C-18.5 19.7 -18.5 19 -18.4 18.3 C-18.3 17.5 -18.1 16.8 -18 16 C-17.6 15.2 -17.3 14.3 -16.9 13.4 C-16.5 12.6 -16 11.7 -15.5 10.8 C-15 10 -14.4 9.1 -13.9 8.3 C-13.2 7.5 -12.6 6.8 -12 6 C-11.3 5.4 -10.7 4.9 -10 4.3 C-9.3 3.8 -8.6 3.4 -7.9 2.9 C-6.9 2.4 -6.9 2.4 -5.9 1.8 C-5.3 1.6 -4.7 1.3 -4 1 C-3.3 0.8 -2.6 0.6 -1.9 0.4 C-1 0.2 -1 0.2 0 0 Z " transform="translate(688,544)" fill="currentColor" />
<path d="M0 0 C1.1 -0.1 2.2 -0.2 3.3 -0.4 C5.1 -0.2 5.1 -0.2 7 0 C7.9 0.7 8.9 1.4 9.8 2.1 C10.5 3.1 11.3 4 12 5 C12.7 6.3 12.7 6.3 13.4 7.6 C13.6 8.7 13.8 9.9 14 11 C14 11.8 14 12.7 14 13.5 C14 14.5 13.9 15.4 13.9 16.4 C13.8 17.3 13.7 18.3 13.5 19.2 C13.4 20.2 13.2 21.1 13 22 C12.8 22.8 12.5 23.5 12.2 24.3 C11.9 25 11.6 25.7 11.3 26.4 C10.8 27.3 10.8 27.3 10.2 28.3 C9.8 28.8 9.4 29.4 9 30 C8.5 30.5 8 31 7.5 31.6 C6.9 32 6.4 32.5 5.9 32.9 C4.5 34 4.5 34 3 35 C2 35.5 2 35.5 1 36 C-0.4 36.2 -0.4 36.2 -1.8 36.3 C-2.9 36.2 -3.9 36.1 -5 36 C-5.9 35.4 -6.8 34.8 -7.8 34.2 C-8.5 33.5 -9.2 32.8 -10 32 C-10.6 31.1 -10.6 31.1 -11.1 30.2 C-11.6 29.1 -11.6 29.1 -12 28 C-12.1 27 -12.2 26.1 -12.4 25.1 C-12.4 24 -12.4 23 -12.4 21.9 C-12.4 20.7 -12.4 19.6 -12.4 18.4 C-12.3 17.3 -12.1 16.2 -12 15 C-11.7 14 -11.4 13.1 -11.1 12.1 C-10.6 11.2 -10.2 10.3 -9.8 9.4 C-9.4 8.6 -8.9 7.8 -8.4 7 C-8 6.4 -7.5 5.7 -7 5 C-6.1 4.2 -5.2 3.3 -4.3 2.4 C-3.2 1.7 -3.2 1.7 -2 1 C-1.3 0.7 -0.7 0.3 0 0 Z " transform="translate(474,599)" fill="currentColor" />
<path d="M0 0 C1.8 -0.2 1.8 -0.2 3.6 -0.3 C4.3 -0.3 5 -0.3 5.7 -0.3 C6.5 -0.2 7.2 -0.1 8 0 C8.8 0.2 9.6 0.4 10.4 0.6 C12.1 1.2 13.8 1.8 15.5 2.4 C16.3 2.8 17.2 3.1 18.1 3.5 C19 3.9 20 4.2 20.9 4.6 C23.6 5.7 26.3 6.8 29 8 C30.4 8.7 31.8 9.3 33.1 10 C34.3 10.7 35.5 11.3 36.7 12 C37.8 12.7 38.9 13.3 40 14 C41.9 15.3 43.9 16.6 45.8 18 C46.6 18.6 47.4 19.3 48.3 19.9 C49.9 21.3 51.5 22.6 53 24 C55.4 26.3 57.8 28.6 60.2 30.9 C60.8 31.6 61.4 32.3 62 33 C62.4 33.7 62.8 34.4 63.3 35 C63.5 35.7 63.7 36.3 64 37 C64 38.2 64 39.3 63.9 40.5 C63.5 42.2 63.5 42.2 63 44 C62.3 44.8 61.6 45.6 60.8 46.4 C59.9 47 59 47.5 58 48 C56.6 48.3 56.6 48.3 55.2 48.7 C54.1 48.5 53.1 48.2 52 48 C51.4 47.6 50.8 47.1 50.2 46.7 C49.5 46.1 48.9 45.6 48.2 45 C46.1 43.1 44.1 41.1 42.1 39.1 C40.6 37.7 39.2 36.4 37.7 35.1 C36.8 34.4 35.9 33.7 35 33 C33.8 32.2 32.6 31.4 31.3 30.7 C29.3 29.5 27.2 28.3 25.2 27.2 C23.8 26.4 22.4 25.7 21 25 C20.3 24.7 19.7 24.3 19 24 C17.8 23.5 16.6 23 15.4 22.4 C13.2 21.6 11 20.8 8.9 20 C7.9 19.7 7 19.3 6 19 C4.5 18.5 2.9 17.9 1.4 17.4 C0.3 16.9 -0.9 16.5 -2 16 C-2.5 15.5 -3.1 15.1 -3.7 14.6 C-4.1 14.1 -4.5 13.5 -5 13 C-5.3 12.1 -5.6 11.1 -5.9 10.1 C-5.9 9.1 -6 8.1 -6 7 C-5.6 6.1 -5.2 5.2 -4.8 4.2 C-4.2 3.5 -3.6 2.8 -3 2 C-2 1.3 -1 0.7 0 0 Z " transform="translate(766,611)" fill="currentColor" />
<path d="M0 0 C1.1 -0.1 2.1 -0.2 3.2 -0.3 C5.1 -0.2 5.1 -0.2 7 0 C8 0.5 9 1 10.1 1.6 C11.5 2.8 11.5 2.8 13 4 C13.5 4.5 14.1 5.1 14.6 5.6 C15.2 6.2 15.7 6.8 16.2 7.4 C16.7 8 17.2 8.7 17.7 9.3 C18.2 9.8 18.6 10.4 19 11 C19.4 11.8 19.9 12.6 20.3 13.4 C20.7 14.7 20.7 14.7 21 16 C21.3 17.2 21.5 18.5 21.8 19.8 C21.9 20.4 22 21.1 22 21.8 C22 22.5 22 23.3 22 24 C21.8 24.8 21.7 25.6 21.5 26.4 C21.3 27.2 21.1 28 20.8 28.8 C20.5 29.6 20.2 30.3 19.9 31.1 C19.6 31.7 19.3 32.3 19 33 C18.1 34 18.1 34 17.2 35.1 C16.5 35.4 15.8 35.7 15 36 C13.9 36.1 12.8 36.3 11.7 36.4 C10.5 36.3 9.3 36.1 8 36 C6.8 35.5 5.6 35.1 4.4 34.6 C3.9 34.2 3.3 33.8 2.7 33.5 C2.1 33 1.6 32.5 1 32 C0.4 31.3 -0.1 30.7 -0.7 30 C-1.2 29.2 -1.8 28.5 -2.3 27.7 C-2.8 26.9 -3.3 26.1 -3.8 25.3 C-4.2 24.5 -4.6 23.8 -5 23 C-5.5 21.9 -5.9 20.7 -6.4 19.6 C-6.6 18.4 -6.8 17.2 -7 16 C-7 15.2 -7 14.4 -7 13.5 C-7 12.6 -6.9 11.8 -6.9 10.9 C-6.8 10 -6.7 9.2 -6.6 8.3 C-6.4 7.5 -6.2 6.8 -6 6 C-5 4.5 -5 4.5 -4.1 2.9 C-3.4 2.3 -2.7 1.7 -2 1 C-1.3 0.7 -0.7 0.3 0 0 Z " transform="translate(243,618)" fill="currentColor" />
<path d="M0 0 C1.3 0 2.6 0.1 3.9 0.1 C4.6 0.2 5.3 0.3 6 0.4 C6.7 0.6 7.3 0.8 8 1 C8.8 1.8 9.6 2.6 10.4 3.4 C11 4.2 11.5 5.1 12 6 C12.3 7 12.7 8 13 9 C13.1 9.9 13.2 10.7 13.2 11.6 C13.3 12.6 13.3 13.6 13.3 14.6 C13.3 16.2 13.3 16.2 13.3 17.9 C13.2 18.9 13.1 19.9 13 21 C12.8 21.9 12.6 22.7 12.4 23.6 C12 24.3 11.7 25.1 11.4 25.9 C10.9 26.9 10.9 26.9 10.3 28 C9.9 28.7 9.5 29.3 9 30 C8.2 30.9 8.2 30.9 7.5 31.9 C6.6 32.7 6.6 32.7 5.8 33.6 C5.1 34 4.5 34.5 3.9 35 C3.3 35.3 2.7 35.6 2 36 C1 36.2 1 36.2 -0.1 36.5 C-1.1 36.6 -1.1 36.6 -2.1 36.6 C-3.4 36.4 -4.7 36.2 -6 36 C-6.9 35.5 -7.9 34.9 -8.9 34.4 C-9.6 33.6 -10.3 32.8 -11 32 C-11.4 31.1 -11.9 30.2 -12.3 29.3 C-12.5 28.2 -12.8 27.1 -13 26 C-13.1 25 -13.1 25 -13.3 24 C-13.3 23.2 -13.3 22.5 -13.4 21.8 C-13.4 21 -13.3 20.2 -13.3 19.4 C-13.2 18.6 -13.1 17.8 -13 17 C-12.8 16.1 -12.6 15.3 -12.3 14.4 C-11.9 13.1 -11.9 13.1 -11.4 11.8 C-11.1 11 -10.7 10.2 -10.3 9.3 C-9.7 8.2 -9.7 8.2 -9 7 C-8.4 6.4 -7.8 5.7 -7.2 5.1 C-6.6 4.5 -6 4 -5.4 3.4 C-4.8 3 -4.2 2.5 -3.6 2.1 C-3.1 1.7 -2.5 1.4 -2 1 C-1.3 0.7 -0.7 0.3 0 0 Z " transform="translate(409,638)" fill="currentColor" />
<path d="M0 0 C1.7 -0.3 1.7 -0.3 3.5 -0.6 C4.7 -0.4 5.8 -0.2 7 0 C7.9 0.6 8.9 1.2 9.9 1.8 C10.6 2.5 11.3 3.3 12 4 C12.3 5 12.7 6 13 7 C13.1 8 13.1 9 13.2 10 C13.2 13.3 13.2 16.5 13.2 19.8 C13.2 21.9 13.3 24 13.3 26 C13.3 27.4 13.3 28.7 13.3 30.1 C13.3 31.9 13.3 31.9 13.4 33.7 C13.2 35.3 13.2 35.3 13 37 C12.6 37.9 12.1 38.9 11.7 39.8 C11.1 40.5 10.6 41.3 10 42 C9 42.7 8 43.3 7 44 C6.1 44.1 5.1 44.2 4.1 44.4 C3.1 44.3 2.1 44.1 1 44 C0.1 43.4 -0.9 42.8 -1.8 42.1 C-2.9 41.1 -2.9 41.1 -4 40 C-4.3 39.3 -4.7 38.7 -5 38 C-5.1 37 -5.1 35.9 -5.2 34.8 C-5.3 31.2 -5.3 27.6 -5.4 24 C-5.4 22.5 -5.4 20.9 -5.4 19.4 C-5.5 17.1 -5.5 14.9 -5.5 12.6 C-5.5 11.9 -5.6 11.3 -5.6 10.5 C-5.6 9.9 -5.6 9.2 -5.6 8.6 C-5.4 7.4 -5.2 6.2 -5 5 C-4.2 4 -3.5 3.1 -2.7 2.1 C-1.8 1.4 -0.9 0.7 0 0 Z " transform="translate(713,647)" fill="currentColor" />
<path d="M0 0 C1.3 -0.2 2.6 -0.3 3.9 -0.5 C5 -0.5 5 -0.5 6 -0.5 C6.7 -0.3 7.3 -0.2 8 0 C8.5 0.4 9.1 0.8 9.6 1.3 C10 1.8 10.5 2.3 10.9 2.9 C12 4.4 12 4.4 13 6 C13.3 6.7 13.7 7.3 14 8 C14.1 8.8 14.2 9.7 14.2 10.5 C14.3 12.6 14.3 14.7 14.3 16.8 C14.1 18.4 14.1 18.4 14 20 C13.8 20.9 13.5 21.7 13.3 22.6 C13 23.4 12.6 24.1 12.3 24.9 C11.9 25.6 11.6 26.4 11.2 27.1 C10.8 27.7 10.4 28.4 10 29 C8.8 30.5 8.8 30.5 7.6 31.9 C6.7 32.6 5.9 33.3 5 34 C3.8 34.7 3.8 34.7 2.6 35.4 C1.7 35.6 0.9 35.8 0 36 C-1 36 -2 36 -3 36 C-4 35.7 -5 35.3 -6 35 C-6.5 34.6 -7 34.1 -7.5 33.7 C-7.9 33.2 -8.4 32.7 -8.8 32.1 C-9.5 31.1 -10.3 30.1 -11 29 C-11.3 28 -11.7 27 -12 26 C-12.1 25.4 -12.2 24.7 -12.2 24.1 C-12.3 23.4 -12.3 22.7 -12.3 21.9 C-12.3 21.1 -12.3 20.4 -12.3 19.5 C-12.2 18.7 -12.1 17.9 -12 17 C-11.6 15.7 -11.6 15.7 -11.2 14.4 C-10.9 13.5 -10.6 12.6 -10.2 11.8 C-9.9 10.9 -9.5 10.1 -9.1 9.2 C-8.8 8.5 -8.4 7.8 -8 7 C-7.3 6 -6.7 5 -6 4 C-5.3 3.3 -4.7 2.7 -4 2 C-3.1 1.4 -3.1 1.4 -2.2 0.7 C-1.5 0.5 -0.8 0.2 0 0 Z " transform="translate(445,663)" fill="currentColor" />
<path d="M0 0 C0.6 -0.1 1.3 -0.3 1.9 -0.4 C2.9 -0.5 2.9 -0.5 4 -0.6 C4.7 -0.5 5.4 -0.5 6.1 -0.4 C6.7 -0.3 7.3 -0.2 8 0 C8.9 0.7 9.9 1.4 10.9 2.1 C11.6 3.1 12.3 4 13 5 C13.7 6.3 13.7 6.3 14.4 7.6 C14.6 8.7 14.8 9.9 15 11 C15 11.8 15 12.7 15 13.5 C15 14.5 14.9 15.4 14.9 16.4 C14.8 17.3 14.7 18.3 14.5 19.2 C14.4 20.2 14.2 21.1 14 22 C13.8 22.8 13.5 23.5 13.2 24.3 C12.9 25 12.6 25.7 12.3 26.4 C12 27 11.6 27.6 11.2 28.3 C10.8 28.8 10.4 29.4 10 30 C9.6 30.5 9.1 31 8.6 31.6 C7.9 32.2 7.9 32.2 7.2 32.9 C6.1 33.6 5.1 34.3 4 35 C2.2 35.5 2.2 35.5 0.4 36 C-0.7 36 -1.8 36 -3 36 C-3.9 35.6 -4.8 35.3 -5.8 34.9 C-6.5 34.3 -7.2 33.6 -8 33 C-8.6 32.3 -9.2 31.5 -9.8 30.8 C-10.2 29.8 -10.6 28.9 -11 28 C-11.3 26.9 -11.5 25.9 -11.8 24.8 C-11.9 23.5 -11.9 22.3 -12 21 C-11.9 19.9 -11.9 19.9 -11.8 18.8 C-11.6 18.1 -11.5 17.3 -11.4 16.6 C-11.2 15.8 -11 15.1 -10.8 14.3 C-10.5 13.5 -10.3 12.8 -10 12 C-9.6 11.3 -9.3 10.5 -8.9 9.8 C-8.5 9.1 -8.1 8.4 -7.7 7.7 C-7 6.7 -7 6.7 -6.3 5.7 C-5.9 5.2 -5.5 4.6 -5 4 C-4.2 3.2 -3.5 2.4 -2.7 1.5 C-1.8 1 -0.9 0.5 0 0 Z " transform="translate(481,686)" fill="currentColor" />
<path d="M0 0 C1 -0.1 1.9 -0.1 2.9 -0.2 C6.1 -0.2 9.2 -0.2 12.3 -0.2 C14.4 -0.2 16.4 -0.3 18.4 -0.3 C19.7 -0.3 21 -0.3 22.3 -0.3 C24 -0.3 24 -0.3 25.8 -0.4 C26.9 -0.2 27.9 -0.1 29 0 C29.9 0.5 30.8 0.9 31.8 1.4 C32.9 2.2 32.9 2.2 34 3 C34.7 3.7 35.3 4.3 36 5 C36.1 6.3 36.3 7.5 36.4 8.8 C36.5 9.8 36.5 9.8 36.6 10.8 C36.4 11.5 36.2 12.3 36 13 C35.3 13.9 34.6 14.7 33.9 15.6 C33 16.4 32 17.2 31 18 C29.8 18.2 28.6 18.4 27.4 18.6 C26.4 18.7 26.4 18.7 25.4 18.7 C24.7 18.7 24 18.7 23.2 18.7 C22.1 18.7 22.1 18.7 21 18.7 C19.5 18.7 17.9 18.7 16.4 18.7 C14 18.6 11.6 18.7 9.3 18.7 C7.8 18.7 6.3 18.7 4.8 18.7 C3.7 18.7 3.7 18.7 2.6 18.7 C1.6 18.7 1.6 18.7 0.6 18.6 C-0.6 18.4 -1.8 18.2 -3 18 C-4 17.2 -4.9 16.5 -5.9 15.7 C-6.6 14.8 -7.3 13.9 -8 13 C-8.2 11.8 -8.4 10.7 -8.6 9.5 C-8.3 7.8 -8.3 7.8 -8 6 C-7.2 5.1 -6.5 4.1 -5.7 3.1 C-4.8 2.4 -3.9 1.7 -3 1 C-2 0.7 -1 0.3 0 0 Z " transform="translate(667,695)" fill="currentColor" />
<path d="M0 0 C1.6 -0.1 1.6 -0.1 3.1 -0.3 C6.9 -0.3 10.7 -0.3 14.4 -0.3 C15.7 -0.3 17.1 -0.3 18.4 -0.4 C19.7 -0.4 20.9 -0.4 22.2 -0.4 C23.4 -0.4 24.5 -0.4 25.7 -0.4 C26.8 -0.2 27.9 -0.1 29 0 C30.1 0.5 31.2 0.9 32.3 1.4 C33.2 1.9 34.1 2.5 35 3 C35.5 3.6 35.9 4.2 36.4 4.8 C36.6 5.5 36.8 6.2 37 7 C37 8.2 36.9 9.3 36.9 10.5 C36.6 11.7 36.3 12.8 36 14 C35.5 14.7 35 15.4 34.4 16.2 C33.6 16.8 32.8 17.4 32 18 C30.8 18.2 29.6 18.3 28.4 18.5 C27 18.5 25.5 18.5 24.1 18.5 C23.3 18.5 22.6 18.5 21.8 18.5 C20.2 18.5 18.6 18.5 17 18.5 C14.5 18.5 12.1 18.5 9.6 18.5 C8 18.5 6.5 18.5 4.9 18.5 C4.2 18.5 3.4 18.5 2.7 18.6 C1.7 18.5 1.7 18.5 0.6 18.5 C-0.6 18.3 -1.8 18.2 -3 18 C-3.8 17.4 -4.6 16.8 -5.4 16.2 C-6 15.5 -6.5 14.7 -7 14 C-7.5 12.3 -7.5 12.3 -7.9 10.6 C-8 9.4 -8 8.2 -8 7 C-7.6 6.1 -7.3 5.1 -6.9 4.2 C-6.3 3.5 -5.6 2.7 -5 2 C-4.3 1.6 -3.5 1.3 -2.8 0.9 C-1.9 0.6 -1 0.3 0 0 Z " transform="translate(738,695)" fill="currentColor" />
<path d="M0 0 C1.2 0.2 2.3 0.4 3.5 0.6 C4.7 1.1 5.8 1.5 7 2 C7.6 2.7 8.2 3.4 8.8 4.1 C9.4 5.5 9.4 5.5 10 7 C10 8.1 10 9.3 10 10.5 C9 17.5 9 17.5 8.4 20.9 C8 22.8 7.7 24.8 7.3 26.7 C7 27.9 6.7 29.1 6.4 30.3 C5.9 32.1 5.9 32.1 5.4 34 C4.9 35.3 4.5 36.7 4 38 C3.4 39.6 2.7 41.2 2.1 42.7 C1 45.2 -0.2 47.7 -1.4 50.1 C-2.1 51.7 -2.9 53.3 -3.8 54.8 C-4.2 55.5 -4.6 56.3 -5 57 C-5.4 57.6 -5.8 58.3 -6.2 59 C-7 60.1 -7.9 61.3 -8.7 62.4 C-9.8 63.9 -10.9 65.3 -12.1 66.8 C-13.2 68.1 -14.4 69.4 -15.5 70.8 C-16 71.2 -16.5 71.6 -17 72 C-18.1 72.3 -19.2 72.6 -20.4 72.9 C-21.6 72.9 -22.8 73 -24 73 C-24.9 72.6 -25.9 72.2 -26.8 71.8 C-27.5 71.2 -28.3 70.6 -29 70 C-29.5 69.4 -29.9 68.8 -30.4 68.2 C-30.6 67.5 -30.8 66.8 -31 66 C-31 65 -31.1 63.9 -31.1 62.9 C-31 62.3 -30.9 61.7 -30.8 61 C-30.5 60.4 -30.3 59.7 -30 59 C-29.5 58.3 -29 57.6 -28.4 56.9 C-27.8 56.1 -27.1 55.4 -26.4 54.6 C-25.7 53.7 -25 52.8 -24.3 52 C-23.5 51 -22.8 50 -22 49 C-21.6 48.4 -21.3 47.9 -20.9 47.3 C-20.2 46.1 -19.5 44.9 -18.8 43.7 C-18.1 42.3 -17.5 41 -16.8 39.7 C-16.1 38.3 -15.5 36.8 -14.9 35.4 C-14.6 34.6 -14.3 33.8 -14 33 C-13.5 31.2 -12.9 29.4 -12.5 27.6 C-11.6 24 -10.8 20.4 -10 16.8 C-9.8 16 -9.7 15.2 -9.5 14.4 C-9 12.1 -8.5 9.8 -8 7.5 C-7.5 5.8 -7.5 5.8 -7 4 C-6.4 3.4 -5.7 2.7 -5.1 2.1 C-4.4 1.7 -3.7 1.4 -3 1 C-2 0.7 -1 0.3 0 0 Z " transform="translate(578,717)" fill="currentColor" />
<path d="M0 0 C1 -0.3 1 -0.3 2.1 -0.6 C2.7 -0.6 3.4 -0.6 4.1 -0.6 C5.4 -0.4 6.7 -0.2 8 0 C9.2 0.9 9.2 0.9 10.4 1.8 C11 2.5 11.5 3.3 12 4 C12.3 5 12.7 6 13 7 C13.1 8 13.1 9 13.2 10 C13.2 13.3 13.2 16.5 13.2 19.8 C13.2 21.9 13.3 24 13.3 26 C13.3 27.4 13.3 28.7 13.3 30.1 C13.3 31.9 13.3 31.9 13.4 33.7 C13.2 35.3 13.2 35.3 13 37 C12.5 37.9 12.1 38.9 11.6 39.8 C10.8 40.9 10.8 40.9 10 42 C9.4 42.5 8.8 42.9 8.2 43.4 C7.5 43.6 6.8 43.8 6 44 C4.8 44 3.7 44 2.5 43.9 C1.3 43.6 0.2 43.3 -1 43 C-2.1 42 -2.1 42 -3.2 40.9 C-3.8 40 -4.4 39 -5 38 C-5.2 36.8 -5.4 35.7 -5.5 34.5 C-5.6 33.1 -5.6 31.8 -5.6 30.5 C-5.6 29.8 -5.6 29 -5.6 28.3 C-5.6 26.8 -5.6 25.3 -5.6 23.8 C-5.6 21.5 -5.6 19.2 -5.6 16.9 C-5.6 15.5 -5.6 14 -5.6 12.5 C-5.6 11.5 -5.6 11.5 -5.7 10.5 C-5.7 9.5 -5.7 9.5 -5.6 8.5 C-5.4 7.4 -5.2 6.2 -5 5 C-4.2 4 -3.4 3.1 -2.6 2.1 C-1.7 1.4 -0.9 0.7 0 0 Z " transform="translate(713,718)" fill="currentColor" />
<path d="M0 0 C1.1 0 2.2 0 3.4 0.1 C5.2 0.5 5.2 0.5 7 1 C7.5 1.4 8 1.8 8.5 2.3 C9 2.8 9.4 3.3 9.9 3.8 C10.6 4.9 11.3 5.9 12 7 C12.3 7.6 12.5 8.2 12.8 8.9 C13 10.8 13.1 12.7 13.3 14.6 C13.3 15.3 13.3 16 13.3 16.7 C13.1 17.8 13.1 17.8 13 19 C12.8 19.8 12.5 20.7 12.2 21.6 C11.9 22.4 11.6 23.3 11.2 24.2 C10.7 25.4 10.7 25.4 10.1 26.7 C9.8 27.5 9.4 28.2 9 29 C8.4 30 7.8 30.9 7.2 31.9 C6.1 33 6.1 33 5 34 C3.9 34.6 2.8 35.3 1.7 35.9 C0.5 36.3 -0.7 36.6 -2 37 C-3.2 36.9 -4.4 36.7 -5.7 36.6 C-6.8 36 -7.9 35.5 -9 35 C-9.8 34.3 -10.6 33.5 -11.4 32.8 C-11.7 32.2 -12 31.7 -12.3 31.2 C-12.6 30.4 -12.8 29.7 -13 29 C-13.2 27.4 -13.2 27.4 -13.4 25.8 C-13.4 24.6 -13.5 23.4 -13.5 22.1 C-13.5 20.9 -13.4 19.7 -13.4 18.4 C-13.3 17.3 -13.1 16.2 -13 15 C-12.8 14.2 -12.5 13.4 -12.3 12.5 C-12 11.9 -11.7 11.2 -11.4 10.5 C-11 9.9 -10.7 9.3 -10.3 8.7 C-9.9 8.1 -9.4 7.6 -9 7 C-8.5 6.4 -8 5.8 -7.5 5.2 C-7 4.7 -6.5 4.1 -5.9 3.6 C-5 2.7 -4 1.9 -3 1 C-2 0.7 -1 0.3 0 0 Z " transform="translate(418,726)" fill="currentColor" />
<path d="M0 0 C1 -0.3 1 -0.3 1.9 -0.6 C2.6 -0.6 3.3 -0.7 4 -0.8 C4.6 -0.8 5.3 -0.8 5.9 -0.8 C6.6 -0.5 7.3 -0.3 8 0 C8.9 0.8 9.7 1.6 10.6 2.5 C11.3 3.3 11.3 3.3 11.9 4.1 C12.5 5.1 12.5 5.1 13 6 C13.2 6.7 13.4 7.4 13.7 8 C13.9 9.1 13.9 9.1 14.1 10.2 C14.3 11.8 14.6 13.4 14.8 15 C14.9 15.8 15 16.7 15.1 17.6 C15.6 21.3 16 25 16.4 28.7 C16.6 31 16.8 33.2 16.9 35.4 C17 39.5 17.1 43.5 17.2 47.5 C17.2 49.8 17.2 52.2 17.1 54.5 C17 57.2 16.8 59.8 16.7 62.5 C16.4 66.2 16 70 15.6 73.7 C15.2 77.1 14.8 80.4 14.3 83.8 C13.9 86.5 13.4 89.2 13 91.9 C12.7 92.9 12.3 93.9 12 95 C11.4 95.8 10.8 96.6 10.1 97.4 C9.4 97.9 8.7 98.4 8 99 C6.8 99.3 5.7 99.6 4.5 99.9 C3.3 99.9 2.2 100 1 100 C-0.1 99.6 -0.1 99.6 -1.3 99.2 C-1.9 98.8 -2.4 98.4 -3 98 C-3.7 97 -4.3 96 -5 95 C-5.1 94.2 -5.2 93.5 -5.2 92.7 C-5.2 90.8 -5.2 89 -5.2 87.1 C-5.1 86.1 -5.1 85 -5 84 C-4.8 82.1 -4.6 80.2 -4.3 78.3 C-4.1 76.3 -3.8 74.3 -3.5 72.2 C-2.9 67.8 -2.4 63.4 -2 59 C-1.9 57 -1.8 55.1 -1.7 53.1 C-1.6 50.3 -1.6 47.5 -1.6 44.6 C-1.7 42.7 -1.7 40.9 -1.8 39 C-1.9 36.9 -2.1 34.8 -2.3 32.8 C-2.9 27.5 -3.6 22.3 -4.3 17 C-4.6 15.4 -4.8 13.7 -5 12 C-5.1 10.9 -5.1 9.7 -5.2 8.5 C-5.1 7.7 -5.1 6.9 -5 6 C-4.3 4.9 -3.7 3.8 -3 2.6 C-2 1.8 -1 0.9 0 0 Z " transform="translate(629,730)" fill="currentColor" />
<path d="M0 0 C1 0.1 1 0.1 2.1 0.3 C2.8 0.5 3.6 0.7 4.3 0.9 C5.5 1.4 5.5 1.4 6.7 1.8 C7.4 2.2 8.2 2.6 9 3 C9.7 3.6 10.3 4.1 11 4.7 C11.6 5.4 12.2 6 12.9 6.7 C13.4 7.4 14 8.1 14.6 8.8 C15 9.5 15.5 10.3 16 11 C16.4 11.6 16.7 12.3 17.1 12.9 C17.5 13.9 17.5 13.9 17.9 14.9 C18.1 15.5 18.4 16.2 18.6 16.9 C18.7 17.6 18.9 18.3 19 19 C19.1 19.8 19.2 20.7 19.3 21.5 C19.4 22.4 19.4 23.2 19.4 24.1 C19.4 25.4 19.4 25.4 19.3 26.7 C19.2 27.4 19.1 28.2 19 29 C18.5 30.2 18 31.3 17.4 32.5 C16.6 33.3 15.8 34.1 15 35 C13.4 35.8 13.4 35.8 11.7 36.6 C10.5 36.7 9.3 36.9 8 37 C6.8 36.6 5.6 36.3 4.4 35.9 C2.4 34.8 0.4 33.6 -1.6 32.4 C-2.4 31.6 -3.2 30.8 -4 30 C-4.5 29.3 -4.9 28.6 -5.4 27.9 C-5.8 27 -6.3 26.2 -6.8 25.4 C-7.2 24.5 -7.6 23.6 -8 22.7 C-8.3 21.8 -8.7 20.9 -9 20 C-9.3 18.7 -9.3 18.7 -9.6 17.3 C-9.8 16.5 -9.9 15.6 -10 14.8 C-10 13.9 -10.1 13.1 -10.1 12.3 C-10.1 11.5 -10 10.8 -10 10 C-9.6 8.9 -9.2 7.7 -8.8 6.6 C-8.2 5.7 -7.6 4.9 -7 4 C-6.5 3.4 -6.1 2.8 -5.6 2.2 C-5 1.8 -4.5 1.4 -4 1 C-3.4 0.8 -2.8 0.6 -2.2 0.4 C-1.5 0.2 -0.7 0.1 0 0 Z " transform="translate(324,731)" fill="currentColor" />
</svg>
