<?xml version="1.0" encoding="UTF-8"?>

<svg version="1.1" xmlns="http://www.w3.org/2000/svg" width="1024" height="1024" viewBox="0 0 1024 1024" fill="currentColor">
<path d="M0 0 C1.7 -0.1 3.4 -0.2 5.1 -0.2 C6.9 -0.2 8.8 -0.2 10.6 -0.2 C12 -0.3 12 -0.3 13.4 -0.3 C15.2 -0.3 17 -0.3 18.7 -0.3 C19.9 -0.1 19.9 -0.1 21 0 C22 0.5 23 0.9 24 1.4 C24.7 1.9 25.3 2.4 26 3 C26.6 3.7 27.2 4.5 27.8 5.2 C28.4 6.6 28.4 6.6 29 8 C29.2 9.1 29.3 10.3 29.5 11.4 C29.3 12.6 29.2 13.8 29 15 C28.7 15.6 28.3 16.2 27.9 16.7 C27.5 17.3 27.1 17.8 26.6 18.4 C25.8 19.2 24.9 20.1 24 21 C23.3 21.3 22.7 21.7 22 22 C21.2 22.1 20.5 22.2 19.7 22.2 C18.7 22.3 17.7 22.3 16.8 22.4 C11.1 22.7 5.5 23.1 -0.1 23.7 C-1 23.8 -2 23.9 -3 24 C-3.7 24.1 -4.4 24.3 -5.2 24.4 C-5.8 24.5 -6.4 24.7 -7 24.8 C-8 25.1 -8.9 25.4 -9.9 25.8 C-10.8 26.1 -11.7 26.4 -12.6 26.8 C-14.3 27.6 -16 28.5 -17.7 29.4 C-18.5 29.9 -19.4 30.4 -20.3 30.9 C-21.9 31.9 -23.5 32.9 -25 34 C-25.6 34.4 -26.3 34.9 -26.9 35.3 C-27.5 35.8 -28.1 36.2 -28.7 36.7 C-29.2 37.2 -29.8 37.7 -30.3 38.2 C-30.9 38.8 -31.4 39.4 -32 40 C-32.6 40.8 -33.2 41.7 -33.8 42.5 C-34.5 43.4 -35.1 44.4 -35.7 45.3 C-36.8 47.2 -37.9 49.1 -39 51 C-39.4 51.8 -39.8 52.5 -40.3 53.3 C-40.6 54 -41 54.8 -41.3 55.5 C-41.6 56.2 -41.9 56.9 -42.2 57.6 C-42.4 58.4 -42.7 59.2 -43 60 C-43.2 60.8 -43.4 61.6 -43.6 62.4 C-43.9 64.2 -44.3 66 -44.6 67.9 C-44.7 68.9 -44.9 69.9 -45 71 C-45.1 72 -45.1 73.1 -45.2 74.1 C-45.3 77.6 -45.3 81 -45.3 84.5 C-45.3 86.5 -45.3 88.5 -45.3 90.5 C-45.3 92.6 -45.3 94.7 -45.3 96.9 C-45.3 101.3 -45.3 105.8 -45.3 110.2 C-45.4 122.9 -45.4 135.6 -45.4 148.3 C-45.4 155.3 -45.4 162.3 -45.4 169.4 C-45.5 173.1 -45.5 176.8 -45.5 180.5 C-45.4 187.1 -45.5 193.7 -45.6 200.4 C-45.7 202.6 -45.8 204.8 -46 207 C-46.1 207.9 -46.2 208.8 -46.4 209.8 C-46.5 210.6 -46.7 211.4 -46.8 212.2 C-47.1 213.6 -47.5 215.1 -47.8 216.5 C-48.3 218.2 -48.3 218.2 -48.8 219.9 C-49.4 221.4 -49.4 221.4 -50 223 C-50.5 224.3 -51.1 225.6 -51.6 226.8 C-52.2 228 -52.7 229.1 -53.2 230.3 C-53.9 231.4 -54.5 232.6 -55.1 233.7 C-56.3 235.9 -57.6 238 -58.9 240.1 C-59.6 241 -60.3 242 -60.9 242.9 C-61.6 243.8 -62.3 244.7 -62.9 245.6 C-63.6 246.4 -64.3 247.2 -65 248 C-65.7 248.7 -66.4 249.4 -67.2 250.2 C-68.5 251.4 -69.9 252.5 -71.2 253.7 C-71.8 254.1 -72.4 254.5 -73 255 C-74 255.7 -75 256.3 -76 257 C-76 257.7 -76 258.3 -76 259 C-75.4 259.5 -74.7 260.1 -74.1 260.6 C-73.2 261.2 -72.4 261.9 -71.5 262.5 C-70.6 263.2 -69.7 263.9 -68.7 264.7 C-67.4 265.8 -67.4 265.8 -66 267 C-64.9 268.1 -64.9 268.1 -63.8 269.2 C-62.9 270.3 -62.9 270.3 -61.9 271.5 C-61.2 272.3 -60.6 273.2 -59.9 274.1 C-59.3 275 -58.7 276 -58 277 C-57.3 278.2 -56.6 279.4 -55.9 280.6 C-55.2 282 -54.4 283.3 -53.8 284.6 C-53.4 285.2 -53.1 285.8 -52.8 286.4 C-52.5 287 -52.2 287.7 -51.9 288.3 C-51.2 289.8 -50.6 291.4 -50 293 C-49.7 293.9 -49.3 294.9 -49 295.9 C-48.4 297.7 -47.9 299.5 -47.4 301.4 C-47.1 302.5 -47.1 302.5 -46.9 303.7 C-46.7 304.5 -46.5 305.3 -46.4 306.2 C-46.3 307.1 -46.1 308 -46 309 C-45.8 311.2 -45.7 313.4 -45.6 315.6 C-45.5 323 -45.5 330.5 -45.5 337.9 C-45.5 341.6 -45.5 345.4 -45.5 349.1 C-45.4 357.8 -45.4 366.6 -45.4 375.3 C-45.4 386.4 -45.4 397.5 -45.4 408.6 C-45.4 413 -45.4 417.5 -45.4 421.9 C-45.4 424 -45.4 426.1 -45.4 428.2 C-45.4 430.8 -45.4 433.3 -45.4 435.9 C-45.4 438.1 -45.3 440.4 -45.3 442.7 C-45.2 443.8 -45.1 444.9 -45 446 C-44.8 447.2 -44.6 448.4 -44.4 449.6 C-43.9 451.8 -43.3 454.1 -42.8 456.3 C-42.5 457.2 -42.3 458.1 -42 459 C-41.7 459.7 -41.5 460.4 -41.2 461.1 C-40.9 461.7 -40.7 462.3 -40.4 462.9 C-39.2 465 -38 467 -36.8 469.1 C-35.8 470.8 -34.7 472.5 -33.6 474.1 C-33.1 474.7 -32.7 475.3 -32.2 475.9 C-31.7 476.4 -31.2 476.9 -30.7 477.4 C-30.2 478 -29.6 478.5 -29 479 C-28.2 479.6 -27.5 480.2 -26.7 480.8 C-25.9 481.4 -25 482.1 -24.2 482.7 C-23.3 483.3 -22.5 483.8 -21.6 484.4 C-20.3 485.2 -20.3 485.2 -19 486 C-18.2 486.4 -17.4 486.8 -16.6 487.3 C-15.2 487.9 -13.8 488.6 -12.4 489.2 C-11.6 489.4 -10.8 489.7 -10 490 C-8.8 490.4 -7.5 490.7 -6.3 491.1 C-5.6 491.2 -4.9 491.4 -4.2 491.6 C-3.4 491.7 -2.7 491.9 -2 492 C-1.3 492.1 -0.6 492.2 0.1 492.2 C2.2 492.4 4.4 492.5 6.5 492.6 C10.1 492.7 13.6 492.9 17.2 493.1 C18.2 493.2 18.2 493.2 19.3 493.3 C20.5 493.6 21.7 493.8 23 494 C23.7 494.5 24.4 494.9 25.1 495.4 C25.6 496 26 496.5 26.5 497.1 C27 497.8 27.4 498.4 27.9 499 C28.3 499.7 28.6 500.3 29 501 C29.2 502.2 29.4 503.4 29.6 504.6 C29.4 505.7 29.2 506.8 29 508 C28.4 509.1 27.8 510.2 27.2 511.3 C26.5 512.2 25.8 513.1 25 514 C24.5 514.4 23.9 514.8 23.4 515.1 C22.6 515.4 21.8 515.7 21 516 C19.7 516.1 18.4 516.2 17 516.3 C15.4 516.3 13.8 516.3 12.2 516.3 C11.4 516.3 10.6 516.3 9.7 516.3 C8 516.3 6.2 516.2 4.5 516.2 C3.7 516.1 2.9 516.1 2 516 C0.5 515.9 -0.9 515.7 -2.4 515.5 C-3.7 515.3 -5 515.1 -6.4 514.8 C-7.7 514.5 -9 514.3 -10.3 514 C-11.5 513.7 -12.7 513.3 -14 513 C-15.2 512.6 -16.3 512.3 -17.5 511.9 C-19.2 511.3 -19.2 511.3 -20.9 510.7 C-21.9 510.3 -23 509.8 -24 509.4 C-25.9 508.5 -27.8 507.6 -29.7 506.7 C-30.5 506.2 -31.3 505.7 -32.2 505.2 C-33 504.7 -33.8 504.2 -34.6 503.7 C-35.4 503.2 -36.2 502.6 -37 502 C-37.9 501.3 -38.7 500.6 -39.6 499.9 C-41.3 498.3 -43 496.8 -44.7 495.2 C-45.5 494.5 -46.2 493.7 -47 493 C-47.6 492.5 -48.3 491.9 -48.9 491.4 C-49.5 490.8 -50 490.3 -50.6 489.8 C-51.2 489.3 -51.7 488.7 -52.3 488.1 C-52.8 487.4 -53.4 486.7 -54 486 C-55 484.4 -55 484.4 -56.1 482.8 C-57.1 481 -58.2 479.2 -59.2 477.4 C-60.2 475.6 -61.1 473.8 -62 472 C-62.7 470.5 -62.7 470.5 -63.3 469 C-63.7 468 -64 467.1 -64.4 466.2 C-64.8 464.9 -64.8 464.9 -65.3 463.5 C-65.7 461.9 -66.2 460.3 -66.6 458.7 C-66.8 457.9 -67 457.2 -67.2 456.4 C-67.5 455 -67.7 453.5 -68 452 C-68.2 450.5 -68.4 449 -68.5 447.5 C-68.7 445.7 -68.9 443.8 -69 442 C-69.1 437.7 -69.2 433.4 -69.2 429 C-69.2 427.1 -69.2 425.2 -69.2 423.2 C-69.2 421.2 -69.2 419.1 -69.2 417 C-69.2 412.7 -69.2 408.4 -69.3 404.1 C-69.3 391.8 -69.4 379.6 -69.4 367.3 C-69.4 360.5 -69.4 353.8 -69.5 347 C-69.5 343.4 -69.5 339.8 -69.5 336.2 C-69.5 332.2 -69.6 328.2 -69.6 324.2 C-69.6 323.1 -69.6 321.9 -69.6 320.7 C-69.6 318.5 -69.6 316.3 -69.7 314.2 C-69.8 313.1 -69.9 312.1 -70 311 C-70.2 309.9 -70.4 308.8 -70.6 307.6 C-71.2 305.6 -71.7 303.5 -72.2 301.5 C-72.5 300.7 -72.7 299.8 -73 299 C-73.7 297.4 -73.7 297.4 -74.3 295.7 C-75.3 294 -76.3 292.3 -77.3 290.6 C-77.8 289.7 -78.4 288.9 -79 288 C-79.9 286.8 -79.9 286.8 -80.8 285.5 C-81.5 284.8 -82.1 284 -82.8 283.2 C-83.8 282.1 -83.8 282.1 -84.8 281 C-85.5 280.3 -86.3 279.7 -87 279 C-87.8 278.4 -88.6 277.8 -89.4 277.2 C-90.2 276.7 -91.1 276.2 -91.9 275.6 C-92.8 275.2 -93.6 274.7 -94.5 274.2 C-95.3 273.8 -96.1 273.4 -97 273 C-97.8 272.7 -98.6 272.4 -99.4 272 C-100.1 271.8 -100.9 271.5 -101.6 271.2 C-102.7 270.9 -102.7 270.9 -103.8 270.6 C-104.6 270.4 -105.3 270.2 -106 270 C-106.7 269.9 -107.4 269.7 -108.2 269.6 C-108.9 269.4 -109.5 269.3 -110.2 269.1 C-111.5 268.8 -112.7 268.4 -114 268 C-115.5 266.9 -115.5 266.9 -116.9 265.7 C-117.6 264.8 -118.3 263.9 -119 263 C-119.3 262.2 -119.6 261.4 -119.9 260.6 C-120 259.8 -120 258.9 -120 258 C-119.8 256.8 -119.6 255.6 -119.4 254.4 C-119 253.3 -118.5 252.2 -118 251 C-117.2 250.3 -116.5 249.5 -115.7 248.8 C-115.2 248.4 -114.6 248.1 -114.1 247.8 C-113.4 247.6 -112.7 247.3 -112 247 C-109.9 246.5 -107.8 246 -105.7 245.6 C-104.6 245.3 -103.4 245.1 -102.2 244.8 C-100.6 244.4 -100.6 244.4 -99 244 C-98.2 243.7 -97.3 243.3 -96.5 243 C-95.7 242.6 -95 242.2 -94.2 241.8 C-93.2 241.2 -93.2 241.2 -92.1 240.5 C-90.6 239.4 -89.2 238.4 -87.7 237.3 C-86.9 236.7 -86.2 236.1 -85.4 235.4 C-84.6 234.8 -83.9 234.1 -83.1 233.4 C-82.4 232.6 -81.7 231.8 -81 231 C-80 229.6 -80 229.6 -79 228.1 C-78.4 227.1 -77.8 226.1 -77.1 225.1 C-76.6 224 -76 223 -75.4 222 C-75 221 -74.5 220 -74 219 C-73.6 218.1 -73.3 217.3 -72.9 216.4 C-72.7 215.6 -72.4 214.9 -72.1 214.1 C-71.9 213.4 -71.7 212.7 -71.5 212 C-71.1 210.6 -70.8 209.2 -70.5 207.7 C-70.3 206.8 -70.2 205.9 -70 205 C-70 204.1 -69.9 203.3 -69.9 202.4 C-69.9 201 -69.9 201 -69.9 199.6 C-69.8 198 -69.8 198 -69.8 196.3 C-69.8 194.5 -69.8 194.5 -69.8 192.8 C-69.8 191.5 -69.8 190.3 -69.8 189 C-69.8 186.3 -69.8 183.6 -69.8 180.9 C-69.8 176.6 -69.7 172.3 -69.7 168 C-69.6 155.8 -69.6 143.7 -69.5 131.5 C-69.5 124.7 -69.5 118 -69.4 111.3 C-69.4 107.7 -69.4 104.2 -69.4 100.6 C-69.3 93.1 -69.3 85.6 -69.1 78.1 C-69 76.1 -68.9 74.2 -68.8 72.2 C-68.6 70 -68.3 67.7 -68 65.4 C-67.9 64.3 -67.7 63.1 -67.5 61.9 C-67.2 60.1 -66.9 58.3 -66.5 56.6 C-66.3 55.9 -66.1 55.2 -65.9 54.5 C-65.1 52.2 -64.3 49.8 -63.4 47.5 C-62.9 46.3 -62.5 45.2 -62 44 C-61.3 42.5 -61.3 42.5 -60.7 41 C-60.2 40.1 -59.7 39.2 -59.2 38.2 C-58.5 36.9 -58.5 36.9 -57.7 35.6 C-57.1 34.8 -56.6 33.9 -56 33 C-55.4 32.1 -54.7 31.2 -54 30.2 C-53.3 29.3 -52.6 28.4 -51.9 27.4 C-51.1 26.5 -50.3 25.6 -49.5 24.7 C-48.7 23.8 -47.9 22.9 -47 22 C-46.1 21.1 -45.2 20.2 -44.2 19.3 C-43.3 18.5 -42.3 17.6 -41.3 16.8 C-40.3 15.9 -39.3 15.1 -38.2 14.3 C-37.2 13.5 -36.1 12.8 -35 12 C-33.3 11 -33.3 11 -31.6 10 C-30.5 9.4 -29.3 8.7 -28.1 8.1 C-27 7.6 -25.8 7 -24.6 6.5 C-23.4 6 -22.2 5.5 -21 5 C-19.8 4.6 -18.5 4.2 -17.2 3.7 C-14.9 3 -12.6 2.4 -10.3 1.7 C-9.2 1.5 -8.1 1.2 -7 1 C-5.9 0.8 -4.9 0.6 -3.8 0.4 C-2.5 0.3 -1.3 0.1 0 0 Z " transform="translate(290,254)" fill="currentColor" />
<path d="M0 0 C0.7 -0.1 1.5 -0.2 2.3 -0.3 C5 -0.3 7.7 -0.3 10.4 -0.3 C11.9 -0.3 11.9 -0.3 13.4 -0.3 C15.3 -0.3 17.3 -0.2 19.3 -0.2 C20.2 -0.1 21.1 -0.1 22 0 C22.7 0.1 23.4 0.1 24.2 0.2 C25.1 0.4 25.1 0.4 26.1 0.5 C27.2 0.7 28.4 1 29.6 1.2 C30.6 1.5 31.7 1.7 32.8 2 C35 2.7 37.2 3.4 39.4 4.1 C40.5 4.5 41.6 4.8 42.7 5.2 C43.8 5.7 44.8 6.1 45.9 6.6 C46.9 7 48 7.5 49 8 C50.4 8.7 50.4 8.7 51.8 9.5 C52.7 10 53.6 10.6 54.6 11.1 C55.9 12 55.9 12 57.2 12.9 C59.2 14.4 61.1 15.9 63 17.4 C64.1 18.3 65.1 19.2 66.1 20.1 C67.1 21 68.1 22 69.1 22.9 C69.6 23.4 70.1 23.9 70.6 24.4 C71.1 24.9 71.5 25.5 72 26 C72.4 26.5 72.9 27.1 73.3 27.6 C74.1 28.8 74.9 29.9 75.7 31.1 C76.5 32.2 77.2 33.4 78 34.6 C78.7 35.8 79.4 37 80 38.2 C81 39.9 81.9 41.7 82.8 43.4 C83.6 45.1 83.6 45.1 84.4 46.8 C85.1 48.6 85.7 50.3 86.4 52.1 C86.7 53 86.7 53 87 54 C87.3 55.1 87.6 56.2 87.9 57.3 C88.3 59.3 88.7 61.3 89 63.2 C89.3 64.9 89.5 66.5 89.7 68.2 C89.8 69.1 89.9 70 90 71 C90.2 74.4 90.3 77.8 90.3 81.2 C90.4 87.3 90.4 93.3 90.4 99.3 C90.4 103 90.4 106.7 90.4 110.3 C90.4 121.2 90.4 132 90.4 142.9 C90.4 151.4 90.4 159.9 90.5 168.3 C90.5 172.7 90.5 177 90.5 181.3 C90.5 184.7 90.5 188 90.5 191.4 C90.5 192.6 90.5 193.7 90.5 194.9 C90.5 197.2 90.5 199.4 90.6 201.6 C90.8 202.7 90.9 203.9 91 205 C91.3 206.2 91.5 207.5 91.8 208.8 C92.5 211.1 93.2 213.5 93.9 215.9 C94.2 216.9 94.6 217.9 95 219 C95.5 220 96 221 96.5 222 C96.9 222.8 97.4 223.6 97.9 224.4 C98.4 225.2 98.9 226 99.4 226.8 C100 227.5 100.5 228.3 101 229 C101.4 229.6 101.9 230.3 102.3 230.9 C102.8 231.5 103.2 232.1 103.7 232.7 C104.2 233.2 104.7 233.8 105.2 234.3 C105.8 234.9 106.4 235.4 107 236 C107.9 236.6 108.7 237.3 109.6 237.9 C111.5 239.1 113.4 240.3 115.3 241.5 C116.6 242.3 116.6 242.3 118 243 C118.8 243.4 119.6 243.7 120.4 244.1 C121.7 244.6 121.7 244.6 123 245 C126.3 245.7 129.6 246.3 132.9 246.9 C134.5 247.5 134.5 247.5 136 248 C137.2 249.2 137.2 249.2 138.3 250.4 C139.2 251.7 139.2 251.7 140 253 C140.3 253.9 140.6 254.9 140.9 255.9 C141 257.4 141 257.4 141 259 C140.6 260.2 140.2 261.4 139.8 262.7 C139.2 263.8 138.6 264.9 138 266 C137.2 266.8 137.2 266.8 136.3 267.6 C135.5 268.1 134.8 268.5 134 269 C132.4 269.4 132.4 269.4 130.9 269.8 C129.7 270 128.5 270.2 127.3 270.4 C126.1 270.6 124.8 270.9 123.5 271.1 C122.4 271.4 121.2 271.7 120 272 C119.1 272.3 118.3 272.7 117.4 273 C116.3 273.6 116.3 273.6 115.2 274.2 C114.1 274.8 114.1 274.8 113.1 275.5 C112.4 276 111.7 276.5 111 277 C110.3 277.5 109.5 278.1 108.7 278.6 C108 279.2 107.2 279.8 106.4 280.4 C105.7 281.1 105 281.8 104.2 282.5 C103.5 283.3 102.8 284.2 102 285 C101.3 286.1 100.5 287.1 99.8 288.2 C98.4 290.5 97 292.7 95.7 295 C95.4 295.7 95.1 296.3 94.8 296.9 C94.4 297.9 94.4 297.9 94 299 C93.7 299.8 93.5 300.7 93.2 301.5 C92.6 303.6 92.1 305.6 91.6 307.6 C91.4 308.8 91.2 309.9 91 311 C90.9 312.1 90.8 313.1 90.7 314.2 C90.7 316.4 90.6 318.6 90.6 320.8 C90.6 322 90.6 323.2 90.6 324.4 C90.6 326.4 90.6 328.3 90.6 330.3 C90.6 332.4 90.6 334.5 90.6 336.6 C90.6 341 90.6 345.3 90.6 349.7 C90.5 359 90.5 368.4 90.5 377.7 C90.5 387.7 90.5 397.8 90.4 407.8 C90.4 411.5 90.4 415.1 90.4 418.8 C90.4 426.4 90.4 434.1 90.2 441.8 C90.1 442.9 90.1 443.9 90 445 C89.8 446.8 89.6 448.7 89.4 450.5 C89.1 452 88.9 453.6 88.6 455.1 C88.3 456.4 88.1 457.6 87.8 458.9 C87.5 459.9 87.3 460.9 87 462 C86.7 462.9 86.5 463.7 86.2 464.6 C86 465.3 85.7 466.1 85.4 466.8 C83.1 471.9 83.1 471.9 81.9 474.4 C81.3 475.6 80.6 476.8 80 478 C79.2 479.4 79.2 479.4 78.4 480.8 C77.9 481.6 77.4 482.4 76.9 483.2 C76.3 484 75.7 484.7 75.1 485.5 C73.5 487.4 71.8 489.3 70.2 491.2 C69.1 492.4 68 493.5 66.9 494.6 C65.8 495.7 64.7 496.9 63.5 497.9 C62.7 498.7 62.7 498.7 61.8 499.5 C60.9 500.3 60.9 500.3 60 501 C59.1 501.6 59.1 501.6 58.3 502.3 C57.7 502.7 57.1 503 56.5 503.4 C55.4 504.1 54.2 504.8 53.1 505.5 C51.3 506.4 51.3 506.4 49.5 507.4 C47.2 508.4 44.8 509.5 42.5 510.5 C41.3 511 40.1 511.4 38.9 511.9 C37.8 512.3 36.6 512.6 35.4 513 C34.3 513.4 33.2 513.7 32 514 C30.5 514.4 30.5 514.4 28.9 514.7 C27.4 515 27.4 515 25.8 515.3 C24.8 515.4 23.7 515.6 22.6 515.7 C19.8 515.9 17 516.1 14.2 516.3 C12.5 516.3 10.8 516.3 9.1 516.4 C8.3 516.4 7.5 516.4 6.6 516.5 C5.9 516.5 5.1 516.5 4.3 516.5 C3.6 516.4 2.8 516.4 2.1 516.3 C1 516.2 1 516.2 0 516 C-1.7 515.1 -1.7 515.1 -3.4 514.2 C-4.7 513.1 -4.7 513.1 -6 512 C-6.5 511.3 -6.9 510.7 -7.4 510 C-7.6 509.4 -7.8 508.7 -8 508 C-8.1 506.9 -8.1 506.9 -8.2 505.8 C-8.1 505.1 -8.1 504.3 -8 503.6 C-8 502.8 -7.9 502.1 -7.9 501.3 C-7.6 500.6 -7.3 499.8 -7 499 C-6.2 498.1 -5.5 497.2 -4.7 496.3 C-4.1 495.9 -3.6 495.4 -3 495 C-2.4 494.7 -1.7 494.3 -1 494 C-0.2 493.8 0.7 493.7 1.5 493.5 C2.5 493.4 3.4 493.3 4.4 493.2 C6.4 493.1 8.5 493 10.6 492.9 C13.8 492.7 17 492.5 20.2 492.3 C21.1 492.2 22 492.1 23 492 C23.7 491.9 24.5 491.8 25.2 491.6 C25.8 491.5 26.5 491.4 27.1 491.2 C28.2 490.9 29.3 490.6 30.4 490.2 C31.3 489.9 32.3 489.6 33.3 489.2 C34.2 488.8 35.1 488.4 36 488 C36.9 487.6 37.8 487.1 38.7 486.7 C39.6 486.2 40.4 485.7 41.3 485.2 C42.5 484.4 42.5 484.4 43.7 483.6 C45.2 482.6 46.7 481.5 48.1 480.4 C48.8 479.9 49.5 479.4 50.2 478.8 C50.8 478.2 51.5 477.6 52.1 477 C52.7 476.4 53.4 475.7 54 475 C54.6 474.2 55.3 473.3 55.9 472.5 C56.5 471.6 57.1 470.7 57.8 469.8 C58.3 468.8 58.9 467.9 59.5 466.9 C60 465.9 60.5 465 61 464 C61.4 463 61.9 462.1 62.3 461.1 C63 459.2 63.6 457.4 64.3 455.6 C64.5 454.7 64.8 453.9 65 453 C65.2 452.1 65.4 451.2 65.5 450.2 C65.8 448.6 65.8 448.6 66 447 C66.1 445.6 66.1 445.6 66.1 444.2 C66.1 443.2 66.1 442.2 66.1 441.2 C66.1 440 66.1 438.9 66.1 437.7 C66.1 436.5 66.1 435.3 66.1 434 C66.1 432 66.2 430 66.2 428 C66.2 425.8 66.2 423.6 66.2 421.5 C66.2 417 66.2 412.5 66.2 407.9 C66.2 406.4 66.2 404.8 66.2 403.3 C66.2 402.1 66.2 402.1 66.2 400.9 C66.3 390.4 66.3 379.9 66.3 369.4 C66.3 362.3 66.4 355.2 66.4 348.1 C66.4 344.4 66.4 340.6 66.4 336.9 C66.4 330.1 66.4 323.4 66.6 316.7 C66.7 314.5 66.8 312.2 67 310 C67.2 308.6 67.2 308.6 67.4 307.2 C67.5 306.4 67.7 305.6 67.9 304.7 C68.2 303.3 68.5 301.9 68.9 300.4 C69.2 299.3 69.6 298.2 69.9 297 C70.3 296 70.6 295 71 294 C71.4 292.9 71.7 291.8 72.1 290.7 C72.6 289.3 72.6 289.3 73.1 287.9 C73.5 286.9 74 286 74.4 285 C74.9 284 75.5 283 76 282 C76.7 280.8 77.4 279.6 78.2 278.5 C79 277.2 79.8 276 80.7 274.8 C81.5 273.6 82.4 272.5 83.3 271.3 C84.2 270.2 85.1 269.1 86 268 C86.9 267 87.9 266.1 88.8 265.1 C90.5 263.5 92.2 262 94 260.5 C94.6 260 95.3 259.5 96 259 C96.7 259 97.3 259 98 259 C98 258.3 98 257.7 98 257 C97.5 256.8 96.9 256.6 96.4 256.3 C95.6 255.9 94.8 255.5 94 255 C92.6 253.8 92.6 253.8 91.3 252.6 C89.7 251.1 88.2 249.6 86.6 248.1 C85.6 247 84.5 245.8 83.5 244.7 C83 244.1 82.5 243.6 82 243 C81.2 241.9 80.4 240.9 79.6 239.8 C78.9 238.8 78.3 237.7 77.6 236.6 C76.9 235.5 76.3 234.5 75.7 233.4 C75.1 232.3 74.6 231.1 74 230 C73.5 228.8 73 227.6 72.5 226.4 C71.6 224.1 70.8 221.9 70 219.6 C69.5 217.7 69 215.8 68.5 213.9 C68.1 212.3 67.8 210.6 67.4 208.9 C67.3 208 67.1 207 67 206 C66.9 205 66.9 204 66.8 202.9 C66.7 199.4 66.7 196 66.7 192.5 C66.7 190.5 66.7 188.4 66.7 186.4 C66.7 184.3 66.7 182.1 66.7 179.9 C66.7 175.4 66.7 170.9 66.7 166.4 C66.6 155.2 66.6 144 66.6 132.7 C66.5 124 66.5 115.3 66.5 106.6 C66.4 102.1 66.4 97.6 66.4 93.1 C66.4 90.3 66.4 87.6 66.4 84.8 C66.4 82.9 66.4 81 66.4 79.1 C66.4 76.8 66.4 74.5 66.3 72.3 C66.2 71.2 66.1 70.1 66 69 C65.7 67.3 65.7 67.3 65.4 65.6 C64.8 63.6 64.3 61.5 63.8 59.5 C63.4 58.3 63.4 58.3 63 57 C62.6 55.9 62.1 54.7 61.7 53.6 C60.8 51.7 59.8 49.8 58.8 47.9 C58.2 46.9 57.6 46 57 45 C56.3 44.1 55.6 43.2 54.9 42.2 C54.2 41.4 53.4 40.5 52.7 39.6 C51.5 38.4 51.5 38.4 50.3 37.2 C49.6 36.5 48.8 35.7 48 35 C47.3 34.4 46.6 33.8 45.9 33.2 C45.3 32.7 44.6 32.2 43.9 31.7 C43.1 31.2 42.4 30.8 41.7 30.3 C40.3 29.7 40.3 29.7 39 29 C37.1 28.3 35.2 27.5 33.3 26.9 C31.4 26.2 29.5 25.6 27.6 25 C25.8 24.5 25.8 24.5 24 24 C23.1 23.8 22.1 23.6 21.1 23.4 C19.6 23.2 19.6 23.2 18 23 C16.5 22.9 15 22.9 13.5 22.9 C12.7 22.8 11.8 22.8 11 22.8 C9.3 22.8 7.7 22.7 6 22.7 C5.2 22.7 4.4 22.7 3.5 22.7 C2.8 22.6 2 22.5 1.2 22.5 C0.5 22.3 -0.3 22.2 -1 22 C-1.6 21.7 -2.2 21.3 -2.9 21 C-3.4 20.6 -4 20.2 -4.5 19.7 C-5.3 18.8 -6.2 17.9 -7 17 C-7.3 16.3 -7.6 15.5 -7.9 14.8 C-8.1 13.2 -8.2 11.7 -8.2 10.2 C-8.2 9.5 -8.1 8.8 -8 8 C-7.4 6.9 -6.9 5.7 -6.3 4.6 C-5.5 3.7 -4.8 2.9 -4 2 C-3.4 1.6 -2.8 1.2 -2.1 0.9 C-1.4 0.6 -0.7 0.3 0 0 Z " transform="translate(713,254)" fill="currentColor" />
<path d="M0 0 C3.7 0.1 7.4 0.3 11 0.5 C13.8 0.7 16.5 0.9 19.2 1.2 C21.9 1.5 24.5 1.8 27.2 2.2 C29.8 2.6 32.4 3 35 3.5 C37.5 3.9 40.1 4.5 42.6 5 C45.1 5.6 47.6 6.2 50.1 6.8 C54.2 8 58.3 9.2 62.4 10.4 C64.8 11.2 67.3 12 69.7 12.9 C72.3 13.9 74.9 14.9 77.5 15.9 C80.7 17.3 83.9 18.7 87 20.2 C91.2 22.2 95.5 24.2 99.7 26.4 C101.5 27.4 103.3 28.4 105.1 29.4 C106.6 30.3 108.2 31.3 109.7 32.2 C111.7 33.5 113.8 34.9 115.8 36.3 C118.8 38.4 121.7 40.5 124.6 42.7 C126.7 44.3 128.8 45.9 130.9 47.6 C135.1 51 139.2 54.5 143.3 58.1 C145.3 59.8 147.2 61.5 149.1 63.3 C150.6 64.8 152 66.2 153.5 67.7 C154.9 69.2 156.3 70.8 157.6 72.3 C159.5 74.6 161.4 76.9 163.2 79.3 C164.2 80.5 165.1 81.6 166 82.8 C168.8 86.3 171.6 89.8 174.3 93.4 C175.4 94.9 176.5 96.4 177.5 97.9 C178.5 99.5 179.5 101 180.5 102.6 C181.9 105 183.3 107.3 184.7 109.7 C186 112.1 187.3 114.5 188.5 116.9 C189.1 118.1 189.1 118.1 189.8 119.2 C190.9 121.5 192.1 123.8 193.2 126.1 C194.4 128.5 195.4 130.9 196.5 133.4 C197.2 135.1 197.9 136.9 198.6 138.7 C199.7 141.7 200.8 144.7 201.8 147.7 C202.8 150.7 203.8 153.8 204.7 156.9 C205.5 159.9 206.3 162.9 207.1 166 C207.5 168 208 169.9 208.4 171.9 C208.6 172.7 208.8 173.6 209 174.5 C209.4 176.3 209.7 178.1 210 179.8 C210.5 182.8 211 185.9 211.4 188.9 C211.8 191.8 212.1 194.7 212.4 197.7 C212.5 199.2 212.6 200.7 212.7 202.1 C212.8 205.1 212.9 208 212.9 211 C212.9 213.3 212.9 215.5 212.9 217.8 C212.9 218.6 212.9 219.4 212.9 220.2 C212.9 225.1 212.8 229.9 212.6 234.7 C212.6 236.8 212.4 238.8 212.3 240.9 C212 243.2 211.8 245.6 211.5 247.9 C211 251.2 210.5 254.4 209.9 257.7 C209 261.9 208.1 266.1 207.1 270.3 C206.3 273.5 205.4 276.6 204.5 279.7 C203.6 282.8 202.6 285.9 201.5 288.9 C200.4 292.1 199.3 295.1 198 298.2 C196.8 301.2 195.5 304.2 194.2 307.2 C192.9 310.1 191.6 312.9 190.2 315.7 C188.9 318.3 187.6 320.8 186.2 323.4 C184.8 325.8 183.4 328.2 182 330.6 C180.6 332.9 179.1 335.2 177.6 337.5 C176.1 339.6 174.6 341.8 173.1 343.9 C171.1 346.6 169.2 349.2 167.1 351.7 C165.8 353.5 164.3 355.2 162.9 356.9 C161.4 358.6 159.9 360.3 158.3 362 C154.8 365.8 151.3 369.5 147.7 373.1 C144.7 376.1 141.6 379.1 138.5 381.9 C137.3 383 136.1 384.1 134.8 385.1 C133.2 386.5 131.5 387.9 129.7 389.2 C128 390.4 126.3 391.7 124.5 392.9 C123.9 393.4 123.3 393.8 122.7 394.3 C120.1 396.2 117.4 398.1 114.8 399.9 C112 401.7 109.3 403.5 106.5 405.2 C104.3 406.5 102.2 407.8 100 409 C97.7 410.3 95.4 411.5 93.1 412.7 C90.4 414 87.6 415.3 84.8 416.6 C80.8 418.4 76.7 420.1 72.6 421.7 C69.6 422.8 66.7 423.9 63.8 424.9 C61.2 425.7 58.6 426.6 55.9 427.3 C53.4 428 50.8 428.7 48.2 429.3 C45.4 430 42.5 430.6 39.7 431.2 C35.1 432 30.6 432.9 26 433.6 C23.7 433.9 21.3 434.3 19 434.5 C17.2 434.7 15.4 434.8 13.5 434.9 C7.8 435.1 2.1 435.2 -3.6 435.2 C-4.4 435.2 -5.2 435.2 -6.1 435.2 C-10.8 435.2 -15.6 435.1 -20.3 435 C-22.2 435 -24.2 434.8 -26.1 434.7 C-28.1 434.5 -30.1 434.3 -32.2 434.1 C-34.9 433.8 -37.6 433.4 -40.3 432.9 C-43.8 432.3 -47.2 431.6 -50.7 430.8 C-53.2 430.3 -55.7 429.6 -58.3 429 C-60.7 428.3 -63.1 427.6 -65.5 426.9 C-66.2 426.7 -66.9 426.5 -67.7 426.3 C-69.9 425.6 -72.1 425 -74.3 424.3 C-76.6 423.5 -78.8 422.7 -81.1 421.9 C-83.6 420.9 -86.2 419.8 -88.8 418.8 C-92.5 417.1 -96.2 415.5 -99.9 413.7 C-101.8 412.8 -103.6 411.9 -105.5 410.9 C-108.1 409.5 -110.8 408 -113.5 406.5 C-116 405 -118.5 403.4 -121 401.9 C-123.1 400.5 -125.3 399.1 -127.4 397.6 C-129.1 396.4 -130.7 395.2 -132.4 393.9 C-134.4 392.3 -136.4 390.6 -138.5 388.9 C-139.5 388.2 -140.4 387.4 -141.5 386.5 C-143 385.3 -144.6 384 -146.2 382.7 C-147.9 381.1 -149.7 379.5 -151.5 377.9 C-154.7 374.9 -157.8 371.9 -161 368.8 C-163.4 366.4 -165.8 363.9 -168.2 361.4 C-169.6 359.8 -171 358.3 -172.4 356.7 C-173.6 355.3 -174.7 353.9 -175.9 352.5 C-177.4 350.4 -179 348.3 -180.5 346.2 C-182 344.1 -183.5 341.9 -184.9 339.7 C-186.9 336.7 -188.8 333.6 -190.6 330.5 C-191.9 328.3 -193.2 326.1 -194.5 323.9 C-194.8 323.3 -195.2 322.7 -195.6 322 C-196.6 320.2 -197.6 318.4 -198.6 316.6 C-199.6 314.7 -200.6 312.8 -201.5 311 C-202.5 308.8 -203.5 306.6 -204.5 304.4 C-205.5 302 -206.5 299.5 -207.5 297 C-208.5 294.4 -209.5 291.7 -210.5 288.9 C-211.4 285.9 -212.4 282.9 -213.3 279.9 C-214.2 276.7 -215.1 273.6 -215.9 270.4 C-216.7 267.2 -217.4 264 -218.1 260.8 C-218.7 257.7 -219.3 254.6 -219.8 251.4 C-220.3 248.3 -220.7 245.2 -221.1 242.1 C-221.5 238.9 -221.7 235.8 -222 232.7 C-222.2 229.6 -222.3 226.5 -222.4 223.3 C-222.5 220.2 -222.5 217.1 -222.5 213.9 C-222.4 210.8 -222.2 207.7 -222.1 204.6 C-221.8 201.4 -221.6 198.3 -221.2 195.2 C-221 193.1 -220.7 191 -220.5 188.9 C-220 185.7 -219.4 182.5 -218.8 179.3 C-218 175.1 -217.1 171 -216.2 166.9 C-215.3 163.3 -214.4 159.7 -213.4 156.2 C-212.7 153.7 -212 151.3 -211.2 148.8 C-210.6 147.2 -210 145.6 -209.5 143.9 C-208.4 141.3 -207.4 138.6 -206.3 135.9 C-204.8 132.4 -203.2 128.9 -201.6 125.4 C-200.2 122.3 -198.7 119.3 -197.2 116.2 C-196.1 114.2 -195 112.1 -193.8 110 C-193.1 108.7 -192.3 107.3 -191.5 105.9 C-190.1 103.8 -188.7 101.7 -187.3 99.6 C-185.1 96.3 -182.8 93.1 -180.5 89.9 C-179.2 88.2 -177.9 86.5 -176.5 84.8 C-175.2 83.2 -173.8 81.6 -172.5 79.9 C-172 79.4 -171.6 78.9 -171.1 78.3 C-167.6 74.1 -164.1 70 -160.5 65.9 C-159 64.3 -157.4 62.7 -155.9 61.1 C-154.4 59.7 -153 58.3 -151.5 56.9 C-149.7 55.4 -148 54 -146.2 52.5 C-144.3 51 -142.4 49.5 -140.5 47.9 C-139.5 47.2 -138.6 46.4 -137.6 45.6 C-135.5 43.9 -133.4 42.2 -131.2 40.6 C-130 39.7 -128.7 38.8 -127.5 37.9 C-125.2 36.4 -122.8 34.9 -120.5 33.5 C-117 31.4 -113.6 29.4 -110.1 27.4 C-106.7 25.5 -103.4 23.7 -99.9 22 C-97.4 20.7 -94.7 19.5 -92.1 18.3 C-90.2 17.5 -88.4 16.7 -86.5 15.9 C-83.2 14.7 -80 13.5 -76.7 12.3 C-73.3 11.1 -69.9 10 -66.4 8.9 C-64.1 8.2 -61.8 7.6 -59.5 6.9 C-55.9 6.1 -52.3 5.3 -48.7 4.6 C-43.6 3.6 -38.6 2.7 -33.5 1.9 C-32.1 1.7 -30.7 1.5 -29.3 1.4 C-26.5 1.1 -23.8 0.8 -21.1 0.6 C-16.8 0.3 -12.5 0.1 -8.2 -0 C-5.5 -0.1 -2.8 -0 0 0 Z M-19 23.1 C-21.3 23.3 -23.5 23.5 -25.8 23.7 C-27.9 24 -30.1 24.3 -32.2 24.6 C-33 24.7 -33.7 24.8 -34.5 24.9 C-35.2 25.1 -36 25.2 -36.8 25.3 C-39.3 25.7 -41.8 26.2 -44.3 26.6 C-46.8 27.1 -49.3 27.7 -51.9 28.3 C-53.6 28.7 -55.4 29.2 -57.1 29.7 C-59.8 30.5 -62.4 31.3 -65.1 32.2 C-68.6 33.4 -72 34.6 -75.5 35.9 C-77.8 36.9 -80.1 37.8 -82.5 38.8 C-84.7 39.8 -86.9 40.8 -89.1 41.8 C-91.3 42.9 -93.5 44 -95.6 45.1 C-97.8 46.3 -99.9 47.5 -102.1 48.7 C-104.2 50 -106.3 51.2 -108.4 52.6 C-109.8 53.5 -111.2 54.4 -112.5 55.4 C-115.3 57.3 -118 59.4 -120.7 61.4 C-124.4 64.3 -128.1 67.3 -131.8 70.3 C-134.4 72.5 -136.9 74.7 -139.5 76.9 C-140.9 78.3 -142.3 79.6 -143.7 80.9 C-145 82.3 -146.2 83.6 -147.5 84.9 C-148.9 86.7 -150.4 88.4 -151.8 90.1 C-153.4 92.1 -154.9 94 -156.5 95.9 C-157.3 97 -158.1 98 -158.9 99 C-160.7 101.2 -162.3 103.3 -164 105.5 C-165.2 107.2 -166.4 108.9 -167.6 110.6 C-168.7 112.3 -169.8 114.1 -170.9 115.8 C-172 117.8 -173.2 119.7 -174.2 121.7 C-176.1 125.1 -177.9 128.5 -179.6 131.9 C-181 134.8 -182.4 137.7 -183.8 140.7 C-184.7 142.8 -185.6 144.9 -186.5 146.9 C-187.3 149.1 -188 151.2 -188.8 153.4 C-189.9 156.7 -190.9 159.9 -191.9 163.2 C-192.8 166.5 -193.7 169.7 -194.5 172.9 C-195.1 176.1 -195.8 179.2 -196.4 182.3 C-197 186.1 -197.6 189.9 -198.1 193.6 C-198.2 194.4 -198.4 195.2 -198.5 195.9 C-198.6 197.1 -198.8 198.2 -198.9 199.3 C-199 200.3 -199.1 201.2 -199.2 202.1 C-199.3 204.1 -199.4 206 -199.5 207.9 C-199.5 209 -199.5 209 -199.5 210.1 C-199.6 213.4 -199.6 216.7 -199.6 220 C-199.6 222.7 -199.5 225.3 -199.5 227.9 C-199.3 230.4 -199.2 232.9 -199 235.3 C-198.8 237.8 -198.5 240.3 -198.2 242.7 C-197.8 245.4 -197.4 248.1 -197 250.7 C-196.5 253.7 -195.9 256.5 -195.3 259.4 C-194.6 262.4 -193.9 265.3 -193.2 268.2 C-192.5 270.8 -191.8 273.4 -191 276 C-190.2 278.5 -189.3 280.9 -188.5 283.4 C-187.5 285.9 -186.5 288.4 -185.5 290.9 C-184.2 293.9 -183 296.7 -181.7 299.6 C-180.3 302.6 -178.9 305.5 -177.4 308.4 C-176.4 310.2 -175.5 312.1 -174.5 313.9 C-173.5 315.6 -172.5 317.3 -171.5 318.9 C-170 321.2 -168.5 323.5 -166.9 325.7 C-164.6 329.1 -162.1 332.5 -159.6 335.8 C-157.8 338.1 -156 340.5 -154.1 342.8 C-152.4 344.9 -150.6 346.9 -148.8 349 C-147.2 350.9 -145.5 352.7 -143.8 354.6 C-142.6 355.7 -142.6 355.7 -141.5 356.9 C-140.2 358.2 -138.9 359.3 -137.6 360.5 C-136.2 361.7 -134.8 362.8 -133.5 363.9 C-132.6 364.7 -131.8 365.4 -130.9 366.2 C-129 367.9 -127 369.6 -125 371.2 C-123.8 372.1 -122.6 373 -121.5 373.9 C-119.4 375.5 -117.3 376.9 -115.3 378.4 C-113 379.9 -110.7 381.4 -108.3 382.9 C-105.9 384.5 -103.5 385.9 -101 387.4 C-98.5 388.9 -96 390.3 -93.4 391.6 C-90.7 393 -88 394.4 -85.3 395.7 C-83.4 396.5 -81.4 397.4 -79.5 398.2 C-76.3 399.5 -73.2 400.7 -70.1 401.8 C-66.9 402.9 -63.8 404 -60.6 405 C-58.5 405.6 -56.5 406.2 -54.4 406.8 C-51.5 407.5 -48.5 408.2 -45.6 408.9 C-42.8 409.5 -39.9 410 -37.1 410.5 C-33.8 411 -30.6 411.6 -27.3 412 C-25 412.3 -22.6 412.5 -20.3 412.7 C-16.9 412.9 -13.4 413 -10 413.2 C-7.1 413.2 -4.2 413.3 -1.4 413.2 C1.6 413.2 4.6 413.1 7.5 412.9 C10.6 412.7 13.6 412.4 16.7 412.1 C19.7 411.8 22.7 411.4 25.7 410.9 C27.7 410.6 29.6 410.3 31.5 409.9 C34.2 409.4 36.8 408.9 39.5 408.3 C42 407.6 44.4 407 46.9 406.3 C48.4 405.9 50 405.4 51.5 404.9 C52.2 404.7 53 404.5 53.7 404.3 C55.8 403.7 57.8 403 59.9 402.3 C62 401.6 64.1 400.8 66.2 399.9 C68.9 398.8 71.6 397.6 74.2 396.4 C78.2 394.6 82.2 392.7 86.1 390.7 C87.9 389.8 89.7 388.9 91.5 387.9 C92.9 387.2 94.3 386.4 95.7 385.6 C96.8 384.9 98 384.1 99.2 383.4 C101.9 381.5 104.6 379.7 107.2 377.7 C109.5 376.1 111.7 374.4 113.9 372.7 C116.3 370.8 118.7 368.8 121.1 366.8 C122.7 365.4 124.2 364 125.8 362.5 C127.2 361.3 127.2 361.3 128.5 359.9 C129.4 359.1 129.4 359.1 130.3 358.3 C133.5 355.2 136.7 352 139.9 348.8 C141.1 347.5 142.3 346.3 143.5 344.9 C144.6 343.8 145.6 342.6 146.6 341.5 C147.9 339.8 149.3 338.1 150.6 336.3 C151.9 334.6 153.3 332.8 154.5 330.9 C155 330.3 155.4 329.7 155.9 329.1 C157.3 327.1 158.6 325.1 160 323.1 C160.9 321.7 161.8 320.3 162.7 318.8 C163.7 317.2 164.6 315.6 165.5 313.9 C167.2 311 168.7 308 170.2 305 C171.8 301.8 173.3 298.5 174.8 295.3 C175.7 293.2 176.7 291.1 177.5 288.9 C178.3 287 179 285.1 179.7 283.1 C180.6 280.4 181.5 277.6 182.4 274.8 C183.4 271.4 184.3 267.9 185.2 264.5 C185.8 262.1 186.3 259.7 186.9 257.3 C187.3 255 187.8 252.7 188.2 250.3 C188.6 247.9 188.9 245.5 189.2 243 C189.5 240.5 189.8 238 190 235.5 C190.2 233 190.4 230.5 190.5 227.9 C190.7 225.4 190.7 222.9 190.8 220.4 C190.8 217.9 190.8 215.4 190.7 212.9 C190.6 209.6 190.5 206.3 190.3 203.1 C190.1 200.6 189.9 198.1 189.6 195.7 C189.3 193.1 188.9 190.5 188.5 187.9 C188.1 185.1 187.5 182.2 187 179.4 C186.4 176.4 185.7 173.5 185 170.6 C184.3 167.8 183.6 165.1 182.8 162.4 C182.3 160.7 181.8 159.1 181.3 157.5 C180.5 155 179.6 152.6 178.7 150.2 C177.6 147.4 176.4 144.6 175.2 141.9 C173.3 137.5 171.2 133.2 169.2 128.9 C167.7 125.9 166.1 122.9 164.5 119.9 C163.7 118.5 162.8 117 161.9 115.5 C161.1 114.3 160.3 113 159.5 111.8 C158.3 110 157.1 108.3 155.8 106.6 C155.4 106.1 155 105.5 154.5 104.9 C154.1 104.4 153.7 103.8 153.2 103.2 C151.4 100.8 149.6 98.4 147.7 96 C145.5 93.2 143.2 90.5 140.9 87.8 C139.1 85.8 137.3 83.8 135.4 81.9 C133 79.4 130.5 76.9 128.1 74.5 C126.5 73 124.8 71.5 123.2 70 C122 69 120.8 68 119.5 66.9 C117.4 65.2 115.2 63.6 113 61.9 C110 59.7 106.9 57.5 103.8 55.4 C102.4 54.5 100.9 53.6 99.5 52.6 C97.5 51.5 95.6 50.3 93.6 49.2 C90.9 47.7 88.2 46.3 85.5 44.9 C84.8 44.6 84.1 44.2 83.3 43.8 C80.1 42.2 77 40.6 73.7 39.1 C71.4 38 69 37 66.5 35.9 C65.1 35.4 63.6 34.8 62.1 34.2 C59.9 33.4 57.7 32.7 55.5 32 C53.2 31.3 50.9 30.6 48.5 29.9 C44.9 29 41.2 28.1 37.5 27.2 C33.9 26.4 30.2 25.6 26.5 24.9 C24.3 24.6 22.1 24.2 19.9 23.9 C18.4 23.7 17 23.6 15.6 23.4 C14.1 23.3 12.6 23.2 11.1 23.1 C7.1 22.9 3.2 22.8 -0.7 22.7 C-5 22.7 -9.3 22.7 -13.5 22.8 C-15.4 22.9 -17.2 23 -19 23.1 Z " transform="translate(516.45703125,294.0546875)" fill="currentColor" />
<path d="M0 0 C3.5 -0.1 7.1 -0.1 10.6 -0.1 C13.3 -0.1 16 -0 18.8 0.1 C21 0.2 23.3 0.3 25.6 0.5 C27.8 0.8 30 1 32.2 1.3 C34.5 1.7 36.9 2.1 39.3 2.5 C41.9 3.1 44.6 3.6 47.2 4.2 C49.9 4.9 52.5 5.6 55.2 6.3 C57.7 7 60.1 7.8 62.6 8.6 C64.9 9.4 67.3 10.2 69.6 11.1 C71.2 11.7 72.7 12.3 74.3 13 C76 13.7 77.7 14.5 79.4 15.3 C82.1 16.6 84.9 18 87.6 19.4 C90.2 20.8 92.8 22.2 95.4 23.7 C96.9 24.5 98.4 25.4 99.8 26.4 C101.1 27.2 102.3 28 103.5 28.8 C105.2 30 106.9 31.3 108.6 32.5 C109.6 33.4 110.7 34.2 111.8 35.1 C112.3 35.5 112.8 35.9 113.4 36.4 C115.6 38.1 117.8 39.9 119.9 41.8 C122.1 43.7 124.3 45.6 126.4 47.6 C128.7 49.7 130.9 51.9 133.1 54.1 C134.7 55.7 136.2 57.4 137.8 59.1 C138.6 60.1 139.5 61.1 140.4 62.1 C141.6 63.7 142.9 65.3 144.1 66.8 C145.3 68.6 146.6 70.3 147.8 72.1 C149.7 74.9 151.5 77.8 153.3 80.7 C154.7 83 156.1 85.3 157.4 87.7 C158.7 90 160 92.4 161.2 94.8 C162.4 97.1 163.6 99.5 164.7 101.9 C165.7 104.3 166.8 106.7 167.8 109.1 C168.4 110.6 168.9 112.2 169.5 113.7 C170.3 116.1 171.1 118.4 171.8 120.8 C172.2 122.4 172.7 124 173.1 125.6 C173.6 127.3 174 129 174.4 130.8 C175.3 135.2 176.2 139.7 177 144.2 C177.4 146.6 177.7 149 178.1 151.5 C178.3 153.1 178.4 154.8 178.6 156.5 C178.7 158.3 178.8 160.1 178.9 161.9 C179 166 179 170.1 179 174.2 C179 177.5 178.9 180.8 178.8 184.1 C178.6 185.9 178.4 187.8 178.3 189.7 C177.9 192.3 177.6 194.9 177.2 197.5 C176.6 200.9 175.9 204.2 175.2 207.5 C174.7 209.9 174.2 212.3 173.6 214.6 C172.9 217 172.3 219.3 171.5 221.7 C170.7 224.2 169.9 226.6 169 229.1 C168 231.6 167 234.2 166 236.7 C164.9 239.2 163.9 241.6 162.8 244.1 C161.7 246.3 160.6 248.6 159.5 250.8 C158.4 252.9 157.3 255 156.1 257.1 C155.3 258.4 154.5 259.7 153.8 261.1 C153 262.3 152.2 263.5 151.3 264.8 C150.1 266.5 148.9 268.3 147.6 270 C145.5 272.9 143.3 275.7 141 278.5 C139.2 280.7 137.4 282.9 135.5 285 C133.7 287 132 288.9 130.2 290.8 C128.6 292.5 126.9 294.1 125.3 295.7 C123.6 297.3 122 298.8 120.3 300.3 C118.6 301.7 116.8 303.2 115 304.6 C113.3 306 111.5 307.2 109.8 308.5 C106.8 310.6 103.8 312.7 100.7 314.7 C98.4 316.2 96.1 317.6 93.8 319.1 C92.4 319.8 91 320.6 89.6 321.4 C87.7 322.4 85.7 323.4 83.7 324.3 C81.7 325.3 79.7 326.2 77.8 327.1 C77.1 327.4 76.4 327.7 75.7 328 C73.7 328.9 71.6 329.9 69.5 330.7 C68.1 331.3 66.7 331.9 65.3 332.5 C63.8 333 62.3 333.5 60.8 334.1 C59.1 334.6 57.4 335.1 55.7 335.5 C52.2 336.4 48.8 337.3 45.4 338.1 C42.7 338.7 40 339.2 37.3 339.8 C35.4 340.1 33.4 340.4 31.5 340.7 C28.5 341.1 25.5 341.4 22.5 341.7 C19 341.9 15.6 342.1 12.1 342.2 C9.4 342.2 6.8 342.3 4.1 342.2 C1.9 342.1 -0.3 342.1 -2.6 341.9 C-5 341.8 -7.5 341.6 -9.9 341.4 C-12.5 341.1 -15.1 340.8 -17.6 340.5 C-19.4 340.2 -21.1 339.9 -22.9 339.6 C-25.5 339.1 -28.2 338.5 -30.8 337.9 C-33.4 337.2 -36.1 336.5 -38.7 335.8 C-41.2 335.1 -43.7 334.3 -46.2 333.5 C-48.6 332.6 -51 331.8 -53.4 330.9 C-55.7 330 -58 329 -60.2 328.1 C-62.3 327.1 -64.4 326.2 -66.4 325.2 C-68.4 324.3 -70.4 323.3 -72.3 322.2 C-75.1 320.7 -77.7 319.2 -80.4 317.6 C-83.2 316 -85.9 314.3 -88.6 312.6 C-89.8 311.7 -91 310.9 -92.2 310.1 C-93.7 308.9 -93.7 308.9 -95.3 307.8 C-97.1 306.4 -98.8 304.9 -100.6 303.4 C-101.5 302.6 -102.3 301.9 -103.2 301.1 C-104.2 300.2 -105.2 299.3 -106.2 298.4 C-108.3 296.6 -110.3 294.7 -112.3 292.9 C-114.2 291.1 -116 289.3 -117.8 287.6 C-118.6 286.7 -119.4 285.9 -120.2 285 C-121.4 283.6 -122.7 282.2 -123.9 280.7 C-126 278.2 -128 275.6 -130 273 C-131.7 270.8 -133.3 268.5 -134.9 266.1 C-136.1 264.4 -137.2 262.8 -138.2 261.1 C-139.3 259.3 -140.4 257.5 -141.5 255.6 C-143 252.8 -144.6 249.9 -146.1 247 C-147 245.1 -148 243.1 -148.9 241.1 C-149.8 239.1 -150.7 237 -151.5 235 C-152.2 233 -153 230.9 -153.7 228.9 C-154.7 225.9 -155.7 222.9 -156.6 219.8 C-157.4 217 -158.2 214.2 -158.9 211.3 C-159.7 208 -160.5 204.7 -161.1 201.4 C-161.5 199.3 -161.9 197.2 -162.2 195.1 C-162.5 193.7 -162.6 192.3 -162.8 190.9 C-163 189.3 -163.1 187.7 -163.2 186.1 C-163.4 182.7 -163.5 179.3 -163.5 176 C-163.5 170.9 -163.5 165.7 -163.4 160.6 C-163.3 158.4 -163.2 156.3 -163 154.1 C-162.8 152.3 -162.6 150.6 -162.4 148.9 C-162.1 146.5 -161.7 144.1 -161.2 141.7 C-160.9 140.1 -160.6 138.6 -160.2 137.1 C-160.1 136.3 -159.9 135.5 -159.7 134.7 C-159.2 132.3 -158.7 129.9 -158.1 127.6 C-157.4 125.2 -156.7 122.8 -156 120.5 C-155.5 118.8 -154.9 117.2 -154.4 115.6 C-153.5 113 -152.5 110.5 -151.5 107.9 C-150.5 105.4 -149.4 102.9 -148.3 100.5 C-147.3 98.1 -146.2 95.8 -145.1 93.5 C-144 91.4 -142.9 89.2 -141.7 87.1 C-140.6 85.1 -139.4 83.1 -138.2 81.1 C-137.5 79.8 -136.7 78.6 -135.8 77.4 C-134.6 75.6 -133.4 73.8 -132.1 72.1 C-130 69.3 -127.8 66.5 -125.6 63.7 C-123.8 61.5 -122 59.4 -120.1 57.2 C-117.8 54.6 -115.4 52.1 -113.1 49.5 C-111.6 48 -110.1 46.6 -108.6 45.1 C-107.5 44.1 -106.4 43.1 -105.2 42.1 C-103.2 40.4 -101.2 38.7 -99.1 37.1 C-96.9 35.4 -94.7 33.7 -92.5 32.1 C-90.5 30.6 -88.4 29.2 -86.3 27.7 C-84.5 26.5 -82.6 25.4 -80.7 24.2 C-78.9 23.2 -77 22.1 -75.2 21.1 C-72.5 19.7 -69.9 18.3 -67.2 17 C-65.1 15.9 -63 14.9 -60.8 14 C-58.5 13 -56.1 12 -53.8 11.1 C-51.2 10.1 -48.6 9.2 -46 8.3 C-43.3 7.4 -40.7 6.6 -38 5.8 C-36.1 5.3 -34.3 4.8 -32.5 4.4 C-29.7 3.8 -27 3.2 -24.2 2.7 C-20.9 2.1 -17.6 1.6 -14.2 1.1 C-13.2 0.9 -12.1 0.8 -11 0.6 C-9.6 0.5 -9.6 0.5 -8.2 0.3 C-5.5 0.2 -2.8 0.1 0 0 Z M-9.2 23.1 C-10.4 23.2 -11.5 23.3 -12.6 23.4 C-14.5 23.6 -16.4 23.9 -18.2 24.2 C-19.9 24.5 -21.6 24.9 -23.2 25.2 C-24.8 25.6 -26.4 26 -28 26.4 C-28.7 26.6 -29.5 26.8 -30.2 27.1 C-31 27.3 -31.8 27.5 -32.6 27.7 C-34.9 28.4 -37.2 29.1 -39.6 29.8 C-41 30.3 -42.5 30.8 -44 31.4 C-45.4 31.9 -46.8 32.5 -48.2 33.1 C-49.6 33.7 -51 34.3 -52.4 34.9 C-54.4 35.9 -56.4 36.9 -58.4 37.9 C-60.4 38.9 -62.3 40 -64.2 41.1 C-64.9 41.4 -65.5 41.8 -66.2 42.1 C-68.1 43.2 -70 44.3 -71.9 45.4 C-73.2 46.1 -74.4 46.9 -75.7 47.7 C-76.9 48.4 -78.1 49.2 -79.2 50.1 C-80.4 50.9 -81.5 51.8 -82.6 52.6 C-84.3 54 -85.9 55.3 -87.5 56.7 C-90.2 59.2 -92.9 61.7 -95.6 64.2 C-97.3 65.8 -98.9 67.4 -100.6 69.1 C-102.2 70.7 -103.7 72.4 -105.2 74.1 C-106.1 75.1 -107 76.1 -107.9 77.1 C-109.1 78.7 -110.4 80.2 -111.6 81.8 C-112.4 82.9 -113.2 84 -114 85.2 C-115.4 87.2 -116.7 89.3 -118 91.4 C-119.5 93.8 -120.9 96.2 -122.3 98.6 C-123.6 101 -125 103.5 -126.2 106.1 C-127 107.7 -127.8 109.3 -128.5 111 C-129.6 113.5 -130.6 115.9 -131.6 118.4 C-132.2 120.1 -132.8 121.8 -133.4 123.5 C-134 125.2 -134.5 126.9 -135 128.7 C-135.8 131.3 -136.5 134 -137.1 136.6 C-137.7 139.2 -138.3 141.8 -138.8 144.5 C-139.1 146.2 -139.4 147.9 -139.6 149.7 C-140 152.2 -140.3 154.7 -140.6 157.2 C-140.8 160.2 -141.1 163.1 -141.2 166.1 C-141.3 167 -141.4 167.9 -141.4 168.8 C-141.5 169.6 -141.5 170.3 -141.5 171.1 C-141.5 171.9 -141.5 172.6 -141.4 173.4 C-141.2 177.1 -140.9 180.8 -140.5 184.6 C-140.2 186.9 -139.9 189.3 -139.6 191.7 C-139.3 194 -138.9 196.3 -138.4 198.6 C-138 200.9 -137.5 203.1 -137 205.4 C-136.3 208.3 -135.5 211.3 -134.7 214.2 C-134.2 215.5 -133.8 216.9 -133.4 218.3 C-132.9 219.7 -132.4 221.1 -131.9 222.5 C-131.4 223.9 -130.8 225.3 -130.2 226.8 C-129.5 228.4 -128.8 230 -128.1 231.6 C-126.7 234.4 -125.4 237.1 -124 239.7 C-122.6 242.4 -121.1 245 -119.7 247.7 C-118.8 249.2 -117.9 250.7 -116.9 252.2 C-116.1 253.4 -115.3 254.7 -114.5 255.9 C-113.3 257.6 -112 259.3 -110.8 260.9 C-109.5 262.5 -108.2 264.1 -106.9 265.7 C-105.4 267.3 -104 268.9 -102.6 270.5 C-100.8 272.4 -99 274.2 -97.2 276.1 C-96.4 277 -96.4 277 -95.5 278 C-94.7 278.8 -94.7 278.8 -93.9 279.7 C-93.3 280.2 -92.8 280.7 -92.2 281.3 C-90.7 282.7 -89.1 284 -87.5 285.4 C-85.8 286.7 -84.2 288 -82.6 289.2 C-80.8 290.5 -79 291.8 -77.2 293.1 C-75.5 294.3 -73.7 295.4 -71.8 296.6 C-70 297.7 -68.1 298.8 -66.2 299.9 C-63.5 301.4 -60.9 302.8 -58.2 304.2 C-56.1 305.2 -54 306.3 -51.9 307.2 C-50.5 307.9 -49 308.5 -47.5 309.2 C-46 309.8 -44.4 310.4 -42.8 310.9 C-40.3 311.8 -37.8 312.6 -35.2 313.4 C-31.9 314.3 -28.6 315.2 -25.2 316.1 C-24.6 316.2 -23.9 316.4 -23.2 316.6 C-22.6 316.8 -22 316.9 -21.3 317.1 C-20.1 317.4 -18.8 317.7 -17.5 317.9 C-16.1 318.2 -14.8 318.4 -13.4 318.6 C-11.7 318.8 -10 318.9 -8.2 319.1 C-4.4 319.2 -0.5 319.4 3.4 319.4 C8.3 319.5 13.3 319.4 18.2 319.3 C21 319.2 23.8 319.1 26.6 318.9 C28.1 318.7 29.7 318.6 31.2 318.4 C32.6 318.2 33.9 317.9 35.3 317.7 C36.7 317.4 38.1 317 39.5 316.7 C43.1 315.7 46.8 314.7 50.5 313.5 C52.5 312.9 54.6 312.2 56.6 311.5 C58.7 310.8 60.7 310 62.8 309.3 C64.7 308.5 66.7 307.6 68.6 306.8 C70.5 305.9 72.4 305 74.2 304.1 C76.8 302.7 79.4 301.3 82 299.9 C84.3 298.5 86.6 297.2 88.8 295.8 C90.1 295 91.3 294.1 92.6 293.3 C93.7 292.5 94.9 291.7 96 290.8 C97.1 290 98.1 289.2 99.2 288.4 C100.8 287 102.4 285.7 104 284.3 C106.1 282.4 108.1 280.5 110.1 278.6 C111 277.8 111.8 276.9 112.8 276.1 C113.4 275.4 114.1 274.8 114.9 274.2 C115.5 273.6 116.1 273 116.8 272.4 C117.4 271.7 118 271.1 118.6 270.5 C119.8 269.1 121 267.8 122.1 266.4 C123.7 264.5 125.2 262.5 126.7 260.6 C128.3 258.5 129.8 256.3 131.3 254.2 C132.2 252.8 133.1 251.5 134 250.1 C134.8 248.8 135.6 247.5 136.4 246.2 C137.1 245 137.9 243.6 138.6 242.3 C139.3 241 140 239.6 140.7 238.2 C141.8 235.9 142.9 233.7 143.9 231.3 C145 228.9 146 226.4 147 223.8 C147.6 222.1 148.3 220.4 148.9 218.7 C149.5 216.9 150 215.2 150.6 213.4 C151.3 210.8 152 208.2 152.6 205.5 C153.2 202.9 153.8 200.3 154.3 197.7 C154.6 195.9 154.9 194.2 155.2 192.5 C155.5 189.9 155.8 187.4 156.1 184.9 C156.3 181.9 156.6 179 156.8 176.1 C156.8 175.2 156.9 174.3 156.9 173.3 C157 172.2 157 172.2 157 171.1 C157 170.3 157 169.6 156.9 168.8 C156.9 167.9 156.8 167 156.8 166.1 C156.7 165.4 156.7 164.8 156.6 164.1 C156.5 161.8 156.3 159.5 156.1 157.2 C155.8 154.7 155.5 152.2 155.2 149.7 C154.9 147.9 154.6 146.2 154.3 144.5 C153.8 141.8 153.2 139.2 152.6 136.6 C152 134 151.3 131.3 150.6 128.7 C150 126.9 149.5 125.2 148.9 123.4 C148 120.9 147 118.3 146 115.7 C145 113.3 143.9 110.8 142.8 108.4 C141.8 106.1 140.7 103.9 139.6 101.7 C138.5 99.7 137.4 97.7 136.2 95.7 C135.5 94.4 134.7 93.1 133.9 91.9 C133.2 90.7 132.3 89.5 131.5 88.3 C130.3 86.6 129 84.9 127.8 83.2 C126.1 81.1 124.4 79.1 122.8 77.1 C121.3 75.3 119.8 73.6 118.3 71.9 C116.8 70.3 115.3 68.7 113.8 67.1 C113 66.3 112.3 65.4 111.5 64.6 C109.9 62.9 108.3 61.3 106.6 59.6 C105.7 58.8 104.7 57.9 103.8 57.1 C102.6 56.1 101.5 55.2 100.3 54.3 C98.5 52.9 96.6 51.5 94.7 50.1 C92.7 48.7 90.8 47.4 88.8 46.1 C86.9 44.8 84.9 43.7 83 42.5 C81 41.4 79 40.3 77 39.2 C74.9 38.1 72.7 37 70.4 36 C68 34.9 65.5 33.8 63.1 32.8 C61.4 32.1 59.7 31.5 58 30.9 C56.3 30.2 54.5 29.6 52.8 29.1 C50.9 28.5 49 28 47.1 27.5 C42.8 26.4 38.5 25.4 34.2 24.5 C32.3 24.2 30.3 23.8 28.4 23.5 C27.2 23.4 26 23.2 24.8 23.1 C22.3 22.9 19.8 22.9 17.4 22.8 C10.6 22.7 3.9 22.7 -2.9 22.8 C-5 22.9 -7.1 23 -9.2 23.1 Z " transform="translate(504.2470703125,340.93798828125)" fill="currentColor" />
<path d="M0 0 C1.3 -0.1 2.6 -0.3 3.9 -0.4 C4.9 -0.4 4.9 -0.4 6 -0.4 C6.6 -0.3 7.3 -0.1 8 0 C8.6 0.3 9.2 0.7 9.8 1.1 C10.4 1.5 10.9 1.9 11.4 2.4 C12.7 3.7 12.7 3.7 14 5 C14.5 6 14.5 6 15 7 C15.1 9 15.1 10.9 15.1 12.9 C15.1 14 15.1 14 15.1 15.1 C15.1 15.9 15.1 16.6 15 17.4 C15 19.3 15 21.1 15 23 C15.9 23 15.9 23 16.8 23 C17.7 23 18.5 23.1 19.4 23.1 C20.4 23.2 21.4 23.3 22.5 23.4 C23.6 23.6 24.8 23.8 26 24 C26.7 24.2 27.3 24.3 28 24.5 C29.4 25 30.9 25.4 32.3 25.9 C34.5 26.6 36.7 27.4 38.9 28.3 C40.3 28.8 41.6 29.4 43 30 C44.1 30.5 45.1 31.1 46.2 31.6 C47.1 32.2 48 32.7 48.9 33.3 C49.8 33.9 50.6 34.5 51.5 35.1 C53.2 36.4 54.9 37.7 56.6 39.1 C57.5 39.8 58.4 40.5 59.2 41.2 C60.1 42 60.9 42.8 61.7 43.6 C62.5 44.4 63.2 45.2 64 46 C64.7 46.8 65.3 47.7 66 48.6 C66.6 49.4 67.3 50.3 67.9 51.2 C68.4 52.2 69 53.1 69.5 54.1 C70 55 70.5 56 71 57 C71.7 58.6 71.7 58.6 72.3 60.1 C72.9 61.7 72.9 61.7 73.4 63.4 C73.7 64.5 74 65.5 74.3 66.6 C74.6 67.8 74.8 68.9 75 70 C75.1 71.2 75.3 72.3 75.4 73.5 C75.5 75.7 75.5 77.9 75.5 80.1 C75.4 81.1 75.2 82 75 83 C74.1 84.4 74.1 84.4 73.2 85.8 C72.5 86.5 71.8 87.2 71 88 C70.4 88.3 69.7 88.7 69.1 89 C68.5 89.2 67.8 89.3 67.2 89.5 C66.5 89.6 65.8 89.8 65.1 89.9 C64.4 89.9 63.7 90 63 90 C61.7 89.6 60.5 89.3 59.2 88.9 C58.1 88.3 57.1 87.7 56 87 C55.5 86.3 54.9 85.5 54.4 84.8 C53.7 83.4 53.7 83.4 53 82 C52.8 80.9 52.5 79.9 52.3 78.8 C52.1 77.6 51.9 76.4 51.7 75.2 C51.4 74 51.2 72.8 50.9 71.5 C50.6 70.4 50.3 69.2 50 68 C49.4 66.7 49.4 66.7 48.7 65.3 C48.2 64.5 47.8 63.8 47.2 63 C46.7 62.3 46.2 61.6 45.6 60.9 C44.6 59.7 43.5 58.5 42.5 57.3 C41.7 56.5 41.7 56.5 40.9 55.8 C40.3 55.3 39.7 54.8 39.1 54.3 C38.4 53.9 37.7 53.5 37 53 C36.1 52.5 35.2 52.1 34.2 51.6 C32.3 50.7 30.3 49.9 28.4 49.1 C27.2 48.7 26.1 48.4 25 48 C21.7 47.3 18.4 46.7 15 46 C15 67.8 15 89.6 15 112 C19.3 112.3 23.6 112.7 28 113 C29.4 113.3 30.7 113.6 32.2 113.9 C34.6 114.8 37 115.6 39.4 116.5 C40.6 117 41.8 117.5 43 118 C44 118.5 45 119 46 119.6 C47 120.1 47.9 120.7 48.8 121.2 C49.7 121.8 50.5 122.4 51.4 123.1 C53.2 124.4 54.9 125.7 56.7 127.1 C57.5 127.8 58.4 128.5 59.2 129.2 C60.1 130 60.9 130.8 61.7 131.6 C62.5 132.4 63.2 133.2 64 134 C64.7 134.9 65.3 135.7 66 136.6 C66.9 137.9 66.9 137.9 67.9 139.3 C68.4 140.2 69 141.2 69.5 142.1 C70.5 144 71.4 145.8 72.3 147.7 C72.9 149.1 72.9 149.1 73.4 150.5 C73.7 151.5 74 152.5 74.3 153.5 C74.6 154.6 74.8 155.8 75 157 C75.1 157.7 75.1 158.5 75.2 159.2 C75.3 160.9 75.4 162.5 75.4 164.1 C75.4 165.8 75.4 167.5 75.4 169.1 C75.3 170.7 75.3 172.3 75.2 173.9 C75.1 174.6 75.1 175.3 75 176 C74.8 177 74.7 178 74.5 179.1 C74.2 180.3 74.2 180.3 73.9 181.5 C73.6 182.2 73.3 183 73 183.8 C72.7 184.5 72.3 185.2 72 186 C71.6 186.9 71.3 187.7 70.9 188.6 C70.4 189.5 70 190.4 69.6 191.4 C69 192.3 68.5 193.2 68 194.1 C67 195.6 67 195.6 66 197 C65.6 197.5 65.2 198 64.8 198.5 C63.9 199.6 62.9 200.6 62 201.6 C61 202.7 60 203.7 58.9 204.7 C57.9 205.7 56.8 206.7 55.7 207.6 C55.1 208.1 54.6 208.5 54 209 C53.4 209.4 52.9 209.8 52.3 210.2 C51.2 211 50.1 211.7 48.9 212.4 C47.8 213.1 46.6 213.8 45.4 214.4 C44.2 215 43.1 215.6 41.8 216.2 C40.6 216.7 39.3 217.3 38.1 217.8 C36.8 218.3 35.5 218.8 34.2 219.3 C32.3 219.9 30.4 220.5 28.5 221.1 C27.4 221.4 26.2 221.7 25 222 C23.4 222.3 23.4 222.3 21.8 222.5 C20.5 222.7 20.5 222.7 19.1 222.8 C17.7 222.9 16.4 223 15 223 C15.1 224.1 15.1 225.2 15.2 226.3 C15.2 227.7 15.3 229.2 15.3 230.6 C15.4 231.3 15.4 232.1 15.4 232.8 C15.5 233.5 15.5 234.2 15.5 234.9 C15.5 235.6 15.4 236.3 15.4 237 C15.2 238 15.2 238 15 239 C14.6 239.6 14.3 240.2 13.9 240.8 C13.3 241.6 13.3 241.6 12.6 242.5 C11.3 243.7 11.3 243.7 10 245 C9.3 245.3 8.7 245.7 8 246 C6.7 246.1 5.5 246.2 4.2 246.2 C3.5 246.2 2.8 246.2 2 246.2 C1.4 246.1 0.7 246.1 0 246 C-0.9 245.6 -1.9 245.2 -2.9 244.8 C-3.6 244.2 -4.3 243.6 -5 243 C-5.4 242.5 -5.7 241.9 -6.1 241.4 C-6.4 240.6 -6.7 239.8 -7 239 C-7.1 237.7 -7.1 236.4 -7.2 235.1 C-7.2 233.7 -7.2 232.2 -7.1 230.8 C-7.1 230 -7.1 229.3 -7.1 228.5 C-7.1 226.7 -7 224.8 -7 223 C-7.5 223 -8.1 223 -8.7 223 C-9.5 222.9 -10.2 222.9 -11.1 222.8 C-12 222.7 -12.9 222.6 -13.8 222.5 C-14.9 222.4 -15.9 222.2 -17 222 C-18.2 221.7 -19.4 221.4 -20.6 221 C-22.6 220.4 -24.5 219.8 -26.4 219.1 C-28.3 218.5 -30.1 217.7 -32 217 C-33.5 216.3 -33.5 216.3 -35.1 215.6 C-36.4 214.9 -36.4 214.9 -37.8 214.2 C-38.7 213.7 -39.6 213.2 -40.4 212.6 C-42.2 211.5 -43.9 210.4 -45.6 209.3 C-46.4 208.6 -47.3 208 -48.1 207.4 C-48.9 206.7 -49.7 206 -50.6 205.3 C-51.8 204.2 -51.8 204.2 -53 203 C-53.8 202.1 -54.6 201.2 -55.4 200.3 C-56.2 199.3 -57 198.4 -57.8 197.4 C-58.5 196.3 -59.3 195.3 -60 194.3 C-60.7 193.2 -61.3 192.1 -62 191 C-62.6 189.9 -63.1 188.8 -63.7 187.6 C-64.4 185.9 -64.4 185.9 -65.1 184.1 C-65.6 182.4 -65.6 182.4 -66.2 180.6 C-66.5 179.4 -66.7 178.2 -67 177 C-67.1 175.7 -67.3 174.5 -67.4 173.2 C-67.5 170.8 -67.6 168.4 -67.6 166.1 C-67.4 165 -67.2 164 -67 163 C-66.4 162.1 -65.7 161.1 -65.1 160.2 C-64.4 159.4 -63.7 158.7 -63 158 C-62.3 157.7 -61.7 157.3 -61 157 C-60 156.9 -60 156.9 -59 156.7 C-58.3 156.7 -57.5 156.7 -56.8 156.6 C-56 156.6 -55.3 156.5 -54.5 156.5 C-53.3 156.7 -53.3 156.7 -52 157 C-51 157.7 -49.9 158.3 -48.8 159 C-48.3 159.5 -47.8 159.9 -47.3 160.4 C-46.9 160.9 -46.4 161.5 -46 162 C-45.6 163.2 -45.2 164.4 -44.8 165.7 C-44.5 167 -44.2 168.4 -44 169.8 C-43.5 171.9 -43.1 174 -42.5 176.1 C-42.4 176.7 -42.2 177.4 -42 178 C-41.4 179.4 -41.4 179.4 -40.7 180.8 C-40.2 181.6 -39.7 182.3 -39.2 183.1 C-38.5 184.1 -38.5 184.1 -37.7 185.2 C-36.9 186.1 -36.9 186.1 -36 187 C-35.1 187.8 -35.1 187.8 -34.2 188.7 C-33.6 189.2 -33 189.7 -32.3 190.2 C-31.6 190.7 -31 191.2 -30.3 191.7 C-29.5 192.1 -28.8 192.5 -28 193 C-27.1 193.5 -26.3 193.9 -25.4 194.4 C-23.6 195.3 -21.9 196.1 -20.1 196.9 C-18.6 197.5 -18.6 197.5 -17 198 C-13.7 198.7 -10.4 199.3 -7 200 C-7 178.2 -7 156.4 -7 134 C-11 133.7 -14.9 133.3 -19 133 C-20.9 132.6 -20.9 132.6 -22.8 132.2 C-25.1 131.6 -27.4 130.9 -29.6 130.2 C-30.7 129.8 -31.9 129.4 -33 129 C-34 128.6 -34.9 128.2 -35.9 127.8 C-36.8 127.3 -37.7 126.9 -38.6 126.4 C-39.9 125.7 -39.9 125.7 -41.3 124.9 C-42.2 124.3 -43.1 123.6 -44 123 C-45.1 122.2 -46.1 121.3 -47.1 120.5 C-48.2 119.6 -49.3 118.6 -50.3 117.7 C-51.3 116.7 -52.3 115.8 -53.3 114.8 C-54.2 113.9 -55.1 113 -56 112 C-57 110.8 -57 110.8 -57.9 109.6 C-58.5 108.9 -59 108.1 -59.5 107.4 C-59.9 106.7 -60.4 105.9 -60.8 105.2 C-61.6 103.7 -62.4 102.1 -63.2 100.6 C-63.9 99.1 -64.6 97.6 -65.2 96 C-65.6 95 -65.6 95 -66 94 C-66.2 93.4 -66.4 92.8 -66.5 92.1 C-66.7 91.4 -66.8 90.7 -67 90 C-67.1 89.3 -67.1 88.6 -67.2 87.9 C-67.3 84.5 -67.3 81.2 -67.3 77.8 C-67.3 76 -67.2 74.2 -67.2 72.4 C-67.1 71.6 -67.1 70.8 -67 70 C-66.8 68.8 -66.5 67.6 -66.3 66.4 C-66 65.4 -65.7 64.4 -65.4 63.4 C-65 62.5 -64.6 61.5 -64.2 60.6 C-63.8 59.7 -63.4 58.9 -63 58 C-62.6 57.2 -62.2 56.3 -61.8 55.4 C-61.3 54.6 -60.9 53.8 -60.4 52.9 C-59.9 52.1 -59.4 51.3 -58.9 50.5 C-58.3 49.7 -57.6 48.9 -57 48 C-56.2 47.1 -55.5 46.2 -54.7 45.2 C-53.8 44.3 -52.9 43.3 -52 42.4 C-51.1 41.4 -50.1 40.5 -49.1 39.6 C-48.6 39.2 -48.1 38.7 -47.6 38.3 C-47.1 37.9 -46.5 37.4 -46 37 C-45.5 36.6 -44.9 36.2 -44.4 35.8 C-43.3 35.1 -42.1 34.3 -41 33.6 C-39.8 33 -38.7 32.3 -37.5 31.7 C-36.3 31 -35.1 30.4 -33.9 29.8 C-32.6 29.3 -31.3 28.7 -30.1 28.2 C-28.8 27.7 -27.5 27.2 -26.2 26.7 C-24.3 26.1 -22.4 25.5 -20.5 24.9 C-19.4 24.6 -18.2 24.3 -17 24 C-16 23.8 -14.9 23.7 -13.8 23.5 C-12.9 23.4 -12 23.3 -11.1 23.2 C-9.7 23.1 -8.4 23 -7 23 C-7 21.9 -7.1 20.8 -7.1 19.7 C-7.1 18.2 -7.2 16.8 -7.2 15.3 C-7.2 14.6 -7.2 13.9 -7.3 13.1 C-7.3 12.4 -7.3 11.7 -7.3 11 C-7.2 9.7 -7.1 8.4 -7 7 C-6.5 6 -6.1 5.1 -5.6 4.1 C-5.1 3.4 -4.5 2.7 -4 2 C-3.4 1.6 -2.9 1.1 -2.3 0.7 C-1.2 0.3 -1.2 0.3 0 0 Z M-13 46 C-13.9 46.2 -14.7 46.4 -15.6 46.7 C-17.5 47.3 -19.3 48 -21.1 48.7 C-22.5 49.4 -22.5 49.4 -24 50 C-24.9 50.4 -25.8 50.9 -26.7 51.3 C-27.5 51.8 -28.4 52.3 -29.2 52.8 C-30.1 53.3 -30.9 53.8 -31.7 54.3 C-32.8 55.1 -32.8 55.1 -34 56 C-35 56.9 -35 56.9 -36 57.8 C-36.6 58.4 -37.3 59 -37.9 59.7 C-38.4 60.4 -39 61 -39.5 61.7 C-40 62.5 -40.5 63.2 -41 64 C-41.4 64.9 -41.9 65.7 -42.3 66.6 C-42.7 67.6 -43.1 68.5 -43.4 69.4 C-43.7 70.4 -44 71.3 -44.3 72.3 C-44.6 73.2 -44.8 74.1 -45 75 C-45.1 75.8 -45.3 76.5 -45.4 77.3 C-45.4 78 -45.5 78.8 -45.5 79.5 C-45.5 80.2 -45.4 80.9 -45.4 81.7 C-45.2 82.8 -45.2 82.8 -45 84 C-44.8 84.9 -44.5 85.8 -44.3 86.8 C-44 87.7 -43.6 88.7 -43.3 89.7 C-42.8 91.1 -42.8 91.1 -42.2 92.5 C-41.8 93.3 -41.4 94.1 -41 95 C-40.3 96.1 -39.6 97.1 -38.9 98.2 C-38.3 98.9 -38.3 98.9 -37.7 99.6 C-37.1 100.1 -36.6 100.5 -36 101 C-35.2 101.6 -34.4 102.2 -33.6 102.8 C-32.6 103.4 -31.7 104 -30.8 104.7 C-29.8 105.3 -28.8 105.9 -27.8 106.5 C-26.4 107.2 -26.4 107.2 -25 108 C-23.8 108.5 -23.8 108.5 -22.6 109.1 C-21.9 109.3 -21.1 109.6 -20.4 109.9 C-18.2 110.4 -18.2 110.4 -16 111 C-13 111.3 -10.1 111.7 -7 112 C-7 90.2 -7 68.4 -7 46 C-9 46 -11 46 -13 46 Z M15 134 C15 155.8 15 177.6 15 200 C19.5 199.5 19.5 199.5 24 199 C25.6 198.5 25.6 198.5 27.2 198.1 C29.2 197.2 31.1 196.4 33.1 195.5 C34 195 35 194.5 36 194 C36.8 193.5 37.7 193 38.6 192.4 C39.3 191.9 40.1 191.3 40.9 190.8 C41.6 190.2 42.3 189.6 43 189 C43.7 188.3 44.3 187.7 45 187 C45.6 186.3 46.2 185.5 46.8 184.8 C47.6 183.7 47.6 183.7 48.4 182.5 C48.9 181.7 49.4 181 49.8 180.2 C50.2 179.5 50.6 178.7 51 178 C51.5 176.8 51.9 175.6 52.4 174.4 C52.6 173.3 52.8 172.2 53 171 C53.1 169.7 53.2 168.4 53.3 167.1 C53.3 166.5 53.3 165.8 53.2 165.1 C53.2 164.4 53.1 163.7 53 163 C52.8 161.9 52.8 161.9 52.5 160.8 C52.2 159.6 52.2 159.6 51.9 158.5 C51.6 157.8 51.3 157 51 156.2 C50.7 155.5 50.4 154.8 50 154 C49.6 153.3 49.1 152.6 48.7 151.8 C48.2 151.1 47.7 150.5 47.2 149.8 C46.7 149.1 46.1 148.5 45.6 147.8 C45.1 147.2 44.5 146.6 44 146 C42.6 144.6 42.6 144.6 41.1 143.2 C40.1 142.5 39.1 141.8 38 141 C37.4 140.6 36.9 140.3 36.3 139.9 C35.6 139.6 35 139.2 34.4 138.9 C33.7 138.6 33 138.2 32.4 137.9 C31.2 137.5 31.2 137.5 30 137 C29 136.7 28 136.4 26.9 136.1 C24.8 135.5 22.7 135 20.6 134.5 C19.3 134.3 19.3 134.3 18 134 C17 134 16 134 15 134 Z " transform="translate(508,389)" fill="currentColor" />
</svg>
