<?xml version="1.0" encoding="UTF-8"?>

<svg version="1.1" xmlns="http://www.w3.org/2000/svg" width="1024" height="1024" viewBox="0 0 1024 1024" fill="currentColor">
<path d="M0 0 C0.8 -0.1 1.5 -0.1 2.3 -0.2 C3.8 -0.3 5.3 -0.3 6.8 -0.4 C8.8 -0.4 10.7 -0.3 12.7 -0.3 C13.8 -0.2 14.9 -0.1 16 0 C17 0.2 18 0.5 19 0.7 C19.8 1 20.6 1.3 21.4 1.6 C22.2 1.9 23 2.3 23.8 2.7 C25.3 3.6 26.9 4.5 28.4 5.5 C29.2 6 29.9 6.6 30.8 7.1 C31.8 8 31.8 8 33 9 C33.6 9.6 34.3 10.3 35 11 C35.6 11.8 36.2 12.5 36.8 13.3 C37.3 14.1 37.8 15 38.4 15.8 C38.8 16.7 39.3 17.5 39.8 18.4 C40.2 19.3 40.6 20.1 41 21 C41.3 21.8 41.7 22.6 42 23.5 C42.4 24.7 42.4 24.7 42.9 25.9 C43.1 26.7 43.3 27.5 43.5 28.3 C43.7 29.2 43.8 30.1 44 31 C44 31.8 44.1 32.6 44.1 33.4 C44.1 36.3 44.1 39.1 44 42 C43.8 46.8 43.4 51.5 43.1 56.3 C43 57.7 42.8 59.1 42.7 60.5 C42.5 64.2 42.2 68 41.9 71.8 C41.7 74.1 41.6 76.5 41.4 78.9 C40.8 86.3 40.3 93.7 39.7 101.1 C39.1 109.6 38.4 118.1 37.8 126.6 C37.3 133.3 36.8 139.9 36.3 146.5 C36 150.4 35.7 154.4 35.5 158.3 C35.2 162 34.9 165.7 34.6 169.4 C34.5 171.4 34.3 173.4 34.2 175.4 C34 177.8 33.8 180.2 33.5 182.5 C33.4 183.7 33.2 184.8 33 186 C32.7 187.2 32.4 188.4 32.1 189.6 C31.5 191.8 30.8 194 30.1 196.2 C29.7 197.1 29.4 198.1 29 199 C28.5 199.8 28.1 200.6 27.6 201.5 C27.1 202.1 26.7 202.8 26.2 203.4 C25.7 204 25.2 204.7 24.6 205.3 C23.5 206.4 22.4 207.6 21.3 208.7 C20.5 209.5 20.5 209.5 19.6 210.2 C19 210.7 18.4 211.2 17.8 211.7 C16.9 212.3 16.9 212.3 16 213 C15.1 213.6 15.1 213.6 14.1 214.2 C13.5 214.5 12.8 214.9 12.2 215.2 C11.5 215.6 10.8 215.9 10.2 216.2 C9.4 216.5 8.7 216.7 8 217 C7.2 217.2 6.5 217.5 5.7 217.7 C4.9 217.9 4.1 218.1 3.2 218.3 C2.4 218.5 1.6 218.6 0.7 218.7 C-0.2 218.8 -1.1 218.9 -2 219 C-3.5 219 -3.5 219 -5 219 C-6 219 -7 218.9 -8 218.9 C-9 218.8 -10 218.7 -11 218.5 C-12 218.4 -13 218.2 -14 218 C-14.9 217.8 -15.8 217.5 -16.7 217.2 C-17.5 216.9 -18.4 216.6 -19.2 216.3 C-20.1 216 -20.9 215.6 -21.7 215.2 C-22.5 214.8 -23.2 214.4 -24 214 C-24.7 213.6 -25.4 213.1 -26.2 212.7 C-26.9 212.2 -27.5 211.7 -28.2 211.2 C-29.2 210.5 -29.2 210.5 -30.2 209.7 C-31.1 208.9 -31.1 208.9 -32 208 C-32.6 207.4 -33.1 206.8 -33.7 206.2 C-34.2 205.5 -34.7 204.9 -35.2 204.2 C-35.9 203.3 -35.9 203.3 -36.6 202.3 C-37.1 201.5 -37.5 200.8 -38 200 C-38.4 199.3 -38.7 198.7 -39.1 198 C-39.5 197.3 -39.8 196.6 -40.2 195.8 C-40.5 194.9 -40.8 194.1 -41.2 193.2 C-41.6 191.6 -41.6 191.6 -42 190 C-42.1 188.7 -42.2 187.4 -42.3 186.1 C-42.4 183.9 -42.4 181.8 -42.4 179.6 C-42.4 177.4 -42.3 175.1 -42.2 172.9 C-42.2 171.3 -42.2 169.8 -42.2 168.2 C-42.2 164.5 -42.1 160.7 -42 157 C-46.8 162.9 -51.6 168.8 -56.3 174.8 C-60.2 179.7 -64.1 184.6 -68 189.5 C-73.3 196.1 -78.5 202.7 -83.6 209.3 C-86.4 212.8 -89.1 216.3 -91.9 219.8 C-94.2 222.6 -96.4 225.5 -98.7 228.4 C-104.1 235.4 -109.6 242.2 -115.2 249 C-120.1 255 -124.9 261.1 -129.6 267.2 C-131.1 269.1 -132.6 271 -134 272.8 C-134.8 273.8 -134.8 273.8 -135.5 274.8 C-136.5 276 -137.4 277.2 -138.4 278.4 C-139.6 279.9 -140.8 281.5 -142 283 C-142.6 283.7 -143.3 284.4 -143.9 285.1 C-144.3 285.7 -144.6 286.3 -145 287 C-144.8 287.8 -144.6 288.6 -144.4 289.5 C-143.9 290.3 -143.5 291.1 -143 292 C-142.2 293 -142.2 293 -141.5 294.1 C-140.9 294.8 -140.3 295.6 -139.6 296.3 C-135.6 301.2 -135.6 301.2 -133.7 303.7 C-132.3 305.6 -130.9 307.5 -129.4 309.4 C-128.9 310 -128.4 310.7 -127.9 311.4 C-126.8 312.9 -125.8 314.3 -124.7 315.7 C-121.7 319.7 -118.7 323.7 -115.7 327.8 C-111.9 332.8 -108.1 337.9 -104.3 343 C-97.9 351.5 -91.4 360.1 -84.9 368.6 C-79.3 375.9 -73.8 383.4 -68.3 390.8 C-63.3 397.7 -58.1 404.4 -53 411.1 C-47.9 417.8 -42.9 424.6 -37.9 431.4 C-33 438 -28.1 444.5 -23 451 C-22.7 451.3 -22.3 451.7 -22 452 C-22 451.2 -22 450.5 -22.1 449.7 C-22.1 446.2 -22.2 442.7 -22.2 439.2 C-22.3 438.1 -22.3 436.9 -22.4 435.7 C-22.4 433.3 -22.4 430.9 -22.3 428.5 C-22.2 427.3 -22.1 426.2 -22 425 C-21.7 423.9 -21.5 422.7 -21.2 421.6 C-20.5 419.6 -19.9 417.5 -19.1 415.5 C-18.8 414.7 -18.4 413.9 -18 413 C-17.5 412.2 -17.1 411.4 -16.6 410.6 C-16.1 410 -15.7 409.3 -15.2 408.7 C-14.7 408.1 -14.2 407.4 -13.7 406.8 C-12.5 405.6 -11.3 404.3 -10.2 403.1 C-9.5 402.5 -8.9 401.9 -8.2 401.2 C-7.5 400.7 -6.8 400.1 -6.2 399.5 C-5.4 399 -4.7 398.5 -4 398 C-3.2 397.6 -2.4 397.1 -1.6 396.7 C-0.8 396.4 -0.1 396 0.8 395.6 C1.5 395.3 2.2 395 2.9 394.7 C3.6 394.5 4.3 394.2 5 394 C5.9 393.7 5.9 393.7 6.9 393.4 C7.6 393.3 8.3 393.1 9 393 C9.9 392.9 10.9 392.8 11.8 392.8 C12.9 392.7 13.9 392.7 15 392.7 C16.2 392.7 17.3 392.7 18.5 392.7 C20.2 392.9 20.2 392.9 22 393 C23 393.2 24.1 393.4 25.2 393.6 C26.2 393.9 27.2 394.1 28.2 394.4 C29.7 395 29.7 395 31.1 395.5 C32.1 396 33 396.5 34 397 C35.4 398 35.4 398 36.8 399 C37.6 399.7 38.5 400.4 39.4 401.2 C40.6 402.4 40.6 402.4 41.8 403.6 C43.2 405.1 44.5 406.6 45.8 408.1 C46.4 408.8 46.9 409.5 47.4 410.2 C48.1 411.3 48.1 411.3 48.7 412.4 C49.1 413.2 49.6 414.1 50 415 C50.3 415.9 50.6 416.8 50.9 417.7 C51.4 420 51.9 422.3 52.4 424.6 C52.5 425.3 52.6 426 52.7 426.7 C52.8 427.5 52.9 428.2 53 429 C53.1 430.7 53.2 432.5 53.3 434.2 C53.6 440.5 53.7 446.8 53.7 453.1 C53.8 455.4 53.8 457.8 53.9 460.1 C53.9 465.1 54 470.1 54.1 475 C54.2 481.2 54.3 487.4 54.4 493.6 C54.6 506.8 54.8 520 54.9 533.1 C55 537.7 55 542.2 55.1 546.7 C55.2 552 55.2 557.2 55.3 562.5 C55.3 564.4 55.3 566.3 55.3 568.2 C55.4 571.7 55.4 575.1 55.4 578.5 C55.4 580 55.3 581.5 55.2 583 C55.1 583.6 55.1 584.3 55 585 C54.7 586.2 54.4 587.3 54.2 588.5 C53.8 589.5 53.5 590.5 53.1 591.5 C52.7 592.3 52.4 593.2 52 594 C51.5 595 51.5 595 51 596 C50.4 597 49.8 598 49.2 599.1 C47.9 600.6 46.6 602.2 45.3 603.8 C44.2 604.9 44.2 604.9 43 606 C42.2 606.6 41.3 607.2 40.5 607.9 C39.6 608.4 38.8 609 37.9 609.5 C37.1 609.9 36.3 610.4 35.5 610.8 C34.7 611.2 33.8 611.6 33 612 C32 612.4 31.1 612.7 30.1 613.1 C29.1 613.4 28 613.7 27 614 C26 614.1 25.1 614.3 24.1 614.4 C23 614.5 22 614.5 20.9 614.6 C19.6 614.5 18.4 614.5 17.1 614.5 C16.4 614.4 15.8 614.4 15.1 614.3 C14.4 614.2 13.7 614.1 13 614 C12.3 613.8 11.7 613.7 11 613.5 C9.5 613.1 8.1 612.6 6.7 612.2 C3.1 610.9 -0.4 609.6 -3.8 608.2 C-7.3 606.9 -10.7 605.6 -14.2 604.3 C-34.6 596.9 -54.9 589.2 -75.2 581.5 C-77.5 580.6 -79.7 579.8 -82 578.9 C-83.7 578.3 -83.7 578.3 -85.4 577.6 C-91.4 575.3 -97.5 573.1 -103.6 570.8 C-107 569.5 -110.5 568.3 -113.9 567 C-115.4 566.4 -117 565.9 -118.5 565.3 C-121.9 564.1 -125.3 562.8 -128.7 561.5 C-129.8 561 -130.9 560.5 -132 560 C-133.4 559.2 -133.4 559.2 -134.8 558.4 C-135.6 557.9 -136.4 557.4 -137.2 556.9 C-138.2 556.1 -138.2 556.1 -139.3 555.4 C-140.1 554.7 -140.1 554.7 -141 554 C-141.8 553.3 -142.6 552.5 -143.5 551.8 C-144.8 550.4 -146 548.9 -147.3 547.4 C-147.8 546.6 -148.4 545.8 -149 545 C-149.4 544.2 -149.9 543.5 -150.4 542.7 C-150.7 541.9 -151.1 541.1 -151.4 540.2 C-151.7 539.4 -152 538.6 -152.3 537.7 C-152.7 536.4 -152.7 536.4 -153 535 C-153.2 534 -153.4 533 -153.6 531.9 C-153.7 530.9 -153.9 529.8 -154 528.7 C-154.1 527.6 -154.1 526.5 -154.2 525.4 C-154.1 524.3 -154.1 523.1 -154 522 C-153.8 520.9 -153.6 519.8 -153.4 518.7 C-153.2 517.6 -152.9 516.5 -152.6 515.4 C-152.2 514.3 -151.8 513.2 -151.4 512.1 C-150.9 511.1 -150.5 510.1 -150 509 C-149.5 508 -148.9 507 -148.3 506 C-147.7 505 -147.1 504.1 -146.4 503.1 C-145.4 501.8 -145.4 501.8 -144.3 500.4 C-143.6 499.6 -142.8 498.8 -142 498 C-141.1 497.3 -140.2 496.6 -139.2 495.8 C-138.3 495.2 -137.4 494.6 -136.4 493.9 C-135.5 493.4 -134.6 492.9 -133.7 492.3 C-132.4 491.7 -132.4 491.7 -131 491 C-130 490.6 -129 490.2 -128 489.9 C-127 489.6 -126 489.3 -125 489 C-123.7 488.8 -123.7 488.8 -122.4 488.5 C-120.6 488.3 -118.7 488.2 -116.9 488 C-115.9 488 -115 488 -114 488 C-113.2 488.1 -112.3 488.1 -111.5 488.2 C-110.6 488.3 -109.8 488.4 -108.9 488.6 C-107.6 488.8 -107.6 488.8 -106.3 489.1 C-104.4 489.6 -102.6 490.1 -100.8 490.7 C-95.5 492.4 -90.2 494.2 -85 496 C-92.2 486.1 -99.5 476.2 -107 466.5 C-112.7 459.1 -118.3 451.6 -123.8 444.1 C-128 438.4 -132.2 432.7 -136.5 427 C-141.4 420.5 -146.2 414 -151 407.5 C-157.1 399.2 -163.3 390.9 -169.6 382.6 C-171.7 379.8 -173.8 376.9 -175.9 374.1 C-176.3 373.5 -176.7 372.9 -177.1 372.3 C-178.2 370.9 -179.3 369.4 -180.4 367.9 C-180.9 367.3 -181.4 366.7 -182 366 C-182.7 366 -183.3 366 -184 366 C-184.4 366.5 -184.8 367 -185.2 367.5 C-185.7 368.3 -186.2 369 -186.7 369.7 C-187.2 370.5 -187.7 371.4 -188.3 372.2 C-188.9 373.1 -189.5 374 -190.1 374.9 C-191.3 376.9 -192.6 378.8 -193.9 380.8 C-194.6 381.8 -195.2 382.8 -195.9 383.9 C-199.4 389 -202.9 394.2 -206.4 399.3 C-212 407.6 -217.6 415.9 -223.2 424.3 C-228.2 431.9 -233.3 439.5 -238.5 446.9 C-239 447.7 -239.6 448.5 -240.1 449.3 C-241.2 450.8 -242.2 452.3 -243.3 453.8 C-244.1 454.9 -244.1 454.9 -245 456 C-247 458.4 -249 460.7 -251 463 C-252 464 -252 464 -253 465 C-253.8 465.6 -254.6 466.2 -255.5 466.9 C-256.3 467.4 -257 467.9 -257.8 468.4 C-258.7 468.8 -259.5 469.3 -260.4 469.8 C-261.2 470.2 -262.1 470.6 -263 471 C-263.9 471.3 -264.8 471.7 -265.8 472 C-267.2 472.4 -267.2 472.4 -268.6 472.9 C-269.5 473.1 -270.4 473.3 -271.4 473.5 C-272.2 473.7 -273.1 473.8 -274 474 C-274.8 474.1 -275.5 474.2 -276.3 474.3 C-277 474.3 -277.7 474.3 -278.4 474.4 C-279.2 474.3 -279.9 474.3 -280.6 474.3 C-281.4 474.2 -282.2 474.1 -283 474 C-283.9 473.9 -284.9 473.7 -285.8 473.6 C-286.8 473.4 -287.8 473.2 -288.9 472.9 C-289.9 472.7 -290.9 472.4 -291.9 472.1 C-293 471.7 -294 471.4 -295 471 C-296 470.5 -296.9 470 -297.9 469.6 C-298.9 469 -299.8 468.4 -300.8 467.9 C-301.7 467.3 -302.6 466.6 -303.5 466 C-304.3 465.3 -305.1 464.7 -306 464 C-306.7 463.4 -307.3 462.7 -308 462.1 C-308.7 461.4 -309.3 460.8 -309.9 460.1 C-311.3 458.4 -312.7 456.7 -314 455 C-317 451 -320 447 -323 443 C-328.4 435.8 -333.9 428.7 -339.4 421.6 C-345.2 414.1 -351 406.7 -356.7 399.1 C-360 394.7 -363.4 390.3 -366.7 385.9 C-371.2 380 -375.7 374.1 -380.2 368.2 C-389.1 356.6 -389.1 356.6 -398 345 C-398.7 344.1 -399.5 343.2 -400.3 342.3 C-400.8 341.5 -401.4 340.8 -402 340 C-402 339.3 -402 338.7 -402 338 C-403.2 339.2 -404.4 340.3 -405.6 341.5 C-406.1 342 -406.5 342.5 -407 343 C-407.7 344 -408.5 344.9 -409.2 345.9 C-410 347 -410.7 348.1 -411.5 349.2 C-412.4 350.4 -413.3 351.7 -414.1 352.9 C-414.6 353.6 -415.1 354.2 -415.5 354.9 C-418.1 358.6 -420.7 362.2 -423.4 365.8 C-427.6 371.7 -431.8 377.6 -436 383.5 C-444.5 395.6 -453.2 407.6 -462.1 419.6 C-466.5 425.6 -470.9 431.7 -475.2 437.8 C-475.7 438.5 -476.2 439.2 -476.7 439.9 C-479.1 443.2 -481.4 446.5 -483.7 449.9 C-485.3 452.3 -486.9 454.6 -488.6 457 C-489.8 458.5 -489.8 458.5 -491 460 C-491.8 460.8 -492.5 461.7 -493.3 462.5 C-494.1 463.2 -494.8 463.9 -495.6 464.6 C-496.4 465.2 -497.1 465.8 -497.9 466.5 C-498.6 467 -499.3 467.5 -500 468 C-500.7 468.4 -501.3 468.9 -502 469.3 C-502.7 469.7 -503.3 470 -504 470.4 C-504.7 470.7 -505.3 471 -506 471.3 C-506.6 471.5 -507.3 471.7 -508 472 C-509.1 472.3 -509.1 472.3 -510.1 472.7 C-510.9 472.9 -511.6 473.1 -512.4 473.2 C-513.1 473.4 -513.9 473.5 -514.6 473.7 C-515.4 473.8 -516.2 473.9 -517 474 C-518.2 474.1 -518.2 474.1 -519.5 474.2 C-520.7 474.2 -520.7 474.2 -522 474.2 C-523.3 474.2 -523.3 474.2 -524.5 474.2 C-526.1 474.1 -527.7 473.9 -529.2 473.8 C-530.3 473.6 -530.3 473.6 -531.4 473.4 C-532.2 473.2 -532.9 473 -533.6 472.8 C-534.4 472.5 -535.2 472.3 -536 472 C-536.9 471.6 -537.8 471.2 -538.7 470.8 C-540.1 470.1 -540.1 470.1 -541.6 469.4 C-542.9 468.6 -542.9 468.6 -544.4 467.8 C-545.2 467.2 -546.1 466.6 -547 466 C-547.7 465.4 -548.5 464.8 -549.3 464.2 C-549.9 463.6 -550.6 463 -551.3 462.4 C-551.9 461.7 -552.6 461 -553.2 460.3 C-553.8 459.6 -554.4 458.8 -555 458 C-555.6 457.1 -556.2 456.1 -556.8 455.2 C-557.3 454.2 -557.8 453.2 -558.4 452.1 C-559.1 450.6 -559.1 450.6 -559.8 449 C-560.2 448 -560.6 447 -561 446 C-561.3 445.2 -561.6 444.3 -561.8 443.4 C-562 442.6 -562.2 441.8 -562.4 441 C-562.6 440.2 -562.7 439.4 -562.8 438.6 C-562.9 437.7 -562.9 436.9 -563 436 C-563 435 -563 434.1 -563 433.1 C-563 432.1 -562.9 431 -562.9 430 C-562.7 428.5 -562.7 428.5 -562.5 426.9 C-562.4 426 -562.2 425 -562 424 C-561.6 422.7 -561.6 422.7 -561.3 421.4 C-561 420.6 -560.7 419.8 -560.4 418.9 C-559.8 417.7 -559.8 417.7 -559.3 416.5 C-558.9 415.7 -558.4 414.8 -558 414 C-557.6 413.2 -557.1 412.4 -556.6 411.6 C-555.5 409.8 -554.4 408 -553.2 406.2 C-550 401.5 -546.6 396.9 -543.3 392.3 C-539.1 386.5 -535 380.7 -530.9 374.9 C-530.4 374.1 -529.8 373.3 -529.2 372.4 C-528 370.7 -526.8 369.1 -525.7 367.4 C-523.1 363.7 -520.5 360 -517.9 356.3 C-517.4 355.6 -516.9 354.9 -516.4 354.2 C-514.4 351.5 -512.5 348.7 -510.5 345.9 C-504.1 336.8 -497.6 327.6 -491.2 318.4 C-487 312.4 -482.8 306.4 -478.5 300.4 C-474.7 295 -470.8 289.5 -467 284 C-461.6 276.3 -456.2 268.6 -450.8 261 C-448.9 258.4 -447.1 255.7 -445.3 253 C-443.6 250.6 -441.9 248.3 -440.2 245.9 C-439.5 244.9 -438.8 244 -438 243 C-437.4 242.3 -436.8 241.7 -436.2 241 C-435.6 240.5 -435.1 240 -434.5 239.4 C-433.9 239 -433.4 238.6 -432.8 238.2 C-431.5 237.3 -430.1 236.5 -428.7 235.6 C-427.5 234.9 -427.5 234.9 -426.2 234.2 C-425.4 233.9 -424.5 233.5 -423.7 233 C-422.3 232.5 -422.3 232.5 -421 232 C-420.1 231.7 -419.2 231.5 -418.3 231.2 C-417.4 231 -416.5 230.8 -415.6 230.6 C-414.7 230.5 -413.8 230.4 -412.8 230.2 C-411.9 230.1 -411 230.1 -410 230 C-409 230 -408.1 230 -407.1 229.9 C-406.1 230 -405.1 230 -404.1 230.1 C-403.1 230.2 -402.1 230.3 -401 230.4 C-399.5 230.7 -399.5 230.7 -398 231 C-397 231.3 -396 231.6 -394.9 231.9 C-393.9 232.2 -392.9 232.6 -391.9 233 C-390.4 233.7 -390.4 233.7 -388.9 234.4 C-387.4 235.2 -387.4 235.2 -386 236 C-385.2 236.6 -384.3 237.2 -383.4 237.8 C-382.6 238.4 -381.8 239.1 -381 239.8 C-379.8 241 -379.8 241 -378.6 242.2 C-377.7 243.1 -376.9 244 -376 245 C-374.5 246.9 -373 248.8 -371.5 250.7 C-369.5 253.5 -367.5 256.2 -365.4 259 C-363.4 261.8 -361.3 264.6 -359.1 267.3 C-355.1 272.5 -351.2 277.9 -347.2 283.2 C-342.6 289.5 -337.9 295.8 -333 302 C-327.7 308.8 -322.5 315.7 -317.4 322.6 C-314.2 327.1 -310.9 331.5 -307.6 335.8 C-306.8 336.8 -306.1 337.7 -305.3 338.7 C-303.9 340.6 -302.4 342.5 -301 344.3 C-300.3 345.2 -299.7 346 -299 346.9 C-298.4 347.6 -297.8 348.4 -297.2 349.1 C-296.6 350.1 -296.6 350.1 -296 351 C-296 351.7 -296 352.3 -296 353 C-294.8 351.9 -293.7 350.8 -292.5 349.6 C-292 349.1 -291.5 348.6 -291 348 C-289.4 346.1 -287.8 344.1 -286.3 342.1 C-285.4 341 -285.4 341 -284.6 339.8 C-283.3 338.2 -282.1 336.6 -280.8 335 C-279.9 333.7 -279.9 333.7 -278.9 332.5 C-276.4 329.3 -274 326.1 -271.5 322.9 C-266.3 316.3 -261.2 309.6 -256.1 302.8 C-253.4 299.3 -250.7 295.7 -248 292.2 C-244.6 287.8 -241.2 283.4 -237.9 279 C-237.3 278.3 -236.8 277.6 -236.2 276.9 C-233.2 272.9 -230.1 268.9 -227.1 264.9 C-220.1 255.7 -213.2 246.6 -206.1 237.5 C-200.5 230.4 -195 223.1 -189.5 215.9 C-183.4 208 -177.3 200.1 -171.2 192.2 C-165 184.2 -158.8 176.2 -152.6 168.1 C-149.9 164.5 -147.1 160.9 -144.3 157.2 C-143.8 156.5 -143.2 155.8 -142.7 155.1 C-138.6 149.8 -134.5 144.4 -130.4 139.1 C-128.8 137 -127.2 135 -125.7 132.9 C-121.9 128 -118.1 123.2 -114.3 118.3 C-113.4 117.1 -113.4 117.1 -112.4 115.8 C-111.2 114.2 -109.9 112.6 -108.6 111 C-108.1 110.3 -107.5 109.5 -106.9 108.8 C-106.4 108.1 -105.9 107.5 -105.4 106.8 C-104.7 105.9 -104.7 105.9 -104 105 C-103.3 104 -102.7 103 -102 102 C-103.9 102.2 -105.7 102.4 -107.6 102.6 C-108.4 102.8 -109.2 102.9 -110 103 C-112.4 103.5 -114.8 104 -117.3 104.6 C-119.9 105.1 -122.5 105.7 -125.1 106.2 C-126.8 106.5 -128.4 106.8 -130 107 C-131.1 107.1 -132.2 107.1 -133.4 107.2 C-134.7 107.1 -134.7 107.1 -136.1 107 C-137.4 106.8 -137.4 106.8 -138.6 106.6 C-140.3 106.2 -141.9 105.7 -143.6 105.3 C-144.4 105 -145.3 104.7 -146.1 104.4 C-146.9 104 -147.7 103.7 -148.6 103.3 C-149.4 102.9 -150.2 102.4 -151 102 C-151.8 101.5 -152.6 101 -153.4 100.5 C-154.6 99.7 -154.6 99.7 -155.8 98.9 C-156.8 98 -156.8 98 -158 97.1 C-158.6 96.4 -159.3 95.7 -160 95 C-160.9 93.8 -160.9 93.8 -161.8 92.6 C-162.3 91.8 -162.8 90.9 -163.4 90.1 C-164.3 88.4 -165.2 86.7 -166 85 C-166.3 84.4 -166.7 83.8 -167 83.1 C-167.4 82.2 -167.4 82.2 -167.9 81.3 C-168.1 80.7 -168.3 80 -168.5 79.4 C-168.7 78.6 -168.8 77.8 -169 77 C-169.1 75.9 -169.2 74.7 -169.3 73.6 C-169.4 72.3 -169.4 71 -169.4 69.7 C-169.4 68.4 -169.4 67.1 -169.3 65.8 C-169.2 64.5 -169.1 63.3 -169 62 C-168.7 60.5 -168.7 60.5 -168.3 58.9 C-167.9 57.5 -167.9 57.5 -167.4 56.1 C-167.1 55.3 -166.7 54.4 -166.3 53.5 C-165.9 52.7 -165.4 51.8 -165 51 C-164.3 49.8 -164.3 49.8 -163.5 48.6 C-163 47.8 -162.4 47 -161.9 46.2 C-161.3 45.5 -160.7 44.8 -160 44.1 C-159.4 43.4 -158.7 42.7 -158 42 C-156.9 41 -156.9 41 -155.8 40 C-155 39.4 -154.2 38.8 -153.4 38.2 C-152.6 37.7 -151.7 37.1 -150.9 36.6 C-149.9 36.1 -149 35.5 -148 35 C-147.1 34.7 -146.2 34.3 -145.3 34 C-141.9 32.9 -138.5 31.9 -135 31 C-128.5 29.3 -121.9 27.9 -115.4 26.4 C-113.5 25.9 -111.5 25.5 -109.6 25 C-104.6 23.9 -99.5 22.7 -94.5 21.6 C-88.5 20.2 -82.6 18.8 -76.6 17.5 C-71.7 16.3 -66.8 15.2 -61.8 14.1 C-52.8 12 -43.8 10 -34.8 7.8 C-30.8 6.9 -26.9 5.9 -22.9 5 C-21 4.6 -19.2 4.1 -17.3 3.7 C-13.9 2.8 -10.5 2 -7.1 1.3 C-5.5 0.9 -3.9 0.6 -2.3 0.3 C-1.6 0.2 -0.8 0.1 0 0 Z M6 18 C5.2 18.2 4.4 18.3 3.5 18.5 C2.1 18.8 2.1 18.8 0.7 19.1 C-0.4 19.4 -1.5 19.6 -2.6 19.9 C-3.8 20.1 -5 20.4 -6.2 20.7 C-7.5 21 -8.7 21.3 -10 21.6 C-13.5 22.3 -17 23.1 -20.4 23.9 C-24.1 24.8 -27.8 25.6 -31.4 26.4 C-36 27.5 -40.7 28.6 -45.3 29.6 C-55.3 31.9 -65.4 34.2 -75.4 36.5 C-81.3 37.8 -87.2 39.2 -93.2 40.5 C-97.3 41.4 -101.4 42.4 -105.5 43.3 C-109.3 44.2 -113.2 45 -117.1 45.9 C-118.5 46.2 -119.9 46.6 -121.4 46.9 C-124.5 47.6 -127.6 48.3 -130.8 49.1 C-131.8 49.4 -132.9 49.7 -134 50 C-134.9 50.3 -135.9 50.7 -136.8 51 C-138.3 51.7 -139.8 52.4 -141.3 53.1 C-141.9 53.4 -142.4 53.7 -143 54 C-144.1 54.9 -144.1 54.9 -145.2 55.8 C-145.6 56.4 -146 57 -146.5 57.6 C-147.2 58.4 -147.2 58.4 -147.9 59.3 C-148.3 59.9 -148.6 60.4 -149 61 C-149.3 62 -149.7 63 -150 64 C-150.1 65.1 -150.1 65.1 -150.2 66.3 C-150.2 68 -150.2 69.8 -150.2 71.5 C-150.1 72.3 -150.1 73.2 -150 74 C-149.6 75.1 -149.3 76.1 -148.9 77.2 C-148.3 78.2 -147.7 79.1 -147 80 C-146.5 80.5 -146 81.1 -145.6 81.6 C-144.5 82.7 -143.4 83.7 -142.3 84.7 C-141.5 85.1 -140.8 85.6 -140 86 C-138.8 86.5 -137.6 86.9 -136.4 87.4 C-135.6 87.6 -134.8 87.7 -134 87.9 C-133 87.9 -132 88 -131 88 C-129.1 87.7 -129.1 87.7 -127.1 87.5 C-124.9 87 -122.6 86.5 -120.4 86 C-118 85.5 -115.6 84.9 -113.2 84.3 C-111.7 83.9 -110.1 83.6 -108.5 83.2 C-102.7 81.9 -96.9 80.5 -91.2 79.1 C-90 78.8 -88.9 78.5 -87.7 78.3 C-86.7 78 -85.8 77.8 -84.8 77.5 C-83.8 77.4 -82.9 77.2 -82 77 C-81 76.9 -80 76.8 -79 76.7 C-77.3 76.7 -75.7 76.6 -74 76.6 C-73.4 76.7 -72.7 76.9 -72 77 C-71.4 77.4 -70.9 77.8 -70.3 78.3 C-69.9 78.9 -69.4 79.4 -69 80 C-68.5 81.9 -68.5 81.9 -68.1 83.8 C-68 84.5 -67.8 85.1 -67.7 85.8 C-67.8 86.5 -67.9 87.2 -68 88 C-68.5 88.9 -69.1 89.8 -69.6 90.8 C-70.8 92.4 -70.8 92.4 -72 94 C-72.4 94.6 -72.8 95.2 -73.3 95.8 C-74.7 97.7 -76.1 99.6 -77.6 101.5 C-78.1 102.2 -78.6 102.9 -79.2 103.6 C-83 108.7 -86.9 113.7 -90.8 118.6 C-94.4 123.2 -98 127.9 -101.5 132.5 C-105.5 137.8 -109.6 143.1 -113.8 148.3 C-117 152.4 -120.2 156.6 -123.3 160.8 C-128.3 167.4 -133.4 174 -138.6 180.6 C-143.1 186.4 -147.5 192.2 -152 198 C-153.6 200.1 -155.2 202.2 -156.8 204.2 C-159.6 207.9 -162.4 211.5 -165.1 215.1 C-170.2 221.7 -175.2 228.3 -180.4 234.8 C-184.9 240.5 -189.2 246.2 -193.5 252 C-198.2 258.3 -203 264.6 -207.9 270.9 C-212 276 -216 281.2 -220 286.4 C-223.9 291.6 -227.9 296.7 -231.9 301.8 C-237.5 309.1 -243.1 316.4 -248.6 323.8 C-252.6 329.1 -256.6 334.4 -260.7 339.6 C-265.7 345.8 -270.4 352.1 -275.3 358.5 C-276.5 360.1 -277.8 361.8 -279.1 363.5 C-280.4 365.2 -281.7 366.9 -282.9 368.6 C-283.5 369.4 -284.2 370.2 -284.8 371 C-285.3 371.7 -285.9 372.5 -286.4 373.2 C-287 373.8 -287.5 374.4 -288 375 C-289 375.7 -290 376.3 -291 377 C-292.3 377.1 -293.6 377.3 -294.9 377.4 C-295.5 377.5 -296.2 377.5 -296.9 377.6 C-297.9 377.3 -297.9 377.3 -299 377 C-299.8 376.3 -300.6 375.7 -301.4 375 C-302.8 373.4 -304.1 371.8 -305.5 370.2 C-307.2 368.1 -308.8 366 -310.4 363.9 C-311 363.1 -311.7 362.3 -312.3 361.5 C-317.2 355.1 -322 348.6 -326.8 342 C-332.2 334.7 -337.7 327.5 -343.3 320.3 C-352.3 308.5 -361.3 296.6 -370.1 284.6 C-374.3 279 -378.5 273.4 -382.8 267.8 C-384.2 266 -385.6 264.2 -387 262.4 C-388.1 260.9 -389.3 259.4 -390.4 257.9 C-391.2 256.9 -391.2 256.9 -392 256 C-392.5 255.5 -393 255 -393.5 254.4 C-394 254 -394.5 253.5 -395 253.1 C-396 252.4 -397 251.7 -398 251 C-399.1 250.5 -400.1 250.1 -401.2 249.6 C-402.5 249.4 -403.7 249.2 -405 249 C-405.8 249 -406.6 249 -407.4 248.9 C-408.6 249 -408.6 249 -409.9 249.1 C-410.8 249.2 -411.6 249.3 -412.5 249.4 C-413.3 249.6 -414.2 249.8 -415 250 C-416 250.4 -416 250.4 -417.1 250.8 C-417.7 251.1 -418.4 251.5 -419.1 251.8 C-419.7 252.3 -420.4 252.7 -421 253.2 C-421.7 253.8 -422.3 254.4 -423 255 C-424 256.2 -424 256.2 -425.1 257.4 C-426.6 259.4 -428.1 261.5 -429.6 263.5 C-430.4 264.7 -431.2 265.8 -432 267 C-432.4 267.6 -432.8 268.2 -433.3 268.8 C-435.1 271.4 -436.9 274 -438.6 276.7 C-442.2 281.8 -445.8 286.9 -449.5 292 C-454.1 298.3 -458.5 304.6 -462.9 311 C-467.7 318 -472.6 325 -477.5 331.9 C-480 335.4 -482.4 338.8 -484.9 342.3 C-485.4 343 -485.9 343.7 -486.4 344.4 C-490.3 349.9 -494.1 355.5 -498 361 C-503.8 369.3 -509.7 377.6 -515.5 385.9 C-517 388 -518.5 390.1 -520 392.2 C-520.7 393.3 -520.7 393.3 -521.5 394.4 C-522.5 395.8 -523.5 397.2 -524.5 398.6 C-527.1 402.3 -529.7 406 -532.4 409.7 C-533.2 410.8 -533.2 410.8 -534 412 C-535.1 413.5 -536.1 414.9 -537.2 416.4 C-538.1 417.7 -539 419 -539.9 420.3 C-540.4 421.1 -540.4 421.1 -541 422 C-541.4 422.9 -541.9 423.7 -542.3 424.6 C-542.5 425.4 -542.8 426.2 -543 427 C-543.1 427.9 -543.2 428.9 -543.3 429.8 C-543.3 430.8 -543.4 431.8 -543.4 432.8 C-543.4 433.9 -543.3 434.9 -543.3 436 C-543.2 437 -543.1 438 -543 439 C-542.7 440.2 -542.7 440.2 -542.4 441.3 C-542.1 442 -541.8 442.7 -541.5 443.4 C-541.1 444 -540.8 444.6 -540.4 445.2 C-539.9 445.8 -539.5 446.4 -539 447 C-538.4 447.6 -537.8 448.2 -537.2 448.8 C-536.5 449.3 -535.9 449.8 -535.2 450.4 C-534.1 451.1 -534.1 451.1 -533.1 451.8 C-532.4 452.2 -531.7 452.6 -531 453 C-529.3 453.7 -529.3 453.7 -527.6 454.4 C-526.4 454.6 -525.2 454.8 -524 455 C-523.3 455 -522.6 455 -521.8 455.1 C-520.7 455 -520.7 455 -519.6 454.9 C-518.8 454.8 -518 454.7 -517.2 454.6 C-516.5 454.4 -515.8 454.2 -515 454 C-514.3 453.8 -513.7 453.5 -513 453.3 C-512.4 452.9 -511.7 452.6 -511.1 452.2 C-510.4 451.8 -509.8 451.3 -509.1 450.9 C-508.4 450.3 -507.7 449.6 -507 449 C-506.2 448.1 -505.5 447.3 -504.7 446.4 C-503.4 444.8 -502.2 443.2 -501 441.6 C-499.6 439.7 -498.3 437.9 -497 436 C-496.5 435.3 -496.1 434.7 -495.6 434 C-493.1 430.5 -490.6 427 -488.1 423.5 C-485 419 -481.8 414.5 -478.6 410.1 C-478 409.3 -477.5 408.6 -476.9 407.8 C-475.8 406.3 -474.7 404.8 -473.6 403.3 C-470.9 399.5 -468.2 395.8 -465.5 392 C-462.2 387.5 -458.9 382.9 -455.6 378.4 C-454.5 376.8 -453.4 375.3 -452.3 373.8 C-451.5 372.6 -451.5 372.6 -450.7 371.5 C-447.4 367 -444.2 362.5 -441.1 358.1 C-436.6 351.7 -432 345.5 -427.3 339.3 C-424.9 336.1 -422.6 332.8 -420.3 329.5 C-419.7 328.7 -419.2 327.9 -418.6 327.1 C-418.1 326.3 -417.5 325.5 -417 324.7 C-416 323.2 -415 321.7 -414 320.3 C-413.5 319.6 -413.1 318.9 -412.6 318.2 C-412.2 317.7 -411.7 317.1 -411.3 316.5 C-410.9 316 -410.4 315.5 -410 315 C-409.1 314.5 -408.2 314 -407.3 313.5 C-406.6 313.4 -405.8 313.2 -405 313 C-404 313 -403 313 -402 313.1 C-401 313.4 -400 313.7 -399 314 C-397.9 315 -397.9 315 -396.7 316.1 C-395.8 317 -394.9 318 -394 319 C-392.4 320.9 -390.9 322.8 -389.4 324.8 C-388.8 325.5 -388.3 326.2 -387.7 327 C-386.8 328.2 -386.8 328.2 -385.9 329.4 C-380.5 336.3 -375.2 343.2 -370 350.2 C-365.1 356.6 -360.1 363.1 -355.1 369.5 C-349.5 376.6 -344.1 383.7 -338.6 390.9 C-335.9 394.4 -333.2 398 -330.5 401.5 C-329.4 402.9 -328.3 404.3 -327.2 405.8 C-325.1 408.5 -323 411.3 -320.9 414.1 C-320.1 415.1 -320.1 415.1 -319.3 416.2 C-318.2 417.6 -317.2 418.9 -316.1 420.3 C-313 424.4 -309.9 428.5 -306.9 432.6 C-306.2 433.5 -305.5 434.5 -304.7 435.4 C-303.4 437.3 -302 439.1 -300.6 441 C-299.4 442.6 -298.1 444.3 -296.8 445.9 C-296.2 446.6 -295.6 447.3 -295 448 C-294.4 448.5 -293.8 449.1 -293.1 449.7 C-292.2 450.3 -292.2 450.3 -291.3 451 C-290.2 451.7 -289.1 452.3 -288 453 C-287.2 453.3 -286.3 453.7 -285.4 454 C-283.8 454.3 -282.2 454.6 -280.5 454.8 C-279.3 454.9 -279.3 454.9 -278 455 C-277.2 455 -276.4 454.9 -275.6 454.9 C-274.5 454.7 -274.5 454.7 -273.4 454.6 C-272.3 454.3 -272.3 454.3 -271.3 454 C-270.5 453.6 -269.8 453.3 -269 453 C-268.4 452.5 -267.7 452.1 -267 451.6 C-265.7 450.4 -264.3 449.2 -263 448 C-262.3 447.3 -261.7 446.7 -261 446 C-260.5 445.4 -259.9 444.7 -259.4 444.1 C-258.4 442.7 -257.4 441.3 -256.4 440 C-255.9 439.2 -255.4 438.4 -254.9 437.6 C-254 436.4 -254 436.4 -253.1 435.1 C-251.1 432.1 -249 429 -247 426 C-246.6 425.4 -246.2 424.8 -245.8 424.2 C-241.6 418 -237.5 411.7 -233.3 405.5 C-225.7 394 -217.9 382.5 -210.1 371.1 C-207.8 367.7 -205.5 364.4 -203.3 361 C-202.1 359.3 -200.9 357.5 -199.8 355.8 C-198.7 354.2 -197.5 352.5 -196.4 350.9 C-195.4 349.4 -195.4 349.4 -194.4 347.9 C-193.8 347 -193.2 346.1 -192.6 345.2 C-192.1 344.5 -191.6 343.8 -191 343 C-190.5 342.4 -190 341.8 -189.5 341.2 C-188.7 340.6 -188.7 340.6 -188 340 C-187.1 339.7 -186.1 339.4 -185.2 339.1 C-183.6 339.1 -183.6 339.1 -182 339 C-181.1 339.3 -180.2 339.6 -179.2 340 C-178.1 340.6 -177.1 341.3 -176 342 C-175.5 342.6 -175 343.1 -174.4 343.7 C-173.4 345.1 -172.3 346.6 -171.3 348 C-170.7 348.8 -170.1 349.6 -169.6 350.4 C-168.3 352.2 -167.1 353.9 -165.8 355.6 C-165.2 356.5 -164.6 357.4 -163.9 358.3 C-160.9 362.6 -157.7 366.8 -154.5 371 C-149.5 377.6 -144.6 384.3 -139.7 390.9 C-135.1 397.2 -130.4 403.4 -125.6 409.6 C-121.8 414.6 -118.1 419.7 -114.3 424.8 C-109.1 431.9 -103.8 439 -98.5 446 C-95.9 449.4 -93.4 452.8 -90.8 456.2 C-89.8 457.6 -88.8 458.9 -87.8 460.2 C-80.3 470.2 -80.3 470.2 -78.1 473.2 C-76.7 475 -75.3 476.9 -73.9 478.7 C-69.2 485.1 -64.4 491.5 -59.7 497.9 C-59.1 498.7 -58.5 499.5 -57.9 500.3 C-56.2 502.5 -54.6 504.8 -53 507 C-52.6 507.6 -52.1 508.2 -51.7 508.8 C-51.3 509.3 -51 509.8 -50.6 510.3 C-50.1 511.2 -49.5 512.1 -49 513 C-48.8 514.2 -48.7 515.4 -48.5 516.6 C-48.7 517.7 -48.8 518.8 -49 520 C-49.7 521.5 -49.7 521.5 -50.4 522.9 C-51.3 523.6 -52.1 524.3 -53 525 C-53.6 525.1 -54.2 525.2 -54.8 525.3 C-55.5 525.3 -56.3 525.3 -57 525.4 C-57.8 525.3 -58.6 525.3 -59.4 525.3 C-60.3 525.2 -61.1 525.1 -62 525 C-62.8 524.8 -63.7 524.6 -64.6 524.3 C-66.4 523.7 -68.1 523.1 -69.9 522.4 C-71.4 521.9 -71.4 521.9 -72.8 521.3 C-73.8 520.9 -74.8 520.6 -75.9 520.2 C-79.1 519 -82.2 517.8 -85.4 516.6 C-88.6 515.4 -91.8 514.1 -95 513 C-97 512.2 -99 511.5 -100.9 510.7 C-102.7 510 -104.5 509.4 -106.4 508.8 C-107.2 508.5 -108.1 508.3 -109 508 C-109.9 507.8 -110.9 507.7 -111.8 507.5 C-113.5 507.3 -115.2 507.2 -116.9 507 C-117.6 507 -118.3 507 -119 507 C-119.9 507.2 -120.9 507.4 -121.8 507.6 C-123.2 508.3 -124.7 509 -126.1 509.8 C-126.7 510.2 -127.4 510.6 -128 511 C-129.2 512.2 -129.2 512.2 -130.4 513.5 C-131.3 514.9 -132.2 516.4 -133.1 517.8 C-133.4 518.5 -133.7 519.3 -134 520 C-134.1 521.3 -134.1 521.3 -134.3 522.6 C-134.3 524.5 -134.3 526.4 -134.2 528.3 C-134.2 529.2 -134.1 530.1 -134 531 C-133.6 532.1 -133.3 533.2 -132.9 534.4 C-132.3 535.2 -131.6 536.1 -131 537 C-130.1 537.8 -129.3 538.6 -128.4 539.4 C-127.9 539.9 -127.3 540.3 -126.8 540.8 C-126.2 541.2 -125.6 541.6 -125 542 C-124.4 542.3 -123.8 542.6 -123.2 542.9 C-121.9 543.5 -120.5 544.1 -119.1 544.6 C-118.4 544.9 -117.6 545.2 -116.8 545.5 C-115.9 545.8 -115.1 546.2 -114.2 546.5 C-111.1 547.7 -108.1 548.8 -105 550 C-103.9 550.4 -102.7 550.9 -101.5 551.3 C-96.2 553.3 -90.8 555.3 -85.4 557.3 C-72 562.2 -58.7 567.2 -45.4 572.2 C-38.2 574.9 -30.9 577.7 -23.7 580.4 C-17.9 582.5 -12.1 584.7 -6.3 586.9 C-3.4 588 -0.6 589.1 2.2 590.1 C4 590.8 5.8 591.5 7.6 592.2 C9.5 592.9 11.5 593.6 13.5 594.3 C14.3 594.5 15.2 594.8 16 595 C16.7 595.1 17.4 595.2 18.1 595.3 C18.7 595.3 19.4 595.3 20 595.4 C21.5 595.2 21.5 595.2 23 595 C23.7 594.8 24.5 594.6 25.3 594.4 C25.9 594.1 26.5 593.8 27.1 593.5 C27.7 593.1 28.4 592.8 29 592.4 C29.7 592 30.3 591.5 31 591 C31.7 590.2 31.7 590.2 32.5 589.3 C32.9 588.7 33.3 588 33.7 587.4 C34.3 586.3 34.3 586.3 35 585.2 C35.3 584.5 35.7 583.8 36 583 C36.1 582.3 36.3 581.6 36.4 580.9 C36.5 580.3 36.5 579.6 36.6 578.9 C36.6 577.4 36.6 575.9 36.5 574.4 C36.5 573.6 36.5 572.7 36.5 571.9 C36.5 569.1 36.4 566.4 36.4 563.6 C36.3 561.6 36.3 559.6 36.3 557.6 C36.2 553.4 36.2 549.1 36.1 544.8 C36 537.9 35.9 531 35.9 524.1 C35.8 513.2 35.6 502.3 35.5 491.4 C35.4 485.2 35.3 478.9 35.2 472.7 C35.2 466.5 35.1 460.4 35 454.2 C34.9 451.9 34.9 449.6 34.9 447.2 C34.9 444 34.8 440.8 34.8 437.6 C34.8 436.7 34.7 435.7 34.7 434.8 C34.7 433.9 34.7 433 34.7 432.1 C34.6 431.3 34.5 430.4 34.5 429.6 C34.3 428.7 34.2 427.9 34 427 C33.7 426.1 33.3 425.2 32.9 424.2 C32.5 423.3 32.1 422.4 31.6 421.5 C31.2 420.7 30.8 419.9 30.4 419.1 C29.9 418.4 29.5 417.7 29 417 C28.5 416.5 28 416 27.5 415.5 C26.9 415.2 26.4 414.8 25.9 414.4 C24.9 414 24 413.5 23 413 C22 412.7 21 412.3 20 412 C19.3 411.9 18.7 411.8 18 411.8 C17.3 411.7 16.6 411.7 15.8 411.7 C15 411.7 14.2 411.7 13.4 411.7 C12.6 411.8 11.8 411.9 11 412 C9.9 412.3 9.9 412.3 8.8 412.6 C7.8 413.1 7.8 413.1 6.8 413.6 C6.1 413.9 5.5 414.3 4.8 414.7 C4.2 415.1 3.6 415.5 3 416 C2.5 416.6 2 417.1 1.4 417.7 C1 418.3 0.5 418.9 0.1 419.5 C-0.5 420.4 -0.5 420.4 -1.1 421.2 C-1.4 421.8 -1.7 422.4 -2 423 C-2.2 423.6 -2.4 424.2 -2.6 424.8 C-2.7 425.5 -2.8 426.2 -3 427 C-3 427.9 -3.1 428.7 -3.1 429.6 C-3.1 430.7 -3.1 431.7 -3 432.7 C-3 434.4 -3 434.4 -3 436.2 C-3 437.4 -2.9 438.6 -2.9 439.9 C-2.9 442.5 -2.9 445.1 -2.8 447.7 C-2.8 451.8 -2.8 455.9 -2.7 460.1 C-2.6 464 -2.6 468 -2.5 472 C-2.5 473.2 -2.5 474.4 -2.5 475.7 C-2.5 476.8 -2.5 478 -2.4 479.2 C-2.5 480.2 -2.5 481.3 -2.6 482.3 C-2.7 483.2 -2.9 484.1 -3 485 C-3.3 485.6 -3.7 486.2 -4.1 486.9 C-4.5 487.3 -4.9 487.8 -5.4 488.3 C-6.2 488.8 -7.1 489.4 -8 490 C-8.8 490.3 -9.6 490.7 -10.4 491 C-11.3 491 -12.1 491 -13 491 C-14 490.6 -14.9 490.2 -15.9 489.8 C-17.4 488.9 -17.4 488.9 -19 488 C-19.7 487.2 -20.5 486.4 -21.2 485.6 C-22.3 484.1 -22.3 484.1 -23.4 482.6 C-24.2 481.5 -25.1 480.3 -26 479.1 C-26.4 478.5 -26.9 477.8 -27.4 477.2 C-29.9 473.8 -32.5 470.5 -35 467.1 C-40.4 460 -45.8 452.9 -51 445.7 C-58.2 435.9 -65.5 426.3 -72.9 416.7 C-78.6 409.2 -84.2 401.7 -89.7 394.2 C-94.1 388.2 -98.5 382.4 -103 376.5 C-108.7 369.1 -114.2 361.7 -119.7 354.2 C-124.1 348.2 -128.5 342.4 -133 336.5 C-139.3 328.2 -145.6 319.9 -151.7 311.5 C-153.3 309.2 -155 307 -156.7 304.8 C-157.5 303.8 -157.5 303.8 -158.3 302.8 C-158.8 302.1 -159.4 301.4 -159.9 300.7 C-160.8 299.5 -161.8 298.3 -162.8 297.1 C-163.2 296.5 -163.6 296 -164.1 295.4 C-164.7 294.3 -165.3 293.2 -166 292 C-166.1 291.3 -166.3 290.7 -166.4 290 C-166.4 289.3 -166.5 288.6 -166.5 287.9 C-166.3 286.6 -166.2 285.3 -166 284 C-165.6 283.1 -165.1 282.3 -164.7 281.4 C-163.8 280.2 -163.8 280.2 -162.8 279 C-162.1 278.1 -161.4 277.1 -160.6 276.2 C-159.7 275.1 -158.9 274.1 -158 273 C-157 271.7 -155.9 270.5 -154.9 269.2 C-152.7 266.5 -150.5 263.7 -148.2 261 C-145.4 257.5 -142.6 254 -139.9 250.4 C-132 240.1 -124 230 -115.8 220 C-110.5 213.4 -105.2 206.7 -100 200 C-94.2 192.6 -88.4 185.2 -82.4 177.9 C-78.5 173.2 -74.7 168.3 -70.9 163.4 C-66.9 158.1 -62.7 152.9 -58.5 147.7 C-55.1 143.4 -51.7 139 -48.2 134.7 C-47.4 133.5 -46.5 132.4 -45.6 131.2 C-43.9 129.1 -42.3 127 -40.6 124.9 C-39.9 124 -39.2 123.1 -38.4 122.2 C-37.8 121.4 -37.2 120.6 -36.6 119.8 C-36 119.2 -35.5 118.6 -35 118 C-34.3 117.7 -33.7 117.3 -33 117 C-31 116.9 -29 116.9 -27 116.9 C-26.3 116.9 -25.7 117 -25 117 C-24 117.3 -23 117.7 -22 118 C-21.7 119 -21.3 120 -21 121 C-20.9 122.7 -20.9 122.7 -20.8 124.5 C-20.8 125.9 -20.8 127.4 -20.8 128.8 C-20.8 129.6 -20.8 130.4 -20.8 131.2 C-20.9 133.8 -20.9 136.4 -21 139 C-21.2 142.6 -21.5 146.2 -21.8 149.8 C-21.8 150.8 -21.9 151.7 -22 152.6 C-22.3 156.4 -22.6 160.2 -22.9 163.9 C-23.2 166.7 -23.4 169.5 -23.6 172.3 C-23.7 173.2 -23.8 174 -23.9 174.9 C-23.9 175.7 -24 176.5 -24.1 177.3 C-24.1 178.1 -24.1 178.9 -24.1 179.7 C-24.1 180.4 -24 181.2 -24 182 C-23.8 182.8 -23.6 183.6 -23.4 184.5 C-23 185.7 -23 185.7 -22.6 186.9 C-22.2 188 -22.2 188 -21.8 189.1 C-21.4 190 -21.4 190 -21 191 C-20.1 192.4 -20.1 192.4 -19.2 193.9 C-18.5 194.6 -17.7 195.3 -17 196 C-16.1 196.6 -15.3 197.2 -14.4 197.8 C-12.7 198.4 -12.7 198.4 -11 199 C-10.2 199.2 -9.5 199.4 -8.7 199.5 C-7.4 199.7 -7.4 199.7 -6.1 199.9 C-5.3 200 -4.4 200.1 -3.5 200.1 C-2.7 200.1 -1.9 200 -1 200 C-0.3 199.8 0.5 199.6 1.2 199.4 C1.9 199.1 2.6 198.8 3.2 198.5 C3.9 198.1 4.5 197.7 5.2 197.3 C5.8 196.9 6.4 196.5 7 196 C7.6 195.5 8.2 195.1 8.8 194.6 C9.3 194.1 9.8 193.5 10.4 193 C10.8 192.4 11.3 191.8 11.7 191.2 C12.4 190.1 12.4 190.1 13 189 C13.2 188.2 13.4 187.3 13.7 186.5 C14.1 183.3 14.6 180.2 15 177 C15.5 172.5 15.8 168.1 16.1 163.6 C16.2 162.3 16.3 161.1 16.4 159.7 C16.7 156.3 17 152.8 17.2 149.3 C17.5 145.7 17.8 142 18 138.3 C18.5 132.2 19 126.1 19.4 119.9 C19.9 112.9 20.5 105.8 21 98.7 C21.5 91.9 22 85 22.6 78.2 C22.8 75.3 23 72.4 23.2 69.5 C23.5 65.5 23.8 61.4 24.1 57.4 C24.2 56.2 24.3 55 24.4 53.8 C24.6 50.5 24.8 47.3 25 44 C25.1 40.9 25.2 37.7 25.2 34.6 C25.1 33.7 25.1 32.9 25 32 C24.7 31.2 24.5 30.4 24.2 29.5 C23.9 28.9 23.6 28.2 23.3 27.5 C22.9 26.9 22.6 26.3 22.2 25.6 C21.6 24.8 21.6 24.8 21 24 C20.2 23.2 19.4 22.4 18.6 21.6 C17.8 21.1 16.9 20.6 16 20 C15 19.6 14 19.2 12.9 18.8 C12 18.5 11 18.3 10 18 C8.7 18 7.4 18 6 18 Z " transform="translate(766,205)" fill="currentColor" />
</svg>
